<!-- Generated by IcoMoon.io -->
<svg version="1.1" xmlns="http://www.w3.org/2000/svg" width="32" height="32" viewBox="0 0 32 32">
<title>a-lowercase</title>
<path d="M26.733 28.086c-0.12-0.762-0.241-1.525-0.362-2.287-0.055-0.343-0.109-0.686-0.164-1.029-0.057-0.353-0.157-0.722-0.156-1.081 0.007-1.585 0.012-3.17 0.014-4.755 0.003-1.611 0.001-3.223 0-4.833-0-0.701 0.013-1.404-0.007-2.105-0.052-1.739-0.456-3.457-1.272-5-0.959-1.814-2.473-3.329-4.345-4.189-1.527-0.702-3.197-0.905-4.859-0.752-2.172 0.201-4.293 0.866-6.303 1.693-0.934 0.385-1.854 0.813-2.743 1.293-0.037 0.020-0.437 0.231-0.432 0.241 0.039 0.077 0.077 0.154 0.116 0.232 0.456 0.912 0.912 1.825 1.369 2.737 0.152 0.303 0.303 0.606 0.455 0.909 0.035 0.071 0.179-0.031 0.238-0.054 0.197-0.077 0.394-0.152 0.592-0.227 1.375-0.525 2.781-0.991 4.209-1.352 1.18-0.298 2.382-0.521 3.602-0.528-0.008 0-0.015 0-0.023 0 0.959 0.027 1.854 0.345 2.574 0.99 0.767 0.687 1.27 1.643 1.517 2.634 0.101 0.405 0.161 0.82 0.181 1.237 0.003 0.077 0.007 0.153 0.007 0.23 0.001 0.073 0.027 0.102-0.052 0.106-0.128 0.005-0.257 0.010-0.385 0.015-1.051 0.044-2.102 0.1-3.151 0.179-1.077 0.081-2.159 0.167-3.223 0.355-1.084 0.192-2.152 0.486-3.176 0.892-1.993 0.79-3.824 2.037-5.108 3.773-1.262 1.707-1.898 3.788-1.951 5.901-0.038 1.506 0.386 3.025 1.314 4.258 1.327 1.762 3.461 2.75 5.626 2.953 1.862 0.174 3.638-0.255 5.299-1.076 1.898-0.937 3.604-2.266 5.067-3.788 0.267 1.554 0.542 3.107 0.819 4.66 0.016 0.091-0 0.096 0.085 0.081 0.127-0.021 0.253-0.042 0.38-0.063 0.473-0.079 0.947-0.158 1.421-0.237 0.959-0.16 1.919-0.32 2.878-0.48 0.061-0.010 0.121-0.020 0.182-0.030 0.007-0.001-0.045-0.309-0.048-0.331-0.061-0.391-0.122-0.781-0.183-1.172zM20.822 19.276c-0.681 1.695-2.071 3.114-3.488 4.221-1.304 1.018-2.797 1.895-4.424 2.258 0.063-0.016-0.013 0-0.027 0.003-0.094 0.019-0.191 0.029-0.287 0.037-0.278 0.023-0.559 0.012-0.836-0.028-0.513-0.075-1.016-0.25-1.46-0.519-0.644-0.39-1.171-1.003-1.188-1.784-0.010-0.852 0.12-1.713 0.485-2.49 0.453-0.964 1.22-1.725 2.102-2.304 1.339-0.878 2.897-1.349 4.457-1.644 1.585-0.299 3.183-0.528 4.779-0.761-0 0.493-0.001 0.987-0.001 1.481 0 0.217 0.001 0.433 0.001 0.649 0 0.151 0 0.302 0.001 0.453 0 0.156-0.055 0.281-0.114 0.428-0.172 0.428 0.044-0.111 0 0z"></path>
</svg>
