<?xml version="1.0" encoding="utf-8"?>
<!-- Generator: Adobe Illustrator 17.0.1, SVG Export Plug-In . SVG Version: 6.00 Build 0)  -->
<!DOCTYPE svg PUBLIC "-//W3C//DTD SVG 1.1//EN" "http://www.w3.org/Graphics/SVG/1.1/DTD/svg11.dtd">
<svg version="1.1" id="Layer_1" xmlns="http://www.w3.org/2000/svg" xmlns:xlink="http://www.w3.org/1999/xlink" x="0px" y="0px"
	 width="1024px" height="1024px" viewBox="0 0 1024 1024" enable-background="new 0 0 1024 1024" xml:space="preserve">
<path d="M855.44,898.76c-3.85-24.4-7.7-48.8-11.58-73.19c-1.75-10.97-3.49-21.95-5.26-32.92c-1.83-11.31-5.04-23.1-4.99-34.59
	c0.22-50.72,0.37-101.45,0.45-152.17c0.08-51.56,0.02-103.12,0-154.67c-0.01-22.43,0.43-44.93-0.23-67.35
	c-1.65-55.65-14.59-110.61-40.69-160c-30.69-58.05-79.14-106.52-139.05-134.05c-48.87-22.46-102.32-28.97-155.48-24.05
	c-69.5,6.44-137.39,27.71-201.68,54.18c-29.9,12.31-59.34,26-87.79,41.38c-1.19,0.65-13.97,7.4-13.81,7.72
	c1.24,2.47,2.47,4.94,3.71,7.41c14.6,29.2,29.2,58.39,43.8,87.59c4.85,9.7,9.7,19.4,14.55,29.1c1.13,2.27,5.73-1,7.6-1.73
	c6.3-2.45,12.62-4.86,18.93-7.27c44.01-16.81,88.98-31.72,134.68-43.26c37.77-9.54,76.22-16.66,115.27-16.89
	c-0.25,0-0.49,0-0.74,0.01c30.7,0.88,59.34,11.03,82.38,31.67c24.53,21.98,40.64,52.56,48.54,84.28
	c3.22,12.95,5.16,26.25,5.78,39.58c0.11,2.45,0.21,4.91,0.23,7.37c0.02,2.34,0.85,3.28-1.67,3.38c-4.11,0.16-8.21,0.32-12.32,0.49
	c-33.64,1.41-67.27,3.2-100.84,5.72c-34.45,2.58-69.09,5.33-103.14,11.35c-34.69,6.14-68.88,15.55-101.64,28.54
	c-63.78,25.28-122.38,65.18-163.46,120.74c-40.37,54.61-60.73,121.23-62.42,188.82c-1.2,48.19,12.35,96.8,42.05,136.26
	c42.45,56.4,110.76,88.01,180.04,94.5c59.57,5.58,116.4-8.17,169.57-34.42c60.73-29.98,115.32-72.5,162.13-121.23
	c8.55,49.74,17.35,99.44,26.2,149.13c0.52,2.91-0.01,3.06,2.73,2.6c4.05-0.68,8.11-1.35,12.16-2.03c15.15-2.53,30.3-5.05,45.46-7.58
	c30.7-5.12,61.4-10.23,92.11-15.35c1.94-0.32,3.88-0.65,5.81-0.97c0.21-0.04-1.44-9.89-1.55-10.59
	C859.33,923.77,857.38,911.27,855.44,898.76z M666.3,616.83c-21.78,54.24-66.26,99.64-111.63,135.06
	c-41.74,32.58-89.51,60.63-141.58,72.27c2-0.52-0.42,0.01-0.86,0.08c-3.02,0.6-6.12,0.93-9.19,1.19
	c-8.91,0.73-17.89,0.38-26.74-0.91c-16.43-2.39-32.51-7.99-46.72-16.6c-20.6-12.48-37.47-32.08-38-57.1
	c-0.31-27.27,3.84-54.83,15.51-79.67c14.48-30.84,39.03-55.19,67.26-73.72c42.85-28.11,92.7-43.17,142.64-52.6
	c50.71-9.58,101.87-16.89,152.93-24.36c-0.01,15.79-0.02,31.59-0.03,47.38c0,6.93,0.02,13.85,0.03,20.78
	c0.01,4.83,0.01,9.66,0.02,14.5C669.94,608.12,668.18,612.13,666.3,616.83C660.79,630.54,667.72,613.28,666.3,616.83z"/>
</svg>
