<svg id="Layer_1" data-name="Layer 1" xmlns="http://www.w3.org/2000/svg" viewBox="0 0 805.74 951.39"><title>add-modul-v2</title><path d="M2016,1364v336.6a244.72,244.72,0,0,0-86.33-15.62c-135.58,0-245.5,109.92-245.5,245.5a244.38,244.38,0,0,0,50.77,149.5H1300V1781.68h14.92l119.32,74.58,74.59-74.58V1662.35l-74.59-74.58-119.32,74.58H1300V1364h298.34l-74.6-134.25,74.6-74.58h119.31l74.59,74.58L1717.66,1364Z" transform="translate(-1300.01 -1155.19)"/><path d="M1929.67,1754.42a176.08,176.08,0,1,0,176.08,176.08A176.09,176.09,0,0,0,1929.67,1754.42Zm120,208.8h-87.28v87.28H1897v-87.28h-87.28v-65.44H1897V1810.5h65.44v87.28h87.28Z" transform="translate(-1300.01 -1155.19)"/></svg>