<!-- Generated by IcoMoon.io -->
<svg version="1.1" xmlns="http://www.w3.org/2000/svg" width="27" height="32" viewBox="0 0 27 32">
<title>add-module</title>
<path d="M24.082 7.023v11.322c-0.859-0.333-1.854-0.525-2.894-0.525-0.004 0-0.007 0-0.011 0h0.001c-4.56 0-8.257 3.697-8.257 8.257 0 0.004 0 0.008 0 0.013 0 1.897 0.642 3.643 1.722 5.034l-0.014-0.019h-14.629v-10.033h0.502l4.013 2.509 2.509-2.509v-4.014l-2.509-2.508-4.013 2.508h-0.502v-10.035h10.035l-2.509-4.516 2.509-2.509h4.013l2.509 2.509-2.508 4.516z"></path>
<path d="M21.179 20.155c-3.271 0-5.922 2.652-5.922 5.922s2.652 5.922 5.922 5.922c3.271 0 5.922-2.652 5.922-5.922v0c-0-3.271-2.652-5.922-5.922-5.922v0zM25.215 27.178h-2.936v2.936h-2.199v-2.936h-2.936v-2.201h2.936v-2.936h2.201v2.936h2.936z"></path>
</svg>
