<?xml version="1.0" encoding="utf-8"?>
<!-- Generator: Adobe Illustrator 17.0.1, SVG Export Plug-In . SVG Version: 6.00 Build 0)  -->
<!DOCTYPE svg PUBLIC "-//W3C//DTD SVG 1.1//EN" "http://www.w3.org/Graphics/SVG/1.1/DTD/svg11.dtd">
<svg version="1.1" id="Layer_1" xmlns="http://www.w3.org/2000/svg" xmlns:xlink="http://www.w3.org/1999/xlink" x="0px" y="0px"
	 width="1024px" height="1024px" viewBox="0 0 1024 1024" enable-background="new 0 0 1024 1024" xml:space="preserve">
<g>
	<path d="M390.47,575.96h117.59l33.53,104.96h72.53L493.77,310.55H407.5L288.81,680.92h69.79L390.47,575.96z M430.03,433.64
		c6.6-21.98,12.09-47.81,17.59-69.24h1.1c5.49,21.43,11.54,46.71,18.68,69.24l29.13,91.22h-95.07L430.03,433.64z"/>
	<rect x="640.47" y="413.31" width="68.15" height="267.61"/>
	<path d="M673.99,374.84c23.62,0,38.46-15.93,38.46-36.27c-0.55-20.88-14.84-36.82-37.92-36.82c-22.53,0-37.91,15.94-37.91,36.82
		C636.63,358.91,651.46,374.84,673.99,374.84z"/>
	<path d="M64,64v896h896V64H64z M896,896H128V128h768V896z"/>
</g>
</svg>
