<!-- Generated by IcoMoon.io -->
<svg version="1.1" xmlns="http://www.w3.org/2000/svg" width="25" height="32" viewBox="0 0 25 32">
<title>android</title>
<path d="M8.8 8.608q0.288 0 0.512-0.192t0.192-0.48-0.192-0.512-0.512-0.192-0.48 0.192-0.192 0.512 0.192 0.48 0.48 0.192zM16.352 8.608q0.288 0 0.48-0.192t0.192-0.48-0.192-0.512-0.48-0.192-0.512 0.192-0.192 0.512 0.192 0.48 0.512 0.192zM1.856 11.904q0.736 0 1.28 0.544t0.512 1.28v7.68q0 0.768-0.512 1.312t-1.28 0.544-1.312-0.544-0.544-1.312v-7.68q0-0.736 0.544-1.28t1.312-0.544zM20.768 12.256v11.872q0 0.832-0.576 1.408t-1.376 0.576h-1.344v4.064q0 0.768-0.512 1.28t-1.312 0.544-1.312-0.544-0.544-1.28v-4.064h-2.464v4.064q0 0.768-0.512 1.28t-1.312 0.544q-0.768 0-1.28-0.544t-0.544-1.28l-0.032-4.064h-1.312q-0.832 0-1.376-0.576t-0.576-1.408v-11.872h16.384zM16.64 5.024q1.888 0.96 3.040 2.72t1.152 3.872h-16.512q0-2.112 1.12-3.872t3.072-2.72l-1.248-2.336q-0.128-0.256 0.064-0.384 0.256-0.096 0.384 0.128l1.28 2.368q1.696-0.768 3.584-0.768t3.584 0.768l1.28-2.368q0.128-0.224 0.352-0.128 0.224 0.128 0.096 0.384zM25.152 13.728v7.68q0 0.768-0.544 1.312t-1.312 0.544q-0.736 0-1.28-0.544t-0.544-1.312v-7.68q0-0.768 0.544-1.28t1.28-0.544q0.768 0 1.312 0.544t0.544 1.28z"></path>
</svg>
