<svg width="16" height="16" viewBox="0 0 16 16" fill="none" xmlns="http://www.w3.org/2000/svg">
<path fill-rule="evenodd" clip-rule="evenodd" d="M11.0975 0C10.6423 0 10.0854 0.144461 9.5536 0.405438C9.00465 0.67481 8.55804 1.04976 8.17825 1.42249C8.16743 1.43311 8.1571 1.44422 8.14729 1.45577C7.52958 2.18325 7.0271 2.92312 7.0271 3.93815V4.31582C6.46342 4.10294 6.06874 4.04369 5.54567 3.99646C4.87243 3.93566 4.0055 3.93245 3.25438 4.38089C2.57676 4.78545 2.19329 5.17214 1.74597 5.80977C1.73799 5.82114 1.73048 5.83284 1.72347 5.84484C1.23702 6.67765 0.999756 7.6215 0.999756 8.66197C0.999756 9.60282 1.25148 10.474 1.55773 11.4454C1.56078 11.4551 1.56413 11.4647 1.56776 11.4741C1.89709 12.3333 2.25297 13.1662 2.72484 13.8587C3.13549 14.4613 3.50538 14.9654 3.91463 15.2495C4.42777 15.7355 5.0788 16 5.64914 16C6.0649 16 6.56895 15.8705 7.05023 15.6381C7.55651 15.4414 7.92339 15.3591 8.2698 15.3591C8.52229 15.3591 8.99319 15.4489 9.36091 15.6288C9.37316 15.6348 9.38565 15.6403 9.39835 15.6452C9.96391 15.8665 10.4697 16 10.8905 16C11.4856 16 12.0418 15.7137 12.4408 15.3234C12.7769 14.9946 13.1319 14.6471 13.5964 13.9655C13.6009 13.9589 13.6053 13.9521 13.6094 13.9453C13.7482 13.7191 13.8773 13.5225 14.0075 13.3241L14.0643 13.2376C14.2132 13.0105 14.3639 12.7777 14.5217 12.5068C14.6053 12.3633 14.6745 12.2326 14.7652 12.0617C14.8149 11.968 14.871 11.862 14.9394 11.7353C15.0042 11.6155 15.0174 11.4744 14.9762 11.3445C14.9349 11.2146 14.8427 11.1072 14.7208 11.0469C14.3003 10.8392 14.0128 10.6956 13.7511 10.4396C13.742 10.4306 13.7325 10.4221 13.7227 10.4138C13.0756 9.87121 12.81 9.26605 12.81 8.44833C12.81 7.88038 12.9302 7.41223 13.1623 7.02313C13.3942 6.63418 13.7568 6.29224 14.292 6.00668C14.4218 5.93739 14.5147 5.81431 14.5458 5.67017C14.5769 5.52604 14.5431 5.37547 14.4535 5.25855C13.6459 4.20512 12.3359 3.99452 11.1064 3.99452C10.878 3.99452 10.5982 4.03003 10.2947 4.09696C10.4081 3.98044 10.5144 3.86389 10.6099 3.75141C11.3091 2.92805 11.5975 1.76619 11.5975 0.855751V0.501346C11.5975 0.22446 11.3736 0 11.0975 0ZM9.99317 1.30606C10.2025 1.20335 10.4059 1.12886 10.5904 1.07941C10.5469 1.77474 10.3035 2.56558 9.84853 3.1014C9.41714 3.60945 8.78901 4.1447 8.42417 4.31784C8.31105 4.37153 8.17076 4.40967 8.0271 4.43593V3.93815C8.0271 3.30469 8.31772 2.80444 8.89392 2.12323C9.23149 1.79376 9.58566 1.50603 9.99317 1.30606ZM3.76598 5.24242C4.23106 4.96476 4.8242 4.93806 5.45597 4.99511C5.94495 5.03926 6.25078 5.08788 6.73841 5.2787C6.74736 5.2822 6.75642 5.28544 6.76555 5.28842C7.0676 5.38692 7.22751 5.46125 7.34595 5.51967L7.3953 5.54431C7.50343 5.59864 7.63207 5.66326 7.8065 5.71259C8.19688 5.82298 8.72148 5.75431 9.45371 5.4269C10.1006 5.13766 10.7596 4.99721 11.1064 4.99721C12.0101 4.99721 12.7349 5.12481 13.2504 5.48046C12.857 5.77111 12.54 6.11279 12.304 6.50859C11.9627 7.08089 11.81 7.7344 11.81 8.44833C11.81 9.54737 12.1953 10.434 13.0668 11.1709C13.3083 11.4041 13.5646 11.5713 13.8184 11.7111C13.7621 11.817 13.7158 11.9022 13.6582 12.0011C13.5144 12.248 13.3757 12.4625 13.2287 12.6868L13.1729 12.7717C13.0449 12.9667 12.9091 13.1735 12.7641 13.4095C12.3587 14.0028 12.0603 14.2947 11.7433 14.6048L11.7424 14.6057C11.4862 14.8563 11.1689 14.9973 10.8905 14.9973C10.6587 14.9973 10.2966 14.9189 9.7798 14.7181C9.2776 14.477 8.6673 14.3564 8.2698 14.3564C7.74679 14.3564 7.24474 14.4857 6.6685 14.7111C6.6558 14.7161 6.64331 14.7216 6.63105 14.7276C6.24457 14.9166 5.883 14.9973 5.64914 14.9973C5.35866 14.9973 4.93414 14.8465 4.57878 14.4989C4.55534 14.4759 4.5297 14.4554 4.50224 14.4374C4.27329 14.2881 3.99928 13.9515 3.5505 13.293C3.15106 12.7068 2.83061 11.9727 2.50664 11.1286C2.20132 10.1593 1.99976 9.42647 1.99976 8.66197C1.99976 7.7875 2.19572 7.02797 2.57605 6.36935C2.9494 5.83981 3.23317 5.56053 3.76598 5.24242Z" fill="black"/>
</svg>
