<?xml version="1.0" encoding="utf-8"?>
<!-- Generator: Adobe Illustrator 18.1.1, SVG Export Plug-In . SVG Version: 6.00 Build 0)  -->
<svg version="1.1" id="Layer_1" xmlns="http://www.w3.org/2000/svg" xmlns:xlink="http://www.w3.org/1999/xlink" x="0px" y="0px"
	 viewBox="0 0 1024 1024" enable-background="new 0 0 1024 1024" xml:space="preserve">
<path d="M934.83,451.42c-16.12-38.11-39.18-72.33-68.55-101.7c-29.37-29.37-63.58-52.43-101.7-68.55
	C725.09,264.47,683.17,256,640,256H217.6l86.4-96l-80-80L0,320l224,240l80-80l-86.4-96H640c105.87,0,192,86.13,192,192
	s-86.13,192-192,192H64v128h576c43.17,0,85.09-8.47,124.58-25.17c38.11-16.12,72.33-39.19,101.7-68.55
	c29.37-29.37,52.43-63.58,68.55-101.7C951.53,661.09,960,619.17,960,576S951.53,490.91,934.83,451.42z"/>
</svg>
