<svg width="16" height="16" viewBox="0 0 16 16" fill="none" xmlns="http://www.w3.org/2000/svg">
<g clip-path="url(#clip0)">
<path d="M4.14609 4.15705C3.95103 4.3525 3.95134 4.66909 4.1468 4.86415C4.34226 5.05922 4.65884 5.0589 4.85391 4.86345L8.00076 1.71028L8.00076 14.2912L4.89728 11.1815C4.70221 10.9861 4.38563 10.9858 4.19017 11.1808C3.99471 11.3759 3.9944 11.6925 4.18946 11.8879L8.14679 15.8532C8.24058 15.9472 8.36791 16 8.50069 16C8.63348 16 8.76081 15.9472 8.8546 15.8532L12.8119 11.8879C13.007 11.6925 13.0067 11.3759 12.8112 11.1808C12.6158 10.9858 12.2992 10.9861 12.1041 11.1815L9.00076 14.2911L9.00076 1.7098L12.1481 4.86345C12.3432 5.0589 12.6597 5.05922 12.8552 4.86415C13.0507 4.66909 13.051 4.3525 12.8559 4.15705L8.85491 0.148022C8.76111 0.0540371 8.63378 0.0012207 8.501 0.0012207C8.36822 0.00122071 8.24089 0.0540371 8.14709 0.148022L4.14609 4.15705Z" fill="black"/>
</g>
<defs>
<clipPath id="clip0">
<rect width="16" height="16" fill="white" transform="translate(0 16) rotate(-90)"/>
</clipPath>
</defs>
</svg>
