<svg width="16" height="16" viewBox="0 0 16 16" fill="none" xmlns="http://www.w3.org/2000/svg">
<g clip-path="url(#clip0)">
<path d="M8.50049 3.9939C8.77663 3.9939 9.00049 4.21775 9.00049 4.4939L9.00049 11.283L10.6426 9.64083C10.8379 9.44557 11.1545 9.44557 11.3497 9.64083C11.545 9.83609 11.545 10.1527 11.3497 10.3479L8.85018 12.8475C8.65492 13.0428 8.33834 13.0428 8.14308 12.8475L5.64352 10.3479C5.44825 10.1527 5.44825 9.83609 5.64352 9.64083C5.83878 9.44557 6.15536 9.44557 6.35062 9.64083L8.00049 11.2907L8.00049 4.4939C8.00049 4.21775 8.22435 3.9939 8.50049 3.9939Z" fill="black"/>
<path fill-rule="evenodd" clip-rule="evenodd" d="M1 8.5C1 4.35786 4.35786 1 8.5 1C12.6421 1 16 4.35786 16 8.5C16 12.6421 12.6421 16 8.5 16C4.35786 16 1 12.6421 1 8.5ZM8.5 2C4.91015 2 2 4.91015 2 8.5C2 12.0899 4.91015 15 8.5 15C12.0899 15 15 12.0899 15 8.5C15 4.91015 12.0899 2 8.5 2Z" fill="black"/>
</g>
<defs>
<clipPath id="clip0">
<rect width="16" height="16" fill="white" transform="translate(0 16) rotate(-90)"/>
</clipPath>
</defs>
</svg>
