<!-- Generated by IcoMoon.io -->
<svg version="1.1" xmlns="http://www.w3.org/2000/svg" width="32" height="32" viewBox="0 0 32 32">
<title>arrow-u-left</title>
<path d="M29.213 14.107c-0.504-1.191-1.224-2.26-2.142-3.178s-1.987-1.638-3.178-2.142c-1.234-0.522-2.544-0.787-3.893-0.787h-13.2l2.7-3-2.5-2.5-7 7.5 7 7.5 2.5-2.5-2.7-3h13.2c3.308 0 6 2.692 6 6s-2.692 6-6 6h-18v4h18c1.349 0 2.659-0.265 3.893-0.787 1.191-0.504 2.26-1.225 3.178-2.142s1.638-1.987 2.142-3.178c0.522-1.234 0.787-2.544 0.787-3.893s-0.265-2.659-0.787-3.893z"></path>
</svg>
