<!-- Generated by IcoMoon.io -->
<svg version="1.1" xmlns="http://www.w3.org/2000/svg" width="32" height="32" viewBox="0 0 32 32">
<title>arrow-curved-left</title>
<path d="M30.84 18.258c-0.743-1.757-1.806-3.334-3.16-4.688s-2.931-2.417-4.688-3.16c-1.82-0.77-3.752-1.16-5.742-1.16s-3.922 0.39-5.742 1.16c-1.757 0.743-3.334 1.806-4.688 3.16-1.16 1.159-2.106 2.483-2.82 3.942v-5.513h-4v12h12v-4h-4.728c1.59-3.953 5.463-6.75 9.978-6.75 5.928 0 10.75 4.822 10.75 10.75h4c0-1.99-0.39-3.922-1.16-5.742z"></path>
</svg>
