<svg width="16" height="16" viewBox="0 0 16 16" fill="none" xmlns="http://www.w3.org/2000/svg">
<g clip-path="url(#clip0)">
<path d="M4.33581 3.13179C4.54036 3.32038 4.55578 3.64183 4.37027 3.84976L1.62999 6.99551H14.3521C14.8284 6.99551 15.2548 7.18021 15.5573 7.5247C15.8553 7.86397 16 8.24487 16 8.73637V11.4917C16 11.7724 15.7762 12 15.5 12C15.2239 12 15 11.7724 15 11.4917V8.73637C15 8.44366 14.9151 8.31991 14.8114 8.20173C14.7121 8.08877 14.5646 8.01207 14.3521 8.01207H1.63002L4.37027 11.0089C4.55578 11.2168 4.54036 11.5383 4.33581 11.7269C4.13127 11.9155 3.81506 11.8998 3.62955 11.6919L0.152958 7.8697C0.0586569 7.77725 0 7.64748 0 7.50379C0 7.36022 0.0585513 7.23056 0.152703 7.13813L3.62955 3.16681C3.81506 2.95888 4.13127 2.9432 4.33581 3.13179Z" fill="black"/>
</g>
<defs>
<clipPath id="clip0">
<rect width="16" height="16" fill="white"/>
</clipPath>
</defs>
</svg>
