<!-- Generated by IcoMoon.io -->
<svg version="1.1" xmlns="http://www.w3.org/2000/svg" width="32" height="32" viewBox="0 0 32 32">
<title>arrow-u-right</title>
<path d="M25 16.5l-2.5 2.5 2.7 3h-13.2c-3.308 0-6-2.692-6-6s2.692-6 6-6h18v-4h-18c-1.349 0-2.659 0.265-3.893 0.787-1.191 0.504-2.26 1.224-3.178 2.142s-1.638 1.987-2.142 3.178c-0.522 1.234-0.787 2.544-0.787 3.893s0.265 2.659 0.787 3.893c0.504 1.191 1.224 2.26 2.142 3.178s1.987 1.638 3.178 2.142c1.234 0.522 2.544 0.787 3.893 0.787h13.2l-2.7 3 2.5 2.5 7-7.5-7-7.5z"></path>
</svg>
