<!-- Generated by IcoMoon.io -->
<svg version="1.1" xmlns="http://www.w3.org/2000/svg" width="32" height="32" viewBox="0 0 32 32">
<title>arrow-curved-right</title>
<path d="M28 12v5.512c-0.715-1.459-1.661-2.783-2.82-3.942-1.354-1.354-2.931-2.417-4.688-3.16-1.82-0.769-3.752-1.16-5.742-1.16s-3.922 0.39-5.742 1.16c-1.757 0.743-3.334 1.806-4.688 3.16s-2.417 2.931-3.16 4.688c-0.77 1.82-1.16 3.752-1.16 5.742h4c0-5.928 4.822-10.75 10.75-10.75 4.515 0 8.387 2.797 9.978 6.75h-4.728v4h12v-12h-4z"></path>
</svg>
