<?xml version="1.0" encoding="utf-8"?>
<!-- Generator: Adobe Illustrator 21.0.2, SVG Export Plug-In . SVG Version: 6.00 Build 0)  -->
<svg version="1.1" id="Layer_1" xmlns="http://www.w3.org/2000/svg" xmlns:xlink="http://www.w3.org/1999/xlink" x="0px" y="0px"
	 viewBox="0 0 1024 1024" enable-background="new 0 0 1024 1024" xml:space="preserve">
<path d="M896,320v176.4c-22.87-46.7-53.14-89.05-90.25-126.16c-43.33-43.33-93.8-77.35-150.01-101.13
	C597.51,244.49,535.69,232,472,232s-125.51,12.49-183.74,37.12c-56.21,23.78-106.68,57.8-150.01,101.13
	c-43.33,43.33-77.35,93.8-101.13,150.01C12.49,578.49,0,640.31,0,704h128c0-189.68,154.32-344,344-344
	c144.47,0,268.4,89.52,319.29,216H640v128h384V320H896z"/>
</svg>
