<?xml version="1.0" encoding="utf-8"?>
<!-- Generator: Adobe Illustrator 18.1.1, SVG Export Plug-In . SVG Version: 6.00 Build 0)  -->
<svg version="1.1" id="Layer_1" xmlns="http://www.w3.org/2000/svg" xmlns:xlink="http://www.w3.org/1999/xlink" x="0px" y="0px"
	 viewBox="0 0 1024 1024" enable-background="new 0 0 1024 1024" xml:space="preserve">
<polygon points="816,288 736,368 807.11,448 576,448 576,216.89 656,288 736,208 512,0 288,208 368,288 448,216.89 448,448 
	216.89,448 288,368 208,288 0,512 208,736 288,656 216.89,576 448,576 448,807.11 368,736 288,816 512,1024 736,816 656,736 
	576,807.11 576,576 807.11,576 736,656 816,736 1024,512 "/>
</svg>
