<?xml version="1.0" encoding="utf-8"?>
<!-- Generator: Adobe Illustrator 18.1.1, SVG Export Plug-In . SVG Version: 6.00 Build 0)  -->
<svg version="1.1" id="Layer_1" xmlns="http://www.w3.org/2000/svg" xmlns:xlink="http://www.w3.org/1999/xlink" x="0px" y="0px"
	 viewBox="0 0 1024 1024" enable-background="new 0 0 1024 1024" xml:space="preserve">
<path d="M800,528l-80,80l86.4,96H384c-105.87,0-192-86.13-192-192s86.13-192,192-192h576V192H384c-43.17,0-85.09,8.47-124.58,25.17
	c-38.11,16.12-72.33,39.18-101.7,68.55c-29.37,29.37-52.43,63.58-68.55,101.7C72.47,426.91,64,468.83,64,512
	s8.47,85.09,25.17,124.58c16.12,38.11,39.18,72.33,68.55,101.7c29.37,29.37,63.58,52.43,101.7,68.55
	C298.91,823.53,340.83,832,384,832h422.4L720,928l80,80l224-240L800,528z"/>
</svg>
