<?xml version="1.0" encoding="utf-8"?>
<!-- Generator: Adobe Illustrator 17.0.1, SVG Export Plug-In . SVG Version: 6.00 Build 0)  -->
<!DOCTYPE svg PUBLIC "-//W3C//DTD SVG 1.1//EN" "http://www.w3.org/Graphics/SVG/1.1/DTD/svg11.dtd">
<svg version="1.1" id="Layer_1" xmlns="http://www.w3.org/2000/svg" xmlns:xlink="http://www.w3.org/1999/xlink" x="0px" y="0px"
	 width="1024px" height="1024px" viewBox="0 0 1024 1024" enable-background="new 0 0 1024 1024" xml:space="preserve">
<path d="M760.14,471.12C812.79,431.29,848,365.52,848,288c0-128-96-224-208-224c-48,0-320,0-320,0v0H128v896h192h64
	c67.95,0,172.5,0,224,0c224,0,304-96,304-256C912,590.06,863.3,508.59,760.14,471.12z M608,288c0,80-32,160-128,160
	c-16.6,0-59.01,0-96,0V128c36.99,0,79.4,0,96,0C576,128,608,208,608,288z M512,896c-18.48,0-79.62,0-128,0V512
	c48.38,0,109.52,0,128,0c96,0,144,80,144,192S608,896,512,896z"/>
</svg>
