<svg width="16" height="16" viewBox="0 0 16 16" fill="none" xmlns="http://www.w3.org/2000/svg">
<g clip-path="url(#clip0)">
<path fill-rule="evenodd" clip-rule="evenodd" d="M8 0C3.58172 0 0 3.58172 0 8C0 12.4183 3.58172 16 8 16C12.4183 16 16 12.4183 16 8C16 3.58172 12.4183 0 8 0ZM3.41663 2.70904C4.64466 1.64432 6.24709 1 8 1C11.866 1 15 4.13401 15 8C15 9.75291 14.3557 11.3553 13.291 12.5834L3.41663 2.70904ZM2.70949 3.41611C1.6445 4.6442 1 6.24684 1 8C1 11.866 4.13401 15 8 15C9.75316 15 11.3558 14.3555 12.5839 13.2905L2.70949 3.41611Z" fill="black"/>
</g>
<defs>
<clipPath id="clip0">
<rect width="16" height="16" fill="white" transform="translate(0 16) rotate(-90)"/>
</clipPath>
</defs>
</svg>
