<!-- Generated by IcoMoon.io -->
<svg version="1.1" xmlns="http://www.w3.org/2000/svg" width="32" height="32" viewBox="0 0 32 32">
<title>ban-sign</title>
<path d="M16 0c-8.837 0-16 7.163-16 16s7.163 16 16 16 16-7.163 16-16-7.163-16-16-16zM16 28.031c-1.626 0-3.201-0.317-4.682-0.944-1.432-0.606-2.719-1.474-3.826-2.58s-1.974-2.393-2.58-3.826c-0.626-1.481-0.944-3.056-0.944-4.682s0.318-3.201 0.944-4.682c0.346-0.819 0.779-1.59 1.292-2.307l16.784 16.784c-0.717 0.513-1.488 0.946-2.307 1.292-1.48 0.627-3.056 0.944-4.682 0.944zM27.087 20.682c-0.346 0.819-0.779 1.59-1.292 2.307l-16.784-16.784c0.717-0.513 1.488-0.946 2.307-1.292 1.48-0.627 3.056-0.944 4.682-0.944s3.201 0.317 4.682 0.944c1.432 0.606 2.719 1.474 3.826 2.58s1.974 2.393 2.58 3.826c0.626 1.481 0.944 3.056 0.944 4.682s-0.317 3.201-0.944 4.682z"></path>
</svg>
