<!-- Generated by IcoMoon.io -->
<svg version="1.1" xmlns="http://www.w3.org/2000/svg" width="32" height="32" viewBox="0 0 32 32">
<title>bell</title>
<path d="M13.806 3.612v-1.405c0-1.219 0.988-2.207 2.207-2.207s2.207 0.988 2.207 2.207v1.405c3.815 1.096 6.027 5.056 6.027 9.774 0 7.325 2.448 7.325 3.904 10.991v2.107h-24.276v-2.107c1.456-3.666 3.905-3.666 3.905-10.991 0-4.717 2.211-8.677 6.027-9.774z"></path>
<path d="M12.891 27.586h6.244c0.122 0.345 0.188 0.717 0.188 1.103 0 1.828-1.482 3.31-3.31 3.31s-3.31-1.482-3.31-3.31c0-0.385 0.066-0.754 0.186-1.098 0.001-0.002 0.001-0.004 0.002-0.005v0z"></path>
</svg>
