<?xml version="1.0" encoding="UTF-8"?>
<svg width="1024px" height="1024px" viewBox="0 0 1024 1024" version="1.1" xmlns="http://www.w3.org/2000/svg" xmlns:xlink="http://www.w3.org/1999/xlink">
    <!-- Generator: Sketch 59.1 (86144) - https://sketch.com -->
    <title>bell</title>
    <desc>Created with Sketch.</desc>
    <g id="bell" stroke="none" stroke-width="1" fill="none" fill-rule="evenodd">
        <g id="Notification_bell_ICONFONT" transform="translate(124.000000, 0.000000)" fill="#000000" fill-rule="nonzero">
            <path d="M317.793103,115.576052 L317.793103,70.6206897 C317.793103,31.6179597 349.411063,0 388.413793,0 C427.416523,0 459.034483,31.6179597 459.034483,70.6206897 L459.034483,115.576052 C581.120593,150.659655 651.88329,277.379783 651.88329,428.329836 C651.88329,662.727955 730.235208,662.727955 776.827586,780.037618 L776.827586,847.448276 L0,847.448276 L0,780.037618 C46.5923782,662.727955 124.944297,662.727955 124.944297,428.329836 C124.944297,277.379783 195.706993,150.659655 317.793103,115.576052 Z" id="Path"></path>
            <path d="M288.510421,882.758621 L488.31715,882.758621 C492.220762,893.802952 494.344828,905.687909 494.344828,918.068966 C494.344828,976.573059 446.917886,1024 388.413793,1024 C329.909698,1024 282.482759,976.573059 282.482759,918.068966 C282.482759,905.751873 284.584935,893.925768 288.450077,882.929862 C288.470149,882.872758 288.490269,882.815679 288.510436,882.758621 L288.510421,882.758621 Z" id="Path"></path>
        </g>
    </g>
</svg>