<?xml version="1.0" encoding="utf-8"?>
<!-- Generator: Adobe Illustrator 17.0.1, SVG Export Plug-In . SVG Version: 6.00 Build 0)  -->
<!DOCTYPE svg PUBLIC "-//W3C//DTD SVG 1.1//EN" "http://www.w3.org/Graphics/SVG/1.1/DTD/svg11.dtd">
<svg version="1.1" id="Layer_1" xmlns="http://www.w3.org/2000/svg" xmlns:xlink="http://www.w3.org/1999/xlink" x="0px" y="0px"
	 width="1024px" height="1024px" viewBox="0 0 1024 1024" enable-background="new 0 0 1024 1024" xml:space="preserve">
<path d="M924.78,529.61c-22.57-53.35-54.86-101.26-96-142.39c-26.02-26.02-54.75-48.5-85.85-67.22h161.65
	c11.07,19.12,31.73,32,55.42,32c35.35,0,64-28.65,64-64s-28.65-64-64-64c-23.69,0-44.35,12.88-55.42,32H608v-64H416v64H119.42
	c-11.07-19.12-31.73-32-55.42-32c-35.35,0-64,28.65-64,64s28.65,64,64,64c23.69,0,44.35-12.88,55.42-32h161.65
	c-31.1,18.72-59.83,41.2-85.85,67.22c-41.13,41.13-73.43,89.04-96,142.39C75.85,584.86,64,643.53,64,704H0v192h192V704h-64
	c0-178.6,122.56-329.11,288-371.85V384h192v-51.85C773.44,374.89,896,525.4,896,704h-64v192h192V704h-64
	C960,643.53,948.15,584.86,924.78,529.61z M128,832H64v-64h64V832z M544,320h-32h-32v-64h64V320z M960,832h-64v-64h64V832z"/>
</svg>
