<!-- Generated by IcoMoon.io -->
<svg version="1.1" xmlns="http://www.w3.org/2000/svg" width="32" height="32" viewBox="0 0 32 32">
<title>bezier-scheme</title>
<path d="M28.899 16.55c-0.705-1.667-1.714-3.164-3-4.45-0.813-0.813-1.711-1.516-2.683-2.101h5.052c0.346 0.598 0.992 1 1.732 1 1.105 0 2-0.895 2-2s-0.895-2-2-2c-0.74 0-1.386 0.402-1.732 1h-9.268v-2h-6v2h-9.268c-0.346-0.598-0.992-1-1.732-1-1.105 0-2 0.895-2 2s0.895 2 2 2c0.74 0 1.386-0.402 1.732-1h5.052c-0.972 0.585-1.87 1.287-2.683 2.101-1.285 1.285-2.295 2.783-3 4.45-0.73 1.727-1.101 3.56-1.101 5.45h-2v6h6v-6h-2c0-5.581 3.83-10.285 9-11.62v1.62h6v-1.62c5.17 1.336 9 6.039 9 11.62h-2v6h6v-6h-2c0-1.89-0.37-3.723-1.101-5.45zM4 26h-2v-2h2v2zM17 10h-2v-2h2v2zM30 26h-2v-2h2v2z"></path>
</svg>
