<?xml version="1.0" encoding="utf-8"?>
<!-- Generator: Adobe Illustrator 17.0.1, SVG Export Plug-In . SVG Version: 6.00 Build 0)  -->
<!DOCTYPE svg PUBLIC "-//W3C//DTD SVG 1.1//EN" "http://www.w3.org/Graphics/SVG/1.1/DTD/svg11.dtd">
<svg version="1.1" id="Layer_1" xmlns="http://www.w3.org/2000/svg" xmlns:xlink="http://www.w3.org/1999/xlink" x="0px" y="0px"
	 width="1024px" height="1024px" viewBox="0 0 1024 1024" enable-background="new 0 0 1024 1024" xml:space="preserve">
<g>
	<path d="M688,128c-80,0-128,48-128,128s0,704,0,704s9.65,0,16,0c0-80,48-128,128-128c150,0,320,0,320,0V128
		C1024,128,838,128,688,128z"/>
	<path d="M352,128c-150,0-352,0-352,0v704c0,0,186,0,336,0c80,0,112,48,112,128c6.35,0,16,0,16,0s0-624,0-704S432,128,352,128z"/>
</g>
</svg>
