<!-- Generated by IcoMoon.io -->
<svg version="1.1" xmlns="http://www.w3.org/2000/svg" width="32" height="32" viewBox="0 0 32 32">
<title>box-cart</title>
<path d="M30 12l-10-10-10 10 10 10 10-10zM14.5 11l4.5-4.5 1.5 1.5-4.5 4.5-1.5-1.5z"></path>
<path d="M28.5 16.5l-6.411 6.411c0.017 0.007 0.035 0.014 0.052 0.022 0.655 0.277 1.243 0.673 1.748 1.178 0.34 0.34 0.631 0.719 0.87 1.13l6.241-6.241-2.5-2.5z"></path>
<path d="M17.859 22.933c0.001-0 0.001-0.001 0.002-0.001l-12.361-12.432-5 5 2.5 2.5 2.486-2.486 9.705 9.815c0.248-0.445 0.555-0.853 0.919-1.218 0.505-0.505 1.093-0.901 1.748-1.178z"></path>
<path d="M24 28c0 2.209-1.791 4-4 4s-4-1.791-4-4c0-2.209 1.791-4 4-4s4 1.791 4 4z"></path>
</svg>
