<?xml version="1.0" encoding="utf-8"?>
<!-- Generator: Adobe Illustrator 17.1.0, SVG Export Plug-In . SVG Version: 6.00 Build 0)  -->
<!DOCTYPE svg PUBLIC "-//W3C//DTD SVG 1.1//EN" "http://www.w3.org/Graphics/SVG/1.1/DTD/svg11.dtd">
<svg version="1.1" id="Layer_1" xmlns="http://www.w3.org/2000/svg" xmlns:xlink="http://www.w3.org/1999/xlink" x="0px" y="0px"
	 width="1024px" height="1024px" viewBox="0 0 1024 1024" enable-background="new 0 0 1024 1024" xml:space="preserve">
<g>
	<path d="M960,384L640,64L320,384l320,320L960,384z M464,352l144-144l48,48L512,400L464,352z"/>
	<path d="M912,528L706.84,733.16c0.56,0.23,1.13,0.45,1.68,0.69c20.96,8.87,39.78,21.55,55.93,37.7c10.89,10.89,20.2,23,27.83,36.17
		L992,608L912,528z"/>
	<path d="M571.48,733.85c0.02-0.01,0.04-0.02,0.06-0.03L176,336L16,496l80,80l79.55-79.55l310.57,314.07
		c7.92-14.25,17.76-27.31,29.42-38.97C531.7,755.4,550.51,742.72,571.48,733.85z"/>
	<circle cx="640" cy="896" r="128"/>
</g>
</svg>
