<!-- Generated by IcoMoon.io -->
<svg version="1.1" xmlns="http://www.w3.org/2000/svg" width="32" height="32" viewBox="0 0 32 32">
<title>braces</title>
<path d="M8.155 5.491c0.142-0.333 0.38-0.608 0.665-0.827 0.31-0.239 0.674-0.389 1.044-0.509 0.173-0.056 0.352-0.094 0.529-0.135 0.012-0.002 0.116-0.014 0.116-0.022 0-0.009-0-0.018-0-0.027-0.001-0.117-0.002-0.235-0.003-0.352-0.004-0.392-0.008-0.785-0.011-1.177-0.001-0.13-0.002-0.261-0.004-0.391-0-0.018 0.008-0.050-0.011-0.054-0.17-0.037-0.346-0.060-0.52-0.072-0.336-0.023-0.672-0.022-1.007 0.017-0.388 0.046-0.773 0.135-1.138 0.273-0.719 0.272-1.368 0.717-1.865 1.306s-0.829 1.297-0.988 2.049c-0.041 0.195-0.071 0.393-0.088 0.592-0.012 0.131-0.015 0.262-0.022 0.393-0.020 0.398-0.030 0.796-0.030 1.194-0.001 0.826 0.054 1.65 0.118 2.473 0.017 0.218 0.034 0.436 0.050 0.654 0.008 0.106 0.016 0.213 0.023 0.319 0.004 0.053 0.028 0.502 0.026 0.564-0.008 0.201-0.037 0.4-0.082 0.596-0.082 0.364-0.226 0.715-0.416 1.036-0.371 0.626-0.948 1.148-1.677 1.296-0.284 0.058-0.578 0.051-0.866 0.061-0.003 0-0.001 2.393-0.001 2.408 0 0.004 0.067 0.004 0.073 0.004 0.329 0.011 0.657 0.009 0.975 0.103 0.708 0.209 1.247 0.771 1.584 1.41 0.161 0.305 0.28 0.633 0.348 0.972 0.036 0.181 0.059 0.366 0.063 0.55 0.001 0.047-0.022 0.438-0.026 0.491-0.007 0.102-0.014 0.204-0.022 0.307-0.015 0.206-0.031 0.411-0.047 0.617-0.032 0.412-0.063 0.824-0.087 1.236-0.048 0.82-0.051 1.645-0.009 2.465 0.006 0.121 0.009 0.242 0.018 0.362 0.014 0.199 0.041 0.397 0.079 0.593 0.075 0.383 0.194 0.757 0.359 1.112 0.32 0.687 0.811 1.287 1.423 1.733 0.633 0.461 1.383 0.745 2.158 0.846 0.337 0.044 0.675 0.050 1.013 0.029 0.176-0.011 0.357-0.028 0.529-0.065 0.012-0.003 0.060-0.003 0.060-0.019 0-0.011 0-0.023 0-0.034 0.003-0.32 0.006-0.64 0.009-0.961s0.006-0.64 0.009-0.961c0-0.011 0-0.023 0-0.034 0-0.016-0.048-0.014-0.059-0.016-0.174-0.029-0.348-0.074-0.517-0.124-0.372-0.109-0.74-0.261-1.057-0.488-0.292-0.21-0.541-0.483-0.694-0.81-0.165-0.352-0.209-0.731-0.191-1.115 0.038-0.82 0.081-1.641 0.104-2.462 0.024-0.825-0.068-2.52-0.068-2.513-0.018-0.228-0.038-0.454-0.080-0.68-0.069-0.38-0.177-0.75-0.317-1.11-0.283-0.726-0.719-1.393-1.273-1.94-0.273-0.269-0.578-0.509-0.908-0.703 0.674-0.397 1.229-0.972 1.657-1.623 0.423-0.644 0.707-1.384 0.844-2.142 0.040-0.222 0.089-0.805 0.094-0.858 0.008-0.102 0.016-0.204 0.023-0.306 0.014-0.205 0.024-0.411 0.032-0.616 0.014-0.413 0.012-0.826 0.002-1.24-0.020-0.823-0.064-1.646-0.101-2.469-0.009-0.207-0.020-0.413 0.003-0.62 0.022-0.201 0.072-0.403 0.154-0.589 0.107-0.25-0.055 0.124 0 0z"></path>
<path d="M29.806 14.742c-0.155-0.005-0.312-0.004-0.467-0.023-0.179-0.023-0.355-0.062-0.525-0.125-0.334-0.125-0.633-0.333-0.882-0.588-0.522-0.534-0.857-1.266-0.945-2.006-0.015-0.127-0.027-0.257-0.020-0.384 0.002-0.044 0.039-0.6 0.047-0.702 0.015-0.206 0.031-0.411 0.047-0.617 0.032-0.412 0.063-0.824 0.087-1.236 0.048-0.82 0.051-1.645 0.009-2.465-0.006-0.121-0.009-0.242-0.018-0.362-0.014-0.199-0.041-0.397-0.079-0.593-0.075-0.383-0.194-0.757-0.359-1.112-0.32-0.687-0.811-1.287-1.423-1.733-0.633-0.461-1.383-0.745-2.158-0.846-0.337-0.044-0.675-0.050-1.013-0.029-0.176 0.011-0.357 0.028-0.529 0.065-0.012 0.002-0.060 0.002-0.060 0.019 0 0.011-0 0.022-0 0.034-0.003 0.32-0.006 0.64-0.009 0.961s-0.006 0.64-0.009 0.961c0 0.011-0 0.022-0 0.034 0 0.016 0.048 0.014 0.059 0.016 0.174 0.029 0.348 0.074 0.517 0.124 0.372 0.109 0.74 0.261 1.057 0.488 0.292 0.21 0.541 0.483 0.694 0.81 0.165 0.352 0.209 0.731 0.191 1.115-0.038 0.82-0.081 1.641-0.104 2.462-0.024 0.825 0.068 2.52 0.068 2.513 0.018 0.228 0.038 0.454 0.080 0.68 0.069 0.38 0.177 0.75 0.317 1.11 0.283 0.726 0.719 1.393 1.273 1.94 0.273 0.269 0.578 0.509 0.908 0.703-0.674 0.397-1.229 0.972-1.657 1.623-0.423 0.644-0.707 1.384-0.844 2.142-0.040 0.222-0.089 0.805-0.094 0.858-0.008 0.102-0.016 0.204-0.023 0.306-0.014 0.205-0.024 0.411-0.032 0.616-0.014 0.413-0.012 0.826-0.002 1.24 0.020 0.823 0.064 1.646 0.101 2.469 0.009 0.196 0.019 0.39 0.001 0.586-0.018 0.188-0.061 0.377-0.129 0.553-0.13 0.335-0.352 0.625-0.632 0.848-0.3 0.25-0.666 0.416-1.035 0.536-0.177 0.058-0.356 0.102-0.537 0.143-0.015 0.003-0.181 0.033-0.181 0.035 0 0.006 0 0.012 0 0.018 0.003 0.3 0.006 0.6 0.008 0.901 0.003 0.338 0.006 0.676 0.010 1.013 0 0.023 0 0.045 0.001 0.067 0 0.010 0.157 0.031 0.173 0.033 0.092 0.012 0.184 0.025 0.276 0.034 0.336 0.034 0.678 0.032 1.014-0.002 0.776-0.080 1.531-0.342 2.178-0.779 0.626-0.423 1.137-1.009 1.477-1.684 0.175-0.347 0.305-0.713 0.391-1.092 0.044-0.195 0.078-0.392 0.098-0.591 0.015-0.146 0.020-0.293 0.027-0.44 0.040-0.793 0.043-1.589 0.003-2.383-0.042-0.823-0.118-1.644-0.175-2.466-0.003-0.041-0.017-0.331-0.014-0.392 0.008-0.201 0.037-0.4 0.081-0.596 0.082-0.364 0.226-0.715 0.416-1.036 0.371-0.626 0.948-1.148 1.677-1.296 0.284-0.058 0.578-0.051 0.866-0.061 0.003 0 0.001-2.302 0.001-2.379 0-0.004 0.003-0.030-0.002-0.030-0.067-0.003-0.134-0.005-0.201-0.007s0.133 0.004 0 0z"></path>
</svg>
