<?xml version="1.0" encoding="utf-8"?>
<!-- Generator: Adobe Illustrator 17.0.1, SVG Export Plug-In . SVG Version: 6.00 Build 0)  -->
<!DOCTYPE svg PUBLIC "-//W3C//DTD SVG 1.1//EN" "http://www.w3.org/Graphics/SVG/1.1/DTD/svg11.dtd">
<svg version="1.1" id="Layer_1" xmlns="http://www.w3.org/2000/svg" xmlns:xlink="http://www.w3.org/1999/xlink" x="0px" y="0px"
	 width="1024px" height="1024px" viewBox="0 0 1024 1024" enable-background="new 0 0 1024 1024" xml:space="preserve">
<g>
	<path d="M197,178.57c4.54-10.65,12.17-19.46,21.28-26.48c9.92-7.64,21.58-12.46,33.41-16.28c5.54-1.79,11.27-3.02,16.94-4.32
		c0.38-0.06,3.7-0.46,3.7-0.7c0-0.28-0.01-0.57-0.01-0.85c-0.04-3.75-0.07-7.51-0.11-11.26c-0.12-12.55-0.24-25.11-0.36-37.66
		c-0.04-4.17-0.08-8.34-0.12-12.51c-0.01-0.56,0.27-1.59-0.35-1.72c-5.45-1.19-11.07-1.92-16.64-2.3
		c-10.75-0.73-21.51-0.71-32.22,0.55c-12.41,1.46-24.72,4.33-36.42,8.75c-23.02,8.71-43.78,22.94-59.68,41.8
		c-15.87,18.83-26.54,41.5-31.61,65.56c-1.32,6.25-2.26,12.59-2.8,18.95c-0.37,4.18-0.47,8.38-0.69,12.57
		c-0.65,12.73-0.95,25.48-0.96,38.22c-0.02,26.44,1.74,52.79,3.79,79.13c0.54,6.98,1.09,13.95,1.61,20.93
		c0.25,3.4,0.5,6.8,0.73,10.2c0.12,1.7,0.91,16.07,0.83,18.04c-0.26,6.42-1.18,12.81-2.6,19.07c-2.64,11.64-7.24,22.89-13.32,33.15
		c-11.86,20.02-30.34,36.74-53.65,41.48c-9.09,1.85-18.49,1.64-27.72,1.95c-0.1,0-0.03,76.58-0.03,77.05c0,0.14,2.15,0.13,2.34,0.14
		c10.52,0.35,21.02,0.3,31.21,3.31c22.64,6.69,39.92,24.67,50.69,45.11c5.15,9.77,8.97,20.26,11.13,31.1
		c1.15,5.79,1.9,11.7,2.01,17.6c0.03,1.52-0.7,14.01-0.82,15.71c-0.22,3.27-0.46,6.54-0.7,9.81c-0.49,6.58-1,13.16-1.51,19.74
		c-1.03,13.18-2,26.36-2.78,39.55c-1.55,26.24-1.64,52.63-0.3,78.88c0.2,3.86,0.29,7.73,0.57,11.59c0.46,6.37,1.3,12.7,2.52,18.97
		c2.4,12.27,6.21,24.23,11.49,35.57c10.25,21.98,25.94,41.17,45.55,55.46c20.24,14.75,44.27,23.83,69.05,27.08
		c10.77,1.41,21.6,1.6,32.43,0.93c5.63-0.35,11.41-0.9,16.93-2.08c0.38-0.08,1.91-0.08,1.91-0.6c0-0.36,0.01-0.72,0.01-1.08
		c0.1-10.25,0.19-20.49,0.29-30.74c0.1-10.25,0.19-20.49,0.29-30.74c0-0.36,0.01-0.72,0.01-1.08c0-0.52-1.54-0.45-1.9-0.51
		c-5.56-0.94-11.14-2.38-16.55-3.96c-11.91-3.48-23.69-8.34-33.81-15.62c-9.35-6.72-17.31-15.45-22.22-25.93
		c-5.27-11.25-6.68-23.38-6.11-35.68c1.21-26.25,2.58-52.51,3.33-78.78c0.76-26.4-2.18-80.63-2.18-80.42
		c-0.57-7.3-1.23-14.53-2.55-21.75c-2.22-12.15-5.66-24-10.15-35.51c-9.07-23.22-23-44.56-40.75-62.07
		c-8.73-8.61-18.49-16.29-29.06-22.51c21.57-12.71,39.34-31.1,53.02-51.93c13.55-20.62,22.62-44.29,27.01-68.54
		c1.28-7.1,2.86-25.76,3-27.46c0.27-3.26,0.51-6.53,0.73-9.8c0.44-6.56,0.78-13.14,1.01-19.71c0.46-13.22,0.39-26.44,0.06-39.67
		c-0.65-26.34-2.05-52.67-3.24-79c-0.3-6.64-0.64-13.23,0.09-19.85C192.75,190.99,194.38,184.53,197,178.57z"/>
	<path d="M1017.78,471.75c0.13,0,0.26,0.01,0.39,0.01C1021.61,471.87,1015.73,471.68,1017.78,471.75z"/>
	<path d="M1024.3,472.93c0-0.13,0.08-0.96-0.06-0.97c-2.02-0.07-4.04-0.13-6.07-0.2c-0.12,0-0.25-0.01-0.39-0.01
		c-4.96-0.16-10-0.12-14.93-0.74c-5.74-0.72-11.36-1.97-16.79-4.01c-10.7-4.01-20.24-10.65-28.21-18.81
		c-16.71-17.09-27.41-40.52-30.25-64.18c-0.49-4.06-0.86-8.22-0.64-12.3c0.07-1.4,1.25-19.2,1.49-22.47
		c0.49-6.58,1-13.16,1.51-19.74c1.03-13.18,2-26.36,2.78-39.55c1.55-26.24,1.64-52.63,0.3-78.88c-0.2-3.86-0.29-7.73-0.57-11.59
		c-0.46-6.37-1.3-12.7-2.52-18.97c-2.4-12.27-6.21-24.23-11.49-35.57c-10.25-21.98-25.94-41.17-45.55-55.46
		c-20.24-14.75-44.27-23.83-69.05-27.08c-10.77-1.41-21.6-1.6-32.43-0.93c-5.63,0.35-11.41,0.9-16.93,2.08
		c-0.38,0.08-1.91,0.08-1.91,0.6c0,0.36-0.01,0.72-0.01,1.08c-0.1,10.25-0.19,20.49-0.29,30.74c-0.1,10.25-0.19,20.49-0.29,30.74
		c0,0.36-0.01,0.72-0.01,1.08c0,0.52,1.54,0.45,1.9,0.51c5.57,0.94,11.14,2.38,16.55,3.96c11.91,3.48,23.69,8.34,33.81,15.62
		c9.35,6.72,17.31,15.45,22.22,25.93c5.27,11.25,6.68,23.38,6.11,35.68c-1.21,26.25-2.58,52.51-3.33,78.78
		c-0.76,26.4,2.18,80.63,2.18,80.42c0.57,7.3,1.23,14.53,2.55,21.75c2.22,12.15,5.66,24,10.15,35.51
		c9.07,23.22,23,44.56,40.75,62.07c8.73,8.61,18.49,16.29,29.06,22.51c-21.57,12.71-39.34,31.1-53.02,51.93
		c-13.55,20.62-22.62,44.29-27.01,68.54c-1.28,7.1-2.86,25.76-3,27.46c-0.27,3.26-0.51,6.53-0.73,9.8
		c-0.44,6.56-0.78,13.14-1.01,19.71c-0.46,13.22-0.39,26.44-0.06,39.67c0.65,26.34,2.05,52.67,3.24,79
		c0.28,6.27,0.62,12.49,0.02,18.75c-0.57,6.03-1.94,12.05-4.13,17.7c-4.15,10.71-11.25,20-20.21,27.15
		c-9.59,8.01-21.31,13.31-33.11,17.15c-5.65,1.84-11.38,3.26-17.17,4.59c-0.47,0.11-5.79,1.06-5.79,1.12c0,0.19,0,0.39,0.01,0.58
		c0.09,9.61,0.18,19.21,0.27,28.82c0.1,10.81,0.2,21.62,0.31,32.43c0.01,0.72,0.01,1.44,0.02,2.16c0,0.32,5.04,0.99,5.52,1.05
		c2.94,0.4,5.89,0.8,8.84,1.1c10.75,1.08,21.71,1.04,32.46-0.06c24.84-2.55,48.99-10.93,69.71-24.94
		c20.03-13.55,36.38-32.3,47.27-53.88c5.6-11.09,9.76-22.83,12.52-34.94c1.42-6.23,2.48-12.54,3.12-18.9
		c0.48-4.68,0.64-9.37,0.88-14.07c1.29-25.39,1.39-50.85,0.1-76.24c-1.33-26.34-3.79-52.61-5.6-78.92
		c-0.09-1.32-0.53-10.58-0.45-12.55c0.26-6.42,1.18-12.81,2.6-19.07c2.64-11.64,7.24-22.89,13.32-33.15
		c11.86-20.02,30.34-36.74,53.65-41.48c9.09-1.85,18.49-1.64,27.72-1.95C1024.38,549.06,1024.3,475.42,1024.3,472.93z"/>
	<path d="M656,240l-80,16v93.71l-128,36.57V288l-80,16v105.14L288,432v80l80-22.86v112L288,624v80l80-22.86V768l80-16v-93.71
		l128-36.57V736l80-16V598.86L736,576v-80l-80,22.86v-112L736,384v-80l-80,22.86V240z M576,541.71l-128,36.57v-112l128-36.57V541.71
		z"/>
</g>
</svg>
