<!-- Generated by IcoMoon.io -->
<svg version="1.1" xmlns="http://www.w3.org/2000/svg" width="32" height="32" viewBox="0 0 32 32">
<title>brand-google-plus</title>
<path d="M16 32c-8.833 0-16-7.167-16-16s7.167-16 16-16 16 7.167 16 16-7.167 16-16 16zM18.979 14.854h-7.542v2.75h4.521c-0.333 2.208-2.417 3.438-4.521 3.438-2.771 0-4.979-2.292-4.979-5.042s2.208-5.042 4.979-5.042c1.167 0 2.333 0.396 3.188 1.229l2.167-2.104c-1.479-1.375-3.333-2.083-5.354-2.083-4.438 0-8 3.583-8 8s3.563 8 8 8c4.604 0 7.667-3.25 7.667-7.813 0-0.458-0.041-0.896-0.125-1.333zM28.563 17.145v-2.292h-2.271v-2.292h-2.292v2.292h-2.292v2.292h2.292v2.292h2.292v-2.292h2.271z"></path>
</svg>
