<?xml version="1.0" encoding="utf-8"?>
<!-- Generator: Adobe Illustrator 17.0.1, SVG Export Plug-In . SVG Version: 6.00 Build 0)  -->
<!DOCTYPE svg PUBLIC "-//W3C//DTD SVG 1.1//EN" "http://www.w3.org/Graphics/SVG/1.1/DTD/svg11.dtd">
<svg version="1.1" id="Layer_1" xmlns="http://www.w3.org/2000/svg" xmlns:xlink="http://www.w3.org/1999/xlink" x="0px" y="0px"
	 width="1024px" height="1024px" viewBox="0 0 1024 1024" enable-background="new 0 0 1024 1024" xml:space="preserve">
<path d="M64,64v896h896V64H64z M745.81,392.17c0.23,5.17,0.35,10.38,0.35,15.61c0,159.41-121.34,343.23-343.23,343.23
	c-68.13,0-131.54-19.97-184.92-54.2c9.44,1.11,19.04,1.68,28.78,1.68c56.52,0,108.53-19.29,149.82-51.64
	c-52.79-0.97-97.34-35.85-112.69-83.78c7.37,1.41,14.92,2.16,22.7,2.16c11,0,21.66-1.47,31.78-4.23
	c-55.19-11.08-96.77-59.84-96.77-118.29c0-0.51,0-1.01,0.01-1.52c16.27,9.04,34.87,14.46,54.64,15.09
	c-32.37-21.63-53.67-58.56-53.67-100.41c0-22.11,5.95-42.83,16.33-60.65c59.5,72.99,148.39,121.01,248.65,126.04
	c-2.06-8.83-3.12-18.04-3.12-27.49c0-66.62,54.01-120.63,120.64-120.63c34.7,0,66.05,14.65,88.05,38.1
	c27.48-5.41,53.3-15.45,76.6-29.27c-9.01,28.17-28.13,51.81-53.04,66.74c24.4-2.92,47.65-9.4,69.29-19
	C789.83,353.91,769.37,375.16,745.81,392.17z"/>
</svg>
