<!-- Generated by IcoMoon.io -->
<svg version="1.1" xmlns="http://www.w3.org/2000/svg" width="32" height="32" viewBox="0 0 32 32">
<title>brand-pinterest</title>
<path d="M16 0c-8.836 0-16 7.163-16 16 0 6.552 3.94 12.18 9.577 14.654-0.045-1.117-0.008-2.458 0.278-3.674 0.307-1.299 2.059-8.718 2.059-8.718s-0.511-1.022-0.511-2.532c0-2.371 1.374-4.142 3.086-4.142 1.455 0 2.158 1.093 2.158 2.402 0 1.463-0.933 3.651-1.413 5.678-0.401 1.697 0.851 3.082 2.525 3.082 3.032 0 5.073-3.893 5.073-8.507 0-3.507-2.362-6.131-6.657-6.131-4.853 0-7.877 3.619-7.877 7.662 0 1.394 0.411 2.377 1.055 3.138 0.296 0.35 0.337 0.49 0.23 0.892-0.077 0.294-0.253 1.003-0.326 1.284-0.107 0.405-0.435 0.55-0.801 0.4-2.235-0.913-3.277-3.361-3.277-6.113 0-4.545 3.833-9.995 11.435-9.995 6.108 0 10.129 4.42 10.129 9.165 0 6.277-3.489 10.966-8.633 10.966-1.727 0-3.352-0.934-3.909-1.994 0 0-0.929 3.686-1.126 4.398-0.339 1.234-1.003 2.467-1.61 3.427 1.439 0.425 2.959 0.656 4.534 0.656 8.835 0 15.999-7.163 15.999-16s-7.163-16-15.999-16z"></path>
</svg>
