<!-- Generated by IcoMoon.io -->
<svg version="1.1" xmlns="http://www.w3.org/2000/svg" width="32" height="32" viewBox="0 0 32 32">
<title>brand-mstranslator</title>
<path d="M8.115 22.282c-0.822 0.354-1.572 0.828-1.534 2.039 0.028 0.936 0.663 1.613 1.987 1.613 1.137 0 2.044-0.285 2.719-0.847-0.032-1.049-0.052-1.986-0.052-2.823-1.247-0.383-2.474-0.258-3.119 0.019z"></path>
<path d="M20.243 12.943c0.575-0.897 1.012-1.719 1.137-2.027 0.014-0.032 0.024-0.059 0.037-0.086-0.498 0.084-1.005 0.219-1.482 0.397 0.040 0.617 0.144 1.194 0.309 1.716z"></path>
<path d="M16.622 15.063l0.005 0.087c0.019 0.337 0.169 0.557 0.479 0.681 0.483 0.191 1.292-0.401 2.25-1.629-0.305-0.65-0.513-1.446-0.628-2.376-1.13 0.785-2.105 2.259-2.105 3.237z"></path>
<path d="M0 0v32h32v-32h-32zM5.309 7.062l2.453 2.456c2.51-1.726 5.792-1.201 7.471-0.097-1.796 0.127-3.859 1.19-4.827 2.74l2.693 2.694h-7.791v-7.793zM11.493 27.154c-0.082-0.338-0.123-0.659-0.123-0.962h-0.104c-0.848 0.774-2.002 1.159-3.464 1.159-0.793 0-1.473-0.234-2.047-0.698-0.572-0.467-0.858-1.303-0.858-2.167 0-1.061 0.294-1.977 1.109-2.719 0.974-0.889 3.002-1.288 5.229-0.682 0.163 0.043 0.031-0.353 0.031-0.569 0-0.848-0.223-1.412-0.677-1.696-0.452-0.282-1.135-0.422-2.054-0.422-1.079 0-0.989 0.217-2.037 0.486l-0.266-1.424c1.035-0.3 1.509-0.532 2.852-0.532 1.227 0 2.175 0.254 2.845 0.762 0.668 0.505 1.001 1.368 1.001 2.59 0 0.323-0.015 0.91-0.046 1.762s-0.046 1.419-0.046 1.703c0 1.252 0.092 2.37 0.277 3.348l-1.624 0.062zM24.746 27.404l-2.453-2.452c-2.509 1.723-5.79 1.198-7.471 0.097 1.797-0.129 3.859-1.187 4.826-2.741l-2.692-2.692h7.791v7.788zM26.677 13.193c-0.181 3.235-4.384 4.451-4.564 4.501-0.017 0.004-0.058 0.012-0.075 0.012-0.021 0-0.080-0.012-0.102-0.020-0.152-0.060-0.454-0.176-0.454-0.45 0.017-0.178 0.118-0.353 0.502-0.396-0.007-0.004 3.443-1.304 3.443-3.417 0-0.088-0.007-0.182-0.015-0.273-0.213-1.51-1.052-2.299-2.568-2.409-0.618 1.422-1.285 2.626-1.976 3.574 0.216 0.333 0.456 0.624 0.719 0.869 0.059 0.059 0.092 0.135 0.092 0.209 0 0.054-0.015 0.1-0.040 0.14 0 0.002-0.142 0.275-0.472 0.326-0.303 0.051-0.632-0.106-0.979-0.455-0.042-0.042-0.082-0.086-0.119-0.13-1.226 1.287-2.284 1.565-2.97 1.565-0.501 0-0.824-0.146-0.907-0.19-0.388-0.198-0.807-0.827-0.812-1.738 0-0.919 0.425-2.661 3.261-4.132-0.014-0.235-0.016-0.475-0.016-0.721 0-0.612 0.032-1.294 0.101-2.034-0.598 0.029-1.185 0.015-1.777-0.046-0.025-0.002-0.081-0.022-0.103-0.033-0.005 0-0.498-0.236-0.863-0.716l-0.117-0.141c-0.131-0.15-0.28-0.319-0.2-0.536 0.028-0.079 0.111-0.214 0.353-0.249-0.010 0 0.359-0.062 0.644 0.161 0.072 0.059 0.134 0.127 0.201 0.201 0.124 0.143 0.215 0.24 0.324 0.255 0.097 0.015 0.441 0.051 0.927 0.051 0.245 0 0.489-0.008 0.724-0.031 0.059-0.452 0.13-0.934 0.213-1.436-0.039-0.083-0.124-0.23-0.324-0.311-0.237-0.093-0.476-0.19-0.476-0.425 0-0.013 0.004-0.048 0.004-0.060 0.032-0.236 0.282-0.263 0.417-0.279 0.008 0 0.068 0 0.074 0.001 1.568 0.311 2.143 0.561 2.143 0.92 0 0.016-0.005 0.053-0.010 0.070l-0.086 0.281c-0.065 0.202-0.166 0.512-0.274 0.9 0.446-0.159 0.828-0.36 1.14-0.602 0.634-0.495 1.205-0.651 1.577-0.442 0.197 0.111 0.309 0.311 0.309 0.547 0 0.033-0.005 0.067-0.010 0.099-0.049 0.412-0.479 0.999-1.514 1.281-0.63 0.169-1.226 0.298-1.808 0.394-0.168 0.809-0.267 1.598-0.292 2.348 0.521-0.185 1.037-0.317 1.536-0.395-0.164-0.158-0.486-0.334-0.824-0.514-0.090-0.051-0.306-0.168-0.306-0.387 0-0.025 0.012-0.092 0.023-0.118 0.059-0.201 0.301-0.227 0.478-0.227 0.083 0 0.189 0.007 0.323 0.023 1.009 0.052 1.645 0.283 1.918 0.707 0.108 0.171 0.132 0.336 0.132 0.439 0 0.006 0 0.012 0 0.020 1.142 0.118 2.105 0.555 2.725 1.241 0.497 0.545 0.76 1.238 0.76 1.993 0.001 0.059-0.001 0.127-0.006 0.187z"></path>
</svg>
