<!-- Generated by IcoMoon.io -->
<svg version="1.1" xmlns="http://www.w3.org/2000/svg" width="32" height="32" viewBox="0 0 32 32">
<title>brand-instagram</title>
<path d="M26.111 2h-20.223c-2.147 0-3.889 1.741-3.889 3.889v20.222c0 2.148 1.741 3.889 3.889 3.889h20.222c2.148 0 3.889-1.741 3.889-3.889v-20.223c0-2.147-1.741-3.889-3.889-3.889zM16 10.556c3.007 0 5.444 2.438 5.444 5.444s-2.438 5.444-5.444 5.444-5.444-2.438-5.444-5.444 2.438-5.444 5.444-5.444zM26.889 26.111c0 0.43-0.348 0.778-0.778 0.778h-20.222c-0.43 0-0.778-0.348-0.778-0.778v-12.445h2.656c-0.21 0.742-0.322 1.524-0.322 2.333 0 4.725 3.83 8.556 8.556 8.556s8.556-3.831 8.556-8.556c0-0.809-0.113-1.592-0.322-2.333h2.656v12.445zM26.889 9.778c0 0.43-0.348 0.778-0.778 0.778h-3.889c-0.43 0-0.778-0.348-0.778-0.778v-3.889c0-0.43 0.348-0.778 0.778-0.778h3.889c0.43 0 0.778 0.348 0.778 0.778v3.889z"></path>
</svg>
