<!-- Generated by IcoMoon.io -->
<svg version="1.1" xmlns="http://www.w3.org/2000/svg" width="32" height="32" viewBox="0 0 32 32">
<title>brand-facebook</title>
<path d="M28.455 2h-24.909c-0.854 0-1.545 0.692-1.545 1.546v24.909c0 0.853 0.692 1.545 1.545 1.545h13.41v-10.843h-3.649v-4.226h3.649v-3.116c0-3.617 2.209-5.586 5.435-5.586 1.545 0 2.873 0.115 3.261 0.167v3.779l-2.238 0.001c-1.755 0-2.094 0.834-2.094 2.057v2.698h4.185l-0.545 4.226h-3.64v10.843h7.135c0.853 0 1.545-0.692 1.545-1.545v-24.909c0-0.854-0.692-1.546-1.545-1.546z"></path>
</svg>
