<?xml version="1.0" encoding="utf-8"?>
<!-- Generator: Adobe Illustrator 17.0.1, SVG Export Plug-In . SVG Version: 6.00 Build 0)  -->
<!DOCTYPE svg PUBLIC "-//W3C//DTD SVG 1.1//EN" "http://www.w3.org/Graphics/SVG/1.1/DTD/svg11.dtd">
<svg version="1.1" id="Layer_1" xmlns="http://www.w3.org/2000/svg" xmlns:xlink="http://www.w3.org/1999/xlink" x="0px" y="0px"
	 width="1024px" height="1024px" viewBox="0 0 1024 1024" enable-background="new 0 0 1024 1024" xml:space="preserve">
<path d="M64,64v896h896V64H64z M586.59,787.8l-106.65,50.19v0C299.06,822,160,725.89,160,609.68
	c0-112.17,129.55-205.62,301.22-226.37v67.74c-112.23,19.43-194.57,83.06-194.57,158.63c0,79.71,91.6,146.2,213.29,161.46v0V238.11
	l106.65-52.1V787.8z M657.76,522.05l57.81-32.6c-30.8-17.84-68.47-31.17-110.27-38.41v-67.71c72.9,8.81,138.21,30.7,189.22,61.61
	l54.76-30.87L864,566.92L657.76,522.05z"/>
</svg>
