<?xml version="1.0" encoding="utf-8"?>
<!-- Generator: Adobe Illustrator 17.1.0, SVG Export Plug-In . SVG Version: 6.00 Build 0)  -->
<!DOCTYPE svg PUBLIC "-//W3C//DTD SVG 1.1//EN" "http://www.w3.org/Graphics/SVG/1.1/DTD/svg11.dtd">
<svg version="1.1" id="Layer_1" xmlns="http://www.w3.org/2000/svg" xmlns:xlink="http://www.w3.org/1999/xlink" x="0px" y="0px"
	 viewBox="0 0 1024 1024" enable-background="new 0 0 1024 1024" xml:space="preserve">
<g>
	<path d="M921.5,412.8c-6.8,0-13.3,0.7-19.7,2c-24.5-62.9-72.5-114-133.2-142.7c0.5-4,0.8-8,0.8-12.1c0-53.3-43.2-96.5-96.5-96.5
		c-22.6,0-43.3,7.8-59.8,20.8v151.3c16.4,13,37.2,20.8,59.8,20.8c32.9,0,62-16.5,79.4-41.7c49.7,24.5,88.7,67.3,108.2,119.7
		c-21.7,17.7-35.5,44.6-35.5,74.8c0,30.5,14.2,57.7,36.3,75.3c-19.2,53.4-58.6,97-108.9,121.8c-17.4-25.2-46.5-41.7-79.4-41.7
		c-22.6,0-43.3,7.8-59.8,20.8V837c16.4,13,37.2,20.8,59.8,20.8c53.3,0,96.5-43.2,96.5-96.5c0-4.1-0.3-8.2-0.8-12.1
		C830.1,720.1,878.5,668,902.7,604c6.1,1.2,12.4,1.9,18.8,1.9c53.3,0,96.5-43.2,96.5-96.5C1018,456,974.8,412.8,921.5,412.8z"/>
	<path d="M0,887.3l560.3,101.9V34.8L1.2,136.7L0,887.3z M209.9,337c39.4-24.9,87.5-17,130.9-10.9c0.6,26.4,1.3,52.9,1.9,79.3
		c-36.2-11.4-82.3-34.4-112.1,2.4c-20.7,54.2,44.9,74.6,76.6,102.9c61.9,40.1,67.2,143,9.6,188.8c-45.7,33.1-105.5,19.1-153.6-0.6
		c-0.6-28-1.3-56-2.2-84.1c30.9,22.8,76.6,56.5,113.4,25.2c28.5-47.8-27.5-78.2-59.8-101.3C145.1,496.7,142.5,381.9,209.9,337z"/>
</g>
</svg>
