<!-- Generated by IcoMoon.io -->
<svg version="1.1" xmlns="http://www.w3.org/2000/svg" width="32" height="32" viewBox="0 0 32 32">
<title>brand-youtube</title>
<path d="M31.68 9.602c0 0-0.313-2.205-1.272-3.176-1.217-1.275-2.581-1.281-3.206-1.356-4.478-0.324-11.195-0.324-11.195-0.324h-0.014c0 0-6.717 0-11.195 0.324-0.626 0.075-1.989 0.081-3.206 1.356-0.959 0.971-1.272 3.176-1.272 3.176s-0.32 2.59-0.32 5.179v2.428c0 2.589 0.32 5.179 0.32 5.179s0.312 2.205 1.272 3.176c1.217 1.275 2.816 1.234 3.528 1.368 2.56 0.246 10.88 0.322 10.88 0.322s6.724-0.010 11.202-0.334c0.626-0.075 1.989-0.081 3.206-1.355 0.959-0.971 1.272-3.176 1.272-3.176s0.32-2.59 0.32-5.179v-2.428c0-2.589-0.32-5.179-0.32-5.179zM12.696 20.151l-0.002-8.991 8.647 4.511-8.645 4.48z"></path>
</svg>
