<!-- Generated by IcoMoon.io -->
<svg version="1.1" xmlns="http://www.w3.org/2000/svg" width="32" height="32" viewBox="0 0 32 32">
<title>brand-linkedin</title>
<path d="M27.926 2h-23.859c-1.141 0-2.067 0.904-2.067 2.018v23.962c0 1.115 0.926 2.020 2.067 2.020h23.859c1.142 0 2.074-0.905 2.074-2.020v-23.962c0-1.113-0.932-2.018-2.074-2.018zM10.304 25.86h-4.155v-13.362h4.155v13.362zM8.227 10.671c-1.331 0-2.407-1.079-2.407-2.409 0-1.328 1.076-2.407 2.407-2.407 1.328 0 2.407 1.079 2.407 2.407-0 1.33-1.079 2.409-2.407 2.409zM25.858 25.86h-4.148v-6.498c0-1.551-0.030-3.543-2.159-3.543-2.161 0-2.491 1.688-2.491 3.431v6.61h-4.152v-13.362h3.984v1.825h0.057c0.554-1.050 1.909-2.158 3.93-2.158 4.202 0 4.978 2.767 4.978 6.366v7.329z"></path>
</svg>
