<?xml version="1.0" encoding="utf-8"?>
<!-- Generator: Adobe Illustrator 17.0.1, SVG Export Plug-In . SVG Version: 6.00 Build 0)  -->
<!DOCTYPE svg PUBLIC "-//W3C//DTD SVG 1.1//EN" "http://www.w3.org/Graphics/SVG/1.1/DTD/svg11.dtd">
<svg version="1.1" id="Layer_1" xmlns="http://www.w3.org/2000/svg" xmlns:xlink="http://www.w3.org/1999/xlink" x="0px" y="0px"
	 width="1024px" height="1024px" viewBox="0 0 1024 1024" enable-background="new 0 0 1024 1024" xml:space="preserve">
<g id="Lozenge_2_">
	<g>
		<path d="M1013.77,307.26c0,0-10.01-70.56-40.71-101.64c-38.94-40.79-82.59-40.99-102.6-43.38
			c-143.29-10.36-358.24-10.36-358.24-10.36h-0.45c0,0-214.94,0-358.24,10.36c-20.02,2.39-63.65,2.59-102.6,43.38
			c-30.7,31.07-40.69,101.64-40.69,101.64S0,390.13,0,472.99v77.69c0,82.86,10.24,165.73,10.24,165.73s9.99,70.57,40.69,101.64
			c38.95,40.79,90.12,39.5,112.91,43.77C245.77,869.68,512,872.11,512,872.11s215.17-0.32,358.46-10.68
			c20.02-2.39,63.66-2.59,102.6-43.37c30.7-31.07,40.71-101.64,40.71-101.64S1024,633.55,1024,550.68v-77.69
			C1024,390.13,1013.77,307.26,1013.77,307.26z M406.28,644.82l-0.05-287.72l276.69,144.36L406.28,644.82z"/>
	</g>
</g>
</svg>
