<?xml version="1.0" encoding="utf-8"?>
<!-- Generator: Adobe Illustrator 21.1.0, SVG Export Plug-In . SVG Version: 6.00 Build 0)  -->
<svg version="1.1" id="Layer_1" xmlns="http://www.w3.org/2000/svg" xmlns:xlink="http://www.w3.org/1999/xlink" x="0px" y="0px"
	 viewBox="0 0 1024 1024" enable-background="new 0 0 1024 1024" xml:space="preserve">
<g>
	<path d="M259.68,713.03c-26.31,11.32-50.3,26.51-49.1,65.24c0.91,29.94,21.21,51.6,63.59,51.6c36.39,0,65.4-9.11,87-27.11
		c-1.03-33.57-1.67-63.55-1.67-90.34C319.61,700.15,280.32,704.17,259.68,713.03z"/>
	<path d="M647.78,414.17c18.39-28.72,32.37-55.02,36.37-64.85c0.44-1.01,0.78-1.89,1.19-2.76c-15.93,2.7-32.15,7.01-47.44,12.7
		C639.19,379.01,642.51,397.47,647.78,414.17z"/>
	<path d="M531.89,482l0.15,2.79c0.62,10.79,5.42,17.81,15.33,21.78c15.44,6.12,41.33-12.82,71.99-52.12
		c-9.75-20.79-16.42-46.27-20.11-76.04C563.09,403.53,531.89,450.71,531.89,482z"/>
	<path d="M0,0v1024h1024V0H0z M169.89,225.99l78.51,78.6c80.31-55.23,185.33-38.43,239.08-3.11
		c-57.47,4.08-123.5,38.07-154.46,87.67l86.19,86.2H169.89V225.99z M367.77,868.94c-2.62-10.81-3.94-21.09-3.94-30.78h-3.34
		c-27.13,24.78-64.06,37.09-110.84,37.09c-25.38,0-47.13-7.5-65.51-22.33c-18.32-14.93-27.46-41.7-27.46-69.35
		c0-33.96,9.4-63.25,35.49-87.02c31.16-28.45,96.05-41.23,167.33-21.82c5.21,1.38,1-11.31,1-18.22c0-27.15-7.15-45.17-21.65-54.27
		c-14.46-9.01-36.32-13.5-65.72-13.5c-34.54,0-31.64,6.93-65.17,15.55l-8.52-45.57c33.11-9.61,48.28-17.03,91.27-17.03
		c39.25,0,69.59,8.13,91.04,24.38c21.37,16.17,32.03,43.79,32.03,82.87c0,10.34-0.49,29.12-1.47,56.39
		c-0.99,27.26-1.46,45.4-1.46,54.5c0,40.06,2.94,75.85,8.88,107.13L367.77,868.94z M791.87,876.93l-78.49-78.46
		c-80.28,55.14-185.28,38.33-239.08,3.1c57.49-4.12,123.49-37.98,154.44-87.72l-86.16-86.15h249.3V876.93z M853.67,422.18
		c-5.79,103.51-140.29,142.44-146.04,144.02c-0.55,0.13-1.84,0.39-2.41,0.39c-0.67,0-2.56-0.39-3.25-0.63
		c-4.87-1.91-14.53-5.62-14.53-14.39c0.54-5.7,3.79-11.3,16.06-12.68c-0.21-0.13,110.19-41.72,110.19-109.33
		c0-2.81-0.21-5.82-0.49-8.75c-6.82-48.32-33.66-73.56-82.19-77.09c-19.79,45.52-41.12,84.02-63.24,114.38
		c6.9,10.65,14.58,19.96,23,27.8c1.9,1.88,2.94,4.32,2.94,6.7c0,1.73-0.47,3.21-1.27,4.49c0,0.06-4.54,8.8-15.1,10.43
		c-9.7,1.62-20.23-3.38-31.34-14.56c-1.34-1.34-2.64-2.74-3.82-4.16c-39.24,41.2-73.09,50.09-95.04,50.09
		c-16.02,0-26.38-4.68-29.04-6.09c-12.41-6.34-25.81-26.46-25.99-55.63c0-29.41,13.61-85.14,104.36-132.23
		c-0.45-7.53-0.52-15.2-0.52-23.07c0-19.58,1.03-41.4,3.22-65.08c-19.12,0.92-37.91,0.49-56.86-1.47c-0.8-0.05-2.58-0.69-3.31-1.06
		c-0.15,0-15.95-7.54-27.61-22.92l-3.75-4.52c-4.18-4.81-8.97-10.22-6.4-17.15c0.91-2.54,3.54-6.86,11.31-7.98
		c-0.31,0,11.48-1.98,20.61,5.15c2.31,1.9,4.29,4.07,6.43,6.44c3.96,4.56,6.87,7.68,10.36,8.16c3.1,0.49,14.11,1.62,29.66,1.62
		c7.84,0,15.64-0.27,23.17-1c1.89-14.48,4.16-29.9,6.82-45.94c-1.25-2.67-3.96-7.37-10.36-9.94c-7.59-2.97-15.23-6.08-15.23-13.6
		c0-0.41,0.12-1.55,0.12-1.91c1.01-7.56,9.01-8.4,13.35-8.92c0.26,0,2.19,0,2.37,0.03c50.17,9.94,68.58,17.95,68.58,29.44
		c0,0.5-0.16,1.68-0.31,2.23l-2.76,8.99c-2.09,6.47-5.31,16.39-8.77,28.79c14.28-5.1,26.51-11.52,36.47-19.26
		c20.3-15.85,38.56-20.83,50.47-14.16c6.3,3.56,9.88,9.94,9.88,17.49c0,1.05-0.17,2.15-0.33,3.16
		c-1.58,13.2-15.34,31.97-48.45,40.99c-20.16,5.4-39.22,9.54-57.87,12.61c-5.37,25.9-8.53,51.15-9.35,75.12
		c16.67-5.91,33.17-10.13,49.16-12.63c-5.24-5.05-15.56-10.69-26.38-16.44c-2.87-1.62-9.8-5.38-9.8-12.39c0-0.8,0.38-2.95,0.75-3.77
		c1.88-6.44,9.63-7.25,15.31-7.25c2.66,0,6.04,0.22,10.32,0.74c32.29,1.66,52.64,9.07,61.36,22.61c3.47,5.46,4.23,10.74,4.23,14.04
		c0,0.2,0,0.4,0,0.64c36.53,3.77,67.35,17.76,87.19,39.71c15.92,17.45,24.32,39.61,24.32,63.77
		C853.9,418.11,853.84,420.26,853.67,422.18z"/>
</g>
</svg>
