<?xml version="1.0" encoding="utf-8"?>
<!-- Generator: Adobe Illustrator 17.0.1, SVG Export Plug-In . SVG Version: 6.00 Build 0)  -->
<!DOCTYPE svg PUBLIC "-//W3C//DTD SVG 1.1//EN" "http://www.w3.org/Graphics/SVG/1.1/DTD/svg11.dtd">
<svg version="1.1" id="Layer_1" xmlns="http://www.w3.org/2000/svg" xmlns:xlink="http://www.w3.org/1999/xlink" x="0px" y="0px"
	 width="1024px" height="1024px" viewBox="0 0 1024 1024" enable-background="new 0 0 1024 1024" xml:space="preserve">
<path d="M893.63,64H130.14C93.64,64,64,92.94,64,128.56v766.79C64,931.03,93.64,960,130.14,960h763.49
	c36.54,0,66.37-28.97,66.37-64.65V128.56C960,92.94,930.17,64,893.63,64z M329.73,827.52H196.78V399.94h132.95V827.52z
	 M263.27,341.47c-42.6,0-77.03-34.53-77.03-77.08c0-42.5,34.43-77.03,77.03-77.03c42.49,0,77.02,34.53,77.02,77.03
	C340.28,306.94,305.75,341.47,263.27,341.47z M827.46,827.52H694.72V619.59c0-49.62-0.97-113.39-69.08-113.39
	c-69.16,0-79.71,54.02-79.71,109.8v211.52H413.08V399.94h127.49v58.4h1.81c17.74-33.61,61.1-69.06,125.76-69.06
	c134.47,0,159.31,88.54,159.31,203.71V827.52z"/>
</svg>
