<?xml version="1.0" encoding="utf-8"?>
<!-- Generator: Adobe Illustrator 19.2.1, SVG Export Plug-In . SVG Version: 6.00 Build 0)  -->
<svg version="1.1" id="Layer_1" xmlns="http://www.w3.org/2000/svg" xmlns:xlink="http://www.w3.org/1999/xlink" x="0px" y="0px"
	 viewBox="0 0 1024 1024" enable-background="new 0 0 1024 1024" xml:space="preserve">
<path fill-rule="evenodd" clip-rule="evenodd" d="M835.56,64H188.44C119.72,64,64,119.72,64,188.44v647.11
	C64,904.28,119.72,960,188.44,960h647.11C904.28,960,960,904.28,960,835.56V188.44C960,119.72,904.28,64,835.56,64z M512,337.78
	c96.22,0,174.22,78,174.22,174.22s-78,174.22-174.22,174.22s-174.22-78-174.22-174.22S415.78,337.78,512,337.78z M860.44,835.56
	c0,13.75-11.14,24.89-24.89,24.89H188.44c-13.75,0-24.89-11.14-24.89-24.89V437.33h84.98c-6.71,23.74-10.31,48.78-10.31,74.67
	c0,151.2,122.57,273.78,273.78,273.78S785.78,663.2,785.78,512c0-25.89-3.6-50.93-10.31-74.67h84.98V835.56z M860.44,312.89
	c0,13.75-11.14,24.89-24.89,24.89H711.11c-13.75,0-24.89-11.14-24.89-24.89V188.44c0-13.75,11.14-24.89,24.89-24.89h124.44
	c13.75,0,24.89,11.14,24.89,24.89V312.89z"/>
</svg>
