<?xml version="1.0" encoding="utf-8"?>
<!-- Generator: Adobe Illustrator 17.0.1, SVG Export Plug-In . SVG Version: 6.00 Build 0)  -->
<!DOCTYPE svg PUBLIC "-//W3C//DTD SVG 1.1//EN" "http://www.w3.org/Graphics/SVG/1.1/DTD/svg11.dtd">
<svg version="1.1" id="Layer_1" xmlns="http://www.w3.org/2000/svg" xmlns:xlink="http://www.w3.org/1999/xlink" x="0px" y="0px"
	 width="1024px" height="1024px" viewBox="0 0 1024 1024" enable-background="new 0 0 1024 1024" xml:space="preserve">
<g>
	<path d="M512,0C229.25,0,0,229.23,0,512c0,209.65,126.07,389.75,306.47,468.94c-1.44-35.75-0.26-78.67,8.91-117.57
		c9.84-41.57,65.88-278.98,65.88-278.98s-16.36-32.69-16.36-81.01c0-75.87,43.98-132.54,98.74-132.54
		c46.57,0,69.07,34.98,69.07,76.87c0,46.82-29.86,116.84-45.21,181.7c-12.83,54.31,27.23,98.61,80.81,98.61
		c97.01,0,162.34-124.59,162.34-272.21c0-112.21-75.58-196.2-213.04-196.2c-155.31,0-252.06,115.82-252.06,245.19
		c0,44.6,13.15,76.06,33.75,100.42c9.47,11.19,10.79,15.69,7.36,28.54c-2.45,9.42-8.1,32.1-10.43,41.09
		c-3.41,12.97-13.91,17.6-25.64,12.81c-71.53-29.2-104.85-107.54-104.85-195.6c0-145.44,122.66-319.84,365.92-319.84
		c195.47,0,324.12,141.45,324.12,293.29c0,200.85-111.66,350.9-276.25,350.9c-55.28,0-107.27-29.88-125.08-63.82
		c0,0-29.72,117.96-36.02,140.74c-10.85,39.48-32.1,78.93-51.53,109.68c46.05,13.59,94.69,21,145.1,21
		c282.73,0,511.97-229.23,511.97-512C1023.97,229.23,794.74,0,512,0z"/>
</g>
</svg>
