<!-- Generated by IcoMoon.io -->
<svg version="1.1" xmlns="http://www.w3.org/2000/svg" width="32" height="32" viewBox="0 0 32 32">
<title>brand-twitter</title>
<path d="M2 2v28h28v-28h-28zM23.307 12.255c0.007 0.162 0.011 0.324 0.011 0.488 0 4.982-3.792 10.726-10.726 10.726-2.129 0-4.111-0.624-5.779-1.694 0.295 0.035 0.595 0.052 0.899 0.052 1.766 0 3.392-0.603 4.682-1.614-1.65-0.030-3.042-1.12-3.522-2.618 0.23 0.044 0.466 0.067 0.709 0.067 0.344 0 0.677-0.046 0.993-0.132-1.725-0.346-3.024-1.87-3.024-3.697 0-0.016 0-0.032 0-0.047 0.508 0.283 1.090 0.452 1.707 0.472-1.012-0.676-1.677-1.83-1.677-3.138 0-0.691 0.186-1.338 0.51-1.895 1.859 2.281 4.637 3.782 7.77 3.939-0.064-0.276-0.098-0.564-0.098-0.859 0-2.082 1.688-3.77 3.77-3.77 1.084 0 2.064 0.458 2.752 1.191 0.859-0.169 1.666-0.483 2.394-0.915-0.282 0.88-0.879 1.619-1.657 2.086 0.762-0.091 1.489-0.294 2.165-0.594-0.506 0.756-1.145 1.42-1.881 1.952z"></path>
</svg>
