<?xml version="1.0" encoding="utf-8"?>
<!-- Generator: Adobe Illustrator 21.1.0, SVG Export Plug-In . SVG Version: 6.00 Build 0)  -->
<svg version="1.1" id="Layer_1" xmlns="http://www.w3.org/2000/svg" xmlns:xlink="http://www.w3.org/1999/xlink" x="0px" y="0px"
	 viewBox="0 0 1024 1024" enable-background="new 0 0 1024 1024" xml:space="preserve">
<path d="M512,1023.99c-282.67,0-512-229.34-512-512s229.33-512,512-512s512,229.34,512,512S794.67,1023.99,512,1023.99z
	 M607.33,475.32H365.99v88h144.67c-10.67,70.67-77.33,110-144.67,110c-88.67,0-159.33-73.33-159.33-161.33
	s70.67-161.33,159.33-161.33c37.33,0,74.67,12.67,102,39.33l69.33-67.33c-47.33-44-106.67-66.67-171.33-66.67
	c-142,0-256,114.67-256,256s114,256,256,256c147.33,0,245.33-104,245.33-250C611.33,503.32,610,489.32,607.33,475.32z M914,548.65
	v-73.33h-72.67v-73.33H768v73.33h-73.33v73.33H768v73.33h73.33v-73.33H914z"/>
</svg>
