<?xml version="1.0" encoding="utf-8"?>
<!-- Generator: Adobe Illustrator 17.0.1, SVG Export Plug-In . SVG Version: 6.00 Build 0)  -->
<!DOCTYPE svg PUBLIC "-//W3C//DTD SVG 1.1//EN" "http://www.w3.org/Graphics/SVG/1.1/DTD/svg11.dtd">
<svg version="1.1" id="Layer_1" xmlns="http://www.w3.org/2000/svg" xmlns:xlink="http://www.w3.org/1999/xlink" x="0px" y="0px"
	 width="1024px" height="1024px" viewBox="0 0 1024 1024" enable-background="new 0 0 1024 1024" xml:space="preserve">
<path d="M910.55,63.99h-797.1C86.13,63.99,64,86.13,64,113.45v797.1C64,937.86,86.13,960,113.45,960h429.13V613.02H425.82V477.79
	h116.77v-99.72c0-115.73,70.68-178.75,173.92-178.75c49.45,0,91.95,3.68,104.34,5.33v120.94l-71.61,0.03
	c-56.15,0-67.02,26.68-67.02,65.83v86.33h133.91l-17.44,135.23H682.22V960h228.33c27.31,0,49.45-22.14,49.45-49.45v-797.1
	C960,86.13,937.86,63.99,910.55,63.99z"/>
</svg>
