<!-- Generated by IcoMoon.io -->
<svg version="1.1" xmlns="http://www.w3.org/2000/svg" width="32" height="32" viewBox="0 0 32 32">
<title>brand-open-id</title>
<path d="M2 2v28h28v-28h-28zM18.331 24.619l-3.333 1.568c-5.652-0.5-9.998-3.503-9.998-7.135 0-3.505 4.048-6.426 9.413-7.074v2.117c-3.507 0.607-6.080 2.596-6.080 4.957 0 2.491 2.863 4.569 6.665 5.046v0-16.657l3.333-1.628v18.806zM20.555 16.314l1.807-1.019c-0.962-0.557-2.14-0.974-3.446-1.2v-2.116c2.278 0.275 4.319 0.959 5.913 1.925l1.711-0.965 0.46 4.777-6.445-1.402z"></path>
</svg>
