<?xml version="1.0" encoding="utf-8"?>
<!-- Generator: Adobe Illustrator 17.0.1, SVG Export Plug-In . SVG Version: 6.00 Build 0)  -->
<!DOCTYPE svg PUBLIC "-//W3C//DTD SVG 1.1//EN" "http://www.w3.org/Graphics/SVG/1.1/DTD/svg11.dtd">
<svg version="1.1" id="Layer_1" xmlns="http://www.w3.org/2000/svg" xmlns:xlink="http://www.w3.org/1999/xlink" x="0px" y="0px"
	 width="1024px" height="1024px" viewBox="0 0 1024 1024" enable-background="new 0 0 1024 1024" xml:space="preserve">
<path d="M64,64v896h896V64H64z M512.02,831.99c-31.51,0-61.91-4.63-90.69-13.12c12.14-19.22,25.42-43.88,32.21-68.55
	c3.93-14.24,22.51-87.96,22.51-87.96c11.13,21.21,43.63,39.89,78.17,39.89c102.87,0,172.66-93.78,172.66-219.31
	c0-94.9-80.4-183.31-202.57-183.31c-152.04,0-228.7,109-228.7,199.89c0,55.04,20.82,104,65.53,122.25
	c7.33,2.99,13.89,0.1,16.02-8.01c1.46-5.62,4.98-19.79,6.52-25.68c2.14-8.03,1.32-10.84-4.6-17.83
	c-12.88-15.22-21.1-34.88-21.1-62.76c0-80.86,60.47-153.24,157.54-153.24c85.91,0,133.15,52.49,133.15,122.63
	c0,92.26-40.83,170.13-101.46,170.13c-33.49,0-58.52-27.69-50.51-61.63c9.6-40.54,28.26-84.3,28.26-113.56
	c0-26.18-14.06-48.04-43.17-48.04c-34.23,0-61.71,35.42-61.71,82.83c0,30.2,10.22,50.63,10.22,50.63s-35.02,148.38-41.17,174.36
	c-5.73,24.31-6.47,51.13-5.57,73.48C270.82,755.59,192.03,643.02,192.03,512c0-176.73,143.28-319.99,320-319.99
	C688.73,192.01,832,335.27,832,512C832,688.73,688.73,831.99,512.02,831.99z"/>
</svg>
