<svg width="16" height="16" viewBox="0 0 16 16" fill="none" xmlns="http://www.w3.org/2000/svg">
<g clip-path="url(#clip0)">
<path d="M11.1678 11.8737C11.3742 12.0572 11.6903 12.0386 11.8737 11.8322L15.8737 7.33219C16.0421 7.14274 16.0421 6.85727 15.8737 6.66782L11.8737 2.16782C11.6903 1.96143 11.3742 1.94284 11.1678 2.1263C10.9614 2.30976 10.9428 2.6258 11.1263 2.83219L14.831 7.00001L11.1263 11.1678C10.9428 11.3742 10.9614 11.6903 11.1678 11.8737Z" fill="black"/>
<path d="M0.167824 11.8738C0.374215 12.0572 0.690252 12.0386 0.873711 11.8322L4.87371 7.33223C5.0421 7.14279 5.0421 6.85731 4.87371 6.66787L0.87371 2.16787C0.690251 1.96147 0.374215 1.94288 0.167824 2.12634C-0.0385687 2.3098 -0.0571577 2.62584 0.126301 2.83223L3.83103 7.00005L0.126301 11.1679C-0.0571581 11.3743 -0.0385672 11.6903 0.167824 11.8738Z" fill="black"/>
<path d="M6.00391 14H7.00391V13H6.00391V14Z" fill="black"/>
<path d="M5.00489 14H4.00489V13H5.00489V14Z" fill="black"/>
<path d="M8.00025 14H9.00025V13H8.00025V14Z" fill="black"/>
</g>
<defs>
<clipPath id="clip0">
<rect width="16" height="16" fill="white"/>
</clipPath>
</defs>
</svg>
