<!-- Generated by IcoMoon.io -->
<svg version="1.1" xmlns="http://www.w3.org/2000/svg" width="32" height="32" viewBox="0 0 32 32">
<title>breadcrumb</title>
<path d="M25.442 7.008l-2.883 1.984 4.818 7.002-4.819 7.015 2.885 1.982 6.181-8.999z"></path>
<path d="M0.6 9.051l5.212 6.943-5.213 6.957 2.801 2.099 6.787-9.057-6.788-9.043z"></path>
<path d="M10 28c0 1.105-0.895 2-2 2s-2-0.895-2-2c0-1.105 0.895-2 2-2s2 0.895 2 2z"></path>
<path d="M16 28c0 1.105-0.895 2-2 2s-2-0.895-2-2c0-1.105 0.895-2 2-2s2 0.895 2 2z"></path>
<path d="M22 28c0 1.105-0.895 2-2 2s-2-0.895-2-2c0-1.105 0.895-2 2-2s2 0.895 2 2z"></path>
</svg>
