<!-- Generated by IcoMoon.io -->
<svg version="1.1" xmlns="http://www.w3.org/2000/svg" width="32" height="32" viewBox="0 0 32 32">
<title>broom</title>
<path d="M30 4.5l-2.5-2.417-4.784 4.713c-3.193-2.769-5.168-2.569-8.716-0.795 2 2 10 10 12 12 1.773-3.546 1.974-5.521-0.79-8.71l4.79-4.79z"></path>
<path d="M0 12c0 1.123 0.944 3.189 2.658 5.671l7.342-3.671-5.777 5.777c0.566 0.713 1.183 1.445 1.849 2.187l7.928-3.964-6 6c0.691 0.691 1.391 1.344 2.089 1.956l7.911-3.956-5.74 5.74c3.53 2.717 6.665 4.26 7.74 4.26 1.5 0 5-11.5 5-11.5l-13.5-13.5c0 0-11.5 3-11.5 5z"></path>
</svg>
