<?xml version="1.0" encoding="utf-8"?>
<!-- Generator: Adobe Illustrator 17.0.1, SVG Export Plug-In . SVG Version: 6.00 Build 0)  -->
<!DOCTYPE svg PUBLIC "-//W3C//DTD SVG 1.1//EN" "http://www.w3.org/Graphics/SVG/1.1/DTD/svg11.dtd">
<svg version="1.1" id="Layer_1" xmlns="http://www.w3.org/2000/svg" xmlns:xlink="http://www.w3.org/1999/xlink" x="0px" y="0px"
	 width="1024px" height="1024px" viewBox="0 0 1024 1024" enable-background="new 0 0 1024 1024" xml:space="preserve">
<g>
	<path d="M960,144l-80-77.35l-153.1,150.8C624.73,128.83,561.54,135.23,448,192c64,64,320,320,384,384
		c56.74-113.47,63.16-176.66-25.29-278.71L960,144z"/>
	<path d="M0,384c0,35.93,30.22,102.04,85.06,181.47L320,448L135.13,632.87c18.11,22.81,37.86,46.25,59.16,69.99L448,576L256,768
		c22.1,22.11,44.5,43,66.84,62.58L576,704L392.31,887.69C505.27,974.63,605.58,1024,640,1024c48,0,160-368,160-368L368,224
		C368,224,0,320,0,384z"/>
</g>
</svg>
