<?xml version="1.0" encoding="UTF-8"?>
<svg width="1024px" height="1024px" viewBox="0 0 1024 1024" version="1.1" xmlns="http://www.w3.org/2000/svg" xmlns:xlink="http://www.w3.org/1999/xlink">
    <!-- Generator: Sketch 57.1 (83088) - https://sketch.com -->
    <title>bubble-show</title>
    <desc>Created with Sketch.</desc>
    <g id="bubble-show" stroke="none" stroke-width="1" fill="none" fill-rule="evenodd">
        <g id="Group" transform="translate(0.000000, 76.000000)" fill="#000000" fill-rule="nonzero">
            <path d="M1024,0 L1024,640 L576,640 L256,896 L256,640 L0,640 L0,0 L1024,0 Z M512,114.229167 C322.9375,114.229167 237,302.871528 237,302.871528 L237,302.871528 L237,337.170139 L237.025798,337.226354 C238.729062,340.924122 324.828125,525.8125 512,525.8125 C701.0625,525.8125 787,337.170139 787,337.170139 L787,337.170139 L787,302.871528 L786.974202,302.815312 C785.270938,299.117545 699.171875,114.229167 512,114.229167 Z M512,182.826389 C587.936523,182.826389 649.5,244.253058 649.5,320.020833 C649.5,395.788609 587.936523,457.215278 512,457.215278 C436.063477,457.215278 374.5,395.788609 374.5,320.020833 C374.5,244.253058 436.063477,182.826389 512,182.826389 Z M512.459866,234.3125 C464.966148,234.3125 426.464883,272.685428 426.464883,320.020833 C426.464883,367.356239 464.966148,405.729167 512.459866,405.729167 C559.953584,405.729167 598.454849,367.356239 598.454849,320.020833 C598.454849,272.685428 559.953584,234.3125 512.459866,234.3125 Z" id="Combined-Shape"></path>
        </g>
    </g>
</svg>