<?xml version="1.0" encoding="UTF-8"?>
<svg width="1024px" height="1024px" viewBox="0 0 1024 1024" version="1.1" xmlns="http://www.w3.org/2000/svg" xmlns:xlink="http://www.w3.org/1999/xlink">
    <!-- Generator: Sketch 52.6 (67491) - http://www.bohemiancoding.com/sketch -->
    <title>bubble-censored</title>
    <desc>Created with Sketch.</desc>
    <g id="bubble-censored" stroke="none" stroke-width="1" fill="none" fill-rule="evenodd">
        <g transform="translate(0.000000, 64.000000)" fill="#000000">
            <polygon id="Path" points="361.14 368 457.14 368 470.86 272 374.86 272"></polygon>
            <path d="M1024,0 L0,0 L0,640 L256,640 L256,896 L576,640 L1024,640 L1024,0 Z M640,272 L534.86,272 L521.15,368 L624,368 L608,432 L512,432 L496,544 L432,544 L448,432 L352,432 L336,544 L272,544 L288,432 L176,432 L192,368 L297.14,368 L310.85,272 L208,272 L224,208 L320,208 L336,96 L400,96 L384,208 L480,208 L496,96 L560,96 L544,208 L656,208 L640,272 Z M784,544 C757.49,544 736,522.51 736,496 C736,469.49 757.49,448 784,448 C810.51,448 832,469.49 832,496 C832,522.51 810.51,544 784,544 Z M816,416 L752,416 L736,96 L832,96 L816,416 Z" id="Shape" fill-rule="nonzero"></path>
        </g>
    </g>
</svg>