<!-- Generated by IcoMoon.io -->
<svg version="1.1" xmlns="http://www.w3.org/2000/svg" width="32" height="32" viewBox="0 0 32 32">
<title>bubble-show</title>
<path d="M32 2.375v20h-14l-10 8v-8h-8v-20h32zM16 5.945c-5.908 0-8.594 5.895-8.594 5.895v0 1.072l0.001 0.002c0.053 0.116 2.744 5.893 8.593 5.893 5.908 0 8.594-5.895 8.594-5.895v0-1.072l-0.001-0.002c-0.053-0.116-2.744-5.893-8.593-5.893zM16 8.088c2.373 0 4.297 1.92 4.297 4.287s-1.924 4.287-4.297 4.287c-2.373 0-4.297-1.92-4.297-4.287s1.924-4.287 4.297-4.287zM16.014 9.697c-1.484 0-2.687 1.199-2.687 2.678s1.203 2.678 2.687 2.678c1.484 0 2.687-1.199 2.687-2.678s-1.203-2.678-2.687-2.678z"></path>
</svg>
