<?xml version="1.0" encoding="UTF-8"?>
<svg width="1024px" height="1024px" viewBox="0 0 1024 1024" version="1.1" xmlns="http://www.w3.org/2000/svg" xmlns:xlink="http://www.w3.org/1999/xlink">
    <!-- Generator: Sketch 57.1 (83088) - https://sketch.com -->
    <title>bubble-hide</title>
    <desc>Created with Sketch.</desc>
    <g id="bubble-hide" stroke="none" stroke-width="1" fill="none" fill-rule="evenodd">
        <g id="Group" transform="translate(0.000000, 64.000000)" fill="#000000" fill-rule="nonzero">
            <path d="M1024,0 L1024,640 L576,640 L256,896 L256,640 L0,640 L0,0 L1024,0 Z M329.363365,60 L297.338639,82.9274704 L359.952213,170.199944 L357.657927,171.826791 C282.350237,225.756029 247,303.430916 247,303.430916 L247,303.430916 L247,336.569084 L247.024898,336.623398 C248.668728,340.196057 331.763405,518.829012 512.404008,518.829012 C544.444284,518.829012 573.410644,513.205879 599.406759,503.937547 L599.406759,503.937547 L653.980458,580 L686,557.077707 L636.133075,487.575577 L636.148626,487.565221 L592.014843,426.057673 L592.007715,426.062851 L592.004475,426.068029 L563.00183,385.644641 L563.008958,385.639463 L563.012198,385.634285 L466.440388,251.036364 L466.424837,251.04672 L437.427375,210.62851 L437.435151,210.623332 L437.442926,210.618154 L393.77049,149.747481 L393.762714,149.75007 L393.754939,149.752659 L329.363365,60 Z M512.141882,121 C483.286831,121 456.930345,125.581352 433,133.279059 L433,133.279059 L475.372126,192.443207 L476.46862,192.131841 C487.818808,188.961725 499.778873,187.261362 512.141882,187.261362 C585.277899,187.261362 644.570941,246.59634 644.570941,319.784085 C644.570941,347.95034 635.78717,374.061458 620.816478,395.529104 L620.816478,395.529104 L670.57049,465 L672.731026,463.381118 C743.649098,409.755039 777,336.349425 777,336.349425 L777,336.349425 L777,303.218744 L776.900546,303.002997 C773.649545,296.002882 690.590039,121 512.141882,121 Z M408.383261,237.693074 L439.319416,280.808938 L438.952691,281.497381 C432.893135,293.003373 429.465255,306.101056 429.465255,320 C429.465255,365.756562 466.595898,402.845422 512.404008,402.845422 C517.058945,402.845422 521.620576,402.457084 526.068167,401.721831 L526.068167,401.721831 L557.025056,444.868762 L556.050125,445.211543 C542.37698,449.959275 527.694635,452.552675 512.404008,452.552675 C439.117253,452.552675 379.702004,393.204286 379.702004,320 C379.702004,288.9019 390.427021,260.304696 408.383261,237.693074 L408.383261,237.693074 Z M511.764518,237 C510.166066,237 508.577893,237.046609 507,237.134648 L507,237.134648 L587.98653,351 L588.314439,350.173936 C591.98231,340.787079 594,330.560626 594,319.860128 C594,274.095444 557.184203,237 511.764518,237 Z" id="Combined-Shape"></path>
        </g>
    </g>
</svg>