<svg width="16" height="16" viewBox="0 0 16 16" fill="none" xmlns="http://www.w3.org/2000/svg">
<g clip-path="url(#clip0)">
<path fill-rule="evenodd" clip-rule="evenodd" d="M2.3182 1.00342C1.59435 1.00342 1.00002 1.59774 1.00002 2.3216L1 10.6982C1 11.419 1.59126 12.0078 2.31818 12.0078H4.49776C4.7739 12.0078 4.99776 12.2317 4.99776 12.5078V14.4178L7.67499 12.1278C7.76555 12.0504 7.88081 12.0078 7.99999 12.0078H13.6818C14.4087 12.0078 15 11.419 15 10.6982V2.3216C15 1.59774 14.4057 1.00342 13.6818 1.00342H2.3182ZM2.46763e-05 2.3216C2.46763e-05 1.04546 1.04206 0.00341797 2.3182 0.00341797H13.6818C14.958 0.00341797 16 1.04546 16 2.3216V10.6982C16 11.9774 14.9549 13.0078 13.6818 13.0078H8.18465L4.82276 15.8834C4.67444 16.0102 4.46587 16.0392 4.28859 15.9576C4.11132 15.8759 3.99776 15.6986 3.99776 15.5034V13.0078H2.31818C1.0451 13.0078 0 11.9774 0 10.6982L2.46763e-05 2.3216Z" fill="black"/>
<path fill-rule="evenodd" clip-rule="evenodd" d="M13.4627 6.31738L13.5 6.5L13.4627 6.68262L13.4619 6.68431L13.4605 6.68767L13.4559 6.69816C13.4521 6.7068 13.4468 6.71871 13.4399 6.73366C13.4262 6.76356 13.4063 6.80568 13.3802 6.85829C13.328 6.96343 13.2505 7.1109 13.1466 7.28664C12.9395 7.63707 12.6241 8.10556 12.1902 8.57609C11.3249 9.51456 9.94857 10.5 7.99995 10.5C6.05133 10.5 4.67504 9.51456 3.80968 8.57609C3.37581 8.10556 3.06038 7.63707 2.85325 7.28664C2.74937 7.1109 2.67189 6.96343 2.61969 6.85829C2.59357 6.80568 2.57372 6.76356 2.56 6.73366C2.55314 6.71871 2.54781 6.7068 2.544 6.69816L2.5394 6.68767L2.53795 6.68431L2.53744 6.6831L2.50031 6.5L2.53723 6.31738L2.53795 6.3157L2.5394 6.31233L2.544 6.30184C2.54781 6.2932 2.55314 6.28129 2.56 6.26634C2.57372 6.23644 2.59357 6.19432 2.61969 6.14171C2.67189 6.03657 2.74937 5.8891 2.85325 5.71336C3.06038 5.36293 3.37581 4.89444 3.80968 4.42391C4.67504 3.48544 6.05133 2.5 7.99995 2.5C9.94857 2.5 11.3249 3.48544 12.1902 4.42391C12.6241 4.89444 12.9395 5.36293 13.1466 5.71336C13.2505 5.8891 13.328 6.03657 13.3802 6.14171C13.4063 6.19432 13.4262 6.23644 13.4399 6.26634C13.4468 6.28129 13.4521 6.2932 13.4559 6.30184L13.4605 6.31233L13.4619 6.3157L13.4627 6.31738ZM3.76483 6.8101C3.69233 6.68744 3.6353 6.58179 3.59332 6.5C3.6353 6.41821 3.69233 6.31256 3.76483 6.1899C3.94666 5.88228 4.22246 5.47337 4.59763 5.0665C4.83002 4.81448 5.09674 4.56695 5.39967 4.34514C4.92067 4.89206 4.633 5.59272 4.633 6.35653C4.633 7.99423 5.95548 9.34162 7.65083 9.50569C6.29334 9.39982 5.29211 8.68665 4.59763 7.9335C4.22246 7.52663 3.94666 7.11772 3.76483 6.8101ZM8.3442 9.50606C9.70417 9.40153 10.707 8.68755 11.4023 7.9335C11.7774 7.52663 12.0532 7.11772 12.2351 6.8101C12.3076 6.68744 12.3646 6.58179 12.4066 6.5C12.3646 6.41821 12.3076 6.31256 12.2351 6.1899C12.0532 5.88228 11.7774 5.47337 11.4023 5.0665C11.1692 4.81375 10.9016 4.5655 10.5976 4.3432C11.0776 4.8904 11.3659 5.59182 11.3659 6.35653C11.3659 7.99548 10.0414 9.34369 8.3442 9.50606ZM5.67596 6.35653C5.67596 5.14982 6.71633 4.17143 7.99948 4.17143C9.28262 4.17143 10.323 5.14982 10.323 6.35653C10.323 7.56324 9.28262 8.54164 7.99948 8.54164C6.71633 8.54164 5.67596 7.56324 5.67596 6.35653Z" fill="black"/>
<path d="M13.5 6.5L13.4627 6.31738C13.5124 6.43435 13.5124 6.56565 13.4627 6.68262L13.5 6.5Z" fill="black"/>
<path d="M2.53723 6.31738L2.50031 6.5L2.53744 6.6831C2.48766 6.56613 2.48745 6.43435 2.53723 6.31738Z" fill="black"/>
</g>
<defs>
<clipPath id="clip0">
<rect width="16" height="16" fill="white"/>
</clipPath>
</defs>
</svg>
