<svg width="16" height="17" viewBox="0 0 16 17" fill="none" xmlns="http://www.w3.org/2000/svg">
<path fill-rule="evenodd" clip-rule="evenodd" d="M9.20965 3.01028C9.47782 3.07615 9.64182 3.34694 9.57596 3.61511L9.47926 4.00879H10.9056L11.0609 3.37659C11.1267 3.10841 11.3975 2.94441 11.6657 3.01028C11.9339 3.07615 12.0979 3.34694 12.032 3.61511L11.9353 4.00879H12.4839C12.76 4.00879 12.9839 4.23265 12.9839 4.50879C12.9839 4.78493 12.76 5.00879 12.4839 5.00879H11.6897L11.1955 7.02075H11.8701C12.1463 7.02075 12.3701 7.24461 12.3701 7.52075C12.3701 7.79689 12.1463 8.02075 11.8701 8.02075H10.9499L10.8039 8.61511C10.7381 8.88329 10.4673 9.04729 10.1991 8.98142C9.93092 8.91555 9.76692 8.64476 9.83279 8.37659L9.92019 8.02075H8.49386L8.34787 8.61511C8.28201 8.88329 8.01121 9.04729 7.74304 8.98142C7.47487 8.91555 7.31087 8.64476 7.37674 8.37659L7.46414 8.02075H6.87012C6.59397 8.02075 6.37012 7.79689 6.37012 7.52075C6.37012 7.24461 6.59397 7.02075 6.87012 7.02075H7.70975L8.20392 5.00879H7.48389C7.20774 5.00879 6.98389 4.78493 6.98389 4.50879C6.98389 4.23265 7.20774 4.00879 7.48389 4.00879H8.44954L8.60482 3.37659C8.67069 3.10841 8.94148 2.94441 9.20965 3.01028ZM9.23365 5.00879L8.73947 7.02075H10.1658L10.66 5.00879H9.23365Z" fill="black"/>
<path d="M3.53516 2.99585C3.8113 2.99585 4.03516 3.21971 4.03516 3.49585V6.49585C4.03516 6.77199 3.8113 6.99585 3.53516 6.99585C3.25901 6.99585 3.03516 6.77199 3.03516 6.49585V3.49585C3.03516 3.21971 3.25901 2.99585 3.53516 2.99585Z" fill="black"/>
<path d="M4.03516 8.5C4.03516 8.77614 3.8113 9 3.53516 9C3.25901 9 3.03516 8.77614 3.03516 8.5C3.03516 8.22386 3.25901 8 3.53516 8C3.8113 8 4.03516 8.22386 4.03516 8.5Z" fill="black"/>
<path fill-rule="evenodd" clip-rule="evenodd" d="M2.3182 0.00341797C1.04206 0.00341797 2.46763e-05 1.04546 2.46763e-05 2.3216L0 10.6982C0 11.9774 1.0451 13.0078 2.31818 13.0078H3.99776V15.5034C3.99776 15.6986 4.11132 15.8759 4.28859 15.9576C4.46587 16.0392 4.67444 16.0102 4.82276 15.8834L8.18465 13.0078H13.6818C14.9549 13.0078 16 11.9774 16 10.6982V2.3216C16 1.04546 14.958 0.00341797 13.6818 0.00341797H2.3182ZM1.00002 2.3216C1.00002 1.59774 1.59435 1.00342 2.3182 1.00342H13.6818C14.4057 1.00342 15 1.59774 15 2.3216V10.6982C15 11.419 14.4087 12.0078 13.6818 12.0078H7.99999C7.88081 12.0078 7.76555 12.0504 7.67499 12.1278L4.99776 14.4178V12.5078C4.99776 12.2317 4.7739 12.0078 4.49776 12.0078H2.31818C1.59126 12.0078 1 11.419 1 10.6982L1.00002 2.3216Z" fill="black"/>
</svg>
