<!-- Generated by IcoMoon.io -->
<svg version="1.1" xmlns="http://www.w3.org/2000/svg" width="32" height="32" viewBox="0 0 32 32">
<title>bubble-censored</title>
<path d="M11.286 13.5h3l0.429-3h-3z"></path>
<path d="M32 2h-32v20h8v8l10-8h14v-20zM20 10.5h-3.286l-0.428 3h3.214l-0.5 2h-3l-0.5 3.5h-2l0.5-3.5h-3l-0.5 3.5h-2l0.5-3.5h-3.5l0.5-2h3.286l0.428-3h-3.214l0.5-2h3l0.5-3.5h2l-0.5 3.5h3l0.5-3.5h2l-0.5 3.5h3.5l-0.5 2zM24.5 19c-0.828 0-1.5-0.672-1.5-1.5s0.672-1.5 1.5-1.5c0.828 0 1.5 0.672 1.5 1.5s-0.672 1.5-1.5 1.5zM25.5 15h-2l-0.5-10h3l-0.5 10z"></path>
</svg>
