<svg width="16" height="16" viewBox="0 0 16 16" fill="none" xmlns="http://www.w3.org/2000/svg">
<path fill-rule="evenodd" clip-rule="evenodd" d="M2.3182 1C1.59435 1 1.00002 1.59432 1.00002 2.31818L1 10.6947C1 11.4155 1.59126 12.0044 2.31818 12.0044H4.49776C4.7739 12.0044 4.99776 12.2283 4.99776 12.5044V14.4144L7.67499 12.1244C7.76555 12.047 7.88081 12.0044 7.99999 12.0044H13.6818C14.4087 12.0044 15 11.4155 15 10.6947V2.31818C15 1.59432 14.4057 1 13.6818 1H2.3182ZM2.46763e-05 2.31818C2.46763e-05 1.04204 1.04206 0 2.3182 0H13.6818C14.958 0 16 1.04204 16 2.31818V10.6947C16 11.9739 14.9549 13.0044 13.6818 13.0044H8.18465L4.82276 15.88C4.67444 16.0068 4.46587 16.0358 4.28859 15.9541C4.11132 15.8725 3.99776 15.6952 3.99776 15.5V13.0044H2.31818C1.0451 13.0044 0 11.9739 0 10.6947L2.46763e-05 2.31818Z" fill="black"/>
<path fill-rule="evenodd" clip-rule="evenodd" d="M5 6.98564V9H7.01436L10.5858 5.42857L8.57143 3.41421L5 6.98564ZM4 6.57143V10H7.42857L12 5.42857L8.57143 2L4 6.57143Z" fill="black"/>
</svg>
