<svg width="17" height="17" viewBox="0 0 17 17" fill="none" xmlns="http://www.w3.org/2000/svg">
<path fill-rule="evenodd" clip-rule="evenodd" d="M4.84071 9.59332L4.59932 9.81464C4.39212 10.0046 4.38792 10.3165 4.58994 10.5114C4.79196 10.7062 5.1237 10.7102 5.3309 10.5202L5.67358 10.206C6.43094 10.668 7.36914 11 8.50019 11C10.4488 11 11.8251 10.0146 12.6903 9.07644C13.1241 8.60606 13.4394 8.13771 13.6465 7.7874C13.7504 7.61172 13.8278 7.46428 13.88 7.35916C13.9062 7.30656 13.926 7.26444 13.9397 7.23454C13.9466 7.21959 13.9519 7.20768 13.9557 7.19903L13.9603 7.18853L13.9618 7.18517L13.9623 7.18396C14.0123 7.06644 14.0127 6.93444 13.9627 6.81692L13.9618 6.81483L13.9603 6.81147L13.9557 6.80097C13.9519 6.79232 13.9466 6.78041 13.9397 6.76546C13.926 6.73556 13.9062 6.69344 13.88 6.64084C13.8278 6.53572 13.7504 6.38828 13.6465 6.2126C13.4394 5.86229 13.1241 5.39394 12.6903 4.92356C12.5085 4.72643 12.3041 4.52722 12.0767 4.33551L12.4031 4.03626C12.6103 3.84629 12.6145 3.53435 12.4124 3.33951C12.2104 3.14468 11.8787 3.14073 11.6715 3.3307L11.2295 3.73593C10.4895 3.30441 9.58327 3 8.50019 3C6.55154 3 5.1753 3.98537 4.3101 4.92356C3.87632 5.39394 3.56095 5.86229 3.35387 6.2126C3.25001 6.38828 3.17254 6.53572 3.12034 6.64084C3.09422 6.69344 3.07437 6.73556 3.06066 6.76546C3.0538 6.78041 3.04847 6.79232 3.04465 6.80097L3.04005 6.81147L3.03859 6.81483L3.03808 6.81604C2.98806 6.93356 2.98768 7.06556 3.0377 7.18308L3.03859 7.18517L3.04005 7.18853L3.04465 7.19903C3.04847 7.20768 3.0538 7.21959 3.06066 7.23454C3.07437 7.26444 3.09422 7.30656 3.12034 7.35916C3.17254 7.46428 3.25001 7.61172 3.35387 7.7874C3.56095 8.13771 3.87632 8.60606 4.3101 9.07644C4.4695 9.24929 4.64624 9.42373 4.84071 9.59332ZM4.26982 7.30863C4.19772 7.18666 4.14094 7.08154 4.09906 7C4.14094 6.91846 4.19772 6.81334 4.26982 6.69137C4.45148 6.38407 4.72702 5.97559 5.10184 5.56915C5.85385 4.7537 6.96562 3.98542 8.50019 3.98542C9.24848 3.98542 9.89624 4.1681 10.4508 4.44985L5.59193 8.90459C5.4141 8.75227 5.2509 8.59248 5.10184 8.43085C4.72702 8.02441 4.45148 7.61593 4.26982 7.30863ZM11.3246 5.02504C11.5353 5.19816 11.7263 5.38242 11.8985 5.56915C12.2734 5.97559 12.5489 6.38407 12.7306 6.69137C12.8027 6.81334 12.8594 6.91846 12.9013 7C12.8594 7.08153 12.8027 7.18666 12.7306 7.30863C12.5489 7.61593 12.2734 8.02441 11.8985 8.43085C11.1465 9.2463 10.0347 10.0146 8.50019 10.0146C7.70545 10.0146 7.0241 9.80851 6.4474 9.49656L11.3246 5.02504Z" fill="black"/>
<path fill-rule="evenodd" clip-rule="evenodd" d="M2.81846 1.5C2.09461 1.5 1.50029 2.09432 1.50029 2.81818L1.5 11.1889C1.5 11.1889 1.5 11.1889 1.5 11.1889C1.50001 11.9128 2.09433 12.5071 2.81817 12.5071H4.99971C5.27583 12.5071 5.49968 12.7309 5.49971 13.0071L5.4999 14.9146L8.175 12.6271C8.26556 12.5497 8.38079 12.5071 8.49995 12.5071H14.1817C14.9056 12.5071 15.4999 11.9128 15.4999 11.1889L15.5002 2.81818C15.5002 2.81818 15.5002 2.81819 15.5002 2.81818C15.5002 2.09433 14.9059 1.5 14.182 1.5H2.81846ZM0.500289 2.81816C0.500299 1.54203 1.54233 0.5 2.81846 0.5H14.182C15.4582 0.5 16.5002 1.54204 16.5002 2.81818L16.4999 11.1889C16.4999 11.1889 16.4999 11.1889 16.4999 11.1889C16.4999 12.4651 15.4579 13.5071 14.1817 13.5071H8.68458L5.32495 16.38C5.17664 16.5068 4.96808 16.5358 4.79083 16.4541C4.61358 16.3725 4.50002 16.1952 4.5 16L4.49976 13.5071H2.81817C1.54203 13.5071 0.5 12.4651 0.5 11.1889L0.500289 2.81816C0.500289 2.81817 0.500289 2.81816 0.500289 2.81816Z" fill="black"/>
</svg>
