<?xml version="1.0" encoding="utf-8"?>
<!-- Generator: Adobe Illustrator 17.1.0, SVG Export Plug-In . SVG Version: 6.00 Build 0)  -->
<!DOCTYPE svg PUBLIC "-//W3C//DTD SVG 1.1//EN" "http://www.w3.org/Graphics/SVG/1.1/DTD/svg11.dtd">
<svg version="1.1" id="Layer_1" xmlns="http://www.w3.org/2000/svg" xmlns:xlink="http://www.w3.org/1999/xlink" x="0px" y="0px"
	 width="1024px" height="1024px" viewBox="0 0 1024 1024" enable-background="new 0 0 1024 1024" xml:space="preserve">
<g>
	<polygon points="361.14,496 457.14,496 470.86,400 374.86,400 	"/>
	<path d="M1024,128H0v640h256v256l320-256h448V128z M640,400H534.86l-13.71,96H624l-16,64h-96l-16,112h-64l16-112h-96l-16,112h-64
		l16-112H176l16-64h105.14l13.71-96H208l16-64h96l16-112h64l-16,112h96l16-112h64l-16,112h112L640,400z M784,672
		c-26.51,0-48-21.49-48-48c0-26.51,21.49-48,48-48c26.51,0,48,21.49,48,48C832,650.51,810.51,672,784,672z M816,544h-64l-16-320h96
		L816,544z"/>
</g>
</svg>
