<svg width="16" height="16" viewBox="0 0 16 16" fill="none" xmlns="http://www.w3.org/2000/svg">
<g clip-path="url(#clip0)">
<path fill-rule="evenodd" clip-rule="evenodd" d="M2.3182 1.00342C1.59435 1.00342 1.00002 1.59774 1.00002 2.3216L1 10.6982C1 11.419 1.59126 12.0078 2.31818 12.0078H4.49776C4.7739 12.0078 4.99776 12.2317 4.99776 12.5078V14.4178L7.67499 12.1278C7.76555 12.0504 7.88081 12.0078 7.99999 12.0078H13.6818C14.4087 12.0078 15 11.419 15 10.6982V2.3216C15 1.59774 14.4057 1.00342 13.6818 1.00342H2.3182ZM2.46763e-05 2.3216C2.46763e-05 1.04546 1.04206 0.00341797 2.3182 0.00341797H13.6818C14.958 0.00341797 16 1.04546 16 2.3216V10.6982C16 11.9774 14.9549 13.0078 13.6818 13.0078H8.18465L4.82276 15.8834C4.67444 16.0102 4.46587 16.0392 4.28859 15.9576C4.11132 15.8759 3.99776 15.6986 3.99776 15.5034V13.0078H2.31818C1.0451 13.0078 0 11.9774 0 10.6982L2.46763e-05 2.3216Z" fill="black"/>
</g>
<defs>
<clipPath id="clip0">
<rect width="16" height="16" fill="white"/>
</clipPath>
</defs>
</svg>
