<!-- Generated by IcoMoon.io -->
<svg version="1.1" xmlns="http://www.w3.org/2000/svg" width="32" height="32" viewBox="0 0 32 32">
<title>bubble-hide</title>
<path d="M32 2v20h-14l-10 8v-8h-8v-20h32zM10.293 3.875l-1.001 0.716 1.957 2.727-0.072 0.051c-2.353 1.685-3.458 4.113-3.458 4.113v0 1.036l0.001 0.002c0.051 0.112 2.648 5.694 8.293 5.694 1.001 0 1.906-0.176 2.719-0.465v0l1.705 2.377 1.001-0.716-11.145-15.534zM16.004 5.781c-0.902 0-1.725 0.143-2.473 0.384v0l1.324 1.849 0.034-0.010c0.355-0.099 0.728-0.152 1.115-0.152 2.285 0 4.138 1.854 4.138 4.141 0 0.88-0.274 1.696-0.742 2.367v0l1.555 2.171 0.068-0.051c2.216-1.676 3.258-3.97 3.258-3.97v0-1.035l-0.003-0.007c-0.102-0.219-2.697-5.688-8.274-5.688zM12.762 9.428l0.967 1.347-0.011 0.021c-0.189 0.36-0.296 0.769-0.296 1.203 0 1.43 1.16 2.589 2.592 2.589 0.145 0 0.288-0.012 0.427-0.035v0l0.967 1.348-0.030 0.011c-0.427 0.148-0.886 0.229-1.364 0.229-2.29 0-4.147-1.855-4.147-4.142 0-0.972 0.335-1.865 0.896-2.572v0zM15.993 9.406c-0.050 0-0.1 0.001-0.149 0.004v0l2.531 3.558 0.010-0.026c0.115-0.293 0.178-0.613 0.178-0.947 0-1.43-1.151-2.589-2.57-2.589z"></path>
</svg>
