<?xml version="1.0" encoding="utf-8"?>
<!-- Generator: Adobe Illustrator 17.0.1, SVG Export Plug-In . SVG Version: 6.00 Build 0)  -->
<!DOCTYPE svg PUBLIC "-//W3C//DTD SVG 1.1//EN" "http://www.w3.org/Graphics/SVG/1.1/DTD/svg11.dtd">
<svg version="1.1" id="Layer_1" xmlns="http://www.w3.org/2000/svg" xmlns:xlink="http://www.w3.org/1999/xlink" x="0px" y="0px"
	 width="1024px" height="1024px" viewBox="0 0 1024 1024" enable-background="new 0 0 1024 1024" xml:space="preserve">
<g>
	<path d="M224,448c0-52.93,43.07-96,96-96s96,43.07,96,96v32.89h64V448c0-88.22-71.78-160-160-160s-160,71.78-160,160v32.89h64V448z
		"/>
	<polygon points="64,512 64,640 128,640 189.69,960 448,960 512,640 576,640 576,512 	"/>
	<polygon points="960,384 960,64 640,64 640,384 768,448 768,831 704,831 704,960 768,960 832,960 897,960 897,831 832,831 832,448 
			"/>
</g>
</svg>
