<?xml version="1.0" encoding="utf-8"?>
<!-- Generator: Adobe Illustrator 17.0.1, SVG Export Plug-In . SVG Version: 6.00 Build 0)  -->
<!DOCTYPE svg PUBLIC "-//W3C//DTD SVG 1.1//EN" "http://www.w3.org/Graphics/SVG/1.1/DTD/svg11.dtd">
<svg version="1.1" id="Layer_1" xmlns="http://www.w3.org/2000/svg" xmlns:xlink="http://www.w3.org/1999/xlink" x="0px" y="0px"
	 width="1024px" height="1024px" viewBox="0 0 1024 1024" enable-background="new 0 0 1024 1024" xml:space="preserve">
<g>
	<polygon points="151.82,531.55 6.36,577.48 25.64,638.51 175.66,591.14 	"/>
	<polygon points="193.02,364.95 128,305.84 128,192 64,192 64,334.16 170.89,431.33 	"/>
	<polygon points="512,320 748.31,260.92 704,128 512,64 320,128 275.69,260.92 	"/>
	<polygon points="853.11,431.33 960,334.16 960,192 896,192 896,305.84 830.98,364.95 	"/>
	<polygon points="224.56,713.41 128,819.63 128,960 192,960 192,844.37 250.99,779.48 	"/>
	<polygon points="872.18,531.55 848.34,591.14 998.36,638.51 1017.64,577.48 	"/>
	<polygon points="773.01,779.48 832,844.37 832,960 896,960 896,819.63 799.44,713.41 	"/>
	<polygon points="832,512 768,320 512,384 256,320 192,512 320,832 457.07,877.69 480,832 480,448 544,512 544,832 566.76,877.75 
		704,832 	"/>
</g>
</svg>
