<svg width="16" height="16" viewBox="0 0 16 16" fill="none" xmlns="http://www.w3.org/2000/svg">
<g clip-path="url(#clip0)">
<path fill-rule="evenodd" clip-rule="evenodd" d="M0.436257 5.53887C0.790448 5.90078 1.29571 5.99431 1.82284 5.99431H3.99805V7.99473H0.49585C0.219842 7.99473 -0.00390625 8.2172 -0.00390625 8.49164C-0.00390625 8.76607 0.219842 8.98854 0.49585 8.98854H3.99805V10.3205C3.99805 10.5743 4.01352 10.7549 4.04537 10.9883H1.82284C1.29863 10.9883 0.795807 11.0781 0.441408 11.4297C0.0867291 11.7816 -0.00390625 12.2813 -0.00390625 12.8019V15.4352C-0.00390625 15.7097 0.219842 15.9322 0.49585 15.9322C0.771857 15.9322 0.995606 15.7097 0.995606 15.4352V12.8019C0.995606 12.3569 1.0819 12.1982 1.14744 12.1332C1.21325 12.0679 1.37392 11.9821 1.82284 11.9821H4.31061C4.47879 12.3776 4.71783 12.7872 5.03487 13.0759C5.74554 13.723 6.76334 14.0026 7.99609 14.0026C9.22885 14.0026 10.2467 13.723 10.9573 13.0759C11.2742 12.7874 11.5603 12.3943 11.7285 11.999H14.2044C14.6586 11.999 14.823 12.0851 14.8907 12.1517C14.9569 12.2167 14.9966 12.4218 14.9966 12.8658V15.4992C14.9966 15.7736 15.2203 15.9961 15.4963 15.9961C15.7723 15.9961 15.9961 15.7736 15.9961 15.4992V12.8658C15.9961 12.3443 15.9514 11.7969 15.5935 11.445C15.2372 11.0946 14.7321 11.0052 14.2044 11.0052H11.9938C12.0257 10.7717 11.9941 10.5745 11.9941 10.3205V8.98854H15.4963C15.7723 8.98854 15.9961 8.76607 15.9961 8.49164C15.9961 8.2172 15.7723 7.99473 15.4963 7.99473H11.9941V5.99431H14.1573C14.6879 5.99431 15.1954 5.98175 15.5516 5.62109C15.9054 5.26289 15.9961 4.75518 15.9961 4.22212V1.51033C15.9961 1.2359 15.7723 1.01342 15.4963 1.01342C15.2203 1.01342 14.9966 1.2359 14.9966 1.51033V4.22212C14.9966 4.68337 14.9087 4.85361 14.8385 4.92478C14.7706 4.99348 14.6086 5.0005 14.1573 5.0005H11.9941V3.50305C11.9941 3.22861 11.7704 3.00614 11.4944 3.00614H4.4978C4.22179 3.00614 3.99805 3.22861 3.99805 3.50305V5.0005H1.82284C1.37684 5.0005 1.21861 4.91325 1.15259 4.84579C1.08294 4.77462 0.995606 4.68421 0.995606 4.22212V1.51033C0.995606 1.2359 0.771857 1.01342 0.49585 1.01342C0.219842 1.01342 -0.00390625 1.2359 -0.00390625 1.51033V4.22212C-0.00390625 4.75434 0.085691 5.18067 0.436257 5.53887ZM10.9946 5.37494V3.99995H4.99756V10.3205C4.99756 11.2939 5.26278 11.9359 5.70988 12.343C6.16531 12.7576 6.89665 13.0088 7.99609 13.0088C9.09554 13.0088 9.82688 12.7576 10.2823 12.343C10.7294 11.9359 10.9946 11.2939 10.9946 10.3205V8.61411C10.9846 8.57493 10.9793 8.5339 10.9793 8.49164C10.9793 8.44937 10.9846 8.40834 10.9946 8.36917V5.61988C10.9846 5.5807 10.9793 5.53967 10.9793 5.49741C10.9793 5.45514 10.9846 5.41411 10.9946 5.37494Z" fill="black"/>
<path fill-rule="evenodd" clip-rule="evenodd" d="M5.49988 0.495516C5.49988 0.219693 5.72374 -0.00390625 5.99988 -0.00390625H9.99988C10.276 -0.00390625 10.4999 0.219693 10.4999 0.495516C10.4999 0.771339 10.276 0.994938 9.99988 0.994938H5.99988C5.72374 0.994938 5.49988 0.771339 5.49988 0.495516Z" fill="black"/>
</g>
<defs>
<clipPath id="clip0">
<rect width="16" height="16" fill="white"/>
</clipPath>
</defs>
</svg>
