<!-- Generated by IcoMoon.io -->
<svg version="1.1" xmlns="http://www.w3.org/2000/svg" width="32" height="32" viewBox="0 0 32 32">
<title>bug</title>
<path d="M4.744 16.611l-4.546 1.435 0.603 1.907 4.688-1.48z"></path>
<path d="M6.032 11.405l-2.032-1.847v-3.558h-2v4.442l3.34 3.037z"></path>
<path d="M16 10l7.385-1.846-1.385-4.154-6-2-6 2-1.385 4.154z"></path>
<path d="M26.66 13.479l3.34-3.037v-4.442h-2v3.558l-2.032 1.847z"></path>
<path d="M7.018 22.294l-3.018 3.319v4.387h2v-3.613l1.843-2.028z"></path>
<path d="M27.256 16.611l-0.745 1.862 4.688 1.48 0.602-1.907z"></path>
<path d="M24.157 24.359l1.843 2.028v3.613h2v-4.387l-3.017-3.319z"></path>
<path d="M26 16l-2-6-8 2-8-2-2 6 4 10 4.283 1.428 0.717-1.428v-12l2 2v10l0.711 1.43 4.289-1.43z"></path>
</svg>
