<?xml version="1.0" encoding="utf-8"?>
<!-- Generator: Adobe Illustrator 17.0.1, SVG Export Plug-In . SVG Version: 6.00 Build 0)  -->
<!DOCTYPE svg PUBLIC "-//W3C//DTD SVG 1.1//EN" "http://www.w3.org/Graphics/SVG/1.1/DTD/svg11.dtd">
<svg version="1.1" id="Layer_1" xmlns="http://www.w3.org/2000/svg" xmlns:xlink="http://www.w3.org/1999/xlink" x="0px" y="0px"
	 width="1024px" height="1024px" viewBox="0 0 1024 1024" enable-background="new 0 0 1024 1024" xml:space="preserve">
<path d="M832,960V0H192v960H64v64h896v-64H832z M640,128h128v64H640V128z M640,256h128v64H640V256z M640,384h128v64H640V384z
	 M640,512h128v64H640V512z M640,640h128v64H640V640z M448,128h128v64H448V128z M448,256h128v64H448V256z M448,384h128v64H448V384z
	 M448,512h128v64H448V512z M448,640h128v64H448V640z M256,128h128v64H256V128z M256,256h128v64H256V256z M256,384h128v64H256V384z
	 M256,512h128v64H256V512z M256,640h128v64H256V640z M448,768h128v192H448V768z"/>
</svg>
