<?xml version="1.0" encoding="utf-8"?>
<!-- Generator: Adobe Illustrator 17.0.1, SVG Export Plug-In . SVG Version: 6.00 Build 0)  -->
<!DOCTYPE svg PUBLIC "-//W3C//DTD SVG 1.1//EN" "http://www.w3.org/Graphics/SVG/1.1/DTD/svg11.dtd">
<svg version="1.1" id="Layer_1" xmlns="http://www.w3.org/2000/svg" xmlns:xlink="http://www.w3.org/1999/xlink" x="0px" y="0px"
	 width="1024px" height="1024px" viewBox="0 0 1024 1024" enable-background="new 0 0 1024 1024" xml:space="preserve">
<g>
	<path d="M512,0C229.23,0,0,229.23,0,512s229.23,512,512,512s512-229.23,512-512S794.77,0,512,0z M806.16,806.16
		c-38.24,38.24-82.73,68.24-132.26,89.19C622.67,917.01,568.2,928,512,928s-110.67-10.99-161.9-32.65
		c-49.53-20.95-94.02-50.96-132.26-89.19c-38.24-38.24-68.24-82.73-89.19-132.26C106.99,622.67,96,568.2,96,512
		s10.99-110.67,32.65-161.9c20.95-49.53,50.96-94.02,89.19-132.26c38.24-38.24,82.73-68.24,132.26-89.19
		C401.33,106.99,455.8,96,512,96s110.67,10.99,161.9,32.65c49.53,20.95,94.02,50.96,132.26,89.19
		c38.24,38.24,68.24,82.73,89.19,132.26C917.01,401.33,928,455.8,928,512s-10.99,110.67-32.65,161.9
		C874.4,723.42,844.39,767.92,806.16,806.16z"/>
	<path d="M512,192c-176.73,0-320,143.27-320,320s143.27,320,320,320s320-143.27,320-320S688.73,192,512,192z M670.39,670.39
		C628.08,712.7,571.83,736,512,736s-116.08-23.3-158.39-65.61C311.3,628.08,288,571.83,288,512s23.3-116.08,65.61-158.39
		C395.92,311.3,452.17,288,512,288s116.08,23.3,158.39,65.61C712.7,395.92,736,452.17,736,512S712.7,628.08,670.39,670.39z"/>
	<circle cx="512" cy="512" r="128"/>
</g>
</svg>
