<!-- Generated by IcoMoon.io -->
<svg version="1.1" xmlns="http://www.w3.org/2000/svg" width="32" height="32" viewBox="0 0 32 32">
<title>bullseye</title>
<path d="M16 0c-8.837 0-16 7.163-16 16s7.163 16 16 16 16-7.163 16-16-7.163-16-16-16zM25.192 25.192c-1.195 1.195-2.585 2.133-4.133 2.787-1.601 0.677-3.303 1.020-5.059 1.020s-3.458-0.343-5.059-1.020c-1.548-0.655-2.938-1.593-4.133-2.787s-2.133-2.585-2.787-4.133c-0.677-1.601-1.020-3.303-1.020-5.059s0.343-3.458 1.020-5.059c0.655-1.548 1.593-2.938 2.787-4.133s2.585-2.133 4.133-2.787c1.601-0.677 3.303-1.020 5.059-1.020s3.458 0.343 5.059 1.020c1.548 0.655 2.938 1.593 4.133 2.787s2.133 2.585 2.787 4.133c0.677 1.601 1.020 3.303 1.020 5.059s-0.343 3.458-1.020 5.059c-0.655 1.547-1.593 2.938-2.787 4.133z"></path>
<path d="M16 6c-5.523 0-10 4.477-10 10s4.477 10 10 10 10-4.477 10-10-4.477-10-10-10zM20.95 20.95c-1.322 1.322-3.080 2.050-4.95 2.050s-3.627-0.728-4.95-2.050c-1.322-1.322-2.050-3.080-2.050-4.95s0.728-3.627 2.050-4.95c1.322-1.322 3.080-2.050 4.95-2.050s3.628 0.728 4.95 2.050c1.322 1.322 2.050 3.080 2.050 4.95s-0.728 3.628-2.050 4.95z"></path>
<path d="M20 16c0 2.209-1.791 4-4 4s-4-1.791-4-4c0-2.209 1.791-4 4-4s4 1.791 4 4z"></path>
</svg>
