<!-- Generated by IcoMoon.io -->
<svg version="1.1" xmlns="http://www.w3.org/2000/svg" width="32" height="32" viewBox="0 0 32 32">
<title>c-sharp</title>
<path d="M31 16.875v-2.5l-2 0.333v-2.833l-2.5 0.5v2.75l-3 0.5v-2.75l-2.5 0.5v2.667l-2 0.333v2.5l2-0.333v3l-2 0.333v2.5l2-0.333v2.833l2.5-0.5v-2.75l3-0.5v2.75l2.5-0.5v-2.667l2-0.333v-2.5l-2 0.333v-3l2-0.333zM26.5 20.625l-3 0.5v-3l3-0.5v3z"></path>
<path d="M11.238 8c1.952 0 3.806 0.618 5.362 1.786l1.802-2.399c-2.079-1.562-4.557-2.388-7.163-2.388-1.626 0-3.123 0.327-4.452 0.971-1.272 0.617-2.371 1.514-3.264 2.668-0.836 1.079-1.477 2.361-1.905 3.812-0.409 1.384-0.616 2.894-0.616 4.488s0.207 3.103 0.616 4.488c0.428 1.451 1.069 2.733 1.905 3.812 0.894 1.153 1.992 2.051 3.264 2.668 1.328 0.644 2.826 0.971 4.452 0.971 2.607 0 5.084-0.826 7.163-2.387l-1.802-2.399c-1.556 1.168-3.41 1.786-5.362 1.786-5.336 0-7.237-4.617-7.237-8.938s1.901-8.938 7.237-8.938z"></path>
</svg>
