<?xml version="1.0" encoding="utf-8"?>
<!-- Generator: Adobe Illustrator 17.0.1, SVG Export Plug-In . SVG Version: 6.00 Build 0)  -->
<!DOCTYPE svg PUBLIC "-//W3C//DTD SVG 1.1//EN" "http://www.w3.org/Graphics/SVG/1.1/DTD/svg11.dtd">
<svg version="1.1" id="Layer_1" xmlns="http://www.w3.org/2000/svg" xmlns:xlink="http://www.w3.org/1999/xlink" x="0px" y="0px"
	 width="1024px" height="1024px" viewBox="0 0 1024 1024" enable-background="new 0 0 1024 1024" xml:space="preserve">
<g>
	<path d="M992,540v-80l-64,10.67V380l-80,16v88l-96,16v-88l-80,16v85.33L608,524v80l64-10.67v96L608,700v80l64-10.67V860l80-16v-88
		l96-16v88l80-16v-85.33L992,716v-80l-64,10.67v-96L992,540z M848,660l-96,16v-96l96-16V660z"/>
	<path d="M359.6,256c62.46,0,121.79,19.77,171.57,57.16l57.66-76.76C522.29,186.42,443.02,160,359.6,160
		c-52.02,0-99.95,10.45-142.45,31.06c-40.72,19.74-75.86,48.46-104.46,85.37c-26.75,34.52-47.26,75.55-60.97,121.97
		C38.63,442.69,32,491,32,542s6.63,99.31,19.71,143.6c13.71,46.42,34.22,87.46,60.97,121.97c28.6,36.9,63.75,65.63,104.46,85.37
		C259.65,913.55,307.58,924,359.6,924c83.42,0,162.69-26.42,229.23-76.4l-57.66-76.76C481.39,808.23,422.06,828,359.6,828
		C188.84,828,128,680.26,128,542S188.84,256,359.6,256z"/>
</g>
</svg>
