<svg width="16" height="16" viewBox="0 0 16 16" fill="none" xmlns="http://www.w3.org/2000/svg">
<path fill-rule="evenodd" clip-rule="evenodd" d="M13.0029 2.00317H3.00293C2.45064 2.00317 2.00293 2.45089 2.00293 3.00317V13.0032C2.00293 13.5555 2.45064 14.0032 3.00293 14.0032H13.0029C13.5552 14.0032 14.0029 13.5555 14.0029 13.0032V3.00317C14.0029 2.45089 13.5552 2.00317 13.0029 2.00317ZM3.00293 1.00317C1.89836 1.00317 1.00293 1.8986 1.00293 3.00317V13.0032C1.00293 14.1077 1.89836 15.0032 3.00293 15.0032H13.0029C14.1075 15.0032 15.0029 14.1077 15.0029 13.0032V3.00317C15.0029 1.8986 14.1075 1.00317 13.0029 1.00317H3.00293Z" fill="black"/>
</svg>
