<!-- Generated by IcoMoon.io -->
<svg version="1.1" xmlns="http://www.w3.org/2000/svg" width="32" height="32" viewBox="0 0 32 32">
<title>chain-slash</title>
<path d="M14 8.622v-1.622h-1.162z"></path>
<path d="M20.721 18h1.279v-4h-4.146z"></path>
<path d="M22.662 25l-17.697-24.692-1.931 1.384 3.859 5.384c-1.717 0.236-3.303 1.020-4.55 2.267-1.511 1.511-2.343 3.52-2.343 5.657v2c0 2.137 0.832 4.146 2.343 5.657s3.52 2.343 5.657 2.343h6v-4h-6c-2.206 0-4-1.794-4-4v-2c0-2.206 1.794-4 4-4h1.706l2.15 3h-1.856v4h4.723l3.277 4.573v2.427h1.739l4.796 6.692 1.93-1.383-3.803-5.308z"></path>
<path d="M32 15c0-2.137-0.832-4.146-2.343-5.657s-3.52-2.343-5.657-2.343h-6v4h6c2.206 0 4 1.794 4 4v0 2c0 2.206-1.794 4-4 4h-1.129l2.749 3.836c1.519-0.311 2.915-1.058 4.036-2.179 1.511-1.511 2.343-3.52 2.343-5.657v0-2z"></path>
</svg>
