<!-- Generated by IcoMoon.io -->
<svg version="1.1" xmlns="http://www.w3.org/2000/svg" width="32" height="32" viewBox="0 0 32 32">
<title>chain</title>
<path d="M10 14h12v4h-12v-4z"></path>
<path d="M32 15v0c0-2.137-0.832-4.146-2.343-5.657s-3.52-2.343-5.657-2.343h-6v4h6c2.206 0 4 1.794 4 4v0 0 2c0 2.206-1.794 4-4 4h-6v4h6c2.137 0 4.146-0.832 5.657-2.343s2.343-3.52 2.343-5.657v0-2z"></path>
<path d="M8 11h6v-4h-6c-2.137 0-4.146 0.832-5.657 2.343s-2.343 3.52-2.343 5.657v0 0 2c0 2.137 0.832 4.146 2.343 5.657s3.52 2.343 5.657 2.343h6v-4h-6c-2.206 0-4-1.794-4-4v0 0-2c0-2.206 1.794-4 4-4z"></path>
</svg>
