<?xml version="1.0" encoding="utf-8"?>
<!-- Generator: Adobe Illustrator 18.1.1, SVG Export Plug-In . SVG Version: 6.00 Build 0)  -->
<svg version="1.1" id="Layer_1" xmlns="http://www.w3.org/2000/svg" xmlns:xlink="http://www.w3.org/1999/xlink" x="0px" y="0px"
	 viewBox="0 0 1024 1024" enable-background="new 0 0 1024 1024" xml:space="preserve">
<g>
	<polygon points="448,275.89 448,224 410.81,224 	"/>
	<polygon points="663.08,576 704,576 704,448 571.34,448 	"/>
	<path d="M725.19,800l-91.73-128h-0.04l-68.8-96h0.04l-91.73-128h-0.04l-68.8-96h0.04l-91.73-128h-0.04L158.89,9.86L97.11,54.14
		l123.48,172.3c-54.95,7.56-105.71,32.65-145.61,72.55C26.63,347.33,0,411.62,0,480v64c0,68.38,26.63,132.67,74.98,181.02
		C123.33,773.37,187.62,800,256,800h192V672H256c-70.58,0-128-57.42-128-128v-64c0-70.58,57.42-128,128-128h54.58l68.8,96H320v128
		h151.12L576,722.35V800h55.65l153.46,214.14l61.77-44.27L725.15,800H725.19z"/>
	<path d="M1024,480c0-68.38-26.63-132.67-74.98-181.02C900.67,250.63,836.38,224,768,224H576v128h192c70.58,0,128,57.42,128,128h0
		v64h0c0,70.58-57.42,128-128,128h-36.12l87.98,122.76c48.6-9.95,93.27-33.85,129.16-69.74C997.37,676.67,1024,612.38,1024,544h0
		L1024,480L1024,480z"/>
</g>
</svg>
