<?xml version="1.0" encoding="utf-8"?>
<!-- Generator: Adobe Illustrator 18.1.1, SVG Export Plug-In . SVG Version: 6.00 Build 0)  -->
<svg version="1.1" id="Layer_1" xmlns="http://www.w3.org/2000/svg" xmlns:xlink="http://www.w3.org/1999/xlink" x="0px" y="0px"
	 viewBox="0 0 1024 1024" enable-background="new 0 0 1024 1024" xml:space="preserve">
<g>
	<rect x="320" y="448" width="384" height="128"/>
</g>
<path d="M1024,480L1024,480c0-68.38-26.63-132.67-74.98-181.02C900.67,250.63,836.38,224,768,224H576v128h192
	c70.58,0,128,57.42,128,128h0h0v64h0c0,70.58-57.42,128-128,128H576v128h192c68.38,0,132.67-26.63,181.02-74.98
	C997.37,676.67,1024,612.38,1024,544h0V480z"/>
<path d="M256,352h192V224H256c-68.38,0-132.67,26.63-181.02,74.98C26.63,347.33,0,411.62,0,480h0h0v64h0h0
	c0,68.38,26.63,132.67,74.98,181.02C123.33,773.37,187.62,800,256,800h192V672H256c-70.58,0-128-57.42-128-128h0h0v-64h0h0
	C128,409.42,185.42,352,256,352z"/>
</svg>
