<svg width="16" height="16" viewBox="0 0 16 16" fill="none" xmlns="http://www.w3.org/2000/svg">
<path d="M7.27537 1.85317C7.47041 1.65799 7.47041 1.34155 7.27537 1.14638C7.08033 0.951207 6.76411 0.951207 6.56907 1.14638L3.53297 4.18457L1.85258 2.50301C1.65754 2.30784 1.34132 2.30784 1.14628 2.50301C0.95124 2.69819 0.95124 3.01462 1.14628 3.2098L3.17982 5.24475C3.37486 5.43992 3.69108 5.43992 3.88612 5.24475L7.27537 1.85317Z" fill="black"/>
<path d="M8.01005 3.47886C8.01005 3.20284 8.23366 2.97908 8.50948 2.97908L14.5005 2.97908C14.7764 2.97908 15 3.20284 15 3.47886C15 3.75487 14.7764 3.97863 14.5005 3.97863L8.50948 3.97863C8.23366 3.97863 8.01005 3.75487 8.01005 3.47886Z" fill="black"/>
<path d="M8.00908 12.4699C8.00908 12.1939 8.23268 11.9701 8.50851 11.9701L14.5006 11.9701C14.7764 11.9701 15 12.1939 15 12.4699C15 12.7459 14.7764 12.9697 14.5006 12.9697L8.50851 12.9697C8.23268 12.9697 8.00908 12.7459 8.00908 12.4699Z" fill="black"/>
<path d="M1.85258 9.1491C1.65754 8.95393 1.34132 8.95393 1.14628 9.1491C0.95124 9.34427 0.95124 9.66071 1.14628 9.85589L3.29028 12.0014L1.14628 14.1468C0.95124 14.342 0.95124 14.6584 1.14628 14.8536C1.34132 15.0488 1.65754 15.0488 1.85258 14.8536L3.99657 12.7081L6.14057 14.8536C6.33561 15.0488 6.65183 15.0488 6.84687 14.8536C7.04191 14.6584 7.04191 14.342 6.84687 14.1468L4.70287 12.0014L6.84687 9.85589C7.04191 9.66071 7.04191 9.34427 6.84687 9.1491C6.65183 8.95393 6.33561 8.95393 6.14057 9.1491L3.99657 11.2946L1.85258 9.1491Z" fill="black"/>
</svg>
