<svg width="16" height="16" viewBox="0 0 16 16" fill="none" xmlns="http://www.w3.org/2000/svg">
<path fill-rule="evenodd" clip-rule="evenodd" d="M8 16C12.4183 16 16 12.4183 16 8C16 3.58172 12.4183 0 8 0C3.58172 0 0 3.58172 0 8C0 12.4183 3.58172 16 8 16ZM11.7853 5.52975C11.9805 5.72501 11.9805 6.04159 11.7853 6.23685L6.98092 11.0412C6.78566 11.2365 6.46907 11.2365 6.27381 11.0412L4.21481 8.98219C4.01954 8.78693 4.01954 8.47035 4.21481 8.27509C4.41007 8.07983 4.72665 8.07983 4.92191 8.27509L6.62736 9.98054L11.0782 5.52975C11.2734 5.33449 11.59 5.33449 11.7853 5.52975Z" fill="black"/>
</svg>
