<svg width="16" height="16" viewBox="0 0 16 16" fill="none" xmlns="http://www.w3.org/2000/svg">
<path d="M11.8499 8.78589C12.0472 8.97913 12.0504 9.29569 11.8572 9.49296C11.6639 9.69022 11.3474 9.69348 11.1501 9.50025L8 6.41442L4.84989 9.50025C4.65263 9.69348 4.33606 9.69022 4.14282 9.49296C3.94958 9.29569 3.95285 8.97913 4.15011 8.78589L7.65011 5.35732C7.8445 5.16689 8.15549 5.16689 8.34989 5.35732L11.8499 8.78589Z" fill="black"/>
<path fill-rule="evenodd" clip-rule="evenodd" d="M16 8C16 12.4183 12.4183 16 8 16C3.58171 16 0 12.4183 0 8C0 3.58171 3.58171 0 8 0C12.4183 0 16 3.58171 16 8ZM15 8C15 11.866 11.866 15 8 15C4.134 15 1 11.866 1 8C1 4.134 4.134 1 8 1C11.866 1 15 4.134 15 8Z" fill="black"/>
</svg>
