<svg width="16" height="16" viewBox="0 0 16 16" fill="none" xmlns="http://www.w3.org/2000/svg">
<path d="M1.49967 3C1.22371 3 1 3.22403 1 3.50038C1 3.77674 1.22371 4.00077 1.49967 4.00077H14.491C14.767 4.00077 14.9907 3.77674 14.9907 3.50038C14.9907 3.22403 14.767 3 14.491 3H1.49967Z" fill="black"/>
<path d="M14.7949 12.0954C15.0178 12.2584 15.0666 12.5714 14.9039 12.7946C14.7411 13.0178 14.4285 13.0667 14.2057 12.9037L8.00424 8.15068L1.80361 12.9037C1.58074 13.0667 1.26815 13.0178 1.10542 12.7946C0.942695 12.5714 0.991457 12.2584 1.21433 12.0954L7.7096 7.12698C7.88512 6.99865 8.12336 6.99865 8.29888 7.12698L14.7949 12.0954Z" fill="black"/>
</svg>
