<svg width="16" height="16" viewBox="0 0 16 16" fill="none" xmlns="http://www.w3.org/2000/svg">
<path d="M1.49688 13C1.22084 13 0.99707 12.7761 0.99707 12.5C0.99707 12.2239 1.22084 12 1.49688 12H14.4919C14.7679 12 14.9917 12.2239 14.9917 12.5C14.9917 12.7761 14.7679 13 14.4919 13H1.49688Z" fill="black"/>
<path d="M14.7913 3.90529C15.0145 3.74283 15.0638 3.43011 14.9014 3.20682C14.739 2.98352 14.4264 2.9342 14.2032 3.09666L7.99974 7.87642L1.79629 3.09666C1.57308 2.9342 1.26049 2.98352 1.09809 3.20682C0.935692 3.43011 0.98499 3.74283 1.2082 3.90529L7.70569 8.89906C7.88098 9.02665 8.1185 9.02665 8.29378 8.89906L14.7913 3.90529Z" fill="black"/>
</svg>
