<svg width="16" height="16" viewBox="0 0 16 16" fill="none" xmlns="http://www.w3.org/2000/svg">
<path d="M3 1.49928C3 1.22354 3.22418 1 3.50071 1C3.77725 1 4.00143 1.22354 4.00143 1.49928L4.00143 14.4807C4.00143 14.7564 3.77725 14.98 3.50071 14.98C3.22418 14.98 3 14.7564 3 14.4807L3 1.49928Z" fill="black"/>
<path d="M12.0945 14.7946C12.2573 15.0175 12.5705 15.0666 12.7941 14.9043C13.0176 14.7419 13.0668 14.4296 12.904 14.2067L8.12862 8.00998L12.904 1.81324C13.0668 1.59035 13.0176 1.27805 12.7941 1.1157C12.5705 0.953352 12.2573 1.00243 12.0945 1.22531L7.10442 7.71602C6.97645 7.89122 6.97645 8.12874 7.10442 8.30394L12.0945 14.7946Z" fill="black"/>
</svg>
