<!-- Generated by IcoMoon.io -->
<svg version="1.1" xmlns="http://www.w3.org/2000/svg" width="32" height="32" viewBox="0 0 32 32">
<title>choice-user-scheme</title>
<path d="M6 24h4v2h-4v-2z"></path>
<path d="M12 24h4v2h-4v-2z"></path>
<path d="M18 24h2v2h-2v-2z"></path>
<path d="M24 30h2v2h-2v-2z"></path>
<path d="M30 24h2v2h-2v-2z"></path>
<path d="M24 18h2v2h-2v-2z"></path>
<path d="M7 22l6-6-5-5v-3h10v-2h-12v5l-5 5z"></path>
<path d="M18 22h2v-2h2v-2h-4z"></path>
<path d="M28 20h2v2h2v-4h-4z"></path>
<path d="M30 30h-2v2h4v-4h-2z"></path>
<path d="M20 28h-2v4h4v-2h-2z"></path>
<path d="M29.5 5c0 2.485-2.015 4.5-4.5 4.5s-4.5-2.015-4.5-4.5c0-2.485 2.015-4.5 4.5-4.5s4.5 2.015 4.5 4.5z"></path>
<path d="M27.8 10.5h-5.6l-4.2 1.4v2.1h14v-2.1z"></path>
</svg>
