<!-- Generated by IcoMoon.io -->
<svg version="1.1" xmlns="http://www.w3.org/2000/svg" width="32" height="32" viewBox="0 0 32 32">
<title>choice-single-scheme</title>
<path d="M18 0v6h-12v5l-5 5 6 6 6-6-5-5v-3h10v6h14v-14z"></path>
<path d="M6 24h4v2h-4v-2z"></path>
<path d="M12 24h4v2h-4v-2z"></path>
<path d="M18 24h2v2h-2v-2z"></path>
<path d="M24 30h2v2h-2v-2z"></path>
<path d="M30 24h2v2h-2v-2z"></path>
<path d="M24 18h2v2h-2v-2z"></path>
<path d="M18 22h2v-2h2v-2h-4z"></path>
<path d="M28 20h2v2h2v-4h-4z"></path>
<path d="M30 30h-2v2h4v-4h-2z"></path>
<path d="M20 28h-2v4h4v-2h-2z"></path>
</svg>
