<svg width="16" height="16" viewBox="0 0 16 16" fill="none" xmlns="http://www.w3.org/2000/svg">
<g clip-path="url(#clip0)">
<path fill-rule="evenodd" clip-rule="evenodd" d="M14.4889 3.33547C14.8068 2.98138 15.0001 2.51327 15.0001 2C15.0001 0.89543 14.1047 0 13.0001 0C11.8955 0 11.0001 0.89543 11.0001 2C11.0001 2.51327 11.1934 2.98138 11.5113 3.33547C11.198 3.50074 10.9283 3.72625 10.7064 4.01015C10.2028 4.65466 10.0001 5.53156 10.0001 6.5C10.0001 6.77614 10.224 7 10.5001 7C10.7762 7 11.0001 6.77614 11.0001 6.5C11.0001 5.64981 11.1812 5.02671 11.4944 4.62588C11.7912 4.24603 12.2581 4 13.0001 4C13.7421 4 14.209 4.24603 14.5058 4.62588C14.819 5.02671 15.0001 5.64981 15.0001 6.5C15.0001 6.77614 15.224 7 15.5001 7C15.7762 7 16.0001 6.77614 16.0001 6.5C16.0001 5.53156 15.7974 4.65466 15.2938 4.01015C15.0719 3.72625 14.8022 3.50074 14.4889 3.33547ZM13.0001 1C12.4478 1 12.0001 1.44772 12.0001 2C12.0001 2.55228 12.4478 3 13.0001 3C13.5524 3 14.0001 2.55228 14.0001 2C14.0001 1.44772 13.5524 1 13.0001 1Z" fill="black"/>
<path fill-rule="evenodd" clip-rule="evenodd" d="M2.99825 3.5C2.99825 3.22386 3.22211 3 3.49825 3H8.5002C8.77634 3 9.0002 3.22386 9.0002 3.5C9.0002 3.77614 8.77634 4 8.5002 4H3.99825V4.56808L6.47441 7.68907C6.61881 7.87108 6.61881 8.12859 6.47441 8.3106L3.99814 11.4317V12.5147C3.99814 12.7909 3.77429 13.0147 3.49814 13.0147C3.222 13.0147 2.99814 12.7909 2.99814 12.5147V11.5831L0.401763 8.3106C0.257355 8.12859 0.257355 7.87108 0.401763 7.68907L2.99825 4.41642V3.5ZM3.43809 5.47097L1.43171 7.99984L3.43809 10.5287L5.44446 7.99984L3.43809 5.47097Z" fill="black"/>
<path d="M9.50286 13.0145L9.51377 13.0146C9.78991 13.0146 10.0138 12.7908 10.0138 12.5146L10.0138 11.5146C10.0138 11.2385 9.78991 11.0146 9.51377 11.0146C9.23763 11.0146 9.01377 11.2385 9.01377 11.5146L9.01377 12.0146H8.49033C8.21419 12.0146 7.99033 12.2385 7.99033 12.5146C7.99033 12.7908 8.21419 13.0146 8.49033 13.0146H9.49195L9.50286 13.0145Z" fill="black"/>
<path d="M15.4986 10.9873C15.2225 10.9873 14.9986 10.7634 14.9986 10.4873L14.9986 9.4873C14.9986 9.21116 15.2225 8.9873 15.4986 8.9873C15.7748 8.9873 15.9986 9.21116 15.9986 9.4873L15.9986 10.4873C15.9986 10.7634 15.7748 10.9873 15.4986 10.9873Z" fill="black"/>
<path d="M14.9986 13.5029C14.9986 13.7791 15.2225 14.0029 15.4986 14.0029C15.7748 14.0029 15.9986 13.7791 15.9986 13.5029L15.9986 12.5029C15.9986 12.2268 15.7748 12.0029 15.4986 12.0029C15.2225 12.0029 14.9986 12.2268 14.9986 12.5029L14.9986 13.5029Z" fill="black"/>
<path d="M9.50205 16.0049C9.22591 16.0049 9.00205 15.781 9.00205 15.5049L9.00205 14.5049C9.00205 14.2287 9.22591 14.0049 9.50205 14.0049C9.77819 14.0049 10.002 14.2287 10.002 14.5049L10.0021 15.5049C10.0021 15.781 9.77819 16.0049 9.50205 16.0049Z" fill="black"/>
<path d="M4.99335 12.5146C4.99335 12.2385 5.21721 12.0146 5.49335 12.0146H6.49497C6.77111 12.0146 6.99497 12.2385 6.99497 12.5146C6.99497 12.7908 6.77111 13.0146 6.49497 13.0146H5.49335C5.21721 13.0146 4.99335 12.7908 4.99335 12.5146Z" fill="black"/>
<path d="M8.9918 9.49902C8.9918 9.22288 9.21565 8.99902 9.4918 8.99902H10.4918C10.7679 8.99902 10.9918 9.22288 10.9918 9.49902C10.9918 9.77517 10.7679 9.99902 10.4918 9.99902H9.4918C9.21565 9.99902 8.9918 9.77517 8.9918 9.49902Z" fill="black"/>
<path d="M12.5162 8.99902C12.2401 8.99902 12.0162 9.22288 12.0162 9.49902C12.0162 9.77517 12.2401 9.99902 12.5162 9.99902H13.5162C13.7924 9.99902 14.0162 9.77517 14.0162 9.49902C14.0162 9.22288 13.7924 8.99902 13.5162 8.99902H12.5162Z" fill="black"/>
<path d="M13.9986 15.5049C13.9986 15.2287 14.2225 15.0049 14.4986 15.0049H15.4986C15.7748 15.0049 15.9986 15.2287 15.9986 15.5049C15.9986 15.781 15.7748 16.0049 15.4986 16.0049H14.4986C14.2225 16.0049 13.9986 15.781 13.9986 15.5049Z" fill="black"/>
<path d="M11.503 15.0049C11.2269 15.0049 11.003 15.2287 11.003 15.5049C11.003 15.781 11.2269 16.0049 11.503 16.0049H12.503C12.7792 16.0049 13.003 15.781 13.003 15.5049C13.003 15.2287 12.7792 15.0049 12.503 15.0049H11.503Z" fill="black"/>
</g>
<defs>
<clipPath id="clip0">
<rect width="16" height="16" fill="white"/>
</clipPath>
</defs>
</svg>
