<svg width="16" height="16" viewBox="0 0 16 16" fill="none" xmlns="http://www.w3.org/2000/svg">
<g clip-path="url(#clip0)">
<path fill-rule="evenodd" clip-rule="evenodd" d="M9.49961 -0.000488281C9.22347 -0.000488281 8.99961 0.223369 8.99961 0.499512V2.99951H3.49814C3.222 2.99951 2.99814 3.22337 2.99814 3.49951V4.49225L0.461821 7.68907C0.317414 7.87108 0.317414 8.12859 0.461821 8.3106L2.99814 11.5074V12.4873C2.99814 12.7634 3.222 12.9873 3.49814 12.9873C3.77429 12.9873 3.99814 12.7634 3.99814 12.4873V11.5074L6.53447 8.3106C6.67887 8.12859 6.67887 7.87108 6.53447 7.68907L3.99814 4.49225V3.99951H8.99961V6.49951C8.99961 6.77565 9.22347 6.99951 9.49961 6.99951H15.4986C15.7747 6.99951 15.9986 6.77565 15.9986 6.49951V0.499512C15.9986 0.223369 15.7747 -0.000488281 15.4986 -0.000488281H9.49961ZM9.99961 0.999512H14.9986V5.99951H9.99961V0.999512ZM1.49177 7.99984L3.49814 5.47097L5.50452 7.99984L3.49814 10.5287L1.49177 7.99984Z" fill="black"/>
<path d="M9.50286 13.0145L9.51377 13.0146C9.78991 13.0146 10.0138 12.7908 10.0138 12.5146L10.0138 11.5146C10.0138 11.2385 9.78991 11.0146 9.51377 11.0146C9.23763 11.0146 9.01377 11.2385 9.01377 11.5146L9.01377 12.0146H8.49033C8.21419 12.0146 7.99033 12.2385 7.99033 12.5146C7.99033 12.7908 8.21419 13.0146 8.49033 13.0146H9.49195L9.50286 13.0145Z" fill="black"/>
<path d="M15.4986 10.9873C15.2225 10.9873 14.9986 10.7634 14.9986 10.4873L14.9986 9.4873C14.9986 9.21116 15.2225 8.9873 15.4986 8.9873C15.7748 8.9873 15.9986 9.21116 15.9986 9.4873L15.9986 10.4873C15.9986 10.7634 15.7748 10.9873 15.4986 10.9873Z" fill="black"/>
<path d="M14.9986 13.5029C14.9986 13.7791 15.2225 14.0029 15.4986 14.0029C15.7748 14.0029 15.9986 13.7791 15.9986 13.5029L15.9986 12.5029C15.9986 12.2268 15.7748 12.0029 15.4986 12.0029C15.2225 12.0029 14.9986 12.2268 14.9986 12.5029L14.9986 13.5029Z" fill="black"/>
<path d="M9.51377 16.0049C9.23763 16.0049 9.01377 15.781 9.01377 15.5049L9.01377 14.5049C9.01377 14.2287 9.23763 14.0049 9.51377 14.0049C9.78991 14.0049 10.0138 14.2287 10.0138 14.5049L10.0138 15.5049C10.0138 15.781 9.78991 16.0049 9.51377 16.0049Z" fill="black"/>
<path d="M4.99335 12.5146C4.99335 12.2385 5.21721 12.0146 5.49335 12.0146H6.49497C6.77111 12.0146 6.99497 12.2385 6.99497 12.5146C6.99497 12.7908 6.77111 13.0146 6.49497 13.0146H5.49335C5.21721 13.0146 4.99335 12.7908 4.99335 12.5146Z" fill="black"/>
<path d="M8.9918 9.49902C8.9918 9.22288 9.21565 8.99902 9.4918 8.99902H10.4918C10.7679 8.99902 10.9918 9.22288 10.9918 9.49902C10.9918 9.77517 10.7679 9.99902 10.4918 9.99902H9.4918C9.21565 9.99902 8.9918 9.77517 8.9918 9.49902Z" fill="black"/>
<path d="M12.5162 8.99902C12.2401 8.99902 12.0162 9.22288 12.0162 9.49902C12.0162 9.77517 12.2401 9.99902 12.5162 9.99902H13.5162C13.7924 9.99902 14.0162 9.77517 14.0162 9.49902C14.0162 9.22288 13.7924 8.99902 13.5162 8.99902H12.5162Z" fill="black"/>
<path d="M14.0104 15.5049C14.0104 15.2287 14.2342 15.0049 14.5104 15.0049H15.5104C15.7865 15.0049 16.0104 15.2287 16.0104 15.5049C16.0104 15.781 15.7865 16.0049 15.5104 16.0049H14.5104C14.2342 16.0049 14.0104 15.781 14.0104 15.5049Z" fill="black"/>
<path d="M11.503 15.0049C11.2269 15.0049 11.003 15.2287 11.003 15.5049C11.003 15.781 11.2269 16.0049 11.503 16.0049H12.503C12.7792 16.0049 13.003 15.781 13.003 15.5049C13.003 15.2287 12.7792 15.0049 12.503 15.0049H11.503Z" fill="black"/>
</g>
<defs>
<clipPath id="clip0">
<rect width="16" height="16" fill="white"/>
</clipPath>
</defs>
</svg>
