<!-- Generated by IcoMoon.io -->
<svg version="1.1" xmlns="http://www.w3.org/2000/svg" width="32" height="32" viewBox="0 0 32 32">
<title>chrome</title>
<path d="M15.936 0q4.288-0.032 8.064 2.144 4.16 2.4 6.272 6.656l-13.248-0.704q-2.848-0.16-5.248 1.312t-3.296 4.096l-4.928-7.552q2.304-2.848 5.568-4.384t6.816-1.568zM2.624 7.232l6.016 11.84q1.28 2.56 3.744 3.872t5.248 0.8l-4.128 8.064q-3.776-0.608-6.848-2.816t-4.864-5.632-1.792-7.36q0-4.768 2.624-8.768zM30.944 10.24q1.024 2.688 1.056 5.568t-0.864 5.44-2.752 4.864-4.384 3.744q-4.096 2.368-8.896 2.112l7.232-11.104q1.568-2.336 1.472-5.184t-1.888-4.96zM16 10.592q2.24 0 3.808 1.6t1.6 3.808-1.6 3.808-3.808 1.568-3.808-1.568-1.568-3.808 1.568-3.808 3.808-1.6z"></path>
</svg>
