<svg width="16" height="16" viewBox="0 0 16 16" fill="none" xmlns="http://www.w3.org/2000/svg">
<path fill-rule="evenodd" clip-rule="evenodd" d="M11.5 8C11.5 9.933 9.933 11.5 8 11.5C6.067 11.5 4.5 9.933 4.5 8C4.5 6.067 6.067 4.5 8 4.5C9.933 4.5 11.5 6.067 11.5 8ZM10.5 8C10.5 9.38071 9.38071 10.5 8 10.5C6.61929 10.5 5.5 9.38071 5.5 8C5.5 6.61929 6.61929 5.5 8 5.5C9.38071 5.5 10.5 6.61929 10.5 8Z" fill="black"/>
<path fill-rule="evenodd" clip-rule="evenodd" d="M1.49609 0.996094C1.21995 0.996094 0.996094 1.21995 0.996094 1.49609V14.4961C0.996094 14.7722 1.21995 14.9961 1.49609 14.9961H14.4961C14.7722 14.9961 14.9961 14.7722 14.9961 14.4961V1.49609C14.9961 1.21995 14.7722 0.996094 14.4961 0.996094H1.49609ZM1.99609 13.9961V1.99609H13.9961V13.9961H1.99609Z" fill="black"/>
</svg>
