<!-- Generated by IcoMoon.io -->
<svg version="1.1" xmlns="http://www.w3.org/2000/svg" width="32" height="32" viewBox="0 0 32 32">
<title>circle-slashed</title>
<path d="M31.5 3.5l-2.5-2.5-4.151 4.151c-2.412-1.969-5.492-3.151-8.849-3.151-7.732 0-14 6.268-14 14 0 3.357 1.182 6.437 3.151 8.849l-4.151 4.151 2.5 2.5 4.214-4.214c2.32 1.706 5.185 2.714 8.286 2.714 7.732 0 14-6.268 14-14 0-3.101-1.008-5.966-2.714-8.286l4.214-4.214zM5.5 16c0-5.799 4.701-10.5 10.5-10.5 2.39 0 4.592 0.799 6.357 2.143l-14.714 14.714c-1.344-1.765-2.143-3.967-2.143-6.357zM26.5 16c0 5.799-4.701 10.5-10.5 10.5-2.132 0-4.116-0.636-5.772-1.728l14.544-14.544c1.092 1.656 1.728 3.64 1.728 5.772z"></path>
</svg>
