<?xml version="1.0" encoding="utf-8"?>
<!-- Generator: Adobe Illustrator 17.0.1, SVG Export Plug-In . SVG Version: 6.00 Build 0)  -->
<!DOCTYPE svg PUBLIC "-//W3C//DTD SVG 1.1//EN" "http://www.w3.org/Graphics/SVG/1.1/DTD/svg11.dtd">
<svg version="1.1" id="Layer_1" xmlns="http://www.w3.org/2000/svg" xmlns:xlink="http://www.w3.org/1999/xlink" x="0px" y="0px"
	 width="1024px" height="1024px" viewBox="0 0 1024 1024" enable-background="new 0 0 1024 1024" xml:space="preserve">
<path d="M1008,112l-80-80L795.17,164.83C717.99,101.81,619.41,64,512,64C264.58,64,64,264.58,64,512
	c0,107.41,37.81,205.99,100.83,283.17L32,928l80,80l134.86-134.86C321.1,927.74,412.78,960,512,960c247.42,0,448-200.58,448-448
	c0-99.22-32.26-190.9-86.86-265.14L1008,112z M176,512c0-185.57,150.43-336,336-336c76.47,0,146.95,25.56,203.42,68.58
	L244.58,715.42C201.56,658.95,176,588.47,176,512z M848,512c0,185.57-150.43,336-336,336c-68.23,0-131.7-20.36-184.7-55.3
	l465.4-465.4C827.64,380.3,848,443.77,848,512z"/>
</svg>
