<!-- Generated by IcoMoon.io -->
<svg version="1.1" xmlns="http://www.w3.org/2000/svg" width="32" height="32" viewBox="0 0 32 32">
<title>cogwheel-square</title>
<path d="M20 16c0 2.209-1.791 4-4 4s-4-1.791-4-4c0-2.209 1.791-4 4-4s4 1.791 4 4z"></path>
<path d="M2 2v28h28v-28h-28zM28 17.5l-3.729 0.466c-0.212 0.893-0.564 1.732-1.033 2.492l2.308 2.967-2.121 2.121-2.967-2.308c-0.759 0.469-1.598 0.821-2.492 1.033l-0.466 3.729h-3l-0.466-3.729c-0.893-0.212-1.732-0.564-2.492-1.033l-2.967 2.308-2.121-2.121 2.308-2.967c-0.469-0.759-0.821-1.598-1.033-2.492l-3.729-0.466v-3l3.729-0.466c0.212-0.893 0.564-1.732 1.033-2.492l-2.308-2.967 2.121-2.121 2.967 2.308c0.759-0.469 1.598-0.821 2.492-1.033l0.466-3.729h3l0.466 3.729c0.893 0.212 1.732 0.564 2.492 1.033l2.967-2.308 2.121 2.121-2.308 2.967c0.469 0.759 0.821 1.598 1.033 2.492l3.729 0.466v3z"></path>
</svg>
