<svg width="16" height="16" viewBox="0 0 16 16" fill="none" xmlns="http://www.w3.org/2000/svg">
<g clip-path="url(#clip0)">
<path d="M8.66371 16.0001H7.29628C7.01142 16.0001 6.73557 15.9 6.51673 15.7173C6.29789 15.5346 6.14991 15.2808 6.09854 15.0001L5.98875 14.0501L5.5895 13.9001L5.22019 13.7301L4.44166 14.2901C4.20942 14.4516 3.92866 14.5279 3.6468 14.506C3.36493 14.4842 3.09923 14.3655 2.89458 14.1701L1.89646 13.1701C1.69387 12.9676 1.56963 12.6997 1.54586 12.414C1.5221 12.1283 1.60036 11.8434 1.7667 11.6101L2.31567 10.8501C2.23759 10.7007 2.16762 10.5471 2.10606 10.3901C2.10606 10.2701 2.01623 10.1601 1.97631 10.0501L0.998148 9.9101C0.71708 9.86048 0.462632 9.71274 0.279925 9.49308C0.0972176 9.27342 -0.00194239 8.99603 2.88332e-05 8.7101V7.3501C-0.00157719 7.06535 0.0979373 6.78931 0.280787 6.57131C0.463637 6.3533 0.717905 6.20755 0.998148 6.1601L1.9264 6.0001L2.07612 5.5901C2.12573 5.45237 2.18579 5.31864 2.25578 5.1901L1.70681 4.4101C1.5392 4.17796 1.45924 3.89376 1.48118 3.60809C1.50311 3.32243 1.62551 3.05382 1.82659 2.8501L2.82471 1.8501C3.03257 1.6531 3.3017 1.53367 3.587 1.51182C3.8723 1.48998 4.15642 1.56704 4.39175 1.7301L5.14034 2.2701L5.53959 2.0901L5.91888 2.0001L6.08856 1.0001C6.134 0.71844 6.27894 0.462517 6.49696 0.278962C6.71498 0.0954076 6.99157 -0.00355857 7.27632 9.78079e-05H8.63376C8.91915 -0.00187713 9.19602 0.0974697 9.41527 0.280521C9.63452 0.463573 9.78198 0.7185 9.8315 1.0001L9.9912 1.9101L10.4104 2.0601L10.8296 2.2501L11.5982 1.7001C11.8344 1.5359 12.1207 1.45998 12.407 1.48557C12.6934 1.51115 12.9617 1.63662 13.1652 1.8401L14.1633 2.8401C14.3675 3.04584 14.4924 3.31724 14.5162 3.60636C14.5399 3.89548 14.4609 4.1837 14.2931 4.4201L13.7441 5.1801C13.804 5.3001 13.8539 5.4301 13.9038 5.5501C13.9537 5.6701 14.0236 5.8401 14.0735 5.9901L15.0018 6.1501C15.2837 6.19782 15.5393 6.34503 15.7224 6.56511C15.9054 6.7852 16.0039 7.06364 15.9999 7.3501V8.6801C16.0015 8.96485 15.902 9.24089 15.7191 9.45889C15.5363 9.67689 15.282 9.82264 15.0018 9.8701L14.0735 10.0301L13.9537 10.3601C13.8892 10.5239 13.8159 10.6842 13.7342 10.8401L14.2831 11.6101C14.4522 11.8442 14.532 12.1312 14.5082 12.4192C14.4844 12.7071 14.3585 12.977 14.1534 13.1801L13.1552 14.1801C12.9481 14.379 12.6779 14.499 12.3916 14.5191C12.1053 14.5392 11.821 14.4582 11.5882 14.2901L10.8296 13.7501L10.4803 13.9101L10.0311 14.0801L9.86145 15.0001C9.81008 15.2808 9.6621 15.5346 9.44326 15.7173C9.22442 15.9 8.94857 16.0001 8.66371 16.0001ZM5.14034 12.6501C5.22079 12.6496 5.29996 12.6703 5.36991 12.7101L5.49967 12.7801L5.98875 13.0001C6.13846 13.0701 6.29816 13.1201 6.46784 13.1801H6.57764C6.66772 13.2086 6.74855 13.2607 6.81174 13.331C6.87493 13.4013 6.91816 13.4874 6.93696 13.5801L7.13658 14.8101C7.1457 14.8596 7.17148 14.9045 7.20962 14.9372C7.24777 14.97 7.29597 14.9886 7.34619 14.9901H8.66371C8.716 14.9903 8.7665 14.971 8.80528 14.9358C8.84407 14.9007 8.86833 14.8523 8.87331 14.8001L9.08292 13.5801C9.09874 13.4918 9.13752 13.4093 9.19535 13.3408C9.25318 13.2723 9.32801 13.2203 9.4123 13.1901H9.55203C9.72884 13.1377 9.90219 13.0743 10.0711 13.0001L10.4903 12.8001L10.63 12.7301C10.7078 12.6813 10.7977 12.6554 10.8895 12.6554C10.9813 12.6554 11.0712 12.6813 11.149 12.7301L12.1471 13.4601C12.1861 13.4974 12.238 13.5182 12.2919 13.5182C12.3458 13.5182 12.3976 13.4974 12.4366 13.4601L13.4347 12.5101C13.4663 12.4684 13.4834 12.4175 13.4834 12.3651C13.4834 12.3127 13.4663 12.2618 13.4347 12.2201L12.7061 11.2201C12.6574 11.1422 12.6316 11.0521 12.6316 10.9601C12.6316 10.8681 12.6574 10.778 12.7061 10.7001L12.766 10.5701C12.849 10.3852 12.9191 10.1948 12.9756 10.0001C13.0294 9.87281 13.076 9.7426 13.1153 9.6101V9.4701C13.1423 9.38005 13.1941 9.29945 13.2647 9.23755C13.3353 9.17564 13.4219 9.13493 13.5146 9.1201L14.7423 8.9101C14.7728 8.91152 14.8033 8.90655 14.8318 8.89549C14.8603 8.88444 14.8861 8.86755 14.9077 8.8459C14.9293 8.82425 14.9462 8.79832 14.9572 8.76977C14.9683 8.74122 14.9732 8.71068 14.9718 8.6801V7.3101C14.9723 7.25923 14.9544 7.2099 14.9214 7.17128C14.8883 7.13266 14.8424 7.10736 14.7922 7.1001L13.5645 6.8901C13.4722 6.87707 13.386 6.83683 13.3166 6.77449C13.2473 6.71216 13.1981 6.63056 13.1752 6.5401V6.4001C13.1176 6.23324 13.051 6.06966 12.9756 5.9101C12.919 5.76235 12.8523 5.61867 12.776 5.4801L12.7061 5.3401C12.6574 5.26215 12.6316 5.17205 12.6316 5.0801C12.6316 4.98814 12.6574 4.89804 12.7061 4.8201L13.4347 3.8201C13.4679 3.77911 13.4861 3.72791 13.4861 3.6751C13.4861 3.62229 13.4679 3.57109 13.4347 3.5301L12.4366 2.5301C12.395 2.49847 12.3441 2.48134 12.2919 2.48134C12.2396 2.48134 12.1888 2.49847 12.1471 2.5301L11.149 3.2501C11.0712 3.29889 10.9813 3.32477 10.8895 3.32477C10.7977 3.32477 10.7078 3.29889 10.63 3.2501L10.5002 3.1801L10.0411 3.0001L9.55203 2.8301H9.4123C9.31998 2.80582 9.23677 2.75502 9.17292 2.68394C9.10907 2.61287 9.06738 2.52463 9.05297 2.4301L8.85335 1.2101C8.84853 1.15431 8.82357 1.10221 8.78314 1.06354C8.74272 1.02488 8.6896 1.00232 8.63376 1.0001H7.27632C7.227 0.999195 7.17894 1.01575 7.14061 1.04684C7.10227 1.07794 7.0761 1.12158 7.06671 1.1701L6.85711 2.4301C6.84396 2.52511 6.80271 2.614 6.73866 2.68529C6.67461 2.75659 6.59072 2.80703 6.49779 2.8301H6.35805L5.9089 3.0001L5.4298 3.2201L5.33997 3.2801C5.25848 3.33386 5.16305 3.36252 5.06549 3.36252C4.96792 3.36252 4.87249 3.33386 4.791 3.2801L3.79288 2.5501C3.75608 2.51637 3.70801 2.49766 3.65814 2.49766C3.60826 2.49766 3.56019 2.51637 3.52339 2.5501L2.52527 3.5501C2.49451 3.59026 2.47784 3.63947 2.47784 3.6901C2.47784 3.74072 2.49451 3.78993 2.52527 3.8301L3.2539 4.8301C3.3026 4.90804 3.32843 4.99814 3.32843 5.0901C3.32843 5.18205 3.3026 5.27215 3.2539 5.3501L3.18403 5.4801C3.10787 5.64841 3.04448 5.82224 2.99439 6.0001C2.92901 6.15683 2.87236 6.31708 2.82471 6.4801V6.6201C2.79773 6.71014 2.74596 6.79074 2.67535 6.85265C2.60473 6.91456 2.51812 6.95526 2.42546 6.9701L1.20775 7.1801C1.15892 7.18104 1.1118 7.19827 1.07383 7.22906C1.03587 7.25985 1.00924 7.30244 0.998148 7.3501V8.7101C0.99765 8.7636 1.01663 8.81545 1.05154 8.85595C1.08644 8.89644 1.13488 8.9228 1.18779 8.9301L2.42546 9.1401C2.51693 9.15412 2.6027 9.19334 2.6732 9.25338C2.74371 9.31342 2.79616 9.39191 2.82471 9.4801V9.6201C2.87198 9.75073 2.92869 9.87773 2.99439 10.0001C3.06426 10.1801 3.1441 10.3501 3.22395 10.5101L3.29382 10.6301C3.34789 10.7097 3.3768 10.8038 3.3768 10.9001C3.3768 10.9964 3.34789 11.0905 3.29382 11.1701L2.5652 12.1701C2.53082 12.2086 2.51182 12.2584 2.51182 12.3101C2.51182 12.3618 2.53082 12.4116 2.5652 12.4501L3.56332 13.4501C3.60029 13.4793 3.64599 13.4952 3.69307 13.4952C3.74015 13.4952 3.78585 13.4793 3.82283 13.4501L4.82095 12.7101C4.91718 12.6534 5.03015 12.6322 5.14034 12.6501Z" fill="black"/>
<path fill-rule="evenodd" clip-rule="evenodd" d="M8 9.5C8.82855 9.5 9.5 8.82855 9.5 8C9.5 7.17145 8.82855 6.5 8 6.5C7.17145 6.5 6.5 7.17145 6.5 8C6.5 8.82855 7.17145 9.5 8 9.5ZM8 10.5C9.38083 10.5 10.5 9.38083 10.5 8C10.5 6.61917 9.38083 5.5 8 5.5C6.61917 5.5 5.5 6.61917 5.5 8C5.5 9.38083 6.61917 10.5 8 10.5Z" fill="black"/>
</g>
<defs>
<clipPath id="clip0">
<rect width="16" height="16" fill="white"/>
</clipPath>
</defs>
</svg>
