<svg width="16" height="16" viewBox="0 0 16 16" fill="none" xmlns="http://www.w3.org/2000/svg">
<path d="M9.5947 7.99974C9.5947 8.88069 8.88069 9.5947 7.99974 9.5947C7.11879 9.5947 6.40479 8.88069 6.40479 7.99974C6.40479 7.11879 7.11879 6.40479 7.99974 6.40479C8.88069 6.40479 9.5947 7.11879 9.5947 7.99974Z" fill="black"/>
<path fill-rule="evenodd" clip-rule="evenodd" d="M7.59951 13H8.39951C8.89951 13 9.19951 12.7 9.29951 12.2L9.39951 11.8L9.59951 11.7C9.59951 11.6 9.69951 11.6 9.69951 11.6L9.99951 11.9C10.3995 12.2 10.9995 12.1 11.1995 11.8L11.7995 11.2C12.0995 10.9 12.1995 10.4 11.8995 10L11.6995 9.7C11.757 9.6425 11.7815 9.61806 11.7918 9.58866C11.7995 9.56693 11.7995 9.5425 11.7995 9.5V9.4L12.1995 9.3C12.6995 9.2 12.9995 8.8 12.9995 8.4V7.6C12.9995 7.1 12.6995 6.7 12.2995 6.6L11.8995 6.5C11.7995 6.5 11.7995 6.4 11.7995 6.4C11.6995 6.4 11.6995 6.3 11.6995 6.3L11.8995 6C12.1995 5.6 12.0995 5.1 11.7995 4.8L11.1995 4.2C10.8995 3.9 10.2995 3.9 9.99951 4.1L9.69951 4.4C9.69951 4.3 9.59951 4.3 9.59951 4.3C9.54201 4.2425 9.51757 4.21806 9.48817 4.20767C9.46644 4.2 9.44201 4.2 9.39951 4.2L9.29951 3.8C9.19951 3.3 8.89951 3 8.39951 3H7.59951C7.09951 3 6.69951 3.3 6.79951 3.8L6.69951 4.2C6.69951 4.3 6.59951 4.3 6.59951 4.3C6.54201 4.3575 6.51757 4.38194 6.48817 4.39233C6.46644 4.4 6.44201 4.4 6.39951 4.4L5.99951 4.1C5.59951 3.8 5.09951 3.9 4.79951 4.2L4.19951 4.8C3.79951 5.1 3.79951 5.6 4.09951 6L4.39951 6.4C4.34766 6.45703 4.34766 6.48047 4.34766 6.48047C4.32031 6.55781 4.30264 6.57422 4.26953 6.57422C4.28936 6.57138 4.28829 6.57173 4.19951 6.6L3.79951 6.7C3.29951 6.7 2.99951 7.1 2.99951 7.6V8.4C2.99951 8.9 3.29951 9.2 3.79951 9.3H4.29951V9.4C4.29951 9.45 4.32451 9.475 4.34951 9.5C4.37451 9.525 4.39951 9.55 4.39951 9.6L4.09951 10C3.79951 10.4 3.89951 10.9 4.19951 11.2L4.79951 11.8C5.09951 12.1 5.69951 12.1 5.99951 11.9L6.39951 11.6C6.39951 11.65 6.42451 11.65 6.44951 11.65C6.47451 11.65 6.49951 11.65 6.49951 11.7C6.49951 11.8 6.59951 11.8 6.59951 11.8L6.69951 12.2C6.79951 12.7 7.09951 13 7.59951 13ZM8.39951 12H7.59951L7.49951 11.3C7.49951 11.1 7.39951 11 7.29951 10.9H7.19951C7.14951 10.9 7.09951 10.875 7.04951 10.85C6.99951 10.825 6.94951 10.8 6.89951 10.8L6.59951 10.7C6.39951 10.6 6.19951 10.6 5.99951 10.7L5.49951 11.1L5.19951 10.8L4.89951 10.6L5.29951 10C5.39951 9.9 5.39951 9.6 5.29951 9.4C5.29951 9.35 5.27451 9.3 5.24951 9.25C5.22451 9.2 5.19951 9.15 5.19951 9.1C5.19951 9.1 5.09951 9 5.09951 8.9C5.0759 8.87639 5.0523 8.84721 5.02738 8.81641C4.94673 8.71672 4.8523 8.6 4.69951 8.6L3.99951 8.5V7.7L4.69951 7.6C4.89951 7.5 4.99951 7.3 5.09951 7.1C5.09951 7.05 5.12451 7 5.14951 6.95C5.17451 6.9 5.19951 6.85 5.19951 6.8C5.19951 6.8 5.29951 6.7 5.29951 6.5C5.39951 6.4 5.39951 6.2 5.29951 6L4.89951 5.4L5.09951 5.2L5.29951 4.9L5.99951 5.3C6.09951 5.5 6.39951 5.4 6.59951 5.3C6.59951 5.3 6.69951 5.2 6.79951 5.2C6.84951 5.2 6.89951 5.175 6.94951 5.15C6.99951 5.125 7.04951 5.1 7.09951 5.1H7.19951C7.22312 5.07639 7.2523 5.05279 7.2831 5.02786C7.38279 4.94721 7.49951 4.85279 7.49951 4.7L7.59951 4H7.99951L8.29951 3.9L8.39951 4.7C8.49951 4.9 8.69951 5 8.89951 5.1C8.93125 5.1 8.95291 5.1 8.9741 5.1032C9.01966 5.11007 9.06299 5.13174 9.19951 5.2C9.19951 5.2 9.29951 5.3 9.49951 5.3C9.69951 5.4 9.79951 5.4 9.99951 5.3L10.4995 4.9L10.7995 5.1L11.0995 5.4L10.6995 6C10.5995 6.1 10.4995 6.3 10.6995 6.5V6.6C10.6995 6.6 10.7995 6.7 10.7995 6.8C10.7995 6.84142 10.8167 6.88284 10.8368 6.93137C10.8652 7 10.8995 7.08284 10.8995 7.2C10.9995 7.4 11.0995 7.5 11.2995 7.5L11.9995 7.6V8.3L11.3995 8.5C11.1995 8.5 11.0995 8.7 10.9995 8.9C10.9995 8.9 10.8995 9 10.8995 9.1C10.8377 9.1618 10.8141 9.22361 10.7815 9.30902C10.7613 9.3618 10.7377 9.42361 10.6995 9.5C10.5995 9.6 10.5995 9.8 10.6995 10L11.1995 10.5L10.8995 10.8L10.6995 11.1L10.0995 10.7C9.89951 10.6 9.69951 10.6 9.49951 10.7L8.89951 10.9C8.69951 10.9 8.49951 11.1 8.49951 11.3L8.39951 12Z" fill="black"/>
<path fill-rule="evenodd" clip-rule="evenodd" d="M3 1C1.89543 1 1 1.89543 1 3V12.9995C1 14.1041 1.89543 14.9995 3 14.9995H12.9995C14.1041 14.9995 14.9995 14.1041 14.9995 12.9995V3C14.9995 1.89543 14.1041 1 12.9995 1H3ZM12.9995 2H3C2.44772 2 2 2.44772 2 3V12.9995C2 13.5518 2.44772 13.9995 3 13.9995H12.9995C13.5518 13.9995 13.9995 13.5518 13.9995 12.9995V3C13.9995 2.44772 13.5518 2 12.9995 2Z" fill="black"/>
</svg>
