<!-- Generated by IcoMoon.io -->
<svg version="1.1" xmlns="http://www.w3.org/2000/svg" width="32" height="32" viewBox="0 0 32 32">
<title>cogwheels</title>
<path d="M19.259 15.938l1.433-2.509-2.121-2.121-2.509 1.433c-0.711-0.419-1.484-0.743-2.303-0.955l-0.76-2.786h-3l-0.76 2.786c-0.818 0.212-1.592 0.536-2.303 0.955l-2.509-1.433-2.121 2.121 1.433 2.509c-0.419 0.711-0.743 1.484-0.955 2.303l-2.786 0.76v3l2.786 0.76c0.212 0.818 0.536 1.592 0.955 2.302l-1.433 2.509 2.121 2.121 2.509-1.433c0.711 0.419 1.484 0.743 2.303 0.955l0.76 2.786h3l0.76-2.786c0.818-0.212 1.592-0.536 2.303-0.955l2.509 1.433 2.121-2.121-1.433-2.509c0.419-0.711 0.743-1.484 0.955-2.303l2.786-0.76v-3l-2.786-0.76c-0.212-0.818-0.536-1.592-0.955-2.302zM11.5 25c-2.485 0-4.5-2.015-4.5-4.5s2.015-4.5 4.5-4.5 4.5 2.015 4.5 4.5-2.015 4.5-4.5 4.5z"></path>
<path d="M29.955 8.247c0.030-0.239 0.045-0.488 0.045-0.747 0-0.618-0.113-1.209-0.317-1.756l1.585-1.831-1.987-2.206-1.977 1.355c-0.689-0.358-1.473-0.562-2.304-0.562-0.064 0-0.128 0.002-0.191 0.004l-1.224-2.027-2.712 1.208 0.654 2.218c-0.642 0.62-1.119 1.411-1.357 2.3l-2.227 0.519 0.31 2.953 2.448 0.067c0.419 0.603 1 1.101 1.676 1.473l-0.239 2.803 2.904 0.617 0.943-2.653c0.815-0.064 1.529-0.29 2.119-0.657l2.269 0.957 1.484-2.571-1.903-1.464zM25 9.5c-1.105 0-2-0.895-2-2s0.895-2 2-2 2 0.895 2 2-0.895 2-2 2z"></path>
</svg>
