<?xml version="1.0" encoding="utf-8"?>
<!-- Generator: Adobe Illustrator 17.0.1, SVG Export Plug-In . SVG Version: 6.00 Build 0)  -->
<!DOCTYPE svg PUBLIC "-//W3C//DTD SVG 1.1//EN" "http://www.w3.org/Graphics/SVG/1.1/DTD/svg11.dtd">
<svg version="1.1" id="Layer_1" xmlns="http://www.w3.org/2000/svg" xmlns:xlink="http://www.w3.org/1999/xlink" x="0px" y="0px"
	 width="1024px" height="1024px" viewBox="0 0 1024 1024" enable-background="new 0 0 1024 1024" xml:space="preserve">
<g>
	<path d="M616.28,510.01l45.87-80.28l-67.88-67.88l-80.28,45.87c-22.75-13.4-47.48-23.78-73.68-30.56L416,288h-96l-24.32,89.16
		c-26.19,6.77-50.93,17.15-73.68,30.56l-80.28-45.87l-67.88,67.88l45.87,80.28c-13.4,22.75-23.78,47.48-30.56,73.68L0,608v96
		l89.16,24.32c6.77,26.19,17.15,50.93,30.56,73.68l-45.87,80.28l67.88,67.88l80.28-45.87c22.75,13.4,47.48,23.78,73.68,30.56
		L320,1024h96l24.32-89.16c26.19-6.77,50.93-17.15,73.68-30.56l80.28,45.87l67.88-67.88l-45.87-80.28
		c13.4-22.75,23.78-47.48,30.56-73.68L736,704v-96l-89.16-24.32C640.07,557.49,629.69,532.75,616.28,510.01z M368,800
		c-79.53,0-144-64.47-144-144s64.47-144,144-144s144,64.47,144,144S447.53,800,368,800z"/>
	<path d="M958.56,263.89c0.95-7.66,1.44-15.63,1.44-23.89c0-19.77-3.6-38.7-10.15-56.19l50.71-58.6l-63.57-70.6l-63.25,43.36
		C851.68,86.5,826.6,80,800,80c-2.05,0-4.09,0.05-6.12,0.13l-39.16-64.85l-86.79,38.64l20.94,70.99
		c-20.56,19.85-35.8,45.16-43.42,73.59l-71.26,16.62l9.93,94.48l78.34,2.14c13.4,19.31,32,35.22,53.64,47.14l-7.65,89.68
		l92.92,19.75l30.18-84.91c26.09-2.04,48.92-9.28,67.81-21.03l72.6,30.63l47.5-82.27L958.56,263.89z M800,304
		c-35.35,0-64-28.65-64-64s28.65-64,64-64s64,28.65,64,64S835.35,304,800,304z"/>
</g>
</svg>
