<svg width="16" height="16" viewBox="0 0 16 16" fill="none" xmlns="http://www.w3.org/2000/svg">
<g clip-path="url(#clip0)">
<path fill-rule="evenodd" clip-rule="evenodd" d="M4 6C4 7.1 4.9 8 6 8C7.1 8 8 7.1 8 6C8 4.9 7.1 4 6 4C4.9 4 4 4.9 4 6ZM5 6C5 5.4 5.4 5 6 5C6.6 5 7 5.4 7 6C7 6.6 6.6 7 6 7C5.4 7 5 6.6 5 6Z" fill="black"/>
<path fill-rule="evenodd" clip-rule="evenodd" d="M4.5 11.1C4.6 11.6 5 12 5.5 12H6.5C7 12 7.4 11.6 7.5 11.1L7.6 10.5C7.65 10.5 7.7 10.475 7.75 10.45C7.8 10.425 7.85 10.4 7.9 10.4C7.95 10.4 7.975 10.375 8 10.35C8.025 10.325 8.05 10.3 8.1 10.3L8.6 10.7C9 11 9.5 10.9 9.9 10.6L10.6 9.9C11 9.5 11 9 10.7 8.6L10.3 8.1C10.3 8.05 10.325 8 10.35 7.95C10.375 7.9 10.4 7.85 10.4 7.8C10.5 7.7 10.5 7.7 10.5 7.6L11.1 7.5C11.6 7.4 12 7 12 6.5V5.5C12 5 11.6 4.6 11.1 4.4L10.5 4.3C10.5 4.3 10.4 4.2 10.4 4.1C10.4 4.05 10.375 4.025 10.35 4C10.325 3.975 10.3 3.95 10.3 3.9L10.7 3.4C11 3 11 2.5 10.6 2.1L9.9 1.4C9.5 1 8.9 1 8.6 1.2L8.1 1.6C8.05 1.6 8 1.575 7.95 1.55C7.9 1.525 7.85 1.5 7.8 1.5C7.8 1.5 7.7 1.4 7.6 1.4L7.5 0.8C7.4 0.4 7 0 6.5 0H5.5C5 0 4.5 0.4 4.4 0.9L4.3 1.5C4.25 1.5 4.225 1.525 4.2 1.55C4.175 1.575 4.15 1.6 4.1 1.6C4.1 1.6 4 1.7 3.9 1.7L3.4 1.3C3 1 2.4 1.1 2.1 1.4L1.4 2.1C1 2.5 1 3 1.3 3.4L1.6 4C1.6 4 1.6 4.1 1.5 4.2C1.5 4.2 1.4 4.3 1.4 4.4L0.8 4.5C0.4 4.6 0 5 0 5.5V6.5C0 7 0.3 7.4 0.9 7.5L1.5 7.6C1.6 7.7 1.6 7.7 1.6 7.8C1.6 7.85 1.625 7.9 1.65 7.95C1.675 8 1.7 8.05 1.7 8.1L1.3 8.6C1 9 1.1 9.6 1.4 9.9L2.2 10.6C2.5 10.9 3.2 11 3.5 10.7L4 10.3C4.05 10.3 4.075 10.325 4.1 10.35C4.125 10.375 4.15 10.4 4.2 10.4C4.25 10.4 4.275 10.425 4.3 10.45C4.325 10.475 4.35 10.5 4.4 10.5L4.5 11.1ZM4.1 9.4C4.1 9.3 4 9.3 3.9 9.3C3.8 9.3 3.7 9.3 3.6 9.4L2.8 9.9L2.1 9.2L2.7 8.4C2.8 8.3 2.8 8.1 2.7 7.9L2.6 7.8C2.5618 7.72361 2.52361 7.6618 2.49098 7.60902C2.4382 7.52361 2.4 7.4618 2.4 7.4C2.4 7.35 2.375 7.3 2.35 7.25C2.325 7.2 2.3 7.15 2.3 7.1V7C2.27639 6.97639 2.25279 6.94721 2.22786 6.91641C2.14721 6.81672 2.05279 6.7 1.9 6.7L1 6.5V5.5L1.9 5.3C2.1 5.3 2.3 5.2 2.4 5V4.9C2.4 4.85 2.425 4.8 2.45 4.75C2.475 4.7 2.5 4.65 2.5 4.6C2.5 4.48284 2.53431 4.4 2.56274 4.33137C2.58284 4.28284 2.6 4.24142 2.6 4.2V4.1C2.7 3.9 2.7 3.8 2.6 3.6L2.1 2.8L2.8 2.1L3.6 2.7C3.7 2.8 3.9 2.8 4.1 2.7L4.2 2.5C4.25 2.5 4.3 2.475 4.35 2.45C4.4 2.425 4.45 2.4 4.5 2.4C4.55 2.4 4.6 2.375 4.65 2.35C4.7 2.325 4.75 2.3 4.8 2.3H4.9C5.1 2.2 5.3 2.1 5.3 1.9L5.5 1H6.5L6.7 1.9C6.7 2.1 6.8 2.3 7 2.3L7.1 2.4C7.21716 2.4 7.3 2.43431 7.36863 2.46274C7.41716 2.48284 7.45858 2.5 7.5 2.5C7.55 2.5 7.6 2.525 7.65 2.55C7.7 2.575 7.75 2.6 7.8 2.6H7.9C8 2.7 8.2 2.7 8.4 2.6L9.2 2.1L9.8 2.8L9.3 3.6C9.2 3.7 9.2 3.9 9.3 4.1L9.5 4.3C9.5 4.35 9.525 4.4 9.55 4.45C9.575 4.5 9.6 4.55 9.6 4.6C9.6 4.65 9.625 4.7 9.65 4.75C9.675 4.8 9.7 4.85 9.7 4.9V5C9.7 5.2 9.9 5.3 10.1 5.3L11 5.5V6.5L10.1 6.6C9.9 6.7 9.8 6.8 9.7 7V7.1C9.7 7.15 9.675 7.2 9.65 7.25C9.625 7.3 9.6 7.35 9.6 7.4C9.5618 7.47639 9.5382 7.5382 9.51803 7.59098C9.48541 7.67639 9.4618 7.7382 9.4 7.8L9.3 7.9C9.2 8 9.2 8.2 9.4 8.4L9.8 9.2L9.1 9.9L8.4 9.4C8.3 9.3 8.1 9.3 7.9 9.4L7.8 9.5C7.75 9.5 7.7 9.525 7.65 9.55C7.6 9.575 7.55 9.6 7.5 9.6C7.45 9.6 7.4 9.625 7.35 9.65C7.3 9.675 7.25 9.7 7.2 9.7H7.1C6.9 9.8 6.7 9.9 6.7 10.1L6.5 11H5.5L5.3 10.1C5.3 9.9 5.2 9.8 5 9.7H4.8C4.75 9.7 4.7 9.675 4.65 9.65C4.6 9.625 4.55 9.6 4.5 9.6C4.4 9.6 4.3 9.6 4.2 9.5L4.1 9.4Z" fill="black"/>
<path d="M12.3002 15.9999H11.6002C11.2002 15.9999 10.8002 15.6999 10.8002 15.2999L10.7002 14.9999H10.6002L10.3002 15.1999C10.0002 15.3999 9.50023 15.3999 9.20023 15.0999L8.70023 14.5999C8.40023 14.2999 8.40023 13.7999 8.60023 13.4999L8.80023 13.2999V13.1999L8.50023 13.0999C8.20023 13.0999 8.00023 12.7999 8.10023 12.4999C8.10023 12.1999 8.40023 11.9999 8.70023 12.0999L9.30023 12.1999C9.45302 12.1999 9.54744 12.3166 9.62809 12.4163C9.65302 12.4471 9.67662 12.4763 9.70023 12.4999L9.80023 12.6999C9.80023 12.7499 9.82523 12.7999 9.85023 12.8499C9.87523 12.8999 9.90023 12.9499 9.90023 12.9999C10.0002 13.1999 10.0002 13.3999 9.90023 13.5999L9.60023 13.9999L9.90023 14.2999L10.3002 13.9999C10.4002 13.8999 10.6002 13.8999 10.8002 13.9999H10.9002C10.9502 13.9999 10.9752 14.0249 11.0002 14.0499C11.0252 14.0749 11.0502 14.0999 11.1002 14.0999L11.3002 14.1999C11.5002 14.2999 11.7002 14.3999 11.7002 14.5999L11.8002 15.0999H12.2002L12.3002 14.5999C12.3002 14.3999 12.5002 14.2999 12.7002 14.1999C12.7502 14.1999 12.8002 14.1749 12.8502 14.1499C12.9002 14.1249 12.9502 14.0999 13.0002 14.0999C13.0502 14.0999 13.0752 14.0749 13.1002 14.0499C13.1252 14.0249 13.1502 13.9999 13.2002 13.9999H13.3002C13.5002 13.8999 13.7002 13.8999 13.8002 13.9999L14.2002 14.2999L14.5002 13.9999L14.0002 13.5999C13.9002 13.4999 13.9002 13.2999 14.0002 13.0999V12.9999C14.0002 12.8999 14.1002 12.7999 14.1002 12.7999C14.1002 12.7574 14.1002 12.733 14.1079 12.7112C14.1183 12.6818 14.1427 12.6574 14.2002 12.5999C14.3002 12.3999 14.4002 12.1999 14.6002 12.1999L15.1002 12.0999V11.6999L14.6002 11.5999C14.4474 11.5999 14.353 11.4832 14.2724 11.3835C14.2474 11.3527 14.2238 11.3235 14.2002 11.2999C14.2002 11.2499 14.1752 11.1999 14.1502 11.1499C14.1252 11.0999 14.1002 11.0499 14.1002 10.9999C14.1002 10.9499 14.0752 10.9249 14.0502 10.8999C14.0252 10.8749 14.0002 10.8499 14.0002 10.7999C14.0002 10.7999 14.0002 10.6999 13.9002 10.6999C13.8002 10.4999 13.8002 10.2999 13.9002 10.1999L14.2002 9.7999L14.0002 9.4999L13.6002 9.7999C13.5002 9.8999 13.3002 9.8999 13.1002 9.7999C13.1002 9.7999 13.0002 9.7999 13.0002 9.6999C12.9502 9.6999 12.9252 9.6749 12.9002 9.6499C12.8752 9.6249 12.8502 9.5999 12.8002 9.5999C12.7002 9.5999 12.6002 9.4999 12.6002 9.4999C12.4002 9.3999 12.2002 9.2999 12.2002 9.0999L12.1002 8.4999C12.1002 8.1999 12.2002 7.9999 12.5002 7.8999C12.8002 7.8999 13.0002 7.9999 13.1002 8.2999L13.2002 8.5999H13.4002L13.7002 8.3999C14.0002 8.1999 14.5002 8.1999 14.8002 8.4999L15.3002 8.9999C15.6002 9.2999 15.6002 9.7999 15.4002 10.0999L15.0002 10.4999V10.6999L15.3002 10.7999C15.7002 10.8999 16.0002 11.1999 16.0002 11.5999V12.2999C16.0002 12.6999 15.7002 13.0999 15.3002 13.0999L15.0002 13.1999V13.2999L15.2002 13.4999C15.4002 13.7999 15.4002 14.2999 15.1002 14.5999L14.6002 15.0999C14.3002 15.3999 13.8002 15.3999 13.5002 15.1999L13.3002 14.9999H13.1002L13.0002 15.2999C13.0002 15.7999 12.7002 15.9999 12.3002 15.9999Z" fill="black"/>
<path d="M13.1001 12.1001C13.1001 12.6524 12.6524 13.1001 12.1001 13.1001C11.5478 13.1001 11.1001 12.6524 11.1001 12.1001C11.1001 11.5478 11.5478 11.1001 12.1001 11.1001C12.6524 11.1001 13.1001 11.5478 13.1001 12.1001Z" fill="black"/>
</g>
<defs>
<clipPath id="clip0">
<rect width="16" height="16" fill="white"/>
</clipPath>
</defs>
</svg>
