<?xml version="1.0" encoding="utf-8"?>
<!-- Generator: Adobe Illustrator 17.0.1, SVG Export Plug-In . SVG Version: 6.00 Build 0)  -->
<!DOCTYPE svg PUBLIC "-//W3C//DTD SVG 1.1//EN" "http://www.w3.org/Graphics/SVG/1.1/DTD/svg11.dtd">
<svg version="1.1" id="Layer_1" xmlns="http://www.w3.org/2000/svg" xmlns:xlink="http://www.w3.org/1999/xlink" x="0px" y="0px"
	 width="1024px" height="1024px" viewBox="0 0 1024 1024" enable-background="new 0 0 1024 1024" xml:space="preserve">
<g>
	<circle cx="512" cy="512" r="128"/>
	<path d="M64,64v896h896V64H64z M896,560l-119.33,14.92c-6.77,28.59-18.05,55.42-33.05,79.73l73.85,94.95l-67.88,67.88l-94.95-73.85
		c-24.3,15-51.14,26.28-79.73,33.05L560,896h-96l-14.92-119.33c-28.59-6.77-55.42-18.05-79.73-33.05l-94.95,73.85l-67.88-67.88
		l73.85-94.95c-15-24.3-26.28-51.14-33.05-79.73L128,560v-96l119.33-14.92c6.77-28.59,18.05-55.42,33.05-79.73l-73.85-94.95
		l67.88-67.88l94.95,73.85c24.3-15,51.14-26.28,79.73-33.05L464,128h96l14.92,119.33c28.59,6.77,55.42,18.05,79.73,33.05
		l94.95-73.85l67.88,67.88l-73.85,94.95c15,24.3,26.28,51.14,33.05,79.73L896,464V560z"/>
</g>
</svg>
