<!-- Generated by IcoMoon.io -->
<svg version="1.1" xmlns="http://www.w3.org/2000/svg" width="32" height="32" viewBox="0 0 32 32">
<title>cogwheel</title>
<path d="M32 18.082v-4.132l-4.313-0.682c-0.3-1.289-0.808-2.498-1.486-3.59l2.585-3.519-2.922-2.922-3.533 2.568c-1.092-0.679-2.3-1.188-3.589-1.489l-0.661-4.315h-4.132l-0.682 4.313c-1.289 0.3-2.498 0.808-3.59 1.486l-3.519-2.585-2.922 2.922 2.568 3.533c-0.679 1.092-1.188 2.3-1.489 3.589l-4.315 0.661v4.132l4.313 0.683c0.3 1.289 0.808 2.498 1.486 3.59l-2.585 3.519 2.922 2.922 3.533-2.567c1.092 0.679 2.3 1.188 3.589 1.489l0.661 4.315h4.132l0.683-4.313c1.289-0.3 2.498-0.808 3.59-1.486l3.519 2.585 2.922-2.922-2.567-3.533c0.679-1.092 1.188-2.3 1.489-3.589l4.315-0.661zM16 22c-3.314 0-6-2.686-6-6s2.686-6 6-6 6 2.686 6 6-2.686 6-6 6z"></path>
</svg>
