<?xml version="1.0" encoding="utf-8"?>
<!-- Generator: Adobe Illustrator 17.0.1, SVG Export Plug-In . SVG Version: 6.00 Build 0)  -->
<!DOCTYPE svg PUBLIC "-//W3C//DTD SVG 1.1//EN" "http://www.w3.org/Graphics/SVG/1.1/DTD/svg11.dtd">
<svg version="1.1" id="Layer_1" xmlns="http://www.w3.org/2000/svg" xmlns:xlink="http://www.w3.org/1999/xlink" x="0px" y="0px"
	 width="1024px" height="1024px" viewBox="0 0 1024 1024" enable-background="new 0 0 1024 1024" xml:space="preserve">
<path d="M1024,578.61V446.39l-138.01-21.84c-9.61-41.24-25.86-79.93-47.56-114.88l82.71-112.61l-93.49-93.49l-113.06,82.16
	c-34.93-21.73-73.61-38.01-114.84-47.65L578.61,0H446.39l-21.84,138.01c-41.24,9.61-79.93,25.86-114.88,47.56l-112.61-82.71
	l-93.49,93.49l82.16,113.06c-21.73,34.93-38.01,73.61-47.65,114.84L0,445.39v132.22l138.01,21.84
	c9.61,41.24,25.86,79.93,47.56,114.88l-82.71,112.61l93.49,93.49l113.06-82.16c34.93,21.73,73.61,38.01,114.84,47.65L445.39,1024
	h132.22l21.84-138.01c41.24-9.61,79.93-25.86,114.88-47.56l112.61,82.71l93.49-93.49l-82.16-113.06
	c21.73-34.93,38.01-73.61,47.65-114.84L1024,578.61z M512,704c-106.04,0-192-85.96-192-192s85.96-192,192-192s192,85.96,192,192
	S618.04,704,512,704z"/>
</svg>
