<?xml version="1.0" encoding="utf-8"?>
<!-- Generator: Adobe Illustrator 17.1.0, SVG Export Plug-In . SVG Version: 6.00 Build 0)  -->
<!DOCTYPE svg PUBLIC "-//W3C//DTD SVG 1.1//EN" "http://www.w3.org/Graphics/SVG/1.1/DTD/svg11.dtd">
<svg version="1.1" id="Layer_1" xmlns="http://www.w3.org/2000/svg" xmlns:xlink="http://www.w3.org/1999/xlink" x="0px" y="0px"
	 width="1024px" height="1024px" viewBox="0 0 1024 1024" enable-background="new 0 0 1024 1024" xml:space="preserve">
<g>
	<polygon points="0,640 0,768 128,768 128,896 256,896 256,768 256,640 128,640 	"/>
	<polygon points="128,256 0,256 0,384 128,384 256,384 256,256 256,128 128,128 	"/>
	<polygon points="768,640 768,768 768,896 896,896 896,768 1024,768 1024,640 896,640 	"/>
	<polygon points="896,256 896,128 768,128 768,256 768,384 896,384 1024,384 1024,256 	"/>
</g>
</svg>
