<!-- Generated by IcoMoon.io -->
<svg version="1.1" xmlns="http://www.w3.org/2000/svg" width="32" height="32" viewBox="0 0 32 32">
<title>collapse-scheme</title>
<path d="M0 3.978h32v6h-32v-6z"></path>
<path d="M2 23.977h-2v4h4v-2h-2z"></path>
<path d="M0 17.977h2v4h-2v-4z"></path>
<path d="M0 11.977h2v4h-2v-4z"></path>
<path d="M30 25.977h-2v2h4v-4h-2z"></path>
<path d="M30 17.977h2v4h-2v-4z"></path>
<path d="M30 11.977h2v4h-2v-4z"></path>
<path d="M22 25.977h4v2h-4v-2z"></path>
<path d="M14 25.977h4v2h-4v-2z"></path>
<path d="M6 25.977h4v2h-4v-2z"></path>
</svg>
