<?xml version="1.0" encoding="utf-8"?>
<!-- Generator: Adobe Illustrator 22.1.0, SVG Export Plug-In . SVG Version: 6.00 Build 0)  -->
<svg version="1.1" id="Layer_1" xmlns="http://www.w3.org/2000/svg" xmlns:xlink="http://www.w3.org/1999/xlink" x="0px" y="0px"
	 width="1024px" height="1024px" viewBox="0 0 1024 1024" enable-background="new 0 0 1024 1024" xml:space="preserve">
<g>
	<polygon points="544,272 464,352 550.4,448 192,448 192,576 550.4,576 464,672 544,752 768,512 	"/>
	<polygon points="576,192 864,512 576,832 576,960 1024,960 1024,66.48 576,64 	"/>
	<polygon points="320,64 0,64 0,960 320,960 448,960 448,832 448,704 320,704 320,832 128,832 128,192 320,192 320,320 448,320 
		448,192 448,64 	"/>
</g>
</svg>
