<!-- Generated by IcoMoon.io -->
<svg version="1.1" xmlns="http://www.w3.org/2000/svg" width="32" height="32" viewBox="0 0 32 32">
<title>cookie</title>
<path d="M27.521 11.953c-1.064 0.961-2.474 1.547-4.021 1.547-3.314 0-6-2.686-6-6 0-1.095 0.293-2.121 0.805-3.004-2.44-0.093-4.432-1.936-4.758-4.309-7.672 1.18-13.547 7.811-13.547 15.813 0 8.837 7.163 16 16 16 8.678 0 15.742-6.908 15.993-15.525-2.374-0.239-4.258-2.14-4.472-4.521zM7.771 20.267c-1.345 0.311-2.688-0.528-2.998-1.873s0.528-2.688 1.873-2.998c1.345-0.311 2.688 0.528 2.998 1.873s-0.528 2.688-1.873 2.998zM9.2 9.38c-0.711-1.183-0.328-2.719 0.855-3.431s2.719-0.328 3.431 0.855 0.328 2.719-0.855 3.431c-1.183 0.711-2.719 0.328-3.431-0.855zM17.684 24.99c-0.12 1.375-1.333 2.393-2.708 2.273s-2.393-1.333-2.272-2.708 1.333-2.393 2.708-2.273c1.375 0.12 2.393 1.333 2.272 2.708zM26.564 20.3c-0.539 1.271-2.007 1.864-3.278 1.324s-1.864-2.007-1.324-3.278c0.539-1.271 2.007-1.864 3.278-1.324s1.864 2.007 1.324 3.278z"></path>
</svg>
