<?xml version="1.0" encoding="utf-8"?>
<!-- Generator: Adobe Illustrator 17.0.1, SVG Export Plug-In . SVG Version: 6.00 Build 0)  -->
<!DOCTYPE svg PUBLIC "-//W3C//DTD SVG 1.1//EN" "http://www.w3.org/Graphics/SVG/1.1/DTD/svg11.dtd">
<svg version="1.1" id="Layer_1" xmlns="http://www.w3.org/2000/svg" xmlns:xlink="http://www.w3.org/1999/xlink" x="0px" y="0px"
	 width="1024px" height="1024px" viewBox="0 0 1024 1024" enable-background="new 0 0 1024 1024" xml:space="preserve">
<path d="M880.66,382.51C846.61,413.27,801.5,432,752,432c-106.04,0-192-85.96-192-192c0-35.03,9.39-67.86,25.77-96.13
	c-78.09-2.99-141.82-61.94-152.26-137.89C188,43.75,0,255.92,0,512c0,282.77,229.23,512,512,512
	c277.69,0,503.74-221.07,511.77-496.81C947.79,519.53,887.51,458.72,880.66,382.51z M248.67,648.55
	c-43.05,9.94-86.01-16.9-95.95-59.95s16.9-86.01,59.95-95.95c43.05-9.94,86.01,16.9,95.95,59.95S291.72,638.61,248.67,648.55z
	 M294.39,300.15c-22.76-37.87-10.5-87.02,27.37-109.78s87.02-10.5,109.78,27.37s10.5,87.02-27.37,109.78
	C366.3,350.28,317.15,338.02,294.39,300.15z M565.89,799.69c-3.85,44.01-42.65,76.57-86.67,72.72
	c-44.01-3.85-76.57-42.65-72.72-86.67s42.65-76.57,86.67-72.72C537.18,716.87,569.74,755.68,565.89,799.69z M850.04,649.6
	c-17.26,40.67-64.23,59.65-104.9,42.38c-40.67-17.26-59.65-64.23-42.38-104.9c17.26-40.67,64.23-59.65,104.9-42.38
	C848.33,561.97,867.3,608.93,850.04,649.6z"/>
</svg>
