<!-- Generated by IcoMoon.io -->
<svg version="1.1" xmlns="http://www.w3.org/2000/svg" width="32" height="32" viewBox="0 0 32 32">
<title>crosshair-f</title>
<path d="M20.388 15c-0.383-1.68-1.708-3.005-3.388-3.388v-11.612h-2v11.612c-1.68 0.383-3.005 1.708-3.388 3.388h-11.612v2h11.612c0.383 1.68 1.708 3.005 3.388 3.388v11.612h2v-11.612c1.68-0.383 3.005-1.708 3.388-3.388h11.612v-2h-11.612zM17 18.291c-0.307 0.134-0.645 0.209-1 0.209s-0.693-0.075-1-0.209c-0.576-0.252-1.038-0.715-1.291-1.291-0.134-0.307-0.209-0.645-0.209-1s0.075-0.693 0.209-1c0.252-0.576 0.715-1.038 1.291-1.291 0.307-0.134 0.645-0.209 1-0.209s0.693 0.075 1 0.209c0.576 0.252 1.038 0.715 1.291 1.291 0.134 0.307 0.209 0.645 0.209 1s-0.075 0.693-0.209 1c-0.252 0.576-0.715 1.038-1.291 1.291z"></path>
</svg>
