<?xml version="1.0" encoding="utf-8"?>
<!-- Generator: Adobe Illustrator 17.0.1, SVG Export Plug-In . SVG Version: 6.00 Build 0)  -->
<!DOCTYPE svg PUBLIC "-//W3C//DTD SVG 1.1//EN" "http://www.w3.org/Graphics/SVG/1.1/DTD/svg11.dtd">
<svg version="1.1" id="Layer_1" xmlns="http://www.w3.org/2000/svg" xmlns:xlink="http://www.w3.org/1999/xlink" x="0px" y="0px"
	 width="1024px" height="1024px" viewBox="0 0 1024 1024" enable-background="new 0 0 1024 1024" xml:space="preserve">
<path d="M652.41,480c-12.25-53.76-54.65-96.17-108.41-108.41V0h-64v371.59c-53.76,12.25-96.17,54.65-108.41,108.41H0v64h371.59
	c12.25,53.76,54.65,96.17,108.41,108.41V1024h64V652.41c53.76-12.25,96.17-54.65,108.41-108.41H1024v-64H652.41z M544,585.3
	c-9.81,4.3-20.63,6.7-32,6.7s-22.19-2.4-32-6.7c-18.42-8.07-33.23-22.88-41.3-41.3c-4.3-9.81-6.7-20.63-6.7-32
	c0-11.37,2.4-22.19,6.7-32c8.07-18.42,22.88-33.23,41.3-41.3c9.81-4.3,20.63-6.7,32-6.7s22.19,2.4,32,6.7
	c18.42,8.07,33.23,22.88,41.3,41.3c4.3,9.81,6.7,20.63,6.7,32c0,11.37-2.4,22.19-6.7,32C577.23,562.42,562.42,577.23,544,585.3z"/>
</svg>
