<?xml version="1.0" encoding="UTF-8"?>
<svg width="1024px" height="1024px" viewBox="0 0 1024 1024" version="1.1" xmlns="http://www.w3.org/2000/svg" xmlns:xlink="http://www.w3.org/1999/xlink">
    <!-- Generator: Sketch 57.1 (83088) - https://sketch.com -->
    <title>custom-element</title>
    <desc>Created with Sketch.</desc>
    <g id="custom-element" stroke="none" stroke-width="1" fill="none" fill-rule="evenodd">
        <g id="Group-2" transform="translate(7.000000, 0.000000)" fill="#000000">
            <path d="M246.747993,875.363881 L271.465732,750.627078 C238.754873,729.400043 210.322149,703.297775 186.836206,673.715787 L63.2957666,708.372698 L11.4455801,598.984221 L118.184868,528.730615 C110.279011,492.009609 108.25965,453.806529 112.786767,415.513743 L0.0433169906,353.377764 L41.2471644,240.309162 L167.44515,265.712619 C188.644227,233.490215 214.800464,205.539394 244.50908,182.511612 L208.571985,59.9555714 L318.690931,9.44715491 L390.462965,115.637954 C427.500366,108.086855 466.079108,106.374078 504.797526,111.142527 L566.724349,0 L681.043317,41.5580277 L577.652421,325.279828 C562.817492,312.844693 545.680155,302.624223 526.578679,295.332068 L523.836295,294.310229 C431.980445,260.9182 330.73085,307.358498 297.685502,398.03914 C264.640153,488.719783 312.314151,589.297742 404.170001,622.689771 C424.376347,630.035312 445.037263,633.517711 465.326723,633.515841 L363.413438,913.174846 L361.281947,917 L246.747993,875.363881 Z" id="Path" fill-rule="nonzero"></path>
            <g id="Group" transform="translate(505.043317, 87.000000)">
                <polygon id="Rectangle" transform="translate(387.249923, 91.282795) scale(1, -1) rotate(250.000000) translate(-387.249923, -91.282795) " points="329.209039 -9.26462359 447.347791 -10.4630629 445.290807 191.830214 327.152055 193.028653"></polygon>
                <polygon id="Rectangle" transform="translate(244.846486, 470.510685) scale(1, -1) rotate(250.000000) translate(-244.846486, -470.510685) " points="-32.5965353 372.188955 524.346491 366.539138 522.289507 568.832415 -34.6535194 574.482232"></polygon>
                <polygon id="Path" transform="translate(118.051557, 818.897414) scale(1, -1) rotate(115.000000) translate(-118.051557, -818.897414) " points="29.6140323 907.249389 206.489082 862.977819 73.9283768 730.545439"></polygon>
            </g>
        </g>
    </g>
</svg>