<!-- Generated by IcoMoon.io -->
<svg version="1.1" xmlns="http://www.w3.org/2000/svg" width="32" height="32" viewBox="0 0 32 32">
<title>custom-element</title>
<path d="M7.93 27.355l0.772-3.898c-1.022-0.663-1.911-1.479-2.645-2.403l-3.861 1.083-1.62-3.418 3.336-2.195c-0.247-1.148-0.31-2.341-0.169-3.538l-3.523-1.942 1.288-3.533 3.944 0.794c0.662-1.007 1.48-1.88 2.408-2.6l-1.123-3.83 3.441-1.578 2.243 3.318c1.157-0.236 2.363-0.289 3.573-0.14l1.935-3.473 3.572 1.299-3.231 8.866c-0.464-0.389-0.999-0.708-1.596-0.936l-0.086-0.032c-2.87-1.043-6.035 0.408-7.067 3.242s0.457 5.977 3.328 7.020c0.631 0.23 1.277 0.338 1.911 0.338l-3.185 8.739-0.067 0.12-3.579-1.301z"></path>
<path d="M25.771 2.792l-1.298 3.456 5.962 2.102 1.298-3.456z"></path>
<path d="M23.731 8.224l-6.119 16.294 5.962 2.102 6.119-16.294z"></path>
<path d="M18.356 31.981l-1.082-5.594 5.501 2.005z"></path>
</svg>
