<?xml version="1.0" encoding="utf-8"?>
<!-- Generator: Adobe Illustrator 17.0.1, SVG Export Plug-In . SVG Version: 6.00 Build 0)  -->
<!DOCTYPE svg PUBLIC "-//W3C//DTD SVG 1.1//EN" "http://www.w3.org/Graphics/SVG/1.1/DTD/svg11.dtd">
<svg version="1.1" id="Layer_1" xmlns="http://www.w3.org/2000/svg" xmlns:xlink="http://www.w3.org/1999/xlink" x="0px" y="0px"
	 width="1024px" height="1024px" viewBox="0 0 1024 1024" enable-background="new 0 0 1024 1024" xml:space="preserve">
<g>
	<path d="M128,64v256h768V64H128z M256,256c-35.35,0-64-28.65-64-64s28.65-64,64-64s64,28.65,64,64S291.35,256,256,256z"/>
	<path d="M128,640h768V384H128V640z M256,448c35.35,0,64,28.65,64,64s-28.65,64-64,64s-64-28.65-64-64S220.65,448,256,448z"/>
	<path d="M128,960h768V704H128V960z M256,768c35.35,0,64,28.65,64,64s-28.65,64-64,64s-64-28.65-64-64S220.65,768,256,768z"/>
</g>
</svg>
