<!-- Generated by IcoMoon.io -->
<svg version="1.1" xmlns="http://www.w3.org/2000/svg" width="32" height="32" viewBox="0 0 32 32">
<title>dialog-window-cogwheel</title>
<path d="M0 4v26h32v-26h-32zM24 6h2v2h-2v-2zM20 6h2v2h-2v-2zM30 28h-28v-18h28v18zM30 8h-2v-2h2v2z"></path>
<path d="M23 20l0.5-1.5-2.635-0.659c-0.115-0.486-0.301-0.943-0.547-1.363l1.339-1.721-0.707-1.414-2.33 1.398c-0.414-0.255-0.867-0.452-1.35-0.578l-0.27-2.163-1.5-0.5-0.659 2.635c-0.486 0.115-0.943 0.301-1.363 0.547l-1.721-1.339-1.414 0.707 1.398 2.33c-0.255 0.414-0.452 0.867-0.578 1.35l-2.163 0.27-0.5 1.5 2.635 0.659c0.115 0.486 0.301 0.943 0.547 1.363l-1.339 1.721 0.707 1.414 2.33-1.398c0.414 0.255 0.867 0.452 1.35 0.578l0.27 2.163 1.5 0.5 0.659-2.635c0.486-0.115 0.943-0.301 1.363-0.547l1.721 1.339 1.414-0.707-1.398-2.33c0.255-0.414 0.452-0.867 0.578-1.35l2.163-0.27zM16 21c-1.105 0-2-0.895-2-2s0.895-2 2-2 2 0.895 2 2-0.895 2-2 2z"></path>
</svg>
