<svg width="16" height="16" viewBox="0 0 16 16" fill="none" xmlns="http://www.w3.org/2000/svg">
<path d="M1.17468 2.17625C1.07733 2.27598 0.999665 2.43931 0.999665 2.68377V5.99951H2.49916C2.77521 5.99951 2.999 6.22337 2.999 6.49951C2.999 6.77565 2.77521 6.99951 2.49916 6.99951H0.999665V13.3201C0.999665 13.5646 1.07733 13.7279 1.17468 13.8277C1.27097 13.9263 1.42449 14.002 1.65329 14.002H3.00316C3.27921 14.002 3.50299 14.2258 3.50299 14.502C3.50299 14.7781 3.27921 15.002 3.00316 15.002H1.65329C1.19002 15.002 0.766804 14.8412 0.459392 14.5262C0.153025 14.2123 0 13.7848 0 13.3201V2.68377C0 2.21915 0.153025 1.79156 0.459392 1.47766C0.766804 1.16269 1.19002 1.00195 1.65329 1.00195H14.3413C14.8046 1.00195 15.2278 1.16269 15.5352 1.47766C15.8416 1.79156 15.9946 2.21915 15.9946 2.68377V6.36585C16.0064 6.40839 15.9951 6.45322 15.9951 6.49951C15.9951 6.54581 16.0064 6.59063 15.9946 6.63318V13.3201C15.9946 13.7848 15.8416 14.2123 15.5352 14.5262C15.2278 14.8412 14.8046 15.002 14.3413 15.002H12.9869C12.7108 15.002 12.487 14.7781 12.487 14.502C12.487 14.2258 12.7108 14.002 12.9869 14.002H14.3413C14.5702 14.002 14.7237 13.9263 14.82 13.8277C14.9173 13.7279 14.995 13.5646 14.995 13.3201V6.99951H13.5135C13.2375 6.99951 13.0137 6.77565 13.0137 6.49951C13.0137 6.22337 13.2375 5.99951 13.5135 5.99951H14.995V2.68377C14.995 2.43931 14.9173 2.27598 14.82 2.17625C14.7237 2.07758 14.5702 2.00195 14.3413 2.00195H1.65329C1.42449 2.00195 1.27097 2.07758 1.17468 2.17625Z" fill="black"/>
<path d="M12.0106 3.00684H13.0064V4.00684H12.0106V3.00684Z" fill="black"/>
<path d="M11.0071 3.00684H10.0074V4.00684H11.0071V3.00684Z" fill="black"/>
<path fill-rule="evenodd" clip-rule="evenodd" d="M6.33333 10C6.33333 10.9167 7.08333 11.6667 8 11.6667C8.91667 11.6667 9.66667 10.9167 9.66667 10C9.66667 9.08333 8.91667 8.33333 8 8.33333C7.08333 8.33333 6.33333 9.08333 6.33333 10ZM7.16667 10C7.16667 9.5 7.5 9.16667 8 9.16667C8.5 9.16667 8.83333 9.5 8.83333 10C8.83333 10.5 8.5 10.8333 8 10.8333C7.5 10.8333 7.16667 10.5 7.16667 10Z" fill="black"/>
<path fill-rule="evenodd" clip-rule="evenodd" d="M6.75 14.25C6.83333 14.6667 7.16667 15 7.58333 15H8.41667C8.83333 15 9.16667 14.6667 9.25 14.25L9.33333 13.75C9.375 13.75 9.41667 13.7292 9.45833 13.7083C9.5 13.6875 9.54167 13.6667 9.58333 13.6667C9.625 13.6667 9.64583 13.6458 9.66667 13.625C9.6875 13.6042 9.70833 13.5833 9.75 13.5833L10.1667 13.9167C10.5 14.1667 10.9167 14.0833 11.25 13.8333L11.8333 13.25C12.1667 12.9167 12.1667 12.5 11.9167 12.1667L11.5833 11.75C11.5833 11.7083 11.6042 11.6667 11.625 11.625C11.6458 11.5833 11.6667 11.5417 11.6667 11.5C11.75 11.4167 11.75 11.4167 11.75 11.3333L12.25 11.25C12.6667 11.1667 13 10.8333 13 10.4167V9.58333C13 9.16667 12.6667 8.83333 12.25 8.66667L11.75 8.58333C11.75 8.58333 11.6667 8.5 11.6667 8.41667C11.6667 8.375 11.6458 8.35417 11.625 8.33333C11.6042 8.3125 11.5833 8.29167 11.5833 8.25L11.9167 7.83333C12.1667 7.5 12.1667 7.08333 11.8333 6.75L11.25 6.16667C10.9167 5.83333 10.4167 5.83333 10.1667 6L9.75 6.33333C9.70833 6.33333 9.66667 6.3125 9.625 6.29167C9.58333 6.27083 9.54167 6.25 9.5 6.25C9.5 6.25 9.41667 6.16667 9.33333 6.16667L9.25 5.66667C9.16667 5.33333 8.83333 5 8.41667 5H7.58333C7.16667 5 6.75 5.33333 6.66667 5.75L6.58333 6.25C6.54167 6.25 6.52083 6.27083 6.5 6.29167C6.47917 6.3125 6.45833 6.33333 6.41667 6.33333C6.41667 6.33333 6.33333 6.41667 6.25 6.41667L5.83333 6.08333C5.5 5.83333 5 5.91667 4.75 6.16667L4.16667 6.75C3.83333 7.08333 3.83333 7.5 4.08333 7.83333L4.33333 8.33333C4.33333 8.33333 4.33333 8.41667 4.25 8.5C4.25 8.5 4.16667 8.58333 4.16667 8.66667L3.66667 8.75C3.33333 8.83333 3 9.16667 3 9.58333V10.4167C3 10.8333 3.25 11.1667 3.75 11.25L4.25 11.3333C4.33333 11.4167 4.33333 11.4167 4.33333 11.5C4.33333 11.5417 4.35417 11.5833 4.375 11.625C4.39583 11.6667 4.41667 11.7083 4.41667 11.75L4.08333 12.1667C3.83333 12.5 3.91667 13 4.16667 13.25L4.83333 13.8333C5.08333 14.0833 5.66667 14.1667 5.91667 13.9167L6.33333 13.5833C6.375 13.5833 6.39583 13.6042 6.41667 13.625C6.4375 13.6458 6.45833 13.6667 6.5 13.6667C6.54167 13.6667 6.5625 13.6875 6.58333 13.7083C6.60417 13.7292 6.625 13.75 6.66667 13.75L6.75 14.25ZM6.41667 12.8333C6.41667 12.75 6.33333 12.75 6.25 12.75C6.16667 12.75 6.08333 12.75 6 12.8333L5.33333 13.25L4.75 12.6667L5.25 12C5.33333 11.9167 5.33333 11.75 5.25 11.5833L5.16667 11.5C5.13484 11.4363 5.10301 11.3848 5.07582 11.3408C5.03183 11.2697 5 11.2182 5 11.1667C5 11.125 4.97917 11.0833 4.95833 11.0417C4.9375 11 4.91667 10.9583 4.91667 10.9167V10.8333C4.89699 10.8137 4.87732 10.7893 4.85655 10.7637C4.78934 10.6806 4.71066 10.5833 4.58333 10.5833L3.83333 10.4167V9.58333L4.58333 9.41667C4.75 9.41667 4.91667 9.33333 5 9.16667V9.08333C5 9.04167 5.02083 9 5.04167 8.95833C5.0625 8.91667 5.08333 8.875 5.08333 8.83333C5.08333 8.7357 5.11193 8.66667 5.13562 8.60948C5.15237 8.56904 5.16667 8.53452 5.16667 8.5V8.41667C5.25 8.25 5.25 8.16667 5.16667 8L4.75 7.33333L5.33333 6.75L6 7.25C6.08333 7.33333 6.25 7.33333 6.41667 7.25L6.5 7.08333C6.54167 7.08333 6.58333 7.0625 6.625 7.04167C6.66667 7.02083 6.70833 7 6.75 7C6.79167 7 6.83333 6.97917 6.875 6.95833C6.91667 6.9375 6.95833 6.91667 7 6.91667H7.08333C7.25 6.83333 7.41667 6.75 7.41667 6.58333L7.58333 5.83333H8.41667L8.58333 6.58333C8.58333 6.75 8.66667 6.91667 8.83333 6.91667L8.91667 7C9.0143 7 9.08333 7.0286 9.14052 7.05228C9.18096 7.06904 9.21548 7.08333 9.25 7.08333C9.29167 7.08333 9.33333 7.10417 9.375 7.125C9.41667 7.14583 9.45833 7.16667 9.5 7.16667H9.58333C9.66667 7.25 9.83333 7.25 10 7.16667L10.6667 6.75L11.1667 7.33333L10.75 8C10.6667 8.08333 10.6667 8.25 10.75 8.41667L10.9167 8.58333C10.9167 8.625 10.9375 8.66667 10.9583 8.70833C10.9792 8.75 11 8.79167 11 8.83333C11 8.875 11.0208 8.91667 11.0417 8.95833C11.0625 9 11.0833 9.04167 11.0833 9.08333V9.16667C11.0833 9.33333 11.25 9.41667 11.4167 9.41667L12.1667 9.58333V10.4167L11.4167 10.5C11.25 10.5833 11.1667 10.6667 11.0833 10.8333V10.9167C11.0833 10.9583 11.0625 11 11.0417 11.0417C11.0208 11.0833 11 11.125 11 11.1667C10.9682 11.2303 10.9485 11.2818 10.9317 11.3258C10.9045 11.397 10.8848 11.4485 10.8333 11.5L10.75 11.5833C10.6667 11.6667 10.6667 11.8333 10.8333 12L11.1667 12.6667L10.5833 13.25L10 12.8333C9.91667 12.75 9.75 12.75 9.58333 12.8333L9.5 12.9167C9.45833 12.9167 9.41667 12.9375 9.375 12.9583C9.33333 12.9792 9.29167 13 9.25 13C9.20833 13 9.16667 13.0208 9.125 13.0417C9.08333 13.0625 9.04167 13.0833 9 13.0833H8.91667C8.75 13.1667 8.58333 13.25 8.58333 13.4167L8.41667 14.1667H7.58333L7.41667 13.4167C7.41667 13.25 7.33333 13.1667 7.16667 13.0833H7C6.95833 13.0833 6.91667 13.0625 6.875 13.0417C6.83333 13.0208 6.79167 13 6.75 13C6.66667 13 6.58333 13 6.5 12.9167L6.41667 12.8333Z" fill="black"/>
</svg>
