<?xml version="1.0" encoding="utf-8"?>
<!-- Generator: Adobe Illustrator 17.1.0, SVG Export Plug-In . SVG Version: 6.00 Build 0)  -->
<!DOCTYPE svg PUBLIC "-//W3C//DTD SVG 1.1//EN" "http://www.w3.org/Graphics/SVG/1.1/DTD/svg11.dtd">
<svg version="1.1" id="Layer_1" xmlns="http://www.w3.org/2000/svg" xmlns:xlink="http://www.w3.org/1999/xlink" x="0px" y="0px"
	 width="1024px" height="1024px" viewBox="0 0 1024 1024" enable-background="new 0 0 1024 1024" xml:space="preserve">
<path d="M0,128v832h1024V128H0z M768,192h64v64h-64V192z M640,192h64v64h-64V192z M960,896H64V320h896V896z M960,256h-64v-64h64V256
	z"/>
<path d="M736,640l16-48l-84.33-21.08c-3.69-15.54-9.64-30.19-17.49-43.61l42.84-55.08l-22.63-45.25l-74.55,44.73
	c-13.24-8.16-27.76-14.45-43.19-18.49L544,384l-48-16l-21.08,84.33c-15.54,3.69-30.19,9.64-43.61,17.49l-55.08-42.84l-45.25,22.63
	l44.73,74.55c-8.16,13.24-14.45,27.76-18.49,43.19L288,576l-16,48l84.33,21.08c3.69,15.54,9.64,30.19,17.49,43.61l-42.84,55.08
	l22.63,45.25l74.55-44.73c13.24,8.16,27.76,14.45,43.19,18.49L480,832l48,16l21.08-84.33c15.54-3.69,30.19-9.64,43.61-17.49
	l55.08,42.84l45.25-22.63l-44.73-74.55c8.16-13.24,14.45-27.76,18.49-43.19L736,640z M512,672c-35.35,0-64-28.65-64-64
	s28.65-64,64-64s64,28.65,64,64S547.35,672,512,672z"/>
</svg>
