<!-- Generated by IcoMoon.io -->
<svg version="1.1" xmlns="http://www.w3.org/2000/svg" width="32" height="32" viewBox="0 0 32 32">
<title>doc-ban-sign</title>
<path d="M10 21.5c0 1.202 0.468 2.332 1.318 3.182s1.98 1.318 3.182 1.318c0.861 0 1.686-0.24 2.397-0.689l-6.207-6.207c-0.449 0.711-0.689 1.535-0.689 2.397z"></path>
<path d="M14.5 17c-0.861 0-1.686 0.24-2.397 0.689l6.207 6.207c0.449-0.711 0.689-1.535 0.689-2.397 0-1.202-0.468-2.332-1.318-3.182s-1.98-1.318-3.182-1.318z"></path>
<path d="M20 8h8l-8.001-8z"></path>
<path d="M18 10l-0.001-10h-13.999v32h24v-22h-10zM14.5 28c-3.59 0-6.5-2.91-6.5-6.5s2.91-6.5 6.5-6.5c3.59 0 6.5 2.91 6.5 6.5s-2.91 6.5-6.5 6.5z"></path>
</svg>
