<svg width="16" height="16" viewBox="0 0 16 16" fill="none" xmlns="http://www.w3.org/2000/svg">
<path d="M7.18649 8.14645C6.99122 8.34171 6.99122 8.65829 7.18649 8.85355L8.33293 10H4.54004C4.2639 10 4.04004 10.2239 4.04004 10.5C4.04004 10.7761 4.2639 11 4.54004 11H8.33293L7.18649 12.1464C6.99122 12.3417 6.99122 12.6583 7.18649 12.8536C7.38175 13.0488 7.69833 13.0488 7.89359 12.8536L9.89359 10.8536C10.0889 10.6583 10.0889 10.3417 9.89359 10.1464L7.89359 8.14645C7.69833 7.95118 7.38175 7.95118 7.18649 8.14645Z" fill="black"/>
<path fill-rule="evenodd" clip-rule="evenodd" d="M9.2 0H3C2.44772 0 2 0.447715 2 1V15C2 15.5523 2.44772 16 3 16H13C13.5523 16 14 15.5523 14 15V4.57143L9.2 0ZM3 15H13V5.99745H9.54004C8.71161 5.99745 8.04004 5.32588 8.04004 4.49745V1H3L3 15ZM9.04004 1.22861L12.9973 4.99745H9.54004C9.2639 4.99745 9.04004 4.7736 9.04004 4.49745V1.22861Z" fill="black"/>
</svg>
