<?xml version="1.0" encoding="UTF-8"?>
<svg width="1024px" height="1024px" viewBox="0 0 1024 1024" version="1.1" xmlns="http://www.w3.org/2000/svg" xmlns:xlink="http://www.w3.org/1999/xlink">
    <!-- Generator: Sketch 55.2 (78181) - https://sketchapp.com -->
    <title>doc-plus</title>
    <desc>Created with Sketch.</desc>
    <g id="doc-plus" stroke="none" stroke-width="1" fill="none" fill-rule="evenodd">
        <g id="Group" transform="translate(128.000000, 0.000000)" fill="#000000">
            <g id="doc-o" fill-rule="nonzero">
                <path d="M768,256 L512,0 L511.98,0 L511.98,0 L0,0 L0,1024 L768,1024 L768,256 L768,256 L768,256 Z M677.49,256 L512,256 L511.99,90.5 L677.49,256 Z M704,960 L64,960 L64,64 L447.99,64 L448,320 L704,320 L704,960 Z" id="Shape"></path>
            </g>
            <g id="plus" transform="translate(209.000000, 465.000000)">
                <polygon id="Path" points="350 145.833333 204.166667 145.833333 204.166667 0 145.833333 0 145.833333 145.833333 0 145.833333 0 204.166667 145.833333 204.166667 145.833333 350 204.166667 350 204.166667 204.166667 350 204.166667"></polygon>
            </g>
        </g>
    </g>
</svg>