<?xml version="1.0" encoding="utf-8"?>
<!-- Generator: Adobe Illustrator 17.1.0, SVG Export Plug-In . SVG Version: 6.00 Build 0)  -->
<!DOCTYPE svg PUBLIC "-//W3C//DTD SVG 1.1//EN" "http://www.w3.org/Graphics/SVG/1.1/DTD/svg11.dtd">
<svg version="1.1" id="Layer_1" xmlns="http://www.w3.org/2000/svg" xmlns:xlink="http://www.w3.org/1999/xlink" x="0px" y="0px"
	 width="1024px" height="1024px" viewBox="0 0 1024 1024" enable-background="new 0 0 1024 1024" xml:space="preserve">
<g>
	<path d="M320,688c0,38.46,14.98,74.63,42.18,101.82C389.37,817.02,425.54,832,464,832c27.56,0,53.94-7.69,76.69-22.06
		L342.06,611.31C327.69,634.06,320,660.44,320,688z"/>
	<path d="M464,544c-27.56,0-53.94,7.69-76.69,22.06l198.63,198.63C600.31,741.94,608,715.56,608,688
		c0-38.46-14.98-74.63-42.18-101.82C538.63,558.98,502.46,544,464,544z"/>
	<polygon points="640,256 896,256 640,0 639.98,0 	"/>
	<path d="M576,320L575.98,0H128v1024h768V320H576z M464,896c-114.88,0-208-93.12-208-208s93.12-208,208-208
		c114.88,0,208,93.12,208,208S578.88,896,464,896z"/>
</g>
</svg>
