<?xml version="1.0" encoding="utf-8"?>
<!-- Generator: Adobe Illustrator 17.0.1, SVG Export Plug-In . SVG Version: 6.00 Build 0)  -->
<!DOCTYPE svg PUBLIC "-//W3C//DTD SVG 1.1//EN" "http://www.w3.org/Graphics/SVG/1.1/DTD/svg11.dtd">
<svg version="1.1" id="Layer_1" xmlns="http://www.w3.org/2000/svg" xmlns:xlink="http://www.w3.org/1999/xlink" x="0px" y="0px"
	 width="1024px" height="1024px" viewBox="0 0 1024 1024" enable-background="new 0 0 1024 1024" xml:space="preserve">
<path d="M760.8,660.51c0-138.35-104.5-186.71-197.68-225.34c-92.38-38.29-144.08-45.5-144.08-102.25
	c0-31.08,28.57-65.38,108.67-65.38c84.7,0,148.77,41.4,148.77,41.4l62.1-82.79c0,0-60.11-57.23-162.57-75.77V64H448v87.99
	c-103.22,24.7-165.39,107.86-165.39,190.22C282.61,468.82,367,518,484.58,560c85.74,30.63,135.38,51,135.38,109.62
	c0,58.63-57.96,86.32-107.96,86.32c-109.95,0-190.11-73.85-190.11-73.85l-73.62,83.57c0,0,68.15,89.16,199.73,112.59V960h128v-81.47
	C674.62,861.36,760.8,800.23,760.8,660.51z"/>
</svg>
