<!-- Generated by IcoMoon.io -->
<svg version="1.1" xmlns="http://www.w3.org/2000/svg" width="32" height="32" viewBox="0 0 32 32">
<title>dollar-sign</title>
<path d="M23.775 20.641c0-4.323-3.266-5.835-6.178-7.042-2.887-1.197-4.503-1.422-4.503-3.195 0-0.971 0.893-2.043 3.396-2.043 2.647 0 4.649 1.294 4.649 1.294l1.941-2.587c0 0-1.878-1.788-5.080-2.368v-2.699h-4v2.75c-3.226 0.772-5.168 3.371-5.168 5.944 0 3.957 2.637 5.493 6.312 6.806 2.679 0.957 4.231 1.594 4.231 3.426s-1.811 2.697-3.374 2.697c-3.436 0-5.941-2.308-5.941-2.308l-2.301 2.612c0 0 2.13 2.786 6.242 3.518v2.555h4v-2.546c3.082-0.537 5.775-2.447 5.775-6.813z"></path>
</svg>
