<!-- Generated by IcoMoon.io -->
<svg version="1.1" xmlns="http://www.w3.org/2000/svg" width="32" height="32" viewBox="0 0 32 32">
<title>earth</title>
<path d="M16 0c-8.837 0-16 7.163-16 16s7.163 16 16 16c8.837 0 16-7.163 16-16s-7.163-16-16-16zM5.114 24.803c-1.947-2.405-3.114-5.468-3.114-8.803 0-1.252 0.165-2.466 0.473-3.622l4.527 3.622-1.886 8.803zM24.5 18v6l-2.5 4h-2l-2-4v-6h-4l-2-2v-4l2-2h8.5l2 2v2l2 2-2 2zM24 8v-2h-6l-2 2-2-2v-2h2v-2c5.948 0 11.030 3.71 13.058 8.942l-1.058 1.058-4-4z"></path>
</svg>
