<?xml version="1.0" encoding="utf-8"?>
<!-- Generator: Adobe Illustrator 17.1.0, SVG Export Plug-In . SVG Version: 6.00 Build 0)  -->
<!DOCTYPE svg PUBLIC "-//W3C//DTD SVG 1.1//EN" "http://www.w3.org/Graphics/SVG/1.1/DTD/svg11.dtd">
<svg version="1.1" id="Layer_1" xmlns="http://www.w3.org/2000/svg" xmlns:xlink="http://www.w3.org/1999/xlink" x="0px" y="0px"
	 width="1024px" height="1024px" viewBox="0 0 1024 1024" enable-background="new 0 0 1024 1024" xml:space="preserve">
<path d="M512,0C229.23,0,0,229.23,0,512s229.23,512,512,512c282.77,0,512-229.23,512-512S794.77,0,512,0z M163.64,793.7
	C101.33,716.74,64,618.73,64,512c0-40.08,5.27-78.92,15.14-115.89L224,512L163.64,793.7z M784,576v192l-80,128h-64l-64-128V576H448
	l-64-64V384l64-64h272l64,64v64l64,64L784,576z M768,256v-64H576l-64,64l-64-64v-64h64V64c190.35,0,352.96,118.71,417.86,286.14
	L896,384L768,256z"/>
</svg>
