<!-- Generated by IcoMoon.io -->
<svg version="1.1" xmlns="http://www.w3.org/2000/svg" width="32" height="32" viewBox="0 0 32 32">
<title>edge</title>
<path d="M1.248 14.208v0q0.288-2.272 1.056-4.32t2.048-3.872 2.976-3.136 4-2.112 4.928-0.768q4.128 0 7.392 1.888t5.28 5.408q1.856 3.36 1.856 7.904v3.36h-20.096q0 1.984 0.96 3.424t2.432 2.208 3.392 0.992 3.776 0.064 3.712-0.832 3.104-1.504v6.72q-1.632 0.992-4.096 1.664t-5.568 0.672-5.664-0.96q-3.36-1.28-5.536-4.448t-2.24-6.624q-0.032-4.32 1.984-7.36t5.792-4.8q-0.832 1.088-1.376 2.24t-0.832 2.848h11.36q0.128-1.376-0.16-2.496t-0.832-1.792-1.248-1.216-1.44-0.704-1.344-0.384-0.992-0.16h-0.416q-2.4 0.096-4.64 0.8t-3.968 1.856-3.136 2.496-2.464 2.944z"></path>
</svg>
