<svg width="16" height="16" viewBox="0 0 16 16" fill="none" xmlns="http://www.w3.org/2000/svg">
<path d="M5.45455 9.67769C5.45455 10.0496 5.45455 10.5455 5.58182 10.7934C5.70909 11.0413 5.83636 11.2893 6.09091 11.5372C6.21818 11.7851 6.47273 12.0331 6.72727 12.157C6.98182 12.281 7.23636 12.405 7.61818 12.5289C7.87273 12.6529 8.25455 12.6529 8.50909 12.7769C8.89091 12.7769 9.14545 12.9008 9.4 12.9008C9.78182 12.9008 10.1636 12.9008 10.5455 12.7769C10.9273 12.7769 11.1818 12.6529 11.5636 12.5289C11.9455 12.405 12.2 12.281 12.5818 12.157C12.9636 12.0331 13.3455 11.6612 13.7273 11.5372V14.6364C13.3455 14.7603 12.8364 15.1322 12.4545 15.2562C12.0727 15.3802 11.6909 15.5041 11.3091 15.6281C10.9273 15.7521 10.5455 15.7521 10.1636 15.876C9.78182 15.876 9.4 16 8.89091 16C8.38182 16 7.74545 15.876 7.23636 15.7521C6.72727 15.6281 6.21818 15.3802 5.70909 15.2562C5.2 15.0083 4.81818 14.7603 4.43636 14.3884C4.18182 13.8926 3.8 13.5207 3.54545 13.1488C3.29091 12.6529 3.03636 12.157 2.90909 11.6612C2.78182 11.1653 2.65455 10.6694 2.65455 10.0496C2.65455 9.42975 2.78182 8.80992 2.90909 8.31405C3.16364 7.81818 3.29091 7.19835 3.67273 6.82645C4.05455 6.33058 4.43636 5.95868 4.81818 5.58678C5.2 5.21488 5.83636 4.84298 6.34545 4.71901C6.09091 4.96694 5.83636 5.33884 5.70909 5.71074C5.45455 6.20661 5.45455 6.82645 5.45455 7.19835H10.5455C10.5455 6.70248 10.6727 6.08264 10.5455 5.58678C10.4182 5.09091 10.1636 4.84298 10.0364 4.59504C9.78182 4.34711 9.4 4.22314 9.01818 4.09917C8.63636 3.97521 8.12727 3.85124 7.61818 3.85124C6.98182 3.85124 6.34545 3.97521 5.70909 4.09917C5.07273 4.34711 4.43636 4.59504 3.92727 4.84298C3.29091 5.21488 2.78182 5.71074 2.27273 6.08264C1.76364 6.57851 1.38182 7.07438 1 7.69421C1.12727 7.07438 1.25455 6.45455 1.38182 5.83471C1.63636 5.21488 1.89091 4.71901 2.14545 4.22314C2.4 3.72727 2.78182 3.23141 3.29091 2.8595C3.8 2.4876 4.18182 2.1157 4.69091 1.86777C5.2 1.61983 5.70909 1.3719 6.34545 1.24793C6.85455 1.12397 7.49091 1 8.12727 1C8.50909 1 8.89091 1 9.27273 1.12397C9.65454 1.24793 10.0364 1.24793 10.4182 1.3719C11.1818 1.61983 11.8182 1.99174 12.3273 2.36364C12.8364 2.8595 13.3455 3.35537 13.7273 3.85124C14.1091 4.47107 14.3636 5.09091 14.6182 5.71074C14.8727 6.57851 15 7.19835 15 7.94215V9.67769H5.45455Z" fill="black"/>
</svg>
