<svg width="16" height="16" viewBox="0 0 16 16" fill="none" xmlns="http://www.w3.org/2000/svg">
<path fill-rule="evenodd" clip-rule="evenodd" d="M3.99142 5.65543C3.99142 3.92025 5.12442 2 7.28607 2C8.31049 2 9.0907 2.38558 9.60803 2.76451C9.75858 2.87478 9.88784 2.98512 9.99571 3.08647C10.1036 2.98512 10.2328 2.87478 10.3834 2.76451C10.9007 2.38558 11.6809 2 12.7053 2C14.867 2 16 3.92025 16 5.65543C16 6.59825 15.5704 7.3692 15.1 7.9565C14.7553 8.38672 14.3486 8.76135 14.0607 9.02655C13.9666 9.11327 13.8851 9.18828 13.8227 9.24972C13.5382 9.52977 12.8379 10.2018 12.1383 10.8732C11.3308 11.6481 10.524 12.4223 10.358 12.5924C10.2635 12.6892 10.1326 12.7439 9.99571 12.7439C9.85881 12.7439 9.72789 12.6892 9.63346 12.5924C9.54706 12.5039 9.06991 12.0284 8.7404 11.7107C8.5438 11.5212 8.54185 11.212 8.73603 11.0201C8.93021 10.8282 9.24701 10.8263 9.4436 11.0158C9.61376 11.1799 9.82244 11.3851 9.99905 11.5601C10.3629 11.2075 10.9285 10.6645 11.4851 10.1302C12.1756 9.46732 12.8522 8.81781 13.1122 8.56197C13.209 8.46666 13.3148 8.3692 13.4261 8.26668C13.7049 8.00984 14.0182 7.72121 14.3117 7.35488C14.7091 6.85871 14.9993 6.29615 14.9993 5.65543C14.9993 4.22354 14.1001 2.97672 12.7053 2.97672C11.9516 2.97672 11.377 3.2579 10.984 3.54572C10.7872 3.68986 10.6389 3.83379 10.5412 3.93994C10.4925 3.99281 10.4569 4.03569 10.4347 4.06366C10.4236 4.07762 10.4159 4.0878 10.4117 4.09358L10.4078 4.09882C10.3145 4.23113 10.1729 4.30566 9.99571 4.31023C9.81857 4.31479 9.67696 4.23114 9.58362 4.09883L9.5823 4.09696C9.5823 4.09696 9.63288 4.21218 9.75971 4.25596C9.88654 4.29973 9.99571 4.31023 9.99571 4.31023C9.70138 4.31023 9.5823 4.09696 9.5823 4.09696L9.58362 4.09883L9.57976 4.09358C9.57547 4.0878 9.56777 4.07762 9.55669 4.06366C9.53448 4.03569 9.49893 3.99281 9.45025 3.93994C9.35252 3.83379 9.20419 3.68986 9.0074 3.54572C8.61446 3.2579 8.03985 2.97672 7.28607 2.97672C5.89133 2.97672 4.9921 4.22354 4.9921 5.65543C4.9921 6.3209 5.30526 6.90204 5.72562 7.41127C5.89899 7.62129 5.8651 7.92873 5.64992 8.09795C5.43474 8.26717 5.11976 8.23409 4.94639 8.02406C4.45446 7.42812 3.99142 6.63443 3.99142 5.65543ZM9.99571 4.31023C10.29 4.31023 10.4087 4.0976 10.4087 4.0976C10.4087 4.0976 10.3141 4.21309 10.2319 4.25596C10.148 4.29974 9.99571 4.31023 9.99571 4.31023ZM2.86998 6.69615C3.06365 6.70426 3.23509 6.82082 3.31001 6.99532L5.09334 11.1491L5.80709 9.33561C5.87723 9.13956 6.06671 9.00825 6.27946 9.00825H8.52744C8.80377 9.00825 9.02778 9.2269 9.02778 9.49661C9.02778 9.76633 8.80377 9.98497 8.52744 9.98497H6.63471L5.60819 12.6726C5.53989 12.8635 5.35812 12.9936 5.15104 12.9998C4.94397 13.0059 4.75443 12.8869 4.67436 12.7004L2.7982 8.33038L2.14813 9.71789C2.06177 9.87882 1.89103 9.97965 1.70492 9.97965H0.50034C0.22401 9.97965 0 9.761 0 9.49129C0 9.22158 0.22401 9.00293 0.50034 9.00293H1.40217L2.40533 6.95746C2.49528 6.78986 2.67632 6.68805 2.86998 6.69615Z" fill="black"/>
</svg>
