<?xml version="1.0" encoding="UTF-8"?>
<svg width="1024px" height="1024px" viewBox="0 0 1024 1024" version="1.1" xmlns="http://www.w3.org/2000/svg" xmlns:xlink="http://www.w3.org/1999/xlink">
    <!-- Generator: Sketch 63.1 (92452) - https://sketch.com -->
    <title>engage-users</title>
    <desc>Created with Sketch.</desc>
    <g id="engage-users" stroke="none" stroke-width="1" fill="none" fill-rule="evenodd">
        <g id="Group-41" fill="#000000">
            <g id="Group-40">
                <g id="rotate-right">
                    <path d="M688,384 L1024,384 L1024,56.5 L896,56.5 L896,173.29 C864.96,138.12 829.08,107.18 789.19,81.46 C706.56,28.17 610.71,0 512,0 C442.91,0 375.85,13.55 312.69,40.26 C251.71,66.05 196.96,102.96 149.96,149.96 C102.96,196.96 66.05,251.71 40.26,312.69 C13.55,375.85 0,442.91 0,512 C0,581.09 13.55,648.15 40.26,711.31 C66.05,772.29 102.96,827.04 149.96,874.04 C196.96,921.04 251.71,957.95 312.69,983.74 C375.85,1010.45 442.91,1024 512,1024 C581.09,1024 648.15,1010.45 711.31,983.74 C772.29,957.95 827.04,921.04 874.04,874.04 C921.04,827.04 957.95,772.29 983.74,711.31 C1010.45,648.15 1024,581.09 1024,512 L896,512 C896,723.74 723.74,896 512,896 C300.26,896 128,723.74 128,512 C128,300.26 300.26,128 512,128 C622.2,128 726.11,176.09 798.03,256 L688,256 L688,384 Z" id="Path"></path>
                </g>
                <g id="user" transform="translate(303.000000, 289.000000)">
                    <circle id="Oval" cx="208.491566" cy="149.225564" r="149.225564"></circle>
                    <polygon id="Path" points="275.319708 326.954887 141.663424 326.954887 0.581791829 379.037124 0.581791829 446 416.401341 446 416.401341 379.037124"></polygon>
                </g>
            </g>
        </g>
    </g>
</svg>