<svg width="16" height="16" viewBox="0 0 16 16" fill="none" xmlns="http://www.w3.org/2000/svg">
<g clip-path="url(#clip0)">
<path fill-rule="evenodd" clip-rule="evenodd" d="M14.8326 1.88488C15.0277 1.68219 15.0274 1.35386 14.8319 1.15154C14.6365 0.949222 14.3199 0.949525 14.1248 1.15222L12.3828 2.9622C11.2314 2.13092 9.78134 1.51835 8.00386 1.51835C5.18557 1.51835 3.18521 3.05529 1.91092 4.54761C1.27297 5.29472 0.808242 6.03984 0.502791 6.59787C0.349772 6.87743 0.235926 7.1115 0.159646 7.2774C0.121488 7.36039 0.0926743 7.42645 0.0730096 7.47274C0.0631757 7.49589 0.0556245 7.51412 0.0503319 7.52706L0.0440819 7.54247L0.0422204 7.54713L0.0416044 7.54868C0.0416044 7.54868 0.00390625 7.63074 0.00390625 7.7459L0.0411978 7.54971C-0.00840278 7.67557 -0.00835688 7.81659 0.0413256 7.94241L0.00390625 7.7459C0.00390625 7.86106 0.0413256 7.94241 0.0413256 7.94241L0.0419049 7.94388L0.0428475 7.94624L0.045825 7.95364L0.0561691 7.97887C0.0650222 8.00023 0.0778049 8.03053 0.0945716 8.06898C0.128096 8.14585 0.177602 8.25541 0.24353 8.39121C0.375279 8.66259 0.573232 9.04006 0.841071 9.47164C1.37487 10.3318 2.19626 11.4231 3.33849 12.3137C3.34697 12.3203 3.35559 12.3266 3.36432 12.3325L1.64869 14.1151C1.4536 14.3178 1.4539 14.6461 1.64934 14.8485C1.84478 15.0508 2.16136 15.0505 2.35645 14.8478L6.17509 10.8801C6.19535 10.8649 6.21475 10.8479 6.23311 10.8291C6.2534 10.8084 6.27162 10.7863 6.28776 10.7631L10.395 6.49559C10.4263 6.47496 10.4558 6.45039 10.4829 6.42188C10.5085 6.3949 10.5308 6.36575 10.5496 6.33501L14.8326 1.88488ZM10.09 5.3445L11.6637 3.70932C10.6769 3.03219 9.4689 2.55545 8.00386 2.55545C5.57227 2.55545 3.82272 3.873 2.65956 5.23518C2.07879 5.91533 1.65291 6.59746 1.37244 7.10986C1.23249 7.36553 1.12955 7.57747 1.06228 7.72378L1.05224 7.7457C1.07557 7.79677 1.1037 7.85684 1.13671 7.92483C1.25527 8.16904 1.43606 8.51412 1.68196 8.91035C2.17563 9.70582 2.92171 10.6912 3.93943 11.4847C3.98656 11.5215 4.02566 11.5652 4.05638 11.6135L5.19818 10.4271C4.76482 9.82096 4.50452 9.07071 4.50452 8.25885C4.50452 6.25356 6.07086 4.62921 8.00445 4.62921C8.78493 4.62921 9.50637 4.89752 10.09 5.3445ZM5.91555 9.68178L9.37257 6.08987C8.97647 5.82201 8.5065 5.66631 8.00445 5.66631C6.62311 5.66631 5.50452 6.82638 5.50452 8.25885C5.50452 8.78124 5.65567 9.27013 5.91555 9.68178Z" fill="black"/>
<path d="M14.3707 5.70828C14.6009 5.55007 14.9112 5.61532 15.0637 5.85403C15.3667 6.32816 15.5904 6.7485 15.7391 7.05203C15.8135 7.20394 15.8693 7.327 15.907 7.4134C15.9259 7.45662 15.9403 7.4907 15.9502 7.51468L15.9618 7.54296L15.9651 7.55121L15.9661 7.55381L15.9666 7.5551C15.9666 7.5551 16.0035 7.6081 16.0035 7.75108C16.0035 7.89407 15.9665 7.94722 15.9665 7.94722L15.9657 7.94935L15.9638 7.95402L15.9576 7.96946C15.9523 7.98243 15.9448 8.0007 15.9349 8.02391C15.9153 8.07033 15.8865 8.13656 15.8483 8.21977C15.7721 8.38613 15.6582 8.62085 15.5052 8.90119C15.1998 9.4608 14.7352 10.208 14.0973 10.9573C12.8232 12.4538 10.8227 13.9957 8.00385 13.9957C7.58552 13.9957 7.18464 13.9618 6.80057 13.8985C6.52785 13.8535 6.34189 13.5878 6.38523 13.305C6.42856 13.0222 6.68477 12.8293 6.95749 12.8742C7.28946 12.9289 7.63786 12.9586 8.00385 12.9586C10.4348 12.9586 12.1843 11.6374 13.3477 10.2709C13.9285 9.58864 14.3544 8.90438 14.635 8.39036C14.7749 8.13388 14.8779 7.92126 14.9452 7.77447L14.9559 7.75104C14.9271 7.68777 14.8911 7.61063 14.8475 7.52171C14.7131 7.24735 14.5084 6.8624 14.2302 6.42699C14.0776 6.18828 14.1405 5.8665 14.3707 5.70828Z" fill="black"/>
<path d="M16.0035 7.75108L15.9666 7.5551C16.0159 7.68055 16.0158 7.82177 15.9665 7.94722L16.0035 7.75108Z" fill="black"/>
<path d="M11.5044 8.2594C11.5044 7.97302 11.2806 7.74085 11.0044 7.74085C10.7283 7.74085 10.5044 7.97302 10.5044 8.2594C10.5044 9.69187 9.38586 10.8519 8.00452 10.8519C7.72837 10.8519 7.50452 11.0841 7.50452 11.3705C7.50452 11.6569 7.72837 11.889 8.00452 11.889C9.9381 11.889 11.5044 10.2647 11.5044 8.2594Z" fill="black"/>
</g>
<defs>
<clipPath id="clip0">
<rect width="16" height="16" fill="white"/>
</clipPath>
</defs>
</svg>
