<!-- Generated by IcoMoon.io -->
<svg version="1.1" xmlns="http://www.w3.org/2000/svg" width="32" height="32" viewBox="0 0 32 32">
<title>eye-slash</title>
<path d="M23.46 26.113l-2.661-3.712c-0 0-0.001 0-0.001 0.001l-1.748-2.44c0-0 0.001-0 0.001-0.001l-5.822-8.123c-0 0-0.001 0-0.001 0.001l-1.748-2.439c0-0 0.001-0 0.001-0.001l-2.633-3.674c-0 0-0.001 0-0.001 0l-3.882-5.417-1.931 1.384 3.775 5.267c-4.635 3.258-6.809 8.041-6.809 8.041v2c0 0 5 11 16 11 1.932 0 3.678-0.339 5.245-0.899l3.29 4.591 1.93-1.383-3.006-4.195c0-0 0.001-0 0.001-0.001zM16 24c-4.418 0-8-3.582-8-8 0-1.877 0.647-3.603 1.729-4.968l1.865 2.602c-0.379 0.704-0.594 1.51-0.594 2.365 0 2.762 2.238 5 5 5 0.281 0 0.556-0.023 0.824-0.068l1.866 2.604c-0.841 0.3-1.746 0.464-2.69 0.464z"></path>
<path d="M16 4c-1.743 0-3.335 0.277-4.781 0.741l2.56 3.572c0.705-0.203 1.45-0.313 2.221-0.313 4.418 0 8 3.582 8 8 0 1.7-0.531 3.277-1.435 4.572l3.006 4.194c4.374-3.245 6.429-7.766 6.429-7.766v-2c0 0-5-11-16-11z"></path>
<path d="M16 11c-0.097 0-0.194 0.003-0.29 0.008l4.924 6.871c0.236-0.58 0.366-1.214 0.366-1.879 0-2.762-2.238-5-5-5z"></path>
</svg>
