<?xml version="1.0" encoding="utf-8"?>
<!-- Generator: Adobe Illustrator 18.1.1, SVG Export Plug-In . SVG Version: 6.00 Build 0)  -->
<svg version="1.1" id="Layer_1" xmlns="http://www.w3.org/2000/svg" xmlns:xlink="http://www.w3.org/1999/xlink" x="0px" y="0px"
	 viewBox="0 0 1024 1024" enable-background="new 0 0 1024 1024" xml:space="preserve">
<g>
	<path d="M750.72,835.62l-85.14-118.79c-0.01,0.01-0.02,0.01-0.02,0.02l-55.95-78.07c0.01-0.01,0.02-0.01,0.02-0.02l-186.3-259.95
		c-0.01,0.01-0.02,0.01-0.03,0.02l-55.94-78.06c0.01-0.01,0.02-0.01,0.03-0.02l-84.25-117.56c-0.01,0-0.02,0.01-0.03,0.01
		L158.89,9.86L97.11,54.14l120.79,168.55C69.58,326.94,0,480,0,480v64c0,0,160,352,512,352c61.81,0,117.69-10.86,167.84-28.76
		l105.28,146.9l61.77-44.27l-96.2-134.23C750.7,835.63,750.71,835.63,750.72,835.62z M512,768c-141.38,0-256-114.62-256-256
		c0-60.06,20.69-115.29,55.33-158.96l59.68,83.27C358.88,458.85,352,484.62,352,512c0,88.37,71.63,160,160,160
		c8.98,0,17.78-0.75,26.36-2.17l59.72,83.33C571.17,762.75,542.2,768,512,768z"/>
	<path d="M512,128c-55.78,0-106.73,8.85-152.99,23.72l81.91,114.29C463.49,259.5,487.33,256,512,256c141.38,0,256,114.62,256,256
		c0,54.41-16.98,104.85-45.92,146.32l96.18,134.2C958.22,688.68,1024,544,1024,544v-64C1024,480,864,128,512,128z"/>
	<path d="M512,352c-3.11,0-6.2,0.09-9.27,0.26L660.3,572.13c7.54-18.56,11.7-38.86,11.7-60.13C672,423.63,600.37,352,512,352z"/>
</g>
</svg>
