<svg width="16" height="16" viewBox="0 0 16 16" fill="none" xmlns="http://www.w3.org/2000/svg">
<g clip-path="url(#clip0)">
<path fill-rule="evenodd" clip-rule="evenodd" d="M8.00009 4.49948C6.06703 4.49948 4.49979 6.06673 4.49979 7.99978C4.49979 9.93284 6.06703 11.5001 8.00009 11.5001C9.93315 11.5001 11.5004 9.93284 11.5004 7.99978C11.5004 6.06673 9.93315 4.49948 8.00009 4.49948ZM5.49979 7.99978C5.49979 6.61901 6.61932 5.49948 8.00009 5.49948C9.38086 5.49948 10.5004 6.61901 10.5004 7.99978C10.5004 9.38056 9.38086 10.5001 8.00009 10.5001C6.61932 10.5001 5.49979 9.38056 5.49979 7.99978Z" fill="black"/>
<path fill-rule="evenodd" clip-rule="evenodd" d="M15.9642 7.80877C15.9642 7.80877 16.0015 7.89453 16.0015 7.99854C16.0015 8.13281 15.9642 8.1883 15.9642 8.1883L15.9634 8.19036L15.9615 8.19485L15.9553 8.2097C15.95 8.22217 15.9424 8.23973 15.9326 8.26204C15.9129 8.30664 15.8841 8.37029 15.8459 8.45025C15.7696 8.61009 15.6558 8.8356 15.5027 9.10493C15.1972 9.64257 14.7324 10.3604 14.0944 11.0802C12.8199 12.518 10.8193 13.9985 8.00088 13.9985C5.18247 13.9985 3.18191 12.518 1.90741 11.0802C1.26936 10.3604 0.804557 9.64257 0.499054 9.10493C0.346008 8.8356 0.232141 8.61009 0.155846 8.45025C0.11768 8.37029 0.0888604 8.30664 0.0691906 8.26204C0.0593541 8.23973 0.0518007 8.22217 0.0465062 8.2097L0.0402536 8.19485L0.038391 8.19036L0.0377745 8.18886C0.0377745 8.18886 1.49012e-08 8.11035 2.0438e-07 7.99854C2.0438e-07 7.88672 0.0375448 7.80877 0.0375448 7.80877L0.038391 7.80671L0.0402536 7.80223L0.0465062 7.78737C0.0518007 7.7749 0.0593541 7.75734 0.0691906 7.73503C0.0888604 7.69043 0.11768 7.62678 0.155846 7.54682C0.232141 7.38699 0.346008 7.16147 0.499054 6.89214C0.804557 6.3545 1.26936 5.63664 1.90741 4.91686C3.18191 3.4791 5.18247 1.99854 8.00088 1.99854C10.8193 1.99854 12.8199 3.4791 14.0944 4.91686C14.7324 5.63664 15.1972 6.3545 15.5027 6.89214C15.6558 7.16147 15.7696 7.38699 15.8459 7.54682C15.8841 7.62678 15.9129 7.69043 15.9326 7.73503C15.9424 7.75734 15.95 7.7749 15.9553 7.78737L15.9615 7.80223L15.9634 7.80671L15.9642 7.80877ZM1.36849 8.61089C1.22854 8.3646 1.12559 8.16042 1.05831 8.01948L1.04835 7.99854L1.05831 7.97759C1.12559 7.83665 1.22854 7.63248 1.36849 7.38618C1.64898 6.89257 2.0749 6.23543 2.65572 5.58021C3.81896 4.26797 5.56877 2.99854 8.00088 2.99854C10.433 2.99854 12.1828 4.26797 13.346 5.58021C13.9269 6.23543 14.3528 6.89257 14.6333 7.38618C14.7732 7.63248 14.8762 7.83665 14.9435 7.97759L14.9534 7.99854L14.9435 8.01948C14.8762 8.16042 14.7732 8.3646 14.6333 8.61089C14.3528 9.1045 13.9269 9.76164 13.346 10.4169C12.1828 11.7291 10.433 12.9985 8.00088 12.9985C5.56877 12.9985 3.81896 11.7291 2.65572 10.4169C2.0749 9.76164 1.64898 9.1045 1.36849 8.61089Z" fill="black"/>
<path d="M16.0015 7.99854L15.9642 7.80877C16.0139 7.93011 16.0139 8.06696 15.9642 8.1883L16.0015 7.99854Z" fill="black"/>
<path d="M0.0375448 7.80877L2.0438e-07 7.99854L0.0373674 8.18787C-0.0122768 8.06653 -0.0120994 7.93011 0.0375448 7.80877Z" fill="black"/>
</g>
<defs>
<clipPath id="clip0">
<rect width="16" height="16" fill="white"/>
</clipPath>
</defs>
</svg>
