<?xml version="1.0" encoding="utf-8"?>
<!-- Generator: Adobe Illustrator 17.1.0, SVG Export Plug-In . SVG Version: 6.00 Build 0)  -->
<!DOCTYPE svg PUBLIC "-//W3C//DTD SVG 1.1//EN" "http://www.w3.org/Graphics/SVG/1.1/DTD/svg11.dtd">
<svg version="1.1" id="Layer_1" xmlns="http://www.w3.org/2000/svg" xmlns:xlink="http://www.w3.org/1999/xlink" x="0px" y="0px"
	 width="1024px" height="1024px" viewBox="0 0 1024 1024" enable-background="new 0 0 1024 1024" xml:space="preserve">
<polygon points="896,256 640,0 639.98,0 640,256 "/>
<polygon points="896,320 576,320 575.98,0 575.99,0 128,0 128,448 895.98,448 "/>
<g>
	<rect x="448" y="640" width="128" height="192"/>
	<path d="M0,512v448h1024V512H0z M320,768h-64v64H128v64H64V576h192v64h64V768z M640,832h-64v64H384V576h192v64h64V832z M960,640
		H768v64h128v64H768v128h-64V576h256V640z"/>
	<rect x="128" y="640" width="128" height="128"/>
</g>
</svg>
