<?xml version="1.0" encoding="utf-8"?>
<!-- Generator: Adobe Illustrator 17.0.1, SVG Export Plug-In . SVG Version: 6.00 Build 0)  -->
<!DOCTYPE svg PUBLIC "-//W3C//DTD SVG 1.1//EN" "http://www.w3.org/Graphics/SVG/1.1/DTD/svg11.dtd">
<svg version="1.1" id="Layer_1" xmlns="http://www.w3.org/2000/svg" xmlns:xlink="http://www.w3.org/1999/xlink" x="0px" y="0px"
	 width="1024px" height="1024px" viewBox="0 0 1024 1024" enable-background="new 0 0 1024 1024" xml:space="preserve">
<path d="M128,64v896h768V64H128z M256,816l-32,16l-32-16v-64l32-16l32,16V816z M256,640l-32,16l-32-16v-64l32-16l32,16V640z
	 M256,448l-32,16l-32-16v-64l32-16l32,16V448z M256,256l-32,16l-32-16v-64l32-16l32,16V256z M704,816H320V576h384V816z M704,448H320
	V192h384V448z M832,816l-32,16l-32-16v-64l32-16l32,16V816z M832,640l-32,16l-32-16v-64l32-16l32,16V640z M832,448l-32,16l-32-16
	v-64l32-16l32,16V448z M832,256l-32,16l-32-16v-64l32-16l32,16V256z"/>
</svg>
