<svg width="16" height="16" viewBox="0 0 16 16" fill="none" xmlns="http://www.w3.org/2000/svg">
<path d="M8.21981 16C7.50058 16 6.78134 15.9 6.06211 15.7H5.95936L5.75387 15.6C4.62364 15.3 4.00716 14.8 3.90441 14.8C2.56869 14 1.54121 12.8 0.924729 11.4C0.513738 10.7 0.308243 10 0.205495 9.3C0.102748 9.2 0 9.1 0 8.9C0 8.3 0.102748 7.8 0.205495 7.4C0.102748 7.3 0.102748 7.1 0.102748 7C0.410991 6 0.719233 5.3 1.02748 4.8C1.02748 4.7 1.13022 4.6 1.33572 4.4C1.33572 4.3 1.33572 4.3 1.33572 4.2C1.33572 3.8 1.43847 3.4 1.54121 3.1C1.54121 3 1.64396 2.8 1.74671 2.7C1.74671 2.7 1.74671 2.6 1.84946 2.6C1.84946 2.5 1.9522 2.4 2.05495 2.3C2.26045 1.9 2.56869 1.8 2.67144 1.7C2.87693 1.6 2.97968 1.7 3.18518 1.8C3.28792 1.8 3.39067 2 3.39067 2.2C3.39067 2.3 3.39067 2.5 3.39067 2.6C3.39067 2.6 3.39067 2.7 3.49342 2.7C3.49342 2.7 3.49342 2.8 3.59617 2.8C3.59617 2.9 3.59617 3 3.59617 3C4.10991 3 4.62364 3 5.03463 3.1C5.03463 3.1 5.13738 3.1 5.13738 3C5.13738 3 5.24013 3 5.24013 2.9C5.44562 2.8 5.65112 2.7 5.85661 2.6C5.85661 2.6 5.85662 2.6 5.95936 2.6C6.16486 2.6 6.37035 2.6 6.57585 2.5C6.6786 2.5 6.78134 2.5 6.78134 2.5C6.98684 2.5 7.60332 2.5 7.70607 2.9C7.80882 3.1 7.60332 3.4 7.39783 3.5C7.39783 3.5 7.39783 3.5 7.29508 3.6C7.08959 3.9 6.78134 4.1 6.6786 4.4C6.6786 4.5 6.78134 4.5 6.88409 4.6C7.29508 4.6 7.50058 4.7 7.70607 4.7C7.80882 4.7 7.80882 4.7 7.91157 4.7C8.01431 4.7 8.01432 4.7 8.01432 4.7C8.32256 4.8 8.52805 5 8.52805 5.3C8.52805 5.4 8.52805 5.5 8.52805 5.5C8.52805 5.7 8.42531 5.8 8.42531 5.9C8.21981 6.2 8.11706 6.2 8.11706 6.3L8.01432 6.4C7.91157 6.4 7.91157 6.5 7.91157 6.5C7.70607 6.5 7.70607 6.6 7.60332 6.6C7.50058 6.6 7.39783 6.7 7.19233 6.8C7.08959 6.8 6.98684 6.9 6.88409 6.9L6.78134 7C6.78134 7 6.78134 7 6.78134 7.1V7.2C6.78134 7.4 6.78134 7.6 6.6786 7.7C6.6786 7.7 6.6786 7.8 6.57585 7.8C6.6786 7.9 6.57585 8 6.57585 8C6.37035 8.2 6.26761 8.2 6.06211 8.2C5.85662 8.2 5.75387 8.1 5.75387 8V8.1C5.75387 8.1 5.75387 8.1 5.85661 8.2C5.85661 8.2 5.85662 8.2 5.95936 8.3C6.06211 8.4 6.16486 8.5 6.26761 8.6C6.26761 8.6 6.26761 8.6 6.37035 8.6L6.4731 8.7L6.57585 8.8C6.57585 8.8 6.57585 8.8 6.57585 8.9C6.78134 9 6.98684 8.9 7.39783 8.8C7.60332 8.7 7.70607 8.7 7.91157 8.7C8.6308 8.5 9.24729 9 9.55553 9.4C9.76102 9.7 9.76102 10 9.55553 10.3C9.35003 10.6 9.04179 10.7 8.6308 10.6C8.52805 10.7 8.32256 10.7 8.21981 10.8L7.91157 10.9C7.70607 11 7.50058 11.1 7.19233 11.2C7.29508 11.2 7.39783 11.3 7.50058 11.3C7.70607 11.3 8.01432 11.4 8.21981 11.4C9.86377 11.4 11.1995 10.1 11.1995 8.5C11.1995 7.9 10.994 7.3 10.6858 6.9C10.583 6.8 10.4803 6.7 10.2748 6.6C10.0693 6.3 9.86377 6.1 9.65828 5.9C9.45278 5.6 9.24729 5.3 9.14454 5L9.04179 4.7C8.73355 3.9 8.73355 3.1 9.04179 2.3C9.14454 1.9 9.35003 1.6 9.45278 1.3C9.86377 0.7 10.172 0.2 10.172 0.2C10.3775 0 10.583 0 10.7885 0C10.994 0.1 11.0967 0.3 11.0967 0.5C11.0967 0.6 11.1995 0.8 12.0215 1.7C12.0215 1.6 12.1242 1.6 12.227 1.5C12.3297 1.4 12.638 1.3 12.7407 1.4C12.9462 1.5 13.0489 1.7 13.0489 1.9C13.0489 2 13.3572 2.5 13.6654 2.8C14.1792 3.6 14.8984 4.6 15.3094 5.8C15.4121 6.1 15.5149 6.4 15.6176 6.7C15.8231 6.8 15.9259 6.9 15.9259 7.1C16.1314 8.6 15.9259 10 15.1039 11.4C15.1039 11.5 15.1039 11.5 15.1039 11.6V11.7C14.8984 12.8 14.0764 13.7 12.5352 14.4C12.4325 14.5 12.3297 14.6 12.227 14.8C11.816 15.2 10.6858 16 8.21981 16ZM6.16486 14.7C6.88409 14.9 7.50058 15 8.21981 15C10.3775 15 11.1995 14.3 11.405 14.1C11.6105 13.9 11.6105 13.9 11.6105 13.9C11.6105 13.8 11.7132 13.7 11.816 13.6C12.7407 13.2 13.8709 12.5 13.9737 11.5C13.9737 11.4 13.9737 11.4 13.9737 11.4C13.9737 11.3 13.9737 11.1 14.0764 11C14.6929 10 15.0012 9 14.8984 7.9C14.6929 7.8 14.5902 7.6 14.5902 7.4V7.3C14.5902 6.9 14.4874 6.5 14.2819 6.1C13.8709 5 13.2544 4.1 12.7407 3.4C12.638 3.3 12.5352 3.1 12.5352 3L12.4325 3.1C12.227 3.2 12.0215 3.1 11.9187 3C11.1995 2.4 10.7885 1.9 10.4803 1.5C10.4803 1.6 10.3775 1.7 10.3775 1.7C10.2748 2 10.0693 2.2 9.96652 2.5C9.76103 3.1 9.76103 3.8 9.96652 4.3C9.96652 4.4 10.0693 4.5 10.0693 4.5C10.172 4.7 10.2748 5 10.4803 5.2C10.583 5.4 10.7885 5.6 10.994 5.7C11.0967 5.9 11.1995 6 11.3022 6.1L11.405 6.2C11.816 6.9 12.1242 7.6 12.1242 8.5C12.1242 10.6 10.3775 12.4 8.11706 12.4C7.80882 12.4 7.50058 12.4 7.29508 12.3C6.98684 12.2 6.6786 12.1 6.37035 12C5.75387 11.6 5.85662 11.7 5.54837 11.3C5.44562 11.1 5.44562 10.9 5.54837 10.7C5.65112 10.5 5.65112 10.4 5.85662 10.5C5.95936 10.5 5.95936 10.5 6.06211 10.6C6.6786 10.7 6.98684 10.6396 7.39783 10.4396L8.01432 10.2C8.21981 9.9 8.8336 9.7 8.93635 9.6C8.8336 9.6 8.42531 9.15944 7.80882 9.6C7.70607 9.6 7.60332 9.7 7.39783 9.7C6.98684 9.8 6.637 9.8 5.91777 9.4L5.81502 9.3C5.71227 9.3 5.71227 9.2 5.71227 9.2C5.60953 9.2 5.50678 9.1 5.50678 9C5.40403 9 5.30128 8.9 5.30128 8.8C5.19854 8.7 5.21297 8.6 5.11022 8.6C5.00747 8.3 4.89029 8.1 4.89029 7.9C4.89029 7.8 4.89029 7.7 4.89029 7.6V7.5V7.4C4.89029 7.2 4.89029 7.3 4.93189 7.2L5.03463 7.1C5.13738 7 5.24013 7 5.34288 6.9H5.44562C5.54837 6.9 5.65112 6.8 5.75387 6.9C5.75387 6.8 5.75387 6.7 5.75387 6.7C5.75387 6.7 5.75387 6.6 5.85661 6.6C5.85661 6.6 5.85662 6.5 5.95936 6.5C5.95936 6.4 6.06211 6.4 6.26761 6.3L6.37035 6C6.4731 6 6.6786 5.9 6.78134 5.9C6.98684 5.8 7.08959 5.7 7.19233 5.7H7.29508C7.19233 5.7 6.98684 5.7 6.78134 5.7C6.06211 5.6 5.75387 5.1 5.65112 4.7C5.65112 4.6 5.65112 4.5 5.65112 4.4C5.65112 4.3 5.75387 4.2 5.75387 4.1C5.65112 4 5.65112 4.1 5.54837 4.1C5.44562 4.2 5.24013 4.2 5.03463 4.2C4.5209 4 4.10991 4 3.59617 4.1C3.49342 4.1 3.39067 4.1 3.18518 4C3.18518 3.9 2.97968 3.8 2.87693 3.7C2.77419 3.6 2.67144 3.5 2.67144 3.3C2.67144 3.3 2.67144 3.3 2.56869 3.3C2.56869 3.4 2.46594 3.4 2.46594 3.5C2.46594 3.7 2.3632 4 2.3632 4.4C2.3632 4.4 2.3632 4.5 2.3632 4.6C2.3632 4.7 2.3632 4.9 2.26045 5C1.95221 5.2 1.9522 5.3 1.84946 5.3C1.74671 5.5 1.64396 5.8 1.43847 6.1C1.54121 6.2 1.54121 6.4 1.43847 6.6C1.33572 6.9 1.23297 7.3 1.13022 7.8C1.23297 7.9 1.23297 8 1.23297 8.2C1.13022 9.1 1.33572 10 1.74671 11C2.26045 12.2 3.18518 13.2 4.41815 14C4.41815 14 5.03463 14.4 5.95936 14.7C6.06211 14.7 6.16486 14.7 6.16486 14.7Z" fill="black"/>
</svg>
