<!-- Generated by IcoMoon.io -->
<svg version="1.1" xmlns="http://www.w3.org/2000/svg" width="32" height="32" viewBox="0 0 32 32">
<title>firefox</title>
<path d="M16.128 32q-5.056 0-9.024-2.688t-5.856-7.104q-1.056-2.368-1.216-5.376t0.48-5.952 1.984-5.568 3.2-4.32l-0.224 4.992q0.224-0.224 1.216-0.256t1.248 0.256q0.768-1.44 2.88-2.464t4.192-1.024q-0.96 0.8-2.144 2.624t-1.056 2.944q0.448 0.128 1.12 0.224t1.152 0.128 1.184 0.096 0.928 0.032q0.256 0.096 0.16 0.832t-0.544 1.344q-0.096 0.128-0.288 0.32t-1.024 0.64-1.792 0.608l0.256 3.36-2.464-1.184q-0.32 0.768-0.16 1.44t0.672 1.216 1.152 0.736 1.44 0.096q0.928-0.16 1.76-0.608t1.504-0.8 1.312-0.32q1.088 0.064 1.6 0.608t0.32 1.152q0 0.032-0.032 0.096t-0.16 0.224-0.32 0.288-0.544 0.16-0.832 0.032q-1.088 1.696-2.592 2.432t-3.744 0.512q1.312 1.088 2.912 1.472t3.008 0.096 2.752-0.928 2.272-1.536 1.44-1.856q0.768-1.632 0.704-3.456t-0.672-3.36-1.408-2.24q1.568 0.672 2.464 1.44t1.376 1.984q0.256-3.040-1.024-6.112t-3.744-5.088q4.736 1.376 7.36 4.992t2.688 9.248q0.032 2.272-0.736 4.576t-2.176 4.224-3.392 3.52-4.416 2.4-5.152 0.896z"></path>
</svg>
