<?xml version="1.0" encoding="utf-8"?>
<!-- Generator: Adobe Illustrator 17.0.1, SVG Export Plug-In . SVG Version: 6.00 Build 0)  -->
<!DOCTYPE svg PUBLIC "-//W3C//DTD SVG 1.1//EN" "http://www.w3.org/Graphics/SVG/1.1/DTD/svg11.dtd">
<svg version="1.1" id="Layer_1" xmlns="http://www.w3.org/2000/svg" xmlns:xlink="http://www.w3.org/1999/xlink" x="0px" y="0px"
	 width="1024px" height="1024px" viewBox="0 0 1024 1024" enable-background="new 0 0 1024 1024" xml:space="preserve">
<path d="M800,576c-123.71,0-224,100.29-224,224s100.29,224,224,224s224-100.29,224-224S923.71,576,800,576z M928,832H768V640h64v128
	h96V832z"/>
<path d="M512,800c0-159.06,128.94-288,288-288c33.66,0,65.97,5.8,96,16.41V320H512L384,192H0v128v128v448h528.41
	C517.8,865.97,512,833.66,512,800z"/>
</svg>
