<svg width="16" height="16" viewBox="0 0 16 16" fill="none" xmlns="http://www.w3.org/2000/svg">
<g clip-path="url(#clip0)">
<path fill-rule="evenodd" clip-rule="evenodd" d="M0.0185547 0.500657C0.0185547 0.224152 0.242412 0 0.518555 0H6.51855C6.7947 0 7.01855 0.224152 7.01855 0.500657V3.50051C7.01855 3.77702 6.7947 4.00117 6.51855 4.00117H0.518555C0.242412 4.00117 0.0185547 3.77702 0.0185547 3.50051V0.500657ZM1.01855 1.00131V2.99985H6.01855V1.00131H1.01855Z" fill="black"/>
<path fill-rule="evenodd" clip-rule="evenodd" d="M15.4961 4.9919L0.496094 4.99193C0.219951 4.99193 -0.00390625 5.21608 -0.00390625 5.49259V9.49781C-0.00390625 9.77432 0.219951 9.99847 0.496094 9.99847H15.4961C15.7722 9.99847 15.9961 9.77432 15.9961 9.49781V5.49256C15.9961 5.35978 15.9434 5.23243 15.8496 5.13854C15.7559 5.04465 15.6287 4.9919 15.4961 4.9919ZM0.996094 8.99716V5.99325L14.9961 5.99322V8.99716H0.996094Z" fill="black"/>
<path fill-rule="evenodd" clip-rule="evenodd" d="M0.518555 10.9934C0.242412 10.9934 0.0185547 11.2176 0.0185547 11.4941V15.4993C0.0185547 15.7758 0.242412 16 0.518555 16H9.51855C9.7947 16 10.0186 15.7758 10.0186 15.4993V11.4941C10.0186 11.2176 9.7947 10.9934 9.51855 10.9934H0.518555ZM1.01855 14.9987V11.9947H9.01855V14.9987H1.01855Z" fill="black"/>
<path fill-rule="evenodd" clip-rule="evenodd" d="M8.51855 0C8.24241 0 8.01855 0.224152 8.01855 0.500657V3.50051C8.01855 3.77702 8.24241 4.00117 8.51855 4.00117H14.5186C14.7947 4.00117 15.0186 3.77702 15.0186 3.50051V0.500657C15.0186 0.224152 14.7947 0 14.5186 0H8.51855ZM9.01855 2.99985V1.00131H14.0186V2.99985H9.01855Z" fill="black"/>
</g>
<defs>
<clipPath id="clip0">
<rect width="16" height="16" fill="white"/>
</clipPath>
</defs>
</svg>
