<!-- Generated by IcoMoon.io -->
<svg version="1.1" xmlns="http://www.w3.org/2000/svg" width="32" height="32" viewBox="0 0 32 32">
<title>gauge</title>
<path d="M20.67 9.441c0.289 0.122 0.571 0.255 0.848 0.399 1.494-1.142 2.776-2.116 3.426-2.609-2.553-1.724-5.63-2.731-8.943-2.731-8.837 0-16 7.163-16 16 0 2.892 0.767 5.604 2.109 7.945l3.585-1.793c-0.284-0.475-0.536-0.969-0.753-1.483-0.625-1.477-0.941-3.048-0.941-4.67s0.317-3.193 0.941-4.67c0.604-1.428 1.47-2.712 2.573-3.816s2.387-1.969 3.816-2.573c1.477-0.625 3.048-0.941 4.67-0.941s3.193 0.317 4.67 0.941z"></path>
<path d="M29.269 11.557c-0.493 0.65-1.467 1.931-2.609 3.426 0.143 0.277 0.277 0.559 0.399 0.848 0.625 1.477 0.941 3.048 0.941 4.67s-0.317 3.193-0.941 4.67c-0.217 0.514-0.469 1.008-0.753 1.483l3.585 1.793c1.342-2.341 2.109-5.053 2.109-7.945 0-3.313-1.007-6.39-2.731-8.943z"></path>
<path d="M18.273 22.458c1.56-1.756 9.748-12.565 9.748-12.565l-1.414-1.414c0 0-10.809 8.188-12.565 9.748-0.045 0.039-0.153 0.142-0.163 0.151 0 0 0 0 0 0-0.543 0.543-0.879 1.293-0.879 2.121 0 1.657 1.343 3 3 3 0.828 0 1.578-0.336 2.121-0.879 0 0 0 0 0 0 0.010-0.009 0.113-0.118 0.152-0.163z"></path>
</svg>
