<?xml version="1.0" encoding="utf-8"?>
<!-- Generator: Adobe Illustrator 17.0.1, SVG Export Plug-In . SVG Version: 6.00 Build 0)  -->
<!DOCTYPE svg PUBLIC "-//W3C//DTD SVG 1.1//EN" "http://www.w3.org/Graphics/SVG/1.1/DTD/svg11.dtd">
<svg version="1.1" id="Layer_1" xmlns="http://www.w3.org/2000/svg" xmlns:xlink="http://www.w3.org/1999/xlink" x="0px" y="0px"
	 width="1024px" height="1024px" viewBox="0 0 1024 1024" enable-background="new 0 0 1024 1024" xml:space="preserve">
<g>
	<path d="M661.43,302.12c9.24,3.91,18.27,8.17,27.12,12.76c47.82-36.54,88.82-67.71,109.62-83.5C716.48,176.21,618,144,512,144
		C229.23,144,0,373.23,0,656c0,92.54,24.55,179.34,67.49,254.25l114.72-57.36c-9.08-15.19-17.14-31.02-24.09-47.46
		C138.13,758.17,128,707.9,128,656s10.13-102.17,30.12-149.43c19.33-45.71,47.04-86.79,82.35-122.1
		c35.31-35.31,76.39-63.01,122.1-82.35C409.83,282.13,460.1,272,512,272S614.17,282.13,661.43,302.12z"/>
	<path d="M936.62,369.82c-15.79,20.8-46.95,61.8-83.5,109.62c4.58,8.85,8.85,17.89,12.76,27.12C885.87,553.83,896,604.1,896,656
		s-10.13,102.17-30.12,149.43c-6.95,16.44-15.01,32.27-24.09,47.46l114.72,57.36C999.45,835.34,1024,748.54,1024,656
		C1024,550,991.79,451.52,936.62,369.82z"/>
	<path d="M584.73,718.67c49.91-56.19,311.94-402.08,311.94-402.08l-45.25-45.25c0,0-345.89,262.03-402.08,311.94
		c-1.44,1.25-4.91,4.54-5.22,4.84c0,0,0,0,0,0C426.74,605.49,416,629.49,416,656c0,53.02,42.98,96,96,96
		c26.51,0,50.51-10.74,67.88-28.12c0,0,0,0,0,0C580.19,723.58,583.48,720.11,584.73,718.67z"/>
</g>
</svg>
