<!-- Generated by IcoMoon.io -->
<svg version="1.1" xmlns="http://www.w3.org/2000/svg" width="32" height="32" viewBox="0 0 32 32">
<title>gift</title>
<path d="M18.070 12.636v17.989h-4.171v-20.129h-2.153v4.681h-9.336c-0.354 0-0.644-0.466-0.644-1.036v-4.143c0-0.57 0.29-1.036 0.644-1.036h3.642c-1.89-2.082-2.002-4.615 0.137-6.449 3.067-2.629 7.266-0.594 9.796 4.942v0c2.53-5.535 6.729-7.571 9.796-4.942 2.139 1.834 2.027 4.367 0.137 6.449h3.642c0.354 0 0.644 0.466 0.644 1.036v4.143c0 0.57-0.29 1.036-0.644 1.036h-9.336v-4.681h-2.153v2.14zM8.403 5.115c-1.080 0.938 0.032 2.985 4.704 4.043 0.012 0.003 0.023 0.005 0.033 0.008-1.62-3.927-3.656-4.99-4.738-4.050zM23.566 5.115c-1.082-0.939-3.118 0.123-4.738 4.050 0.011-0.002 0.022-0.005 0.033-0.008 4.673-1.058 5.785-3.104 4.704-4.043z"></path>
<path d="M3.859 29.467c0 0.637 0.569 1.158 1.265 1.158h6.641v-13.313h-7.906v12.155z"></path>
<path d="M20.203 30.625h6.641c0.696 0 1.265-0.521 1.265-1.158v-12.155h-7.906v13.313z"></path>
</svg>
