<?xml version="1.0" encoding="UTF-8"?>
<svg width="1024px" height="1024px" viewBox="0 0 1024 1024" version="1.1" xmlns="http://www.w3.org/2000/svg" xmlns:xlink="http://www.w3.org/1999/xlink">
    <!-- Generator: Sketch 52.6 (67491) - http://www.bohemiancoding.com/sketch -->
    <title>gift</title>
    <desc>Created with Sketch.</desc>
    <g id="gift" stroke="none" stroke-width="1" fill="none" fill-rule="evenodd">
        <g id="Group" transform="translate(56.000000, 44.000000)" fill="#000000" fill-rule="nonzero">
            <path d="M522.233333,360.360793 L522.233333,936 L388.766667,936 L388.766667,360.360793 L388.766667,291.869818 L319.862012,291.869818 L319.862012,343.346898 L319.862012,441.671162 L21.1040008,441.671162 C9.77180034,441.671162 0.5,426.756513 0.5,408.527498 L0.5,275.952845 C0.5,257.72383 9.77180034,242.809181 21.1040008,242.809181 L137.65255,242.809181 C77.1828325,176.192166 73.5896761,95.1234179 142.033535,36.447212 C240.17297,-47.6867011 374.553534,17.4502383 455.500007,194.580956 L455.5,194.58094 C536.446474,17.4502343 670.827033,-47.6866986 768.966465,36.447212 C837.410324,95.1234179 833.817167,176.192166 773.34745,242.809181 L889.895999,242.809181 C901.2282,242.809181 910.5,257.72383 910.5,275.952845 L910.5,408.527498 C910.5,426.756513 901.2282,441.671162 889.895999,441.671162 L591.137988,441.671162 L591.137988,343.346898 L591.137988,291.869818 L522.233333,291.869818 L522.233333,360.360793 Z M212.88749,119.695967 C178.316538,149.718766 213.901318,215.219284 363.428703,249.062362 C363.797756,249.145891 364.153937,249.226695 364.5,249.30547 C312.669723,123.647657 247.498322,89.6385354 212.88749,119.695967 Z M698.11251,119.695967 C663.501678,89.6385354 598.330277,123.647657 546.5,249.30547 C546.846063,249.226695 547.202244,249.145891 547.571297,249.062362 C697.098682,215.219284 732.683462,149.718766 698.11251,119.695967 Z" id="Combined-Shape"></path>
            <path d="M67.5,898.956522 C67.5,919.330435 85.716,936 107.98,936 L320.5,936 L320.5,510 L67.5,510 L67.5,898.956522 Z" id="Path"></path>
            <path d="M590.5,936 L803.02,936 C825.284,936 843.5,919.330435 843.5,898.956522 L843.5,510 L590.5,510 L590.5,936 Z" id="Path"></path>
        </g>
    </g>
</svg>