<svg width="16" height="16" viewBox="0 0 16 16" fill="none" xmlns="http://www.w3.org/2000/svg">
<g clip-path="url(#clip0)">
<path d="M15.9997 6.01609C16.0637 4.02092 14.6613 1.98628 12.4968 2.00007C10.5663 2.01237 9.01231 3.5664 9.00001 5.49687L9.99999 5.50324C10.0088 4.12008 11.12 3.00886 12.5032 3.00005C13.9391 2.9909 15.0516 4.38061 15.0003 5.98406C14.9822 6.54611 14.6712 7.19992 14.3126 7.75728C14.1394 8.02645 13.9669 8.25535 13.8377 8.41679C13.7733 8.49726 13.7201 8.56035 13.6837 8.6026C13.6655 8.62372 13.6516 8.63959 13.6425 8.64978L13.6327 8.66074L13.6308 8.66283L13.6284 8.66558L9 13.8082V15H16V14H10.1727L14.3693 9.33712L14.3713 9.33489L14.3756 9.33016L14.3902 9.31389C14.4024 9.30006 14.4198 9.28034 14.4415 9.25516C14.4848 9.20482 14.5457 9.13248 14.6184 9.04165C14.7634 8.86049 14.9574 8.60327 15.1536 8.29836C15.5337 7.70755 15.9727 6.86136 15.9997 6.01609Z" fill="black"/>
<path d="M0 15V2H1V8H6V2H7V15H6V9H1V15H0Z" fill="black"/>
</g>
<defs>
<clipPath id="clip0">
<rect width="16" height="16" fill="white"/>
</clipPath>
</defs>
</svg>
