<svg width="16" height="16" viewBox="0 0 16 16" fill="none" xmlns="http://www.w3.org/2000/svg">
<g clip-path="url(#clip0)">
<path d="M15.4993 7.00367C15.7024 7.00367 15.8854 6.88054 15.962 6.69218C16.0387 6.50383 15.9939 6.28774 15.8487 6.14553L11.7601 2.1426C11.5628 1.9494 11.2464 1.95296 11.0535 2.15055C10.8605 2.34814 10.8641 2.66493 11.0614 2.85813L14.2735 6.00293L0.508021 6.00293C0.232039 6.00293 0.00831164 6.22695 0.00831161 6.5033C0.00831159 6.77964 0.232039 7.00366 0.508021 7.00366L15.4993 7.00367Z" fill="black"/>
<path d="M0.498749 8.99634C0.295613 8.99634 0.112692 9.11947 0.0360104 9.30782C-0.0406708 9.49617 0.00414955 9.71227 0.149393 9.85447L4.23792 13.8574C4.43525 14.0506 4.75163 14.047 4.94457 13.8494C5.13752 13.6519 5.13396 13.3351 4.93663 13.1419L1.72459 9.99707H15.49C15.766 9.99707 15.9897 9.77305 15.9897 9.4967C15.9897 9.22036 15.766 8.99634 15.49 8.99634H0.498749Z" fill="black"/>
</g>
<defs>
<clipPath id="clip0">
<rect width="16" height="16" fill="white"/>
</clipPath>
</defs>
</svg>
