<?xml version="1.0" encoding="utf-8"?>
<!-- Generator: Adobe Illustrator 17.1.0, SVG Export Plug-In . SVG Version: 6.00 Build 0)  -->
<!DOCTYPE svg PUBLIC "-//W3C//DTD SVG 1.1//EN" "http://www.w3.org/Graphics/SVG/1.1/DTD/svg11.dtd">
<svg version="1.1" id="Layer_1" xmlns="http://www.w3.org/2000/svg" xmlns:xlink="http://www.w3.org/1999/xlink" x="0px" y="0px"
	 width="1024px" height="1024px" viewBox="0 0 1024 1024" enable-background="new 0 0 1024 1024" xml:space="preserve">
<g>
	<polygon points="832,256 832,64 768,0 256,0 192,64 192,256 	"/>
	<polygon points="960,256 832,320 192,320 64,256 0,256 0,320 192,448 832,448 1024,320 1024,256 	"/>
	<path d="M832,832l-64,48l-64-48v-32c0-53.02-42.98-96-96-96s-96,42.98-96,96c0-53.02-42.98-96-96-96s-96,42.98-96,96v32l-64,48
		l-64-48v-80h-64v96l32,64l80,48h112l160-96l160,96h112l80-48l32-64v-96h-64V832z"/>
</g>
</svg>
