<?xml version="1.0" encoding="utf-8"?>
<!-- Generator: Adobe Illustrator 17.1.0, SVG Export Plug-In . SVG Version: 6.00 Build 0)  -->
<!DOCTYPE svg PUBLIC "-//W3C//DTD SVG 1.1//EN" "http://www.w3.org/Graphics/SVG/1.1/DTD/svg11.dtd">
<svg version="1.1" id="Layer_1" xmlns="http://www.w3.org/2000/svg" xmlns:xlink="http://www.w3.org/1999/xlink" x="0px" y="0px"
	 viewBox="0 0 1024 1024" enable-background="new 0 0 1024 1024" xml:space="preserve">
<path d="M511.86,963.51c0-70.11,0-99.51,0-99.51L208,560.14c0,0-45.55,0-99.5,0c-28.37,28.36-28.37,85.06,0,113.38
	c28.32,28.37,262.11,261.18,289.98,289.99c13.88,14.36,35.01,21.44,56.24,21.44C476.12,984.95,497.62,977.75,511.86,963.51z"/>
<path d="M940.42,131.55C884.7,75.86,811.66,48,738.64,48c-73.04,0-146.07,27.85-201.8,83.57L408.7,259.76
	c-38.48,38.5-36.14,98.59,2.38,137.15c19.25,19.23,44.49,28.85,69.73,28.85c25.25,0,50.51-9.62,69.78-28.88L656,288h64l160,160
	c29.86,30.14,41.82,57.06,48,96l16-16C1055.34,416.54,1051.83,242.96,940.42,131.55z"/>
<g>
	<path d="M822.92,492.45c-0.08-0.09-61.32-65.51-131.47-140.45h-8.33l-86.55,89.4c-0.25,0.25-0.5,0.51-0.75,0.76
		c-15.51,15.5-33.63,27.51-53.85,35.7c-19.49,7.9-40.07,11.9-61.16,11.9c-21.08,0-41.65-4-61.14-11.89
		c-20.21-8.19-38.32-20.19-53.82-35.67c-0.02-0.02-0.04-0.04-0.06-0.06c-30.44-30.48-47.76-70.36-48.76-112.3
		c-1.04-43.39,15.44-84.35,46.41-115.33l101.06-101.1C352.42,22.82,187.75,29.61,83.59,133.8C-20.63,238-27.38,402.77,63.31,514.84
		l45.19-18.71H208l45.26,18.75l303.86,303.86L575.86,864v91.62c42.25-2.55,82.79-24.84,119.89-61.93
		c28.02-28.04,127.1-125.6,127.18-125.69C899.02,691.91,899.02,568.52,822.92,492.45z"/>
</g>
</svg>
