<!-- Generated by IcoMoon.io -->
<svg version="1.1" xmlns="http://www.w3.org/2000/svg" width="32" height="32" viewBox="0 0 32 32">
<title>heartshake</title>
<path d="M15.996 30.11c0-2.191 0-3.11 0-3.11l-9.496-9.496c0 0-1.423 0-3.109 0-0.887 0.886-0.887 2.658 0 3.543 0.885 0.887 8.191 8.162 9.062 9.062 0.434 0.449 1.094 0.67 1.758 0.67 0.669 0 1.341-0.225 1.786-0.67z"></path>
<path d="M29.388 4.111c-1.741-1.74-4.024-2.611-6.306-2.611s-4.565 0.87-6.306 2.612l-4.004 4.006c-1.203 1.203-1.129 3.081 0.074 4.286 0.602 0.601 1.39 0.902 2.179 0.902s1.578-0.301 2.181-0.902l3.294-3.402h2l5 5c0.933 0.942 1.307 1.783 1.5 3l0.5-0.5c3.479-3.483 3.37-8.908-0.112-12.389z"></path>
<path d="M25.716 15.389c-0.003-0.003-1.916-2.047-4.108-4.389h-0.26l-2.705 2.794c-0.008 0.008-0.016 0.016-0.023 0.024-0.485 0.484-1.051 0.86-1.683 1.116-0.609 0.247-1.252 0.372-1.911 0.372s-1.302-0.125-1.911-0.372c-0.632-0.256-1.197-0.631-1.682-1.115-0.001-0.001-0.001-0.001-0.002-0.002-0.951-0.953-1.492-2.199-1.524-3.509-0.033-1.356 0.482-2.636 1.45-3.604l3.158-3.159c-3.502-2.831-8.648-2.619-11.903 0.637-3.257 3.256-3.468 8.405-0.634 11.907l1.412-0.585h3.109l1.414 0.586 9.496 9.496 0.586 1.414v2.863c1.32-0.080 2.587-0.776 3.747-1.935 0.876-0.876 3.972-3.925 3.974-3.928 2.378-2.378 2.378-6.234-0-8.611z"></path>
</svg>
