<?xml version="1.0" encoding="utf-8"?>
<!-- Generator: Adobe Illustrator 17.0.1, SVG Export Plug-In . SVG Version: 6.00 Build 0)  -->
<!DOCTYPE svg PUBLIC "-//W3C//DTD SVG 1.1//EN" "http://www.w3.org/Graphics/SVG/1.1/DTD/svg11.dtd">
<svg version="1.1" id="Layer_1" xmlns="http://www.w3.org/2000/svg" xmlns:xlink="http://www.w3.org/1999/xlink" x="0px" y="0px"
	 width="1024px" height="1024px" viewBox="0 0 1024 1024" enable-background="new 0 0 1024 1024" xml:space="preserve">
<path d="M512,0C229.23,0,0,229.23,0,512c0,282.77,229.23,512,512,512s512-229.23,512-512C1024,229.23,794.77,0,512,0z M576,800H448
	l0-384h128L576,800z M512,360c-39.76,0-72-32.23-72-72c0-39.76,32.24-72,72-72c39.76,0,72,32.24,72,72
	C584,327.76,551.76,360,512,360z"/>
</svg>
