<?xml version="1.0" encoding="UTF-8"?>
<svg width="1024px" height="1024px" viewBox="0 0 1024 1024" version="1.1" xmlns="http://www.w3.org/2000/svg" xmlns:xlink="http://www.w3.org/1999/xlink">
    <!-- Generator: Sketch 54.1 (76490) - https://sketchapp.com -->
    <title>intercom</title>
    <desc>Created with Sketch.</desc>
    <g id="intercom" stroke="none" stroke-width="1" fill="none" fill-rule="evenodd">
        <path d="M936.857167,740.305147 L937,740.258969 L936.743029,977.701553 C936.731075,988.747384 928.47485,994.212942 918.305005,989.91039 L671.472662,885.48313 L125.458278,885.48313 C112.085497,885.48313 107.236203,884.090746 102.347314,881.476139 C97.4584256,878.861533 93.6215969,875.024704 91.0069906,870.135816 C88.3923842,865.246927 87,860.397633 87,847.024852 L87,104.09713 C87,81.8091615 89.3206403,73.7270056 93.6783176,65.5788574 C98.0359949,57.4307093 104.430709,51.0359949 112.578857,46.6783176 C120.727006,42.3206403 128.809162,40 151.09713,40 L898.398889,40 C911.77167,40 916.620964,41.3923842 921.509852,44.0069906 C926.398741,46.6215969 930.23557,50.4584256 932.850176,55.3473144 C935.464783,60.2362033 936.857167,65.0854969 936.857167,78.458278 L936.857167,740.305147 Z M511.998895,728.095238 C654.517237,728.095238 767.475256,679.947196 837.196706,639.493864 C854.434097,629.492741 861.053554,605.978659 851.982409,586.975191 C842.911265,567.969502 821.582688,560.672526 804.346304,570.67365 C741.663507,607.044097 640.12856,650.326007 511.998895,650.326007 C511.631092,650.326007 511.259257,650.326007 510.889438,650.324896 C383.21323,650.076035 282.043064,606.873005 219.653501,570.67365 C202.417117,560.670304 181.088541,567.969502 172.017396,586.975191 C162.946252,605.978659 169.566716,629.492741 186.8031,639.493864 C256.201084,679.759439 368.7389,727.817491 510.765494,728.094127 C511.184689,728.095238 511.5797,728.095238 511.998895,728.095238 Z" id="Combined-Shape" fill="#000000"></path>
    </g>
</svg>