<!-- Generated by IcoMoon.io -->
<svg version="1.1" xmlns="http://www.w3.org/2000/svg" width="32" height="32" viewBox="0 0 32 32">
<title>intercom</title>
<path d="M29.277 23.135l0.004-0.001-0.008 7.42c-0 0.345-0.258 0.516-0.576 0.382l-7.713-3.263h-17.063c-0.418 0-0.569-0.044-0.722-0.125s-0.273-0.202-0.354-0.354c-0.082-0.153-0.125-0.304-0.125-0.722v-23.216c0-0.696 0.073-0.949 0.209-1.204s0.336-0.454 0.591-0.591c0.255-0.136 0.507-0.209 1.204-0.209h23.353c0.418 0 0.569 0.044 0.722 0.125s0.273 0.202 0.354 0.354c0.082 0.153 0.125 0.304 0.125 0.722v20.683zM16 22.753c4.454 0 7.984-1.505 10.162-2.769 0.539-0.313 0.746-1.047 0.462-1.641s-0.95-0.822-1.489-0.509c-1.959 1.137-5.132 2.489-9.136 2.489-0.011 0-0.023 0-0.035-0-3.99-0.008-7.151-1.358-9.101-2.489-0.539-0.313-1.205-0.084-1.489 0.509s-0.077 1.329 0.462 1.641c2.169 1.258 5.686 2.76 10.124 2.769 0.013 0 0.025 0 0.039 0z"></path>
</svg>
