<svg width="16" height="16" viewBox="0 0 16 16" fill="none" xmlns="http://www.w3.org/2000/svg">
<path fill-rule="evenodd" clip-rule="evenodd" d="M9.27708 1.2701C10.4602 0.611553 11.5895 0.180823 12.5822 0.0455195C13.6172 -0.095555 14.578 0.0784465 15.2481 0.7483C15.9161 1.41594 16.0952 2.36113 15.9559 3.3869C15.8208 4.38229 15.3807 5.51765 14.7061 6.71747C14.7503 6.95053 14.7897 7.2445 14.7897 7.50572V8.00605H6.78098C6.78166 8.67471 6.85328 9.1693 7.00964 9.48188C7.29133 10.045 7.66106 10.2407 7.99659 10.2407C8.10948 10.2407 8.24833 10.189 8.41929 10.0223C8.59248 9.85337 8.76305 9.5988 8.92182 9.28141L9.06017 9.00483H14.6215L14.4248 9.65084C13.5678 12.4657 10.9889 14.6722 7.88218 14.6722L7.85869 14.6722C7.552 14.6722 7.21309 14.6723 6.86174 14.6293L6.87069 14.6451C5.62414 15.3518 4.43305 15.8138 3.39209 15.9546C2.35273 16.0952 1.3884 15.9219 0.715254 15.2541C0.0314743 14.5756 -0.104777 13.6043 0.0678462 12.5767C0.240325 11.5499 0.732104 10.3756 1.43739 9.14898C2.16391 7.71215 3.3565 6.18123 4.7664 4.78237C4.9626 4.5877 5.27953 4.58888 5.47428 4.785C5.66903 4.98112 5.66785 5.29791 5.47165 5.49257C4.14447 6.80936 3.04872 8.21786 2.37974 9.50501L2.48541 9.86643C3.15783 11.7831 4.72082 13.1897 6.60741 13.5669L6.61909 13.5692L6.63064 13.5721C7.01898 13.6691 7.41524 13.6715 7.88218 13.6715C10.2605 13.6715 12.3181 12.1264 13.2306 10.0055H9.66892C9.5134 10.2754 9.33119 10.531 9.11845 10.7385C8.83176 11.0181 8.45576 11.2413 7.99659 11.2413C7.18801 11.2413 6.519 10.7386 6.11423 9.92939C5.84645 9.39407 5.77987 8.69506 5.77987 7.99631C5.77987 7.11771 5.99869 6.30981 6.36816 5.70549C6.72997 5.1137 7.29451 4.63693 7.99659 4.63693C8.6249 4.63693 9.12822 5.03755 9.47461 5.51569C9.77071 5.92441 9.99604 6.44419 10.1347 7.00539H13.7405C13.7243 6.9068 13.7057 6.81473 13.6878 6.73986C13.1522 4.49109 11.5223 2.72613 9.46066 2.31398C8.94255 2.21041 8.45505 2.20674 7.99656 2.20674C6.00182 2.20674 4.20809 3.25672 3.15013 4.84299C2.99678 5.0729 2.68601 5.13503 2.45599 4.98175C2.22597 4.82848 2.16382 4.51783 2.31716 4.28792C3.54742 2.44332 5.64368 1.20607 7.99656 1.20607C8.35931 1.20607 8.79823 1.20703 9.27708 1.2701ZM10.7272 1.65721C11.464 1.32404 12.1354 1.11635 12.7175 1.03701C13.5815 0.919243 14.1745 1.09037 14.5402 1.45589C14.9081 1.82362 15.0789 2.40569 14.9639 3.2523C14.8816 3.8588 14.6553 4.56597 14.287 5.35022C13.5976 3.68556 12.339 2.32172 10.7272 1.65721ZM9.09601 7.00539C8.98489 6.64796 8.83438 6.33808 8.66378 6.10259C8.40951 5.75161 8.16916 5.6376 7.99659 5.6376C7.78338 5.6376 7.48984 5.78982 7.22238 6.22728C7.09174 6.44097 6.98086 6.7044 6.90291 7.00539H9.09601ZM1.7447 10.7134C2.47211 12.3605 3.79583 13.6474 5.42946 14.2661C4.62196 14.6442 3.88803 14.8777 3.25781 14.963C2.38734 15.0808 1.78908 14.9095 1.4205 14.5438C1.06256 14.1887 0.909443 13.6096 1.05512 12.7424C1.15465 12.1499 1.38857 11.4654 1.7447 10.7134Z" fill="black"/>
</svg>
