<!-- Generated by IcoMoon.io -->
<svg version="1.1" xmlns="http://www.w3.org/2000/svg" width="32" height="32" viewBox="0 0 32 32">
<title>internet-explorer</title>
<path d="M32 16.736q0 0.992-0.128 1.856h-20.544q0 2.592 1.952 4.352t4.608 1.76q1.76 0 3.296-0.832t2.432-2.336h7.552q-0.992 2.848-3.040 5.024t-4.768 3.392-5.728 1.184q-3.36 0-6.368-1.504-4.064 2.080-7.040 2.080-4.224 0-4.224-4.704 0-2.048 0.8-4.896 0.32-1.088 1.952-4.096 3.552-6.432 8.48-10.816-3.296 1.408-7.616 6.304 1.12-4.896 5.056-8t8.96-3.136q0.544 0 0.8 0 4.544-2.080 7.744-2.080 1.12 0 2.048 0.224t1.696 0.736 1.184 1.344 0.448 2.080q0 2.048-1.344 5.088 1.792 3.264 1.792 6.976zM30.752 5.312q0-1.504-0.96-2.368t-2.432-0.864q-1.92 0-4.544 1.248 2.176 0.832 3.968 2.336t3.072 3.488q0.896-2.4 0.896-3.84zM2.272 27.392q0 1.536 0.896 2.368t2.4 0.832q2.048 0 4.736-1.472-2.176-1.312-3.808-3.296t-2.464-4.352q-1.76 3.648-1.76 5.92zM11.296 14.656h12.992q-0.096-2.528-2.016-4.224t-4.48-1.696q-2.592 0-4.48 1.696t-2.016 4.224z"></path>
</svg>
