<?xml version="1.0" encoding="utf-8"?>
<!-- Generator: Adobe Illustrator 17.0.1, SVG Export Plug-In . SVG Version: 6.00 Build 0)  -->
<!DOCTYPE svg PUBLIC "-//W3C//DTD SVG 1.1//EN" "http://www.w3.org/Graphics/SVG/1.1/DTD/svg11.dtd">
<svg version="1.1" id="Layer_1" xmlns="http://www.w3.org/2000/svg" xmlns:xlink="http://www.w3.org/1999/xlink" x="0px" y="0px"
	 width="1024px" height="1024px" viewBox="0 0 1024 1024" enable-background="new 0 0 1024 1024" xml:space="preserve">
<polygon points="1024,642.47 1024,384 896,384 896,192 960,192 960,0 768,0 768,192 832,192 832,384 384,384 384,192 448,192 448,0 
	256,0 256,192 320,192 320,384 0,384 0,642.47 128,642.47 128,832 64,832 64,1024 256,1024 256,832 192,832 192,642.47 640,642.47 
	640,832 576,832 576,1024 768,1024 768,832 704,832 704,642.47 "/>
</svg>
