<svg width="17" height="16" viewBox="0 0 17 16" fill="none" xmlns="http://www.w3.org/2000/svg">
<path d="M6.83817 0.0935112C6.83817 0.0935112 6.83848 2.5171 6.83848 4.15507C6.83817 5.62241 9.19284 5.58804 9.19284 4.13804V1.23757C9.19284 -0.485395 6.83817 0.0935112 6.83817 0.0935112Z" fill="black"/>
<path d="M12.7724 1.56632C12.7724 1.56632 11.0583 3.28085 9.90036 4.43866C8.86286 5.47601 10.5518 7.11741 11.5772 6.09179L13.6281 4.04038C14.8469 2.8221 12.7724 1.56632 12.7724 1.56632Z" fill="black"/>
<path d="M8.01536 6.28851C8.96083 6.28851 9.72661 7.05491 9.72661 7.99959C9.72661 8.94443 8.96067 9.71068 8.01536 9.71099C7.0702 9.71099 6.30426 8.94443 6.30426 7.99959C6.30426 7.05491 7.0702 6.28851 8.01536 6.28851Z" fill="black"/>
<path d="M6.13084 11.5612C4.97272 12.7192 3.25881 14.4335 3.25881 14.4335C3.25881 14.4335 1.18444 13.1778 2.40303 11.959L4.45397 9.90854C5.47928 8.88244 7.1685 10.5235 6.13084 11.5612Z" fill="black"/>
<path d="M4.45427 6.11491C3.2963 4.95679 1.58224 3.24304 1.58224 3.24304C1.58224 3.24304 2.83786 1.1682 4.05661 2.38726L6.10755 4.43835C7.13286 5.46366 5.49208 7.15241 4.45427 6.11491Z" fill="black"/>
<path d="M14.4487 12.7568C14.4487 12.7568 12.7349 11.0431 11.5769 9.88463C10.5394 8.84698 8.89832 10.536 9.92411 11.5615L11.9751 13.6128C13.193 14.8312 14.4487 12.7568 14.4487 12.7568Z" fill="black"/>
<path d="M11.86 6.82226H15.922C15.922 6.82226 16.5013 9.17709 14.7774 9.17709H11.8768C10.4271 9.17709 10.3929 6.82226 11.86 6.82226Z" fill="black"/>
<path d="M0.109116 9.17713H4.17114C5.63848 9.17713 5.60426 6.82257 4.15411 6.82257H1.25349C-0.46979 6.82257 0.109116 9.17713 0.109116 9.17713Z" fill="black"/>
<path d="M9.193 11.8442V15.9062C9.193 15.9062 6.83817 16.4849 6.83817 14.762C6.83817 13.8264 6.83817 12.6981 6.83848 11.8609C6.83817 10.411 9.193 10.377 9.193 11.8442Z" fill="black"/>
</svg>
