<!-- Generated by IcoMoon.io -->
<svg version="1.1" xmlns="http://www.w3.org/2000/svg" width="32" height="32" viewBox="0 0 32 32">
<title>kentico</title>
<path d="M15.999 12.577c1.891 0 3.422 1.533 3.422 3.422s-1.532 3.422-3.422 3.423c-1.89 0-3.422-1.533-3.422-3.423s1.532-3.422 3.422-3.422z"></path>
<path d="M12.23 23.122c-2.316 2.316-5.744 5.745-5.744 5.745s-4.149-2.512-1.712-4.949c1.323-1.323 2.919-2.919 4.102-4.101 2.051-2.052 5.429 1.23 3.354 3.305z"></path>
<path d="M19.769 8.877c2.316-2.316 5.744-5.745 5.744-5.745s4.149 2.512 1.712 4.948c-1.323 1.323-2.919 2.919-4.102 4.103-2.051 2.051-5.429-1.232-3.354-3.306z"></path>
<path d="M8.877 12.23c-2.316-2.316-5.744-5.744-5.744-5.744s2.511-4.15 4.949-1.712c1.323 1.323 2.919 2.919 4.102 4.102 2.051 2.051-1.231 5.428-3.307 3.353z"></path>
<path d="M23.122 19.769c2.316 2.317 5.743 5.744 5.743 5.744s-2.511 4.149-4.947 1.712c-1.323-1.323-2.919-2.919-4.102-4.102-2.052-2.051 1.231-5.429 3.306-3.354z"></path>
<path d="M23.689 13.645h8.124c0 0 1.158 4.71-2.289 4.71h-5.801c-2.899 0-2.968-4.71-0.033-4.71z"></path>
<path d="M8.311 18.354h-8.124c0 0-1.158-4.709 2.289-4.709h5.801c2.9 0 2.969 4.709 0.034 4.709z"></path>
<path d="M18.355 23.688v8.124c0 0-4.71 1.157-4.71-2.288 0-1.871 0-4.128 0.001-5.802-0.001-2.9 4.709-2.968 4.709-0.033z"></path>
<path d="M13.646 8.31c0-3.276-0.001-8.123-0.001-8.123s4.709-1.158 4.709 2.288v5.801c0 2.9-4.709 2.969-4.709 0.034z"></path>
</svg>
