<?xml version="1.0" encoding="utf-8"?>
<!-- Generator: Adobe Illustrator 17.0.1, SVG Export Plug-In . SVG Version: 6.00 Build 0)  -->
<!DOCTYPE svg PUBLIC "-//W3C//DTD SVG 1.1//EN" "http://www.w3.org/Graphics/SVG/1.1/DTD/svg11.dtd">
<svg version="1.1" id="Layer_1" xmlns="http://www.w3.org/2000/svg" xmlns:xlink="http://www.w3.org/1999/xlink" x="0px" y="0px"
	 width="1024px" height="1024px" viewBox="0 0 1024 1024" enable-background="new 0 0 1024 1024" xml:space="preserve">
<g>
	<g>
		<path d="M511.98,402.47c60.51,0,109.52,49.05,109.52,109.51c0,60.47-49.02,109.51-109.52,109.53
			c-60.49,0-109.51-49.06-109.51-109.53C402.47,451.52,451.49,402.47,511.98,402.47"/>
	</g>
	<g>
		<path d="M391.37,739.92c-74.12,74.11-183.81,183.83-183.81,183.83S74.8,843.38,152.79,765.38
			c42.33-42.32,93.41-93.4,131.26-131.23C349.67,568.48,457.78,673.51,391.37,739.92"/>
	</g>
	<g>
		<path d="M632.62,284.08c74.11-74.1,183.81-183.83,183.81-183.83s132.77,80.37,54.77,158.34
			c-42.33,42.34-93.41,93.42-131.26,131.29C674.31,455.52,566.22,350.47,632.62,284.08"/>
	</g>
	<g>
		<path d="M284.07,391.36c-74.11-74.12-183.81-183.8-183.81-183.8s80.36-132.79,158.36-54.77c42.33,42.33,93.41,93.41,131.26,131.27
			C455.5,349.68,350.49,457.76,284.07,391.36"/>
	</g>
	<g>
		<path d="M739.92,632.62c74.11,74.14,183.79,183.82,183.79,183.82S843.35,949.2,765.4,871.22
			c-42.34-42.35-93.41-93.41-131.26-131.28C568.49,674.31,673.52,566.21,739.92,632.62"/>
	</g>
	<g>
		<path d="M758.04,436.63h259.97c0,0,37.07,150.71-73.26,150.71H759.11C666.33,587.34,664.14,436.63,758.04,436.63"/>
	</g>
	<g>
		<path d="M265.95,587.34H5.98c0,0-37.05-150.69,73.24-150.69h185.64C357.67,436.65,359.86,587.34,265.95,587.34"/>
	</g>
	<g>
		<path d="M587.35,758.03V1018c0,0-150.71,37.04-150.71-73.23c0-59.88,0-132.09,0.02-185.67
			C436.64,666.31,587.35,664.13,587.35,758.03"/>
	</g>
	<g>
		<path d="M436.66,265.93c0-104.83-0.02-259.94-0.02-259.94s150.7-37.05,150.7,73.22v185.63
			C587.34,357.64,436.64,359.84,436.66,265.93"/>
	</g>
</g>
</svg>
