<?xml version="1.0" encoding="utf-8"?>
<!-- Generator: Adobe Illustrator 17.1.0, SVG Export Plug-In . SVG Version: 6.00 Build 0)  -->
<!DOCTYPE svg PUBLIC "-//W3C//DTD SVG 1.1//EN" "http://www.w3.org/Graphics/SVG/1.1/DTD/svg11.dtd">
<svg version="1.1" id="Layer_1" xmlns="http://www.w3.org/2000/svg" xmlns:xlink="http://www.w3.org/1999/xlink" x="0px" y="0px"
	 width="1024px" height="1024px" viewBox="0 0 1024 1024" enable-background="new 0 0 1024 1024" xml:space="preserve">
<path d="M704,0C527.27,0,384,143.27,384,320c0,38.61,6.84,75.62,19.37,109.89L0,837.91V1024c0,0,189.91,0,192,0V896h128V768h128
	l128-128l19.04-19.04C629.05,633.27,665.74,640,704,640c176.73,0,320-143.27,320-320S880.73,0,704,0z M800,304
	c-44.18,0-80-35.82-80-80s35.82-80,80-80s80,35.82,80,80S844.18,304,800,304z"/>
</svg>
