<!-- Generated by IcoMoon.io -->
<svg version="1.1" xmlns="http://www.w3.org/2000/svg" width="32" height="32" viewBox="0 0 32 32">
<title>l-article-map</title>
<path d="M2 2h9.944v4h-9.944v-4z"></path>
<path d="M2.056 8h12.944v2h-12.944v-2z"></path>
<path d="M2.056 16h12.944v2h-12.944v-2z"></path>
<path d="M2.056 12h12.944v2h-12.944v-2z"></path>
<path d="M2.056 20h9.944v2h-9.944v-2z"></path>
<path d="M16.972 2v4.139l0.028-0.139 6 6 3.5-3.5-3.5-3.5 1.5-1.5 3.5 3.5 1.972-1.972v-3.028z"></path>
<path d="M26 15h3.972v-6.972l-5.472 5.472z"></path>
<path d="M16.972 15h6.028l-6.028-6.028z"></path>
</svg>
