<!-- Generated by IcoMoon.io -->
<svg version="1.1" xmlns="http://www.w3.org/2000/svg" width="32" height="32" viewBox="0 0 32 32">
<title>l-calendar-number-article</title>
<path d="M16 2h8v4h-8v-4z"></path>
<path d="M16 8h14v2h-14v-2z"></path>
<path d="M16 12h14v2h-14v-2z"></path>
<path d="M16 16h14v2h-14v-2z"></path>
<path d="M16 20h14v2h-14v-2z"></path>
<path d="M16 24h10v2h-10v-2z"></path>
<path d="M12 0.5h-2v1.5h-4v-1.5h-2v1.5h-2v2h12v-2h-2z"></path>
<path d="M2 12h12v-7h-12v7zM7.5 6v0.040l0.018-0.040h1.482v5h-2v-3.148l-0.796-0.185 1.296-1.667z"></path>
</svg>
