<?xml version="1.0" encoding="utf-8"?>
<!-- Generator: Adobe Illustrator 17.0.1, SVG Export Plug-In . SVG Version: 6.00 Build 0)  -->
<!DOCTYPE svg PUBLIC "-//W3C//DTD SVG 1.1//EN" "http://www.w3.org/Graphics/SVG/1.1/DTD/svg11.dtd">
<svg version="1.1" id="Layer_1" xmlns="http://www.w3.org/2000/svg" xmlns:xlink="http://www.w3.org/1999/xlink" x="0px" y="0px"
	 width="1024px" height="1024px" viewBox="0 0 1024 1024" enable-background="new 0 0 1024 1024" xml:space="preserve">
<g>
	<rect x="512" y="64" width="256" height="128"/>
	<rect x="512" y="256" width="448" height="64"/>
	<rect x="512" y="384" width="448" height="64"/>
	<rect x="512" y="512" width="448" height="64"/>
	<rect x="512" y="640" width="448" height="64"/>
	<rect x="512" y="768" width="320" height="64"/>
	<polygon points="384,16 320,16 320,64 192,64 192,16 128,16 128,64 64,64 64,128 448,128 448,64 384,64 	"/>
	<path d="M64,384h384V160H64V384z M240,192v1.27l0.59-1.27H288v160h-64V251.26l-25.48-5.93L240,192z"/>
</g>
</svg>
