<svg width="16" height="16" viewBox="0 0 16 16" fill="none" xmlns="http://www.w3.org/2000/svg">
<path fill-rule="evenodd" clip-rule="evenodd" d="M0 2.5C0 2.22386 0.224152 2 0.500657 2H3.5046C3.7811 2 4.00526 2.22386 4.00526 2.5V13.5C4.00526 13.7761 3.7811 14 3.5046 14H0.500657C0.224152 14 0 13.7761 0 13.5V2.5ZM1.00131 3V13H3.00394V3H1.00131Z" fill="black"/>
<path fill-rule="evenodd" clip-rule="evenodd" d="M5.97904 2.5C5.97904 2.22386 6.20319 2 6.47969 2H9.48364C9.76014 2 9.98429 2.22386 9.98429 2.5V13.5C9.98429 13.7761 9.76014 14 9.48364 14H6.47969C6.20319 14 5.97904 13.7761 5.97904 13.5V2.5ZM6.98035 3V13H8.98298V3H6.98035Z" fill="black"/>
<path fill-rule="evenodd" clip-rule="evenodd" d="M12.4954 2C12.2189 2 11.9947 2.22386 11.9947 2.5V13.5C11.9947 13.7761 12.2189 14 12.4954 14H15.4993C15.7758 14 16 13.7761 16 13.5V2.5C16 2.22386 15.7758 2 15.4993 2H12.4954ZM12.9961 13V3H14.9987V13H12.9961Z" fill="black"/>
</svg>
