<svg width="16" height="16" viewBox="0 0 16 16" fill="none" xmlns="http://www.w3.org/2000/svg">
<g clip-path="url(#clip0)">
<path fill-rule="evenodd" clip-rule="evenodd" d="M0.5 2C0.223858 2 0 2.22386 0 2.5V13.5C0 13.7761 0.223858 14 0.5 14H2.50069C2.77684 14 3.00069 13.7761 3.00069 13.5V2.5C3.00069 2.22386 2.77684 2 2.50069 2H0.5ZM1 13V3H2.00069V13H1Z" fill="black"/>
<path fill-rule="evenodd" clip-rule="evenodd" d="M4.50732 2C4.23118 2 4.00732 2.22386 4.00732 2.5V13.5C4.00732 13.7761 4.23118 14 4.50732 14H15.5026C15.7787 14 16.0026 13.7761 16.0026 13.5V2.5C16.0026 2.22386 15.7787 2 15.5026 2H4.50732ZM5.00732 13V3H15.0026V13H5.00732Z" fill="black"/>
</g>
<defs>
<clipPath id="clip0">
<rect width="16" height="16" fill="white"/>
</clipPath>
</defs>
</svg>
