<svg width="16" height="16" viewBox="0 0 16 16" fill="none" xmlns="http://www.w3.org/2000/svg">
<path fill-rule="evenodd" clip-rule="evenodd" d="M0.5 2C0.223858 2 0 2.22386 0 2.5V13.4986C0 13.7748 0.223858 13.9986 0.5 13.9986H2.5C2.77614 13.9986 3 13.7748 3 13.4986V2.5C3 2.22386 2.77614 2 2.5 2H0.5ZM1 12.9986V3H2V12.9986H1Z" fill="black"/>
<path fill-rule="evenodd" clip-rule="evenodd" d="M8.5 2C8.22386 2 8 2.22386 8 2.5V13.4986C8 13.7748 8.22386 13.9986 8.5 13.9986H10.5C10.7761 13.9986 11 13.7748 11 13.4986V2.5C11 2.22386 10.7761 2 10.5 2H8.5ZM9 12.9986V3H10V12.9986H9Z" fill="black"/>
<path fill-rule="evenodd" clip-rule="evenodd" d="M4 2.5C4 2.22386 4.22386 2 4.5 2H6.5C6.77614 2 7 2.22386 7 2.5V13.4986C7 13.7748 6.77614 13.9986 6.5 13.9986H4.5C4.22386 13.9986 4 13.7748 4 13.4986V2.5ZM5 3V12.9986H6V3H5Z" fill="black"/>
<path fill-rule="evenodd" clip-rule="evenodd" d="M12.5 2C12.2239 2 12 2.22386 12 2.5V13.4986C12 13.7748 12.2239 13.9986 12.5 13.9986H14.5C14.7761 13.9986 15 13.7748 15 13.4986V2.5C15 2.22386 14.7761 2 14.5 2H12.5ZM13 12.9986V3H14V12.9986H13Z" fill="black"/>
</svg>
