<svg width="16" height="16" viewBox="0 0 16 16" fill="none" xmlns="http://www.w3.org/2000/svg">
<g clip-path="url(#clip0)">
<path fill-rule="evenodd" clip-rule="evenodd" d="M-0.000488281 2.5C-0.000488281 2.22386 0.223369 2 0.499512 2H2.49951C2.77565 2 2.99951 2.22386 2.99951 2.5V13.5C2.99951 13.7761 2.77565 14 2.49951 14H0.499512C0.223369 14 -0.000488281 13.7761 -0.000488281 13.5V2.5ZM0.999512 3V13H1.99951V3H0.999512Z" fill="black"/>
<path fill-rule="evenodd" clip-rule="evenodd" d="M5 2.5C5 2.22386 5.22386 2 5.5 2H10.5C10.7761 2 11 2.22386 11 2.5V13.5C11 13.7761 10.7761 14 10.5 14H5.5C5.22386 14 5 13.7761 5 13.5V2.5ZM6 3V13H10V3H6Z" fill="black"/>
<path fill-rule="evenodd" clip-rule="evenodd" d="M13.5 2C13.2239 2 13 2.22386 13 2.5V13.5C13 13.7761 13.2239 14 13.5 14H15.5C15.7761 14 16 13.7761 16 13.5V2.5C16 2.22386 15.7761 2 15.5 2H13.5ZM14 13V3H15V13H14Z" fill="black"/>
</g>
<defs>
<clipPath id="clip0">
<rect width="16" height="16" fill="white"/>
</clipPath>
</defs>
</svg>
