<svg width="16" height="16" viewBox="0 0 16 16" fill="none" xmlns="http://www.w3.org/2000/svg">
<path fill-rule="evenodd" clip-rule="evenodd" d="M15.5001 14C15.7762 14 16 13.7761 16 13.5V2.5C16 2.22386 15.7762 2 15.5001 2H13.4997C13.2236 2 12.9998 2.22386 12.9998 2.5L12.9998 13.5C12.9998 13.7761 13.2236 14 13.4997 14H15.5001ZM15.0002 3L15.0002 13H13.9996L13.9996 3L15.0002 3Z" fill="black"/>
<path fill-rule="evenodd" clip-rule="evenodd" d="M11.4934 14C11.7695 14 11.9933 13.7761 11.9933 13.5L11.9933 2.5C11.9933 2.22386 11.7695 2 11.4934 2H0.49992C0.223823 2 1.90704e-06 2.22386 1.90704e-06 2.5L0 13.5C0 13.7761 0.223822 14 0.49992 14L11.4934 14ZM10.9935 3L10.9935 13L0.999838 13L0.999839 3L10.9935 3Z" fill="black"/>
</svg>
