<svg width="16" height="16" viewBox="0 0 16 16" fill="none" xmlns="http://www.w3.org/2000/svg">
<g clip-path="url(#clip0)">
<path fill-rule="evenodd" clip-rule="evenodd" d="M-0.000488281 2.5C-0.000488281 2.22386 0.223369 2 0.499512 2H2.49951C2.77565 2 2.99951 2.22386 2.99951 2.5V13.5C2.99951 13.7761 2.77565 14 2.49951 14H0.499512C0.223369 14 -0.000488281 13.7761 -0.000488281 13.5V2.5ZM0.999512 3V13H1.99951V3H0.999512Z" fill="black"/>
<path fill-rule="evenodd" clip-rule="evenodd" d="M4.0127 2.5C4.0127 2.22386 4.23655 2 4.5127 2H11.5127C11.7888 2 12.0127 2.22386 12.0127 2.5V13.5C12.0127 13.7761 11.7888 14 11.5127 14H4.5127C4.23655 14 4.0127 13.7761 4.0127 13.5V2.5ZM5.0127 3V13H11.0127V3H5.0127Z" fill="black"/>
<path fill-rule="evenodd" clip-rule="evenodd" d="M13.4976 2C13.2214 2 12.9976 2.22386 12.9976 2.5V13.5C12.9976 13.7761 13.2214 14 13.4976 14H15.4976C15.7737 14 15.9976 13.7761 15.9976 13.5V2.5C15.9976 2.22386 15.7737 2 15.4976 2H13.4976ZM13.9976 13V3H14.9976V13H13.9976Z" fill="black"/>
</g>
<defs>
<clipPath id="clip0">
<rect width="16" height="16" fill="white"/>
</clipPath>
</defs>
</svg>
