<svg width="16" height="16" viewBox="0 0 16 16" fill="none" xmlns="http://www.w3.org/2000/svg">
<g clip-path="url(#clip0)">
<path fill-rule="evenodd" clip-rule="evenodd" d="M0.500977 2.00342C0.224834 2.00342 0.000976562 2.22728 0.000976562 2.50342V13.5042C0.000976562 13.7804 0.224834 14.0042 0.500977 14.0042H6.50479C6.78093 14.0042 7.00479 13.7804 7.00479 13.5042V2.50342C7.00479 2.22728 6.78093 2.00342 6.50479 2.00342H0.500977ZM1.00098 13.0042V3.00342H6.00479V13.0042H1.00098Z" fill="black"/>
<path fill-rule="evenodd" clip-rule="evenodd" d="M9.49902 2.00342C9.22288 2.00342 8.99902 2.22728 8.99902 2.50342V13.5043C8.99902 13.7804 9.22288 14.0043 9.49902 14.0043H15.5031C15.7792 14.0043 16.0031 13.7804 16.0031 13.5043V2.50342C16.0031 2.22728 15.7792 2.00342 15.5031 2.00342H9.49902ZM9.99902 13.0043V3.00342H15.0031V13.0043H9.99902Z" fill="black"/>
</g>
<defs>
<clipPath id="clip0">
<rect width="16" height="16" fill="white"/>
</clipPath>
</defs>
</svg>
