<!-- Generated by IcoMoon.io -->
<svg version="1.1" xmlns="http://www.w3.org/2000/svg" width="32" height="32" viewBox="0 0 32 32">
<title>l-forms-2</title>
<path d="M2 2h9.944v4h-9.944v-4z"></path>
<path d="M2.056 8h12.944v2h-12.944v-2z"></path>
<path d="M2.056 12h12.944v2h-12.944v-2z"></path>
<path d="M2.056 16h7.944v4h-7.944v-4z"></path>
<path d="M17 2h9.944v4h-9.944v-4z"></path>
<path d="M17.056 8h12.944v2h-12.944v-2z"></path>
<path d="M17.056 12h12.944v2h-12.944v-2z"></path>
<path d="M17.056 16h12.944v2h-12.944v-2z"></path>
<path d="M17.056 20h12.944v2h-12.944v-2z"></path>
<path d="M17.056 24h7.944v4h-7.944v-4z"></path>
</svg>
