<!-- Generated by IcoMoon.io -->
<svg version="1.1" xmlns="http://www.w3.org/2000/svg" width="32" height="32" viewBox="0 0 32 32">
<title>l-header-menu-text</title>
<path d="M2 8h8v2h-8v-2z"></path>
<path d="M2 12h8v2h-8v-2z"></path>
<path d="M2 16h8v2h-8v-2z"></path>
<path d="M12 8h18v2h-18v-2z"></path>
<path d="M12 12h18v2h-18v-2z"></path>
<path d="M12 16h18v2h-18v-2z"></path>
<path d="M12 20h18v2h-18v-2z"></path>
<path d="M12 24h18v2h-18v-2z"></path>
<path d="M12 28h12v2h-12v-2z"></path>
<path d="M2 2h28v4h-28v-4z"></path>
</svg>
