<!-- Generated by IcoMoon.io -->
<svg version="1.1" xmlns="http://www.w3.org/2000/svg" width="32" height="32" viewBox="0 0 32 32">
<title>l-header-list-img</title>
<path d="M2 8h8v6h-8v-6z"></path>
<path d="M12 8h8v6h-8v-6z"></path>
<path d="M22 8h8v6h-8v-6z"></path>
<path d="M2 16h8v6h-8v-6z"></path>
<path d="M12 16h8v6h-8v-6z"></path>
<path d="M22 16h8v6h-8v-6z"></path>
<path d="M2 24h8v6h-8v-6z"></path>
<path d="M12 24h8v6h-8v-6z"></path>
<path d="M22 24h8v6h-8v-6z"></path>
<path d="M2 2h28v4h-28v-4z"></path>
</svg>
