<!-- Generated by IcoMoon.io -->
<svg version="1.1" xmlns="http://www.w3.org/2000/svg" width="32" height="32" viewBox="0 0 32 32">
<title>l-lightbox</title>
<path d="M2 12h2v8h-2v-8z"></path>
<path d="M28 12h2v8h-2v-8z"></path>
<path d="M12 26h8v4h-8v-4z"></path>
<path d="M12 2h8v4h-8v-4z"></path>
<path d="M24 10v12h-16v-12h16M26 8h-20v16h20v-16z"></path>
<path d="M4 26v-4h-2v8h8v-4z"></path>
<path d="M28 26v-4h2v8h-8v-4z"></path>
<path d="M28 6v4h2v-8h-8v4z"></path>
<path d="M4 6v4h-2v-8h8v4z"></path>
</svg>
