<?xml version="1.0" encoding="utf-8"?>
<!-- Generator: Adobe Illustrator 17.0.1, SVG Export Plug-In . SVG Version: 6.00 Build 0)  -->
<!DOCTYPE svg PUBLIC "-//W3C//DTD SVG 1.1//EN" "http://www.w3.org/Graphics/SVG/1.1/DTD/svg11.dtd">
<svg version="1.1" id="Layer_1" xmlns="http://www.w3.org/2000/svg" xmlns:xlink="http://www.w3.org/1999/xlink" x="0px" y="0px"
	 width="1024px" height="1024px" viewBox="0 0 1024 1024" enable-background="new 0 0 1024 1024" xml:space="preserve">
<rect x="64" y="384" width="64" height="256"/>
<rect x="896" y="384" width="64" height="256"/>
<rect x="384" y="832" width="256" height="128"/>
<rect x="384" y="64" width="256" height="128"/>
<path d="M768,320v384H256V320H768 M832,256H192v512h640V256L832,256z"/>
<g>
	<polygon points="128,832 128,704 64,704 64,960 320,960 320,832 	"/>
</g>
<g>
	<polygon points="896,832 896,704 960,704 960,960 704,960 704,832 	"/>
</g>
<g>
	<polygon points="896,192 896,320 960,320 960,64 704,64 704,192 	"/>
</g>
<g>
	<polygon points="128,192 128,320 64,320 64,64 320,64 320,192 	"/>
</g>
</svg>
