<?xml version="1.0" encoding="utf-8"?>
<!-- Generator: Adobe Illustrator 17.0.1, SVG Export Plug-In . SVG Version: 6.00 Build 0)  -->
<!DOCTYPE svg PUBLIC "-//W3C//DTD SVG 1.1//EN" "http://www.w3.org/Graphics/SVG/1.1/DTD/svg11.dtd">
<svg version="1.1" id="Layer_1" xmlns="http://www.w3.org/2000/svg" xmlns:xlink="http://www.w3.org/1999/xlink" x="0px" y="0px"
	 width="1024px" height="1024px" viewBox="0 0 1024 1024" enable-background="new 0 0 1024 1024" xml:space="preserve">
<g>
	<g>
		<polygon points="704,64 384,64 384,192 704,192 704,64 		"/>
	</g>
	<g>
		<polygon points="960,256 384,256 384,320 960,320 960,256 		"/>
	</g>
	<g>
		<polygon points="832,384 384,384 384,448 832,448 832,384 		"/>
	</g>
	<g>
		<path d="M256,128v128H128V128H256 M320,64H64v256h256V64L320,64z"/>
	</g>
	<g>
		<polygon points="704,576 384,576 384,704 704,704 704,576 		"/>
	</g>
	<g>
		<polygon points="960,768 384,768 384,832 960,832 960,768 		"/>
	</g>
	<g>
		<polygon points="832,896 384,896 384,960 832,960 832,896 		"/>
	</g>
	<g>
		<path d="M256,640v128H128V640H256 M320,576H64v256h256V576L320,576z"/>
	</g>
</g>
</svg>
