<svg width="16" height="16" viewBox="0 0 16 16" fill="none" xmlns="http://www.w3.org/2000/svg">
<path d="M1.00098 1.50391C1.00098 1.22776 1.22455 1.00391 1.50035 1.00391H2.4991C2.77489 1.00391 2.99847 1.22776 2.99847 1.50391C2.99847 1.78005 2.77489 2.00391 2.4991 2.00391H1.99972L1.99972 2.50391C1.99972 2.78005 1.77615 3.00391 1.50035 3.00391C1.22455 3.00391 1.00098 2.78005 1.00098 2.50391V1.50391Z" fill="black"/>
<path fill-rule="evenodd" clip-rule="evenodd" d="M3.99624 4.5C3.99624 4.22386 4.21982 4 4.49561 4H11.4868C11.7626 4 11.9862 4.22386 11.9862 4.5V11.5C11.9862 11.7761 11.7626 12 11.4868 12H4.49561C4.21982 12 3.99624 11.7761 3.99624 11.5V4.5ZM4.99499 5V11H10.9875V5H4.99499Z" fill="black"/>
<path d="M13.5029 1.00391C13.2271 1.00391 13.0035 1.22776 13.0035 1.50391C13.0035 1.78005 13.2271 2.00391 13.5029 2.00391H14.0022V2.50391C14.0022 2.78005 14.2258 3.00391 14.5016 3.00391C14.7774 3.00391 15.001 2.78005 15.001 2.50391V1.50391C15.001 1.22776 14.7774 1.00391 14.5016 1.00391H13.5029Z" fill="black"/>
<path d="M3.99624 1.50391C3.99624 1.22776 4.21982 1.00391 4.49561 1.00391H5.49436C5.77015 1.00391 5.99373 1.22776 5.99373 1.50391C5.99373 1.78005 5.77015 2.00391 5.49436 2.00391H4.49561C4.21982 2.00391 3.99624 1.78005 3.99624 1.50391Z" fill="black"/>
<path d="M10.4881 1.00391C10.2123 1.00391 9.98872 1.22776 9.98872 1.50391C9.98872 1.78005 10.2123 2.00391 10.4881 2.00391H11.4868C11.7626 2.00391 11.9862 1.78005 11.9862 1.50391C11.9862 1.22776 11.7626 1.00391 11.4868 1.00391H10.4881Z" fill="black"/>
<path d="M6.99248 1.50391C6.99248 1.22776 7.21605 1.00391 7.49185 1.00391H8.4906C8.76639 1.00391 8.98997 1.22776 8.98997 1.50391C8.98997 1.78005 8.76639 2.00391 8.4906 2.00391H7.49185C7.21605 2.00391 6.99248 1.78005 6.99248 1.50391Z" fill="black"/>
<path d="M4.48732 13.999C4.21153 13.999 3.98795 14.2229 3.98795 14.499C3.98795 14.7752 4.21153 14.999 4.48732 14.999H5.48607C5.76186 14.999 5.98544 14.7752 5.98544 14.499C5.98544 14.2229 5.76186 13.999 5.48607 13.999H4.48732Z" fill="black"/>
<path d="M9.98872 14.499C9.98872 14.2229 10.2123 13.999 10.4881 13.999H11.4868C11.7626 13.999 11.9862 14.2229 11.9862 14.499C11.9862 14.7752 11.7626 14.999 11.4868 14.999H10.4881C10.2123 14.999 9.98872 14.7752 9.98872 14.499Z" fill="black"/>
<path d="M7.49185 13.999C7.21605 13.999 6.99248 14.2229 6.99248 14.499C6.99248 14.7752 7.21605 14.999 7.49185 14.999H8.4906C8.76639 14.999 8.98997 14.7752 8.98997 14.499C8.98997 14.2229 8.76639 13.999 8.4906 13.999H7.49185Z" fill="black"/>
<path d="M15.001 4.5C15.001 4.22386 14.7774 4 14.5016 4C14.2258 4 14.0022 4.22386 14.0022 4.5V5.5C14.0022 5.77614 14.2258 6 14.5016 6C14.7774 6 15.001 5.77614 15.001 5.5V4.5Z" fill="black"/>
<path d="M14.5016 10C14.7774 10 15.001 10.2239 15.001 10.5V11.5C15.001 11.7761 14.7774 12 14.5016 12C14.2258 12 14.0022 11.7761 14.0022 11.5V10.5C14.0022 10.2239 14.2258 10 14.5016 10Z" fill="black"/>
<path d="M15.001 13.499C15.001 13.2229 14.7774 12.999 14.5016 12.999C14.2258 12.999 14.0022 13.2229 14.0022 13.499V13.999H13.5029C13.2271 13.999 13.0035 14.2229 13.0035 14.499C13.0035 14.7752 13.2271 14.999 13.5029 14.999H14.5016C14.7774 14.999 15.001 14.7752 15.001 14.499V13.499Z" fill="black"/>
<path d="M14.5016 7C14.7774 7 15.001 7.22386 15.001 7.5V8.5C15.001 8.77614 14.7774 9 14.5016 9C14.2258 9 14.0022 8.77614 14.0022 8.5V7.5C14.0022 7.22386 14.2258 7 14.5016 7Z" fill="black"/>
<path d="M2.99847 14.499C2.99847 14.7752 2.77489 14.999 2.4991 14.999H1.50035C1.22455 14.999 1.00098 14.7752 1.00098 14.499V13.499C1.00098 13.2229 1.22455 12.999 1.50035 12.999C1.77615 12.999 1.99972 13.2229 1.99972 13.499L1.99972 13.999H2.4991C2.77489 13.999 2.99847 14.2229 2.99847 14.499Z" fill="black"/>
<path d="M1.50035 9C1.22455 9 1.00098 8.77614 1.00098 8.5V7.5C1.00098 7.22386 1.22455 7 1.50035 7C1.77615 7 1.99972 7.22386 1.99972 7.5L1.99972 8.5C1.99972 8.77614 1.77615 9 1.50035 9Z" fill="black"/>
<path d="M1.50035 6C1.22455 6 1.00098 5.77614 1.00098 5.5V4.5C1.00098 4.22386 1.22455 4 1.50035 4C1.77615 4 1.99972 4.22386 1.99972 4.5L1.99972 5.5C1.99972 5.77614 1.77615 6 1.50035 6Z" fill="black"/>
<path d="M1.00098 11.5C1.00098 11.7761 1.22455 12 1.50035 12C1.77615 12 1.99972 11.7761 1.99972 11.5L1.99972 10.5C1.99972 10.2239 1.77615 10 1.50035 10C1.22455 10 1.00098 10.2239 1.00098 10.5V11.5Z" fill="black"/>
</svg>
