<svg width="16" height="16" viewBox="0 0 16 16" fill="none" xmlns="http://www.w3.org/2000/svg">
<path d="M1.50401 1C1.22781 1 1.00391 1.22406 1.00391 1.50045C1.00391 1.77684 1.22781 2.0009 1.50401 2.0009H5.50485C5.78105 2.0009 6.00495 1.77684 6.00495 1.50045C6.00495 1.22406 5.78105 1 5.50485 1H1.50401Z" fill="black"/>
<path d="M1.5001 3.0018C1.2239 3.0018 1 3.22586 1 3.50226C1 3.77865 1.2239 4.00271 1.5001 4.00271H5.50094C5.77714 4.00271 6.00105 3.77865 6.00105 3.50226C6.00105 3.22586 5.77714 3.0018 5.50094 3.0018H1.5001Z" fill="black"/>
<path d="M1 5.50406C1 5.22767 1.2239 5.00361 1.5001 5.00361H5.50094C5.77714 5.00361 6.00105 5.22767 6.00105 5.50406C6.00105 5.78045 5.77714 6.00451 5.50094 6.00451H1.5001C1.2239 6.00451 1 5.78045 1 5.50406Z" fill="black"/>
<path d="M7.49843 1C7.22223 1 6.99833 1.22406 6.99833 1.50045C6.99833 1.77684 7.22223 2.0009 7.49843 2.0009H14.4999C14.7761 2.0009 15 1.77684 15 1.50045C15 1.22406 14.7761 1 14.4999 1H7.49843Z" fill="black"/>
<path d="M6.99833 3.50226C6.99833 3.22586 7.22223 3.0018 7.49843 3.0018H14.4999C14.7761 3.0018 15 3.22586 15 3.50226C15 3.77865 14.7761 4.00271 14.4999 4.00271H7.49843C7.22223 4.00271 6.99833 3.77865 6.99833 3.50226Z" fill="black"/>
<path d="M7.49843 5.00361C7.22223 5.00361 6.99833 5.22767 6.99833 5.50406C6.99833 5.78045 7.22223 6.00451 7.49843 6.00451H14.4999C14.7761 6.00451 15 5.78045 15 5.50406C15 5.22767 14.7761 5.00361 14.4999 5.00361H7.49843Z" fill="black"/>
<path d="M6.99833 7.50587C6.99833 7.22947 7.22223 7.00541 7.49843 7.00541H14.4999C14.7761 7.00541 15 7.22947 15 7.50587C15 7.78226 14.7761 8.00632 14.4999 8.00632H7.49843C7.22223 8.00632 6.99833 7.78226 6.99833 7.50587Z" fill="black"/>
<path d="M7.49843 8.99549C7.22223 8.99549 6.99833 9.21955 6.99833 9.49594C6.99833 9.77233 7.22223 9.99639 7.49843 9.99639H14.4999C14.7761 9.99639 15 9.77233 15 9.49594C15 9.21955 14.7761 8.99549 14.4999 8.99549H7.49843Z" fill="black"/>
<path d="M6.99833 11.4977C6.99833 11.2214 7.22223 10.9973 7.49843 10.9973H14.4999C14.7761 10.9973 15 11.2214 15 11.4977C15 11.7741 14.7761 11.9982 14.4999 11.9982H7.49843C7.22223 11.9982 6.99833 11.7741 6.99833 11.4977Z" fill="black"/>
<path d="M7.49843 12.9991C7.22223 12.9991 6.99833 13.2232 6.99833 13.4995C6.99833 13.7759 7.22223 14 7.49843 14H11.4993C11.7755 14 11.9994 13.7759 11.9994 13.4995C11.9994 13.2232 11.7755 12.9991 11.4993 12.9991H7.49843Z" fill="black"/>
</svg>
