<!-- Generated by IcoMoon.io -->
<svg version="1.1" xmlns="http://www.w3.org/2000/svg" width="32" height="32" viewBox="0 0 32 32">
<title>l-menu-text</title>
<path d="M2 2h8v2h-8v-2z"></path>
<path d="M2 6h8v2h-8v-2z"></path>
<path d="M2 10h8v2h-8v-2z"></path>
<path d="M12 2h18v2h-18v-2z"></path>
<path d="M12 6h18v2h-18v-2z"></path>
<path d="M12 10h18v2h-18v-2z"></path>
<path d="M12 14h18v2h-18v-2z"></path>
<path d="M12 18h18v2h-18v-2z"></path>
<path d="M12 22h18v2h-18v-2z"></path>
<path d="M12 26h12v2h-12v-2z"></path>
</svg>
