<!-- Generated by IcoMoon.io -->
<svg version="1.1" xmlns="http://www.w3.org/2000/svg" width="32" height="32" viewBox="0 0 32 32">
<title>l-menu-text-col</title>
<path d="M9.5 2h13v2h-13v-2z"></path>
<path d="M9.5 6h13v2h-13v-2z"></path>
<path d="M9.5 10h13v2h-13v-2z"></path>
<path d="M9.5 14h13v2h-13v-2z"></path>
<path d="M9.5 18h13v2h-13v-2z"></path>
<path d="M9.5 22h13v2h-13v-2z"></path>
<path d="M9.5 26h10.5v2h-10.5v-2z"></path>
<path d="M24.501 2.001h5.5v28h-5.5v-28z"></path>
<path d="M2 2h5.5v2h-5.5v-2z"></path>
<path d="M2 6h5.5v2h-5.5v-2z"></path>
<path d="M2 10h5.5v2h-5.5v-2z"></path>
</svg>
