<svg width="16" height="16" viewBox="0 0 16 16" fill="none" xmlns="http://www.w3.org/2000/svg">
<g clip-path="url(#clip0)">
<path fill-rule="evenodd" clip-rule="evenodd" d="M1 15.5C1 15.7761 1.22386 16 1.5 16L14.5 16C14.7761 16 15 15.7761 15 15.5V13.5C15 13.2239 14.7761 13 14.5 13L1.5 13C1.22386 13 1 13.2239 1 13.5L1 15.5ZM14 15L2 15V14L14 14V15Z" fill="black"/>
<path fill-rule="evenodd" clip-rule="evenodd" d="M1 7.5C1 7.77614 1.22386 8 1.5 8L14.5 8C14.7761 8 15 7.77614 15 7.5V5.5C15 5.22386 14.7761 5 14.5 5L1.5 5C1.22386 5 1 5.22386 1 5.5L1 7.5ZM14 7L2 7V6L14 6V7Z" fill="black"/>
<path fill-rule="evenodd" clip-rule="evenodd" d="M1.5 12C1.22386 12 1 11.7761 1 11.5L1 9.5C1 9.22386 1.22386 9 1.5 9L14.5 9C14.7761 9 15 9.22386 15 9.5V11.5C15 11.7761 14.7761 12 14.5 12L1.5 12ZM2 11L14 11V10L2 10V11Z" fill="black"/>
<path fill-rule="evenodd" clip-rule="evenodd" d="M1 3.5C1 3.77614 1.22386 4 1.5 4L14.5 4C14.7761 4 15 3.77614 15 3.5V1.5C15 1.22386 14.7761 1 14.5 1L1.5 1C1.22386 1 1 1.22386 1 1.5L1 3.5ZM14 3L2 3L2 2L14 2V3Z" fill="black"/>
</g>
<defs>
<clipPath id="clip0">
<rect width="16" height="16" fill="white" transform="translate(0 16) rotate(-90)"/>
</clipPath>
</defs>
</svg>
