<svg width="16" height="16" viewBox="0 0 16 16" fill="none" xmlns="http://www.w3.org/2000/svg">
<g clip-path="url(#clip0)">
<path fill-rule="evenodd" clip-rule="evenodd" d="M15 1.50384C15 1.228 14.7761 1.0044 14.5 1.0044L1.5 1.00439C1.22386 1.00439 1 1.228 1 1.50384L1 6.49826C1 6.7741 1.22386 6.9977 1.5 6.9977L14.5 6.99771C14.7761 6.99771 15 6.7741 15 6.49826L15 1.50384ZM2 2.00328L14 2.00328V5.99882L2 5.99882L2 2.00328Z" fill="black"/>
<path fill-rule="evenodd" clip-rule="evenodd" d="M15 8.51164C15 8.23581 14.7761 8.0122 14.5 8.0122L1.5 8.0122C1.22386 8.0122 1 8.23581 1 8.51164L1 14.505C1 14.7808 1.22386 15.0044 1.5 15.0044L14.5 15.0044C14.7761 15.0044 15 14.7808 15 14.505V8.51164ZM2 9.01108L14 9.01108V14.0055L2 14.0055L2 9.01108Z" fill="black"/>
</g>
<defs>
<clipPath id="clip0">
<rect width="16" height="16" fill="white" transform="translate(16) rotate(90)"/>
</clipPath>
</defs>
</svg>
