<svg width="16" height="16" viewBox="0 0 16 16" fill="none" xmlns="http://www.w3.org/2000/svg">
<g clip-path="url(#clip0)">
<path fill-rule="evenodd" clip-rule="evenodd" d="M1 0.5C1 0.223858 1.22386 0 1.5 0H14.5C14.7761 0 15 0.223858 15 0.5V10.4505L15.9903 15.4019C16.0197 15.5488 15.9816 15.7012 15.8867 15.817C15.7917 15.9328 15.6498 16 15.5 16H0.500004C0.350208 16 0.208303 15.9328 0.113333 15.817C0.0183639 15.7012 -0.0196636 15.5488 0.00971396 15.4019L1 10.4505V0.5ZM5.64039 15H10.3596L10.1096 14H5.89039L5.64039 15ZM11.3904 15L10.9851 13.3787C10.9294 13.1561 10.7294 13 10.5 13H5.5C5.27057 13 5.07058 13.1561 5.01493 13.3787L4.60962 15H1.10991L1.90991 11H14.0901L14.8901 15H11.3904ZM2 1V10H14V1H2Z" fill="black"/>
</g>
<defs>
<clipPath id="clip0">
<rect width="16" height="16" fill="white"/>
</clipPath>
</defs>
</svg>
