<svg width="16" height="16" viewBox="0 0 16 16" fill="none" xmlns="http://www.w3.org/2000/svg">
<path fill-rule="evenodd" clip-rule="evenodd" d="M1 1.5C1 1.22386 1.22386 1 1.5 1H14.5C14.7761 1 15 1.22386 15 1.5L15 6.5C15 6.63261 14.9473 6.75979 14.8536 6.85355C14.7598 6.94732 14.6326 7 14.5 7H1.5C1.22386 7 1 6.77614 1 6.5V1.5ZM2 2V6H14L14 2H2Z" fill="black"/>
<path fill-rule="evenodd" clip-rule="evenodd" d="M1 8.5C1 8.22386 1.22386 8 1.5 8H5.5C5.77614 8 6 8.22386 6 8.5V14.4999C6 14.7761 5.77614 14.9999 5.5 14.9999H1.5C1.22386 14.9999 1 14.7761 1 14.4999V8.5ZM2 9V13.9999H5V9H2Z" fill="black"/>
<path fill-rule="evenodd" clip-rule="evenodd" d="M7.5 8C7.22386 8 7 8.22386 7 8.5V14.5C7 14.7761 7.22386 15 7.5 15H14.5C14.7761 15 15 14.7761 15 14.5V8.5C15 8.22386 14.7761 8 14.5 8H7.5ZM8 14V9H14V14H8Z" fill="black"/>
</svg>
