<!-- Generated by IcoMoon.io -->
<svg version="1.1" xmlns="http://www.w3.org/2000/svg" width="32" height="32" viewBox="0 0 32 32">
<title>life-belt</title>
<path d="M29.474 7.367c-0.623-0.971-1.348-1.869-2.16-2.681s-1.711-1.537-2.681-2.16c-2.49-1.599-5.453-2.526-8.633-2.526s-6.142 0.927-8.633 2.526c-0.971 0.623-1.869 1.348-2.681 2.16s-1.537 1.711-2.16 2.681c-1.599 2.49-2.526 5.453-2.526 8.633s0.927 6.142 2.526 8.633c0.623 0.971 1.348 1.869 2.16 2.681s1.711 1.537 2.681 2.16c2.49 1.599 5.453 2.526 8.633 2.526s6.142-0.927 8.633-2.526c0.971-0.623 1.869-1.348 2.681-2.16s1.537-1.711 2.16-2.681c1.599-2.49 2.526-5.453 2.526-8.633s-0.927-6.142-2.526-8.633zM10.551 3.099c1.725-0.729 3.558-1.099 5.449-1.099s3.724 0.37 5.449 1.099c0.73 0.309 1.427 0.676 2.088 1.099l-3.564 5.44c-1.152-0.721-2.514-1.138-3.973-1.138s-2.821 0.417-3.973 1.138l-3.564-5.44c0.661-0.423 1.359-0.79 2.088-1.099zM21.5 16c0 1.032-0.282 2.020-0.811 2.877-0.224 0.363-0.491 0.703-0.8 1.012v0c-0.309 0.309-0.649 0.577-1.012 0.8-0.857 0.528-1.845 0.811-2.877 0.811s-2.020-0.282-2.877-0.811c-0.363-0.224-0.703-0.491-1.012-0.8v0c-0.309-0.309-0.577-0.649-0.8-1.012-0.528-0.857-0.811-1.845-0.811-2.877s0.283-2.020 0.811-2.877c0.224-0.363 0.491-0.703 0.8-1.012v0c0.309-0.309 0.649-0.577 1.012-0.8 0.857-0.528 1.845-0.811 2.877-0.811s2.020 0.283 2.877 0.811c0.363 0.224 0.703 0.491 1.012 0.8v0c0.309 0.309 0.577 0.649 0.8 1.012 0.528 0.857 0.811 1.845 0.811 2.877zM4.198 23.537c-0.423-0.661-0.79-1.358-1.099-2.088-0.729-1.725-1.099-3.558-1.099-5.449s0.37-3.724 1.099-5.449c0.309-0.73 0.676-1.427 1.099-2.088l5.44 3.564c-0.721 1.152-1.138 2.514-1.138 3.973s0.417 2.821 1.138 3.973l-5.44 3.564zM21.449 28.901c-1.725 0.729-3.558 1.099-5.449 1.099s-3.724-0.37-5.449-1.099c-0.73-0.309-1.427-0.676-2.088-1.099l3.564-5.44c1.152 0.721 2.514 1.138 3.973 1.138s2.821-0.417 3.973-1.138l3.564 5.44c-0.661 0.423-1.359 0.79-2.088 1.099zM28.901 21.449c-0.309 0.73-0.676 1.427-1.099 2.088l-5.44-3.564c0.721-1.152 1.138-2.514 1.138-3.973s-0.417-2.821-1.138-3.973l5.44-3.564c0.423 0.661 0.79 1.358 1.099 2.088 0.729 1.725 1.099 3.558 1.099 5.449s-0.37 3.724-1.099 5.449z"></path>
</svg>
