<?xml version="1.0" encoding="utf-8"?>
<!-- Generator: Adobe Illustrator 17.0.1, SVG Export Plug-In . SVG Version: 6.00 Build 0)  -->
<!DOCTYPE svg PUBLIC "-//W3C//DTD SVG 1.1//EN" "http://www.w3.org/Graphics/SVG/1.1/DTD/svg11.dtd">
<svg version="1.1" id="Layer_1" xmlns="http://www.w3.org/2000/svg" xmlns:xlink="http://www.w3.org/1999/xlink" x="0px" y="0px"
	 width="1024px" height="1024px" viewBox="0 0 1024 1024" enable-background="new 0 0 1024 1024" xml:space="preserve">
<path d="M943.16,235.76c-19.94-31.06-43.14-59.82-69.12-85.8s-54.74-49.18-85.8-69.12C708.55,29.68,613.74,0,512,0
	S315.45,29.68,235.76,80.84c-31.06,19.94-59.82,43.14-85.8,69.12s-49.18,54.74-69.12,85.8C29.68,315.45,0,410.26,0,512
	s29.68,196.55,80.84,276.24c19.94,31.06,43.14,59.82,69.12,85.8c25.98,25.98,54.74,49.18,85.8,69.12
	C315.45,994.32,410.26,1024,512,1024s196.55-29.68,276.24-80.84c31.06-19.94,59.82-43.14,85.8-69.12s49.18-54.74,69.12-85.8
	C994.32,708.55,1024,613.74,1024,512S994.32,315.45,943.16,235.76z M337.64,99.18C392.83,75.84,451.49,64,512,64
	s119.17,11.84,174.36,35.18c23.35,9.88,45.66,21.62,66.83,35.16L639.14,308.42C602.27,285.35,558.7,272,512,272
	s-90.27,13.35-127.14,36.42L270.81,134.34C291.97,120.8,314.29,109.06,337.64,99.18z M688,512c0,33.02-9.04,64.65-25.94,92.07
	c-7.16,11.62-15.72,22.49-25.61,32.38v0c-9.89,9.89-20.76,18.45-32.38,25.61C576.65,678.96,545.02,688,512,688
	s-64.65-9.04-92.07-25.94c-11.62-7.16-22.49-15.72-32.38-25.61v0c-9.89-9.89-18.45-20.76-25.61-32.38
	C345.04,576.65,336,545.02,336,512s9.04-64.65,25.94-92.07c7.16-11.62,15.72-22.49,25.61-32.38v0c9.89-9.89,20.76-18.45,32.38-25.61
	C447.35,345.04,478.98,336,512,336s64.65,9.04,92.07,25.94c11.62,7.16,22.49,15.72,32.38,25.61v0c9.89,9.89,18.45,20.76,25.61,32.38
	C678.96,447.35,688,478.98,688,512z M134.34,753.19c-13.54-21.16-25.29-43.47-35.16-66.83C75.84,631.17,64,572.51,64,512
	s11.84-119.17,35.18-174.36c9.88-23.35,21.62-45.66,35.16-66.83l174.08,114.05C285.35,421.73,272,465.3,272,512
	s13.35,90.27,36.42,127.14L134.34,753.19z M686.36,924.82C631.17,948.16,572.51,960,512,960s-119.17-11.84-174.36-35.18
	c-23.35-9.88-45.66-21.62-66.83-35.16l114.05-174.08C421.73,738.65,465.3,752,512,752s90.27-13.35,127.14-36.42l114.05,174.08
	C732.03,903.2,709.71,914.94,686.36,924.82z M924.82,686.36c-9.88,23.35-21.62,45.66-35.16,66.83L715.58,639.14
	C738.65,602.27,752,558.7,752,512s-13.35-90.27-36.42-127.14l174.08-114.05c13.54,21.16,25.29,43.47,35.16,66.83
	C948.16,392.83,960,451.49,960,512S948.16,631.17,924.82,686.36z"/>
</svg>
