<svg width="16" height="16" viewBox="0 0 16 16" fill="none" xmlns="http://www.w3.org/2000/svg">
<g clip-path="url(#clip0)">
<path fill-rule="evenodd" clip-rule="evenodd" d="M7.99854 0C7.66149 0 7.32931 0.0208431 7.00322 0.0613108C6.97952 0.0610821 6.95552 0.0625369 6.93135 0.0657767C6.90746 0.0689782 6.88419 0.0738168 6.86165 0.0801643C5.47639 0.277243 4.20542 0.829167 3.14372 1.64095C3.1315 1.6488 3.11951 1.65723 3.1078 1.66627C3.09575 1.67556 3.08424 1.6853 3.07328 1.69544C1.20158 3.15972 -0.00146484 5.43937 -0.00146484 8C-0.00146484 8.34275 0.02009 8.68047 0.061918 9.01187C0.0623147 9.03056 0.0637609 9.04941 0.0663055 9.06838C0.0688124 9.08706 0.0723206 9.10536 0.0767688 9.12323C0.269876 10.4976 0.812185 11.7598 1.61109 12.8174C1.62488 12.8443 1.64131 12.8703 1.66043 12.8951C1.67984 12.9203 1.70117 12.9431 1.72406 12.9635C3.18938 14.8133 5.45537 16 7.99854 16C8.34127 16 8.67898 15.9784 9.01037 15.9366C9.02717 15.9361 9.04411 15.9347 9.06112 15.9324C9.07757 15.9302 9.09372 15.9272 9.10954 15.9235C10.4969 15.7307 11.7705 15.1822 12.8351 14.3729C12.8526 14.3626 12.8696 14.3511 12.8861 14.3383C12.9027 14.3255 12.9184 14.3118 12.9329 14.2974C14.7994 12.8329 15.9985 10.5565 15.9985 8C15.9985 7.65356 15.9765 7.31227 15.9338 6.97744C15.9331 6.96449 15.9318 6.95146 15.9301 6.93838C15.9284 6.92591 15.9263 6.91361 15.9237 6.90149C15.7311 5.49857 15.1747 4.21161 14.3527 3.13884C14.347 3.13035 14.3409 3.12199 14.3346 3.11376C14.3281 3.10537 14.3214 3.09723 14.3145 3.08936C12.8507 1.20931 10.5658 0 7.99854 0ZM13.2223 3.34031C11.9404 1.90418 10.0751 1 7.99854 1C7.85238 1 7.70726 1.00448 7.56333 1.01331L7.89802 3.5011C7.93144 3.50037 7.96494 3.5 7.99854 3.5C9.26914 3.5 10.4168 4.02661 11.235 4.87347L13.2223 3.34031ZM11.8461 5.66503C12.0785 6.04718 12.2556 6.4667 12.3662 6.91246L14.8541 6.57838C14.6708 5.68967 14.319 4.86251 13.8336 4.13178L11.8461 5.66503ZM2.77857 12.664C4.06039 14.0976 5.92408 15 7.99854 15C8.14332 15 8.28708 14.9956 8.42969 14.9869L8.09563 12.499C8.06335 12.4997 8.03098 12.5 7.99854 12.5C6.73001 12.5 5.58409 11.9751 4.76608 11.1307L2.77857 12.664ZM4.15398 10.3399C3.92115 9.9582 3.74358 9.5391 3.63237 9.09372L1.14431 9.42802C1.32841 10.3163 1.68083 11.1429 2.16671 11.873L4.15398 10.3399ZM0.998535 8C0.998535 5.92528 1.90114 4.06137 3.33509 2.77954L4.86829 4.7671C4.0236 5.58514 3.49854 6.73125 3.49854 8C3.49854 8.03428 3.49892 8.06846 3.49968 8.10256L1.01194 8.43682C1.00305 8.29236 0.998535 8.14671 0.998535 8ZM4.12613 2.16776L5.65916 4.15511C6.0413 3.92211 6.46089 3.74447 6.90681 3.63334L6.5721 1.14545C5.68351 1.32941 4.85657 1.6818 4.12613 2.16776ZM14.9985 8C14.9985 10.0766 14.0943 11.9421 12.658 13.224L11.1249 11.2366C11.9719 10.4183 12.4985 9.27067 12.4985 8C12.4985 7.96785 12.4982 7.93579 12.4975 7.9038L14.9855 7.56971C14.9942 7.71203 14.9985 7.8555 14.9985 8ZM11.8665 13.8352L10.3333 11.8477C9.95148 12.0799 9.53232 12.2569 9.08695 12.3675L9.421 14.8554C10.3093 14.672 11.1361 14.3203 11.8665 13.8352ZM4.49854 8C4.49854 6.067 6.06554 4.5 7.99854 4.5C9.93153 4.5 11.4985 6.067 11.4985 8C11.4985 9.933 9.93153 11.5 7.99854 11.5C6.06554 11.5 4.49854 9.933 4.49854 8Z" fill="black"/>
</g>
<defs>
<clipPath id="clip0">
<rect width="16" height="16" fill="white"/>
</clipPath>
</defs>
</svg>
