<svg width="16" height="16" viewBox="0 0 16 16" fill="none" xmlns="http://www.w3.org/2000/svg">
<g clip-path="url(#clip0)">
<path d="M14.7905 11.4914C14.5903 11.2918 14.39 11.1921 14.0897 11.2918C14.0897 11.0923 14.0897 10.8928 14.0897 10.6933C14.1898 9.89519 13.9896 9.0971 13.489 8.19925C12.8883 7.00212 12.0874 5.90475 11.4867 5.10666C11.4867 5.10666 11.4867 5.0069 11.3866 4.90714L11.2865 4.30857C11.1864 3.90953 11.1864 3.41072 11.0863 3.01168V2.71239C11.0863 2.41311 11.0863 2.11383 10.9862 1.81454C10.6858 0.717174 9.98501 0.118608 8.78364 0.0188469C8.08284 -0.0809141 7.28193 0.218369 6.78136 0.617413C6.28079 1.01646 5.98044 1.61502 5.88033 2.31335C5.88033 2.71239 5.78021 3.11144 5.78021 3.51048C5.6801 4.00929 5.6801 4.40833 5.57998 4.90714C5.57998 5.0069 5.47987 5.0069 5.47987 5.10666C4.67896 6.10427 4.07827 7.00212 3.5777 8.09949C3.17724 8.99734 2.97701 9.89519 2.97701 10.5935C2.77678 10.4938 2.57656 10.4938 2.37633 10.4938C2.27621 10.4938 1.97587 10.5114 1.78833 10.5581C1.38787 10.6579 1.27507 10.793 1.07484 10.9926C0.974727 11.2918 0.974727 11.5911 1.07484 11.7906C1.17496 12.0899 1.4753 12.3892 1.87576 12.7883C2.07598 12.888 2.1761 13.0875 2.37633 13.2871C2.37633 13.2871 2.27621 13.2871 2.27621 13.3868C2.1761 13.3868 2.07598 13.4866 1.97587 13.4866C1.57541 13.6861 1.4753 13.8856 1.4753 14.0851C1.4753 14.1849 1.4753 14.4842 1.77564 14.7835C2.1761 15.0828 2.57656 15.2823 2.97701 15.382C3.67781 15.5816 4.2785 15.7811 4.9793 15.8808C5.07941 15.8808 5.27964 15.8808 5.37976 15.8808C5.6801 15.8808 5.98044 15.8808 6.28079 15.7811C6.3809 15.9806 6.58113 15.9806 6.78136 15.9806H9.48444H9.68467C9.78479 15.9806 9.78479 15.9806 9.8849 15.9806C10.0851 15.9806 10.2854 15.9806 10.4856 15.8808C10.6858 15.8808 10.886 15.9806 10.9862 15.9806H11.0863C12.0874 16.0804 12.8883 15.7811 13.3889 15.1825C14.0897 14.4842 14.5903 13.4866 14.8906 12.3892C15.0908 11.9902 14.9907 11.6909 14.7905 11.4914ZM6.88147 2.41311C6.88147 1.91431 7.18181 1.61502 7.38204 1.4155C7.7825 1.11622 8.18296 1.01646 8.68353 1.01646C9.38433 1.11622 9.8849 1.4155 10.0851 2.01407C10.1852 2.21359 10.1852 2.41311 10.1852 2.71239C10.1852 2.81216 10.1852 2.91192 10.1852 3.01168C10.1852 3.2112 10.1852 3.41072 10.2854 3.61024C10.0851 3.41072 10.0291 3.46442 9.68008 3.36799C9.52352 3.32473 9.33047 3.27402 9.23036 3.27402C8.42489 3.18676 7.98273 3.2112 7.18181 3.41072C7.0817 3.41072 6.88147 3.51048 6.78136 3.61024C6.78136 3.2112 6.88147 2.81216 6.88147 2.41311ZM9.38433 4.30857C9.23036 4.5829 9.11625 4.65674 8.87461 4.85139C8.63297 5.04605 8.52444 4.95115 8.32421 4.85139C8.12398 4.65187 7.98273 4.50809 7.7825 4.30857C8.28307 4.20881 8.45845 4.14661 9.00886 4.21373C9.00886 4.21373 9.23036 4.254 9.38433 4.30857ZM4.47873 8.49853C4.9793 7.50092 5.57999 6.60307 6.28079 5.70522C6.3809 5.60546 6.58113 5.30618 6.58113 5.0069C6.58113 4.80737 6.58113 4.70761 6.68124 4.50809C6.68124 4.60785 6.78136 4.60785 6.78136 4.70761C7.0817 5.0069 7.38204 5.32003 7.7825 5.60546C8.06243 5.80499 8.28307 5.80499 8.58341 5.80499C8.88376 5.80499 9.08399 5.70522 9.28421 5.60546C9.78479 5.40594 10.0851 5.0069 10.3855 4.50809L10.4856 5.0069C10.4856 5.20642 10.5857 5.40594 10.7859 5.60546C11.3866 6.40355 12.0874 7.40116 12.6881 8.59829C12.7882 8.79782 12.8883 8.99734 12.9884 9.19686C12.6881 9.0971 12.588 8.99734 12.3878 8.99734C12.1875 8.99734 11.8872 8.99734 11.4867 9.19686C11.3866 8.99734 11.2865 8.69805 11.1864 8.39877C10.886 7.8002 10.3855 7.10188 9.28421 6.70283C8.4833 6.50331 7.68238 6.60307 6.98159 7.10188C6.18067 7.70044 5.6801 8.49853 5.37976 9.5959C5.35255 9.6953 5.31177 9.79542 5.27964 9.89519C5.17953 9.89519 4.99927 9.86279 4.78442 9.83545C4.68431 9.83545 4.47873 9.79542 4.37861 9.79542C4.2785 9.89519 4.22526 10.0304 4.17114 10.1323C4.11703 10.2342 4.12427 10.2612 4.07827 10.394C4.07827 10.394 3.97816 10.5935 3.97816 10.793V10.6933C3.87804 9.99495 4.07827 9.39638 4.47873 8.49853ZM7.48216 14.7835C7.58227 14.8832 7.7825 14.8832 7.88261 14.8832H7.38204C7.38204 14.8832 7.48216 14.8832 7.48216 14.7835ZM9.28421 14.983C9.1841 14.983 9.1841 14.983 9.28421 14.983V14.983ZM9.38433 10.394C9.1841 10.394 8.98387 10.5935 8.78364 10.8928C8.65942 11.1636 8.63599 11.2651 8.58341 11.5911V11.6909C8.58341 12.2894 8.58341 12.888 8.68353 13.3868V13.5863C8.68353 13.6861 8.68353 13.8856 8.78364 14.0851C8.4833 14.1849 8.18296 14.0851 7.88261 13.9854C7.88261 13.6861 7.88261 13.4866 7.88261 13.2871C7.7825 12.489 7.38204 11.9902 6.98159 11.4914C6.88147 11.3916 6.78136 11.2918 6.68124 11.1921C6.58113 10.9926 6.3809 10.8928 6.28079 10.6933C6.22974 10.6636 6.24635 10.5203 6.28079 10.394C6.32766 10.2221 6.35228 10.0683 6.45239 9.76904C6.73414 8.92678 6.88147 8.39877 7.48216 7.89997C7.98273 7.60068 8.4833 7.50092 8.98387 7.70044C9.58456 7.89997 9.98501 8.19925 10.3855 8.99734C10.4856 9.0971 10.4856 9.29662 10.5857 9.49614C10.6858 9.69566 10.6858 9.89519 10.7859 10.0947C10.6858 10.394 10.5857 10.6933 10.3855 10.9926C10.2922 10.9136 10.1774 10.8499 9.98501 10.6933C9.67505 10.4409 9.48444 10.394 9.38433 10.394ZM4.9793 14.983C4.37861 14.8832 3.77793 14.6837 3.17724 14.4842C2.97701 14.3844 2.77678 14.3844 2.57656 14.2847C2.67667 14.2847 2.77678 14.1849 2.8769 14.1849C2.97701 14.1849 3.27736 13.9854 3.37747 13.6861C3.47758 13.3868 3.27736 12.9878 3.27736 12.9878C3.07713 12.6885 2.77678 12.3892 2.47644 12.0899C2.27621 11.8904 2.07598 11.6909 1.97587 11.4914C1.97587 11.4914 1.9929 11.4565 2.09302 11.4565C2.09302 11.4565 2.1761 11.4565 2.27621 11.4565C2.57656 11.4565 2.8769 11.5911 3.17724 11.6909L3.32349 11.7651C3.37747 11.7906 3.39885 11.8021 3.60474 11.8667C3.73416 11.9073 3.78143 11.9412 3.97816 11.9902C4.37861 12.0899 4.77907 11.8904 4.9793 11.3916C4.9793 11.2918 4.9793 11.0923 4.9793 10.9926V10.8928C5.17953 10.9926 5.27964 11.0923 5.37976 11.1921C5.57999 11.3916 5.6801 11.5911 5.88033 11.7906C5.98044 11.8904 6.08056 11.9902 6.18067 12.0899C6.48101 12.489 6.78136 12.7883 6.88147 13.2871C6.88147 13.5863 6.88147 13.7859 6.78136 13.9854C6.68124 14.1849 6.48101 14.3844 6.28079 14.584C6.18067 14.6837 6.08056 14.7835 5.98044 14.8832C5.6801 14.983 5.27964 14.983 4.9793 14.983ZM12.6881 14.4842C12.2876 14.8832 11.8872 15.0828 11.1864 14.983H10.9862C10.7859 14.983 10.6858 14.983 10.5857 14.8832C10.4856 14.7835 10.3855 14.6837 10.2854 14.584C10.1852 14.584 10.1852 14.4842 10.0851 14.3844C10.0851 14.2847 9.98501 14.2847 9.8849 14.1849C9.68467 13.9854 9.68467 13.6861 9.58456 13.3868V13.1873C9.48444 12.6885 9.48444 12.1897 9.48444 11.6909V11.5911V11.4914L9.58456 11.5911L9.78479 11.7906C9.98501 11.9902 10.2258 12.0698 10.4836 12.0899C10.761 12.0464 10.9133 11.8472 11.0863 11.5911C11.2865 11.1921 11.5868 10.793 11.687 10.2942C11.7871 10.1945 11.7871 10.1945 11.8872 10.0947L11.9873 9.99495C12.0874 9.89519 12.0874 9.89519 12.0874 9.89519C12.0874 9.89519 12.0874 9.99495 12.1875 9.99495C12.2876 10.1945 12.2876 10.394 12.2876 10.5935V10.793C12.2876 11.0923 12.2876 11.3916 12.3878 11.6909C12.4879 11.9902 12.6881 12.2894 12.8883 12.3892C13.1887 12.489 13.489 12.3892 13.6892 12.1897H13.7894C13.5891 13.1873 13.1887 13.8856 12.6881 14.4842Z" fill="black"/>
</g>
<defs>
<clipPath id="clip0">
<rect width="16" height="16" fill="white"/>
</clipPath>
</defs>
</svg>
