<!-- Generated by IcoMoon.io -->
<svg version="1.1" xmlns="http://www.w3.org/2000/svg" width="27" height="32" viewBox="0 0 27 32">
<title>linux</title>
<path d="M11.84 7.328q-0.192 0.032-0.288 0.192t-0.128 0.16q-0.096 0.032-0.096-0.064 0-0.224 0.32-0.288h0.192zM13.408 7.584q-0.096 0.032-0.224-0.128t-0.32-0.064q0.448-0.192 0.576 0.032 0.064 0.096-0.032 0.16zM7.136 15.2q-0.096 0-0.128 0.064t-0.064 0.224-0.096 0.256-0.192 0.224q-0.16 0.192 0 0.224 0.064 0 0.224-0.128t0.224-0.32q0-0.064 0.032-0.128t0.032-0.128 0.032-0.064 0-0.064v-0.064t-0.032-0.032-0.032-0.064zM22.4 21.632q0-0.32-0.992-0.768 0.064-0.256 0.128-0.48t0.096-0.48 0.064-0.384 0-0.384 0-0.352-0.064-0.384-0.096-0.384-0.064-0.448-0.128-0.448q-0.16-0.864-0.832-1.856t-1.28-1.344q0.416 0.352 1.024 1.504 1.536 2.88 0.96 4.96-0.192 0.704-0.896 0.736-0.544 0.064-0.672-0.32t-0.16-1.504-0.192-1.92q-0.16-0.672-0.352-1.216t-0.352-0.8-0.288-0.448-0.224-0.256-0.128-0.128q-0.256-1.12-0.544-1.856t-0.544-0.992-0.416-0.608-0.256-0.704q-0.096-0.384 0.096-0.96t0.064-0.864-0.768-0.448q-0.288-0.064-0.8-0.32t-0.64-0.288-0.192-0.48 0.128-0.896 0.64-0.48q0.672-0.064 0.928 0.512t0.064 1.056q-0.192 0.32-0.032 0.48t0.544 0q0.224-0.064 0.224-0.64v-0.672q-0.096-0.544-0.256-0.896t-0.352-0.544-0.416-0.256-0.48-0.128q-1.92 0.128-1.6 2.368 0 0.288-0.032 0.288-0.16-0.16-0.512-0.192t-0.608 0-0.256-0.096q0-0.992-0.288-1.6t-0.8-0.608q-0.48 0-0.736 0.512t-0.32 1.056q0 0.256 0.064 0.64t0.256 0.672 0.256 0.256q0.192-0.064 0.288-0.256 0.064-0.16-0.128-0.128-0.128 0-0.256-0.256t-0.192-0.608q0-0.384 0.16-0.672t0.608-0.256q0.32 0 0.48 0.384t0.192 0.704-0.032 0.384q-0.384 0.288-0.544 0.512t-0.512 0.416-0.352 0.224q-0.224 0.256-0.288 0.512t0.128 0.32q0.256 0.128 0.448 0.32t0.288 0.352 0.352 0.224 0.608 0.128q0.864 0.032 1.824-0.256 0.032-0.032 0.416-0.128t0.608-0.192 0.544-0.224 0.384-0.32q0.16-0.256 0.352-0.16 0.064 0.064 0.096 0.16t-0.032 0.224-0.32 0.16q-0.352 0.096-0.992 0.384t-0.8 0.352q-0.8 0.352-1.28 0.416-0.448 0.096-1.408-0.032-0.16-0.032-0.16 0.032t0.32 0.32q0.448 0.416 1.184 0.416 0.32-0.032 0.64-0.128t0.64-0.256 0.608-0.32 0.544-0.288 0.416-0.224 0.32-0.032 0.16 0.192q0 0.032-0.032 0.064t-0.064 0.096-0.096 0.096-0.16 0.064-0.16 0.096-0.16 0.096-0.192 0.064q-0.48 0.256-1.184 0.8t-1.216 0.768-0.864 0q-0.384-0.192-1.12-1.312-0.384-0.544-0.448-0.384-0.032 0.064-0.032 0.192 0 0.448-0.256 0.992t-0.512 0.992-0.384 1.056 0.192 1.12q-0.416 0.096-1.12 1.6t-0.832 2.528q-0.032 0.32-0.032 1.216t-0.096 1.056q-0.128 0.448-0.512 0.064-0.576-0.544-0.64-1.696-0.032-0.48 0.064-0.992 0.064-0.32-0.032-0.32-0.032 0.032-0.064 0.096-0.64 1.152 0.192 2.944 0.096 0.224 0.448 0.512t0.416 0.352q0.352 0.416 1.856 1.632t1.664 1.344q0.288 0.288 0.32 0.704t-0.256 0.768-0.8 0.416q0.128 0.256 0.512 0.768t0.48 0.992 0.128 1.248q0.832-0.416 0.128-1.632-0.064-0.16-0.192-0.288t-0.16-0.224-0.032-0.096q0.064-0.096 0.224-0.192t0.352 0.064q0.832 0.928 2.976 0.64 2.368-0.288 3.168-1.568 0.416-0.672 0.608-0.544t0.16 0.96q0 0.416-0.416 1.632-0.16 0.416-0.096 0.672t0.448 0.256q0.032-0.32 0.256-1.376t0.224-1.6q0.032-0.384-0.096-1.312t-0.16-1.728 0.416-1.248q0.288-0.32 0.928-0.32 0-0.672 0.608-0.96t1.28-0.192 1.088 0.416zM11.168 6.848q0.064-0.288-0.032-0.544t-0.192-0.256q-0.16-0.032-0.16 0.128 0.032 0.096 0.064 0.096 0.192 0 0.128 0.288-0.032 0.352 0.16 0.352 0.032 0 0.032-0.064zM18.656 10.368q-0.032-0.128-0.096-0.192t-0.256-0.096-0.256-0.096q-0.096-0.064-0.16-0.16t-0.128-0.128-0.096-0.128-0.064-0.064-0.096 0.032q-0.224 0.288 0.128 0.768t0.704 0.576q0.16 0 0.256-0.16t0.064-0.352zM15.488 6.56q0-0.192-0.096-0.352t-0.192-0.224-0.16-0.032q-0.096 0-0.16 0.032t0 0.064 0.096 0.064q0.256 0.064 0.32 0.544 0 0.064 0.16-0.032 0.032-0.032 0.032-0.064zM16.448 2.4q0-0.032-0.032-0.096t-0.16-0.096-0.192-0.128q-0.256-0.256-0.416-0.256t-0.224 0.128 0 0.224 0 0.224q-0.032 0.096-0.128 0.192t-0.096 0.16 0.064 0.16q0.064 0.064 0.128 0t0.192-0.16 0.288-0.16q0-0.032 0.16-0.032t0.256-0.032 0.16-0.128zM26.528 26.368q0.352 0.192 0.576 0.416t0.192 0.448-0.032 0.384-0.288 0.416-0.416 0.32-0.544 0.352-0.544 0.288-0.576 0.288-0.48 0.224q-0.672 0.352-1.536 0.992t-1.344 1.152q-0.288 0.288-1.216 0.352t-1.6-0.256q-0.32-0.16-0.512-0.416t-0.288-0.48-0.416-0.352-0.832-0.16q-0.768 0-2.304 0-0.352 0-1.024 0t-1.024 0.064q-0.8 0-1.44 0.256t-0.96 0.544-0.768 0.512-0.96 0.192q-0.512 0-1.984-0.544t-2.592-0.768q-0.352-0.064-0.928-0.16t-0.896-0.16-0.704-0.192-0.576-0.256-0.32-0.352q-0.16-0.384 0.128-1.184t0.32-0.96q0.032-0.288-0.064-0.736t-0.192-0.736-0.064-0.672 0.192-0.48q0.224-0.192 0.992-0.256t1.088-0.192q0.544-0.32 0.736-0.64t0.224-0.896q0.384 1.312-0.576 1.888-0.576 0.352-1.472 0.256-0.608-0.032-0.768 0.192-0.224 0.256 0.096 1.024 0.032 0.096 0.128 0.32t0.16 0.32 0.064 0.288 0.032 0.416q0 0.256-0.288 0.864t-0.256 0.864q0.032 0.288 0.64 0.448 0.384 0.128 1.504 0.352t1.792 0.352q0.416 0.096 1.312 0.384t1.472 0.416 0.992 0.064q0.768-0.096 1.152-0.48t0.416-0.864-0.128-1.056-0.352-0.928-0.352-0.64q-2.144-3.392-3.008-4.32-1.216-1.344-2.016-0.736-0.192 0.16-0.288-0.256-0.032-0.288-0.032-0.672 0.032-0.512 0.192-0.928t0.416-0.832 0.416-0.768q0.128-0.384 0.448-1.28t0.544-1.376 0.544-1.12 0.672-0.96q1.984-2.528 2.24-3.456-0.224-2.016-0.288-5.536-0.032-1.632 0.416-2.72t1.888-1.856q0.704-0.384 1.856-0.384 0.96-0.032 1.888 0.224t1.6 0.768q1.024 0.736 1.632 2.144t0.544 2.656q-0.096 1.696 0.512 3.808 0.608 2.016 2.4 3.904 0.96 1.056 1.76 2.912t1.056 3.392q0.16 0.896 0.096 1.536t-0.224 0.96-0.352 0.416q-0.16 0.032-0.416 0.32t-0.48 0.64-0.736 0.608-1.088 0.256q-0.32-0.032-0.544-0.096t-0.416-0.256-0.224-0.256-0.224-0.384-0.16-0.352q-0.384-0.64-0.736-0.512t-0.48 0.864 0.128 1.728q0.352 1.248 0 3.488-0.16 1.152 0.32 1.792t1.312 0.608 1.504-0.64q1.056-0.896 1.6-1.184t1.856-0.768q0.96-0.32 1.376-0.64t0.32-0.64-0.448-0.512-0.896-0.416q-0.608-0.192-0.896-0.864t-0.256-1.28 0.256-0.864q0.032 0.576 0.16 1.024t0.256 0.736 0.352 0.48 0.384 0.352 0.384 0.224 0.288 0.192z"></path>
</svg>
