<?xml version="1.0" encoding="utf-8"?>
<!-- Generator: Adobe Illustrator 17.0.1, SVG Export Plug-In . SVG Version: 6.00 Build 0)  -->
<!DOCTYPE svg PUBLIC "-//W3C//DTD SVG 1.1//EN" "http://www.w3.org/Graphics/SVG/1.1/DTD/svg11.dtd">
<svg version="1.1" id="Layer_1" xmlns="http://www.w3.org/2000/svg" xmlns:xlink="http://www.w3.org/1999/xlink" x="0px" y="0px"
	 width="1024px" height="1024px" viewBox="0 0 1024 1024" enable-background="new 0 0 1024 1024" xml:space="preserve">
<path d="M815,448V320c0-43.17-8.47-85.09-25.17-124.58c-16.12-38.11-39.18-72.33-68.55-101.7c-29.37-29.37-63.58-52.43-101.7-68.55
	C580.09,8.47,538.17,0,495,0s-85.09,8.47-124.58,25.17c-38.11,16.12-72.33,39.19-101.7,68.55c-29.37,29.37-52.43,63.58-68.55,101.7
	C183.47,234.91,175,276.83,175,320v128H47v512h896V448H815z M303,320c0-105.87,86.13-192,192-192s192,86.13,192,192v128H303V320z
	 M495,832c-70.69,0-128-57.31-128-128s57.31-128,128-128s128,57.31,128,128S565.69,832,495,832z"/>
</svg>
