<?xml version="1.0" encoding="utf-8"?>
<!-- Generator: Adobe Illustrator 17.0.1, SVG Export Plug-In . SVG Version: 6.00 Build 0)  -->
<!DOCTYPE svg PUBLIC "-//W3C//DTD SVG 1.1//EN" "http://www.w3.org/Graphics/SVG/1.1/DTD/svg11.dtd">
<svg version="1.1" id="Layer_1" xmlns="http://www.w3.org/2000/svg" xmlns:xlink="http://www.w3.org/1999/xlink" x="0px" y="0px"
	 width="1024px" height="1024px" viewBox="0 0 1024 1024" enable-background="new 0 0 1024 1024" xml:space="preserve">
<path d="M320,512V320c0-105.87,86.13-192,192-192s192,86.13,192,192h128c0-43.17-8.47-85.09-25.17-124.58
	c-16.12-38.11-39.18-72.33-68.55-101.7c-29.37-29.37-63.58-52.43-101.7-68.55C597.09,8.47,555.17,0,512,0s-85.09,8.47-124.58,25.17
	c-38.11,16.12-72.33,39.19-101.7,68.55c-29.37,29.37-52.43,63.58-68.55,101.7C200.47,234.91,192,276.83,192,320v192H64v512h896V512
	H320z M512,896c-70.69,0-128-57.31-128-128s57.31-128,128-128s128,57.31,128,128S582.69,896,512,896z"/>
</svg>
