<!-- Generated by IcoMoon.io -->
<svg version="1.1" xmlns="http://www.w3.org/2000/svg" width="32" height="32" viewBox="0 0 32 32">
<title>lock-unlocked</title>
<path d="M10 16v-6c0-3.308 2.692-6 6-6s6 2.692 6 6h4c0-1.349-0.265-2.659-0.787-3.893-0.504-1.191-1.224-2.26-2.142-3.178s-1.987-1.638-3.178-2.142c-1.234-0.522-2.544-0.787-3.893-0.787s-2.659 0.265-3.893 0.787c-1.191 0.504-2.26 1.225-3.178 2.142s-1.638 1.987-2.142 3.178c-0.522 1.234-0.787 2.544-0.787 3.893v6h-4v16h28v-16h-20zM16 28c-2.209 0-4-1.791-4-4s1.791-4 4-4 4 1.791 4 4-1.791 4-4 4z"></path>
</svg>
