<!-- Generated by IcoMoon.io -->
<svg version="1.1" xmlns="http://www.w3.org/2000/svg" width="32" height="32" viewBox="0 0 32 32">
<title>loop</title>
<path d="M27.127 26c-0.446 0.584-0.933 1.141-1.459 1.667-0.893 0.893-1.873 1.672-2.929 2.333h9.262v-4h-4.873z"></path>
<path d="M28 16c0-7.732-6.268-14-14-14s-14 6.268-14 14c0 2.975 0.928 5.732 2.51 8h5.488c-0.375-0.282-0.732-0.592-1.069-0.929-0.92-0.92-1.641-1.989-2.145-3.18-0.52-1.23-0.784-2.539-0.784-3.891s0.264-2.661 0.784-3.891c0.503-1.19 1.225-2.26 2.145-3.18s1.99-1.641 3.18-2.145c1.23-0.521 2.539-0.784 3.891-0.784s2.661 0.264 3.891 0.784c1.19 0.503 2.26 1.225 3.18 2.145s1.641 1.989 2.145 3.18c0.52 1.231 0.784 2.54 0.784 3.892s-0.264 2.661-0.784 3.891c-0.503 1.19-1.225 2.26-2.145 3.18s-1.99 1.641-3.18 2.145c-1.23 0.521-2.539 0.784-3.891 0.784h-14v4h14c7.732 0 14-6.268 14-14z"></path>
</svg>
