<?xml version="1.0" encoding="utf-8"?>
<!-- Generator: Adobe Illustrator 18.1.1, SVG Export Plug-In . SVG Version: 6.00 Build 0)  -->
<svg version="1.1" id="Layer_1" xmlns="http://www.w3.org/2000/svg" xmlns:xlink="http://www.w3.org/1999/xlink" x="0px" y="0px"
	 viewBox="0 0 1024 1024" enable-background="new 0 0 1024 1024" xml:space="preserve">
<g>
	<path d="M868.06,832c-14.28,18.7-29.86,36.51-46.7,53.35c-28.57,28.57-59.93,53.52-93.73,74.65H1024V832H868.06z"/>
	<path d="M896,512c0-247.42-200.58-448-448-448S0,264.58,0,512c0,95.19,29.69,183.43,80.31,256h175.62
		c-12.01-9.04-23.43-18.95-34.21-29.73c-29.43-29.43-52.52-63.66-68.63-101.75C136.44,597.15,128,555.26,128,512
		s8.44-85.15,25.09-124.52c16.11-38.09,39.2-72.33,68.63-101.75c29.43-29.43,63.67-52.52,101.76-68.63
		C362.85,200.44,404.74,192,448,192s85.15,8.44,124.52,25.09c38.09,16.11,72.33,39.2,101.76,68.63
		c29.43,29.43,52.52,63.66,68.63,101.75C759.56,426.85,768,468.74,768,512s-8.44,85.15-25.09,124.52
		c-16.11,38.09-39.2,72.33-68.63,101.75c-29.43,29.43-63.67,52.52-101.76,68.63C533.15,823.56,491.26,832,448,832H0v128h448
		C695.42,960,896,759.42,896,512z"/>
</g>
</svg>
