<svg width="32" height="32" viewBox="0 0 32 32" fill="none" xmlns="http://www.w3.org/2000/svg">
<path fill-rule="evenodd" clip-rule="evenodd" d="M7.128 23.4585C5.17841 21.1849 4.00055 18.2301 4.00055 15.0002C4.00055 7.82039 9.82073 2 17.0003 2C24.1798 2 30 7.82039 30 15.0002C30 22.18 24.1798 28.0004 17.0003 28.0004C13.7704 28.0004 10.8157 26.8225 8.54218 24.8727L3.707 29.7072C3.31645 30.0977 2.6833 30.0976 2.29282 29.707C1.90234 29.3165 1.9024 28.6833 2.29296 28.2928L7.128 23.4585ZM6.00051 15.0002C6.00051 21.0754 10.9253 26.0004 17.0003 26.0004C23.0753 26.0004 28 21.0754 28 15.0002C28 8.92498 23.0753 4.00003 17.0003 4.00003C10.9253 4.00003 6.00051 8.92498 6.00051 15.0002Z" fill="black"/>
<path d="M21.7532 10C22.8358 10 23.7134 10.8176 23.7134 11.8261C23.7134 12.8346 22.8358 13.6522 21.7532 13.6522C20.6707 13.6522 19.7931 12.8346 19.7931 11.8261C19.7931 10.8176 20.6707 10 21.7532 10ZM12.2326 10C13.3152 10 14.1927 10.8176 14.1927 11.8261C14.1927 12.8346 13.3152 13.6522 12.2326 13.6522C11.15 13.6522 10.2725 12.8346 10.2725 11.8261C10.2725 10.8176 11.15 10 12.2326 10ZM23.2408 17.3043C23.5108 17.319 23.7572 17.461 23.9059 17.712C24.0477 17.9644 24.0285 18.2855 23.8534 18.519C22.3518 20.6116 19.8361 22 16.9929 22C14.1497 22 11.6341 20.6116 10.1325 18.519C9.88733 18.1776 9.99343 17.6631 10.36 17.4348C10.7265 17.2064 11.2874 17.3053 11.5325 17.6467C12.7454 19.3369 14.7336 20.4348 16.9929 20.4348C19.2522 20.4348 21.2405 19.3369 22.4533 17.6467C22.6807 17.3982 22.9709 17.2897 23.2408 17.3043Z" fill="black"/>
</svg>
