<!-- Generated by IcoMoon.io -->
<svg version="1.1" xmlns="http://www.w3.org/2000/svg" width="32" height="32" viewBox="0 0 32 32">
<title>magnifier-plus</title>
<path d="M13 2c6.075 0 11 4.925 11 11 0 2.271-0.688 4.381-1.867 6.133l7.867 7.867-3 3-7.867-7.867c-1.752 1.179-3.862 1.867-6.133 1.867-6.075 0-11-4.925-11-11s4.925-11 11-11zM8.050 17.95c1.322 1.322 3.080 2.050 4.95 2.050s3.628-0.728 4.95-2.050c1.322-1.322 2.050-3.080 2.050-4.95s-0.728-3.627-2.050-4.95c-1.322-1.322-3.080-2.050-4.95-2.050s-3.627 0.728-4.95 2.050c-1.322 1.322-2.050 3.080-2.050 4.95s0.728 3.628 2.050 4.95z"></path>
<path d="M11.667 8.5h2.667v3.167h3.167v2.667h-3.167v3.167h-2.667v-3.167h-3.167v-2.667h3.167z"></path>
</svg>
