<?xml version="1.0" encoding="utf-8"?>
<!-- Generator: Adobe Illustrator 18.1.1, SVG Export Plug-In . SVG Version: 6.00 Build 0)  -->
<svg version="1.1" id="Layer_1" xmlns="http://www.w3.org/2000/svg" xmlns:xlink="http://www.w3.org/1999/xlink" x="0px" y="0px"
	 viewBox="0 0 1024 1024" enable-background="new 0 0 1024 1024" xml:space="preserve">
<g>
	<path d="M416,64c194.4,0,352,157.6,352,352c0,72.66-22.02,140.18-59.75,196.25L960,864l-96,96L612.25,708.25
		C556.18,745.98,488.66,768,416,768C221.6,768,64,610.4,64,416C64,221.6,221.6,64,416,64z M257.61,574.39
		C299.92,616.7,356.17,640,416,640s116.08-23.3,158.39-65.61C616.7,532.08,640,475.83,640,416c0-59.83-23.3-116.08-65.61-158.39
		C532.08,215.3,475.83,192,416,192s-116.08,23.3-158.39,65.61C215.3,299.92,192,356.17,192,416S215.3,532.08,257.61,574.39z"/>
	<polygon points="373.33,272 458.67,272 458.67,373.33 560,373.33 560,458.67 458.67,458.67 458.67,560 373.33,560 373.33,458.67 
		272,458.67 272,373.33 373.33,373.33 	"/>
</g>
</svg>
