<!-- Generated by IcoMoon.io -->
<svg version="1.1" xmlns="http://www.w3.org/2000/svg" width="32" height="32" viewBox="0 0 32 32">
<title>market</title>
<path d="M28 2h-24l-4 5v1l0.001 0c0.019 1.375 0.831 2.558 1.999 3.113v18.887h28v-18.887c1.168-0.555 1.98-1.738 1.999-3.113h0.001v-1l-4-5zM4 20v-8.586c1.598-0.228 2.847-1.536 2.987-3.161l1.014-0.253c0.027 1.91 1.583 3.449 3.499 3.449 1.786 0 3.259-1.337 3.473-3.065l1.027-0.385 1.027 0.385c0.214 1.728 1.688 3.065 3.473 3.065 1.916 0 3.472-1.54 3.499-3.449l0.001-0 1.013 0.253c0.14 1.625 1.389 2.933 2.987 3.161v8.586h-24z"></path>
</svg>
