<?xml version="1.0" encoding="utf-8"?>
<!-- Generator: Adobe Illustrator 17.0.1, SVG Export Plug-In . SVG Version: 6.00 Build 0)  -->
<!DOCTYPE svg PUBLIC "-//W3C//DTD SVG 1.1//EN" "http://www.w3.org/Graphics/SVG/1.1/DTD/svg11.dtd">
<svg version="1.1" id="Layer_1" xmlns="http://www.w3.org/2000/svg" xmlns:xlink="http://www.w3.org/1999/xlink" x="0px" y="0px"
	 width="1024px" height="1024px" viewBox="0 0 1024 1024" enable-background="new 0 0 1024 1024" xml:space="preserve">
<path d="M832,0H192l-64,64v896l64,64h640l64-64V64L832,0z M256,128h512v384H256V128z M288,832c-35.35,0-64-28.65-64-64
	c0-35.35,28.65-64,64-64s64,28.65,64,64C352,803.35,323.35,832,288,832z M512,864c-53.02,0-96-42.98-96-96s42.98-96,96-96
	s96,42.98,96,96S565.02,864,512,864z M736,832c-35.35,0-64-28.65-64-64c0-35.35,28.65-64,64-64s64,28.65,64,64
	C800,803.35,771.35,832,736,832z"/>
</svg>
