<!-- Generated by IcoMoon.io -->
<svg version="1.1" xmlns="http://www.w3.org/2000/svg" width="32" height="32" viewBox="0 0 32 32">
<title>merge</title>
<path d="M27 6c-2.419 0-4.437 1.718-4.9 4h-0.1c0 0-0 0-0 0h-12.1c-0.463-2.282-2.481-4-4.9-4-2.762 0-5 2.238-5 5s2.238 5 5 5c2.419 0 4.437-1.718 4.9-4h8.245c-0.077 0.103-0.152 0.209-0.227 0.32-0.824 1.237-1.354 2.826-1.867 4.363-1.103 3.308-1.926 5.316-4.052 5.316h-2.1c-0.463-2.282-2.481-4-4.9-4-2.762 0-5 2.238-5 5s2.238 5 5 5c2.419 0 4.437-1.718 4.9-4h2.1c0.899 0 1.717-0.224 2.432-0.665 0.625-0.386 1.165-0.928 1.65-1.656 0.824-1.237 1.354-2.826 1.867-4.363 1.102-3.308 1.925-5.316 4.051-5.316h0.101c0.463 2.282 2.481 4 4.9 4 2.762 0 5-2.238 5-5s-2.239-5-5-5zM5 14.25c-1.792 0-3.25-1.458-3.25-3.25s1.458-3.25 3.25-3.25 3.25 1.458 3.25 3.25-1.458 3.25-3.25 3.25zM5 26.25c-1.792 0-3.25-1.458-3.25-3.25s1.458-3.25 3.25-3.25 3.25 1.458 3.25 3.25-1.458 3.25-3.25 3.25z"></path>
</svg>
