<!-- Generated by IcoMoon.io -->
<svg version="1.1" xmlns="http://www.w3.org/2000/svg" width="32" height="32" viewBox="0 0 32 32">
<title>microphone</title>
<path d="M25 10v4c0 4.971-4.029 9-9 9s-9-4.029-9-9v-3.5h-3v3.5c0 1.619 0.317 3.191 0.944 4.672 0.604 1.429 1.469 2.712 2.571 3.814s2.385 1.966 3.814 2.571c0.863 0.365 1.756 0.625 2.672 0.778v6.166h4v-6.166c0.916-0.153 1.809-0.413 2.672-0.778 1.429-0.604 2.712-1.469 3.814-2.571s1.966-2.385 2.571-3.814c0.626-1.481 0.944-3.053 0.944-4.672v-4h-3z"></path>
<path d="M16 20c3.314 0 6-2.686 6-6v-8c0-3.314-2.686-6-6-6s-6 2.686-6 6v8c0 3.314 2.686 6 6 6z"></path>
</svg>
