<svg width="16" height="16" viewBox="0 0 16 16" fill="none" xmlns="http://www.w3.org/2000/svg">
<path d="M4.5 7.99609C4.22386 7.99609 4 8.21995 4 8.49609C4 8.77224 4.22386 8.99609 4.5 8.99609H11.5C11.7761 8.99609 12 8.77224 12 8.49609C12 8.21995 11.7761 7.99609 11.5 7.99609H4.5Z" fill="black"/>
<path fill-rule="evenodd" clip-rule="evenodd" d="M1 3C1 1.89543 1.89543 1 3 1L13 1C14.1046 1 15 1.89543 15 3V13C15 14.1046 14.1046 15 13 15H3C1.89543 15 1 14.1046 1 13L1 3ZM3 2L13 2C13.5523 2 14 2.44772 14 3V13C14 13.5523 13.5523 14 13 14H3C2.44772 14 2 13.5523 2 13L2 3C2 2.44772 2.44771 2 3 2Z" fill="black"/>
</svg>
