<svg width="16" height="16" viewBox="0 0 16 16" fill="none" xmlns="http://www.w3.org/2000/svg">
<g clip-path="url(#clip0)">
<path d="M4.50488 8.00293C4.22874 8.00293 4.00488 8.22679 4.00488 8.50293C4.00488 8.77907 4.22874 9.00293 4.50488 9.00293H11.5049C11.781 9.00293 12.0049 8.77907 12.0049 8.50293C12.0049 8.22679 11.781 8.00293 11.5049 8.00293H4.50488Z" fill="black"/>
<path fill-rule="evenodd" clip-rule="evenodd" d="M0 8C1.93129e-07 3.58172 3.58172 -1.93129e-07 8 0C12.4183 1.93129e-07 16 3.58172 16 8C16 12.4183 12.4183 16 8 16C3.58172 16 7.60545e-07 12.4183 0 8ZM8 15C4.13401 15 1 11.866 1 8C1 4.13401 4.13401 1 8 1C11.866 1 15 4.13401 15 8C15 11.866 11.866 15 8 15Z" fill="black"/>
</g>
<defs>
<clipPath id="clip0">
<rect width="16" height="16" fill="white" transform="translate(16) rotate(90)"/>
</clipPath>
</defs>
</svg>
