<!-- Generated by IcoMoon.io -->
<svg version="1.1" xmlns="http://www.w3.org/2000/svg" width="14" height="32" viewBox="0 0 14 32">
<title>mobile</title>
<path d="M8.288 25.152q0-0.608-0.416-1.024t-1.024-0.416-0.992 0.416-0.416 1.024 0.416 0.992 0.992 0.416 1.024-0.416 0.416-0.992zM12 22.272v-12.544q0-0.256-0.16-0.416t-0.416-0.16h-9.152q-0.224 0-0.384 0.16t-0.16 0.416v12.544q0 0.256 0.16 0.416t0.384 0.16h9.152q0.224 0 0.416-0.16t0.16-0.416zM8.576 7.136q0-0.288-0.288-0.288h-2.848q-0.288 0-0.288 0.288t0.288 0.288h2.848q0.288 0 0.288-0.288zM13.728 6.848v18.304q0 0.928-0.704 1.6t-1.6 0.672h-9.152q-0.928 0-1.6-0.672t-0.672-1.6v-18.304q0-0.928 0.672-1.6t1.6-0.672h9.152q0.928 0 1.6 0.672t0.704 1.6z"></path>
</svg>
