<svg width="16" height="16" viewBox="0 0 16 16" fill="none" xmlns="http://www.w3.org/2000/svg">
<path fill-rule="evenodd" clip-rule="evenodd" d="M1.5 1C1.22386 1 1 1.22395 1 1.50021L1 12.5048C1 12.7811 1.22386 13.005 1.5 13.005H14.5C14.7761 13.005 15 12.7811 15 12.5048L15 1.50021C15 1.22395 14.7761 1 14.5 1L1.5 1ZM2 12.0046L2 2.00042H14V12.0046H2Z" fill="black"/>
<path d="M3.00293 14.999V13.9986L1.00018 13.9992L1.00018 14.4994C1.00018 14.632 1.06723 14.7593 1.18657 14.8531C1.30591 14.9469 1.46777 14.9996 1.63654 14.9996L3.00293 14.999Z" fill="black"/>
<path d="M12.9902 13.9986V14.999L14.3566 14.9996C14.5254 14.9996 14.6873 14.9469 14.8066 14.8531C14.9259 14.7593 14.993 14.632 14.993 14.4994V13.9992L12.9902 13.9986Z" fill="black"/>
<path d="M5.99805 13.9996H3.99805V15H5.99805V13.9996Z" fill="black"/>
<path d="M7 13.9996H9V15H7V13.9996Z" fill="black"/>
<path d="M11.9951 13.9996H9.99512V15H11.9951V13.9996Z" fill="black"/>
</svg>
