<?xml version="1.0" encoding="utf-8"?>
<!-- Generator: Adobe Illustrator 17.0.1, SVG Export Plug-In . SVG Version: 6.00 Build 0)  -->
<!DOCTYPE svg PUBLIC "-//W3C//DTD SVG 1.1//EN" "http://www.w3.org/Graphics/SVG/1.1/DTD/svg11.dtd">
<svg version="1.1" id="Layer_1" xmlns="http://www.w3.org/2000/svg" xmlns:xlink="http://www.w3.org/1999/xlink" x="0px" y="0px"
	 width="1024px" height="1024px" viewBox="0 0 1024 1024" enable-background="new 0 0 1024 1024" xml:space="preserve">
<g>
	<circle cx="512" cy="767.97" r="72"/>
	<path d="M692.24,356.12l0-0.96l0-0.96l0-0.48l-0.02-0.85l-0.1-3.48l-0.07-1.61l-0.08-1.48c-0.06-0.99-0.1-1.97-0.19-2.96
		c-0.15-1.97-0.31-3.94-0.53-5.91c-0.41-3.94-0.97-7.86-1.65-11.76c-2.72-15.62-7.68-30.82-14.47-45.03
		c-6.84-14.19-15.55-27.39-25.8-39.06c-10.2-11.72-21.99-21.84-34.61-30.24c-12.68-8.33-26.22-14.93-40.03-19.58
		c-13.81-4.65-27.8-7.52-41.41-8.7c-6.8-0.61-13.5-0.83-20.05-0.72l-1.23,0.02l-0.31,0.01c0.13,0-2.28,0.02-1.36,0.02l-0.42,0.02
		l-1.69,0.08c-1.12,0.05-2.24,0.11-3.36,0.16c-1.69,0.11-3.36,0.22-5.04,0.33l-2.6,0.19c-0.84,0.07-1.79,0.13-2.51,0.22
		c-12.16,1.19-24,3.53-35.27,6.71c-11.25,3.25-21.94,7.34-31.77,12.24c-19.73,9.72-36.05,22.22-48.64,35
		c-6.32,6.39-11.72,12.86-16.34,19.12c-4.58,6.3-8.34,12.39-11.51,18c-1.53,2.85-3.01,5.51-4.21,8.13c-0.61,1.3-1.21,2.56-1.78,3.78
		c-0.53,1.24-1.05,2.43-1.55,3.59c-1.01,2.29-1.83,4.47-2.58,6.46c-0.77,1.98-1.38,3.81-1.92,5.46c-1.11,3.27-1.83,5.83-2.29,7.56
		c-0.47,1.72-0.71,2.61-0.71,2.61l95.7,31.9c0,0,0.19-0.32,0.55-0.94c0.36-0.62,0.84-1.55,1.59-2.71c0.18-0.29,0.36-0.6,0.56-0.93
		c0.21-0.32,0.44-0.66,0.67-1.01c0.46-0.71,0.93-1.49,1.53-2.29c0.28-0.41,0.58-0.83,0.88-1.27c0.33-0.42,0.66-0.86,1.01-1.31
		c0.66-0.92,1.46-1.84,2.23-2.84c1.65-1.95,3.55-4.04,5.76-6.18c2.22-2.13,4.74-4.3,7.57-6.43c5.67-4.25,12.67-8.26,20.97-11.31
		c4.15-1.51,8.64-2.78,13.44-3.67c4.79-0.95,9.92-1.49,15.33-1.7c0.38-0.03,0.53,0,0.8,0l0.72,0.01c0.54-0.01,1.08-0.02,1.63-0.02
		c1.12,0.01,2.24,0.02,3.36,0.03l1.69,0.02l0.42,0c1.06-0.01-1.2,0.01-0.93,0.02l0.12,0.01l0.47,0.04c2.49,0.19,4.94,0.51,7.34,0.96
		c4.79,0.9,9.35,2.29,13.64,4.14c2.13,0.96,4.21,2,6.23,3.14c2,1.17,3.93,2.45,5.78,3.84c3.73,2.74,7.09,5.99,10.1,9.54
		c5.97,7.17,10.3,15.81,12.15,24.95c0.23,1.14,0.45,2.29,0.6,3.45c0.09,0.58,0.15,1.16,0.22,1.74l0.15,1.62
		c0.01,0.12,0.02,0.24,0.05,0.36c0.01,0.04,0.01,0.04,0.02,0.11l0.01,0.48l0.02,0.96l0.02,0.96l0.01,0.24c0-0.1,0,0,0,0.1l0,0.87
		c0.05,1.64-0.02,3.19-0.04,4.75c-0.13,3.06-0.37,5.99-0.74,8.77c-0.41,2.76-0.92,5.39-1.57,7.94c-1.29,5.1-3.2,9.9-5.89,15.1
		c-2.62,5.2-6.24,10.81-10.72,16.9c-4.46,6.08-9.86,12.66-15.68,19.67c-2.91,3.48-5.93,7.17-8.98,10.92
		c-3.05,3.75-6.16,7.62-9.25,11.62c-3.09,3.98-6.17,8.07-9.18,12.28c-3.01,4.18-5.94,8.49-8.76,12.85
		c-5.64,8.73-10.71,17.78-15.08,26.82c-4.38,9.03-8.06,18.02-11.04,26.68c-2.97,8.67-5.23,17.02-7,24.84
		c-3.58,15.66-5.03,29.21-5.8,40.16c-0.18,2.74-0.29,5.31-0.42,7.74c-0.12,2.42-0.12,4.67-0.18,6.77c-0.02,1.07-0.05,2.02-0.05,3.07
		c0,1.04,0,2.03,0.01,2.98c0.01,1.9,0.02,3.62,0.03,5.16c0.18,4.84,0.28,7.42,0.28,7.42l106.24,1.28c0,0,0.16-2.55,0.46-7.32
		c0.1-0.86,0.2-1.82,0.32-2.87c0.06-0.53,0.11-1.08,0.17-1.65c0.05-0.56,0.16-1.28,0.24-1.96c0.17-1.38,0.36-2.86,0.56-4.43
		c0.23-1.55,0.47-3.2,0.73-4.94c0.58-3.43,1.24-7.2,2.18-11.13c0.87-3.97,1.97-8.12,3.32-12.39c1.35-4.28,2.97-8.68,4.9-13.14
		c1.92-4.47,4.18-9.01,6.86-13.65c1.32-2.33,2.81-4.67,4.36-7.06c1.61-2.39,3.27-4.81,5.12-7.32c1.83-2.51,3.79-5.07,5.95-7.72
		c2.13-2.65,4.43-5.38,6.91-8.23c2.46-2.84,5.11-5.8,7.95-8.92c2.96-3.24,5.96-6.53,8.98-9.84c6.31-6.98,13.3-14.69,20.66-23.79
		c7.32-9.07,15.01-19.49,21.99-31.61c6.92-12.09,13.08-25.77,17.36-40.09c2.16-7.15,3.89-14.42,5.21-21.68
		c1.29-7.26,2.16-14.47,2.7-21.6c0.23-3.54,0.45-7.1,0.51-10.58l0.07-2.63l0.02-0.66L692.24,356.12z"/>
</g>
</svg>
