<svg width="16" height="16" viewBox="0 0 16 16" fill="none" xmlns="http://www.w3.org/2000/svg">
<path d="M13.0008 2H14.9996L15 1.63086C15 1.46355 14.9472 1.30308 14.8531 1.18477C14.7591 1.06647 14.6316 1 14.4986 1L13.0012 1L13.0008 2Z" fill="black"/>
<path d="M14.9941 14.4961C14.9941 14.7722 14.7704 14.9961 14.4944 14.9961H1.49979C1.22376 14.9961 1 14.7722 1 14.4961C1 14.22 1.22376 13.9961 1.49979 13.9961H14.4944C14.7704 13.9961 14.9941 14.22 14.9941 14.4961Z" fill="black"/>
<path d="M1.00039 11.9961H2.99916L2.99878 12.9961H1.50138C1.3684 12.9961 1.24088 12.9296 1.14685 12.8113C1.05282 12.693 1 12.5326 1 12.3652L1.00039 11.9961Z" fill="black"/>
<path d="M3.00502 1.99707H1.00624L1.00586 1.62793C1.00586 1.46062 1.05868 1.30015 1.15271 1.18184C1.24673 1.06354 1.37426 0.997071 1.50724 0.997071L3.00463 0.997071L3.00502 1.99707Z" fill="black"/>
<path d="M14.9938 11.9961L12.995 11.9961L12.9954 12.9961H14.4928C14.6257 12.9961 14.7533 12.9296 14.8473 12.8113C14.9413 12.693 14.9941 12.5326 14.9941 12.3652L14.9938 11.9961Z" fill="black"/>
<path d="M15 3L15 5H14.0004V3H15Z" fill="black"/>
<path d="M2.00544 5.00391L2.00544 3.00391L1.00586 3.00391L1.00586 5.00391H2.00544Z" fill="black"/>
<path d="M15 5.99609V7.99609H14.0004V5.99609H15Z" fill="black"/>
<path d="M15 11.004V9.00403H14.0004V11.004L15 11.004Z" fill="black"/>
<path d="M2.00544 5.99609L2.00544 7.99609H1.00586L1.00586 5.99609H2.00544Z" fill="black"/>
<path d="M2.00544 10.9766L2.00544 8.97656H1.00586L1.00586 10.9766H2.00544Z" fill="black"/>
<path d="M12.0013 2L10.0021 2V1L12.0013 1V2Z" fill="black"/>
<path d="M10.0021 12.9961H12.0013V11.9961H10.0021V12.9961Z" fill="black"/>
<path d="M9.00251 2L7.00335 2V1L9.00251 1V2Z" fill="black"/>
<path d="M7.00335 12.9961H9.00251V11.9961H7.00335V12.9961Z" fill="black"/>
<path d="M6.00376 2L4.0046 2V1L6.00376 1V2Z" fill="black"/>
<path d="M4.0046 12.9961H6.00377V11.9961H4.0046V12.9961Z" fill="black"/>
</svg>
