<?xml version="1.0" encoding="utf-8"?>
<!-- Generator: Adobe Illustrator 17.0.1, SVG Export Plug-In . SVG Version: 6.00 Build 0)  -->
<!DOCTYPE svg PUBLIC "-//W3C//DTD SVG 1.1//EN" "http://www.w3.org/Graphics/SVG/1.1/DTD/svg11.dtd">
<svg version="1.1" id="Layer_1" xmlns="http://www.w3.org/2000/svg" xmlns:xlink="http://www.w3.org/1999/xlink" x="0px" y="0px"
	 width="1024px" height="1024px" viewBox="0 0 1024 1024" enable-background="new 0 0 1024 1024" xml:space="preserve">
<g>
	<path d="M1024,192H768H256H0l0,256h0v128h0l0,256h256h512h256h0L1024,192L1024,192z M240,768l-16-64l-96-96l-64-16V432l64-16l96-96
		l16-64h544l16,64l96,96l64,16v160l-64,16l-96,96l-16,64H240z"/>
	<path d="M512,320c-106.04,0-192,85.96-192,192s85.96,192,192,192c106.04,0,192-85.96,192-192S618.04,320,512,320z M560,640h-64V472
		l-16,24l-48-32l64-80h64V640z"/>
</g>
</svg>
