<?xml version="1.0" encoding="utf-8"?>
<!-- Generator: Adobe Illustrator 17.1.0, SVG Export Plug-In . SVG Version: 6.00 Build 0)  -->
<!DOCTYPE svg PUBLIC "-//W3C//DTD SVG 1.1//EN" "http://www.w3.org/Graphics/SVG/1.1/DTD/svg11.dtd">
<svg version="1.1" id="Layer_1" xmlns="http://www.w3.org/2000/svg" xmlns:xlink="http://www.w3.org/1999/xlink" x="0px" y="0px"
	 width="1024px" height="1024px" viewBox="0 0 1024 1024" enable-background="new 0 0 1024 1024" xml:space="preserve">
<path d="M816,128l-22.63,9.37l-144,144l-3.41,41.23l67.16,94.03l-80.58,120.86l7.37-103.21l-9.29-24.91l-79.07-79.07l84.53-154.98
	L608,128H0v704h448v64H192v64h640v-64H576v-64h448V128H816z M960,768H576H448H64V192h490.09l-70.19,128.68l5.47,37.95l85.67,85.67
	l-14.96,209.42l58.54,20.03l160-240l-0.59-36.35l-64.24-89.94L829.25,192H960V768z"/>
</svg>
