<?xml version="1.0" encoding="utf-8"?>
<!-- Generator: Adobe Illustrator 17.0.1, SVG Export Plug-In . SVG Version: 6.00 Build 0)  -->
<!DOCTYPE svg PUBLIC "-//W3C//DTD SVG 1.1//EN" "http://www.w3.org/Graphics/SVG/1.1/DTD/svg11.dtd">
<svg version="1.1" id="Layer_1" xmlns="http://www.w3.org/2000/svg" xmlns:xlink="http://www.w3.org/1999/xlink" x="0px" y="0px"
	 width="1024px" height="1024px" viewBox="0 0 1024 1024" enable-background="new 0 0 1024 1024" xml:space="preserve">
<polygon points="256,768 256,832 512,832 512,768 512,640 512,576 64,576 64,128 768,128 768,256 832,256 832,64 0,64 0,640 
	384,640 384,768 "/>
<path d="M576,320v640h448V320H576z M800,928c-17.67,0-32-14.33-32-32s14.33-32,32-32s32,14.33,32,32S817.67,928,800,928z M960,832
	H640V384h320V832z"/>
</svg>
