<?xml version="1.0" encoding="utf-8"?>
<!-- Generator: Adobe Illustrator 17.0.1, SVG Export Plug-In . SVG Version: 6.00 Build 0)  -->
<!DOCTYPE svg PUBLIC "-//W3C//DTD SVG 1.1//EN" "http://www.w3.org/Graphics/SVG/1.1/DTD/svg11.dtd">
<svg version="1.1" id="Layer_1" xmlns="http://www.w3.org/2000/svg" xmlns:xlink="http://www.w3.org/1999/xlink" x="0px" y="0px"
	 width="1024px" height="1024px" viewBox="0 0 1024 1024" enable-background="new 0 0 1024 1024" xml:space="preserve">
<path d="M192,64v832l-64,64V256H64v704l67.25,64h699.71L896,960V64H192z M512,896H256v-64h256V896z M512,768H256v-64h256V768z
	 M512,640H256v-64h256V640z M512,512H256v-64h256V512z M512,384H256v-64h256V384z M832,896H576v-64h256V896z M832,768H576v-64h256
	V768z M832,640H576V320h256V640z M832,192H256v-64h576V192z"/>
</svg>
