<!-- Generated by IcoMoon.io -->
<svg version="1.1" xmlns="http://www.w3.org/2000/svg" width="32" height="32" viewBox="0 0 32 32">
<title>note</title>
<path d="M8 6v16.281c-0.715-0.284-1.575-0.403-2.5-0.307-2.485 0.26-4.5 1.982-4.5 3.846s2.015 3.164 4.5 2.904c2.485-0.26 4.5-1.983 4.5-3.846 0-0.129-0.010-0.255-0.029-0.378h0.029v-14.7l16-1.6v12.081c-0.715-0.284-1.575-0.403-2.5-0.307-2.485 0.26-4.5 1.983-4.5 3.846s2.015 3.164 4.5 2.904c2.485-0.26 4.5-1.983 4.5-3.846 0-0.129-0.010-0.255-0.029-0.378h0.029v-18.5l-20 2z"></path>
</svg>
