<?xml version="1.0" encoding="utf-8"?>
<!-- Generator: Adobe Illustrator 17.0.1, SVG Export Plug-In . SVG Version: 6.00 Build 0)  -->
<!DOCTYPE svg PUBLIC "-//W3C//DTD SVG 1.1//EN" "http://www.w3.org/Graphics/SVG/1.1/DTD/svg11.dtd">
<svg version="1.1" id="Layer_1" xmlns="http://www.w3.org/2000/svg" xmlns:xlink="http://www.w3.org/1999/xlink" x="0px" y="0px"
	 width="1024px" height="1024px" viewBox="0 0 1024 1024" enable-background="new 0 0 1024 1024" xml:space="preserve">
<path d="M256,192v64v64v392.99c-22.88-9.09-50.4-12.91-80-9.81C96.47,711.5,32,766.61,32,826.26c0,59.65,64.47,101.25,144,92.92
	c79.53-8.33,144-63.44,144-123.08c0-4.12-0.32-8.15-0.92-12.09H320V313.6l512-51.2v386.59c-22.88-9.09-50.4-12.91-80-9.81
	c-79.53,8.33-144,63.44-144,123.08c0,59.65,64.47,101.25,144,92.92c79.53-8.33,144-63.44,144-123.08c0-4.12-0.32-8.15-0.92-12.09
	H896V256v-64v-64L256,192z"/>
</svg>
