<!-- Generated by IcoMoon.io -->
<svg version="1.1" xmlns="http://www.w3.org/2000/svg" width="32" height="32" viewBox="0 0 32 32">
<title>opera</title>
<path d="M26.656 4.064q-2.944-1.952-6.4-1.952-2.784 0-5.248 1.312t-4.288 3.552q-1.312 1.664-2.112 3.904t-0.864 4.736v0.768q0.064 2.496 0.864 4.736t2.112 3.904q1.824 2.272 4.288 3.552t5.248 1.312q3.456 0 6.4-1.952-2.144 1.92-4.896 3.008t-5.76 1.056q-0.512 0-0.768-0.032-3.136-0.128-5.952-1.44t-4.864-3.456-3.232-5.024-1.184-6.048q0-3.264 1.28-6.208t3.392-5.12 5.12-3.392 6.208-1.28h0.064q2.976 0.032 5.728 1.088t4.864 2.976zM32 16q0 3.424-1.376 6.464t-3.808 5.312q-1.856 1.12-3.968 1.12-2.432 0-4.544-1.504 2.752-0.992 4.512-4.16t1.792-7.232q0-4.064-1.76-7.2t-4.512-4.192q2.112-1.472 4.512-1.472 2.144 0 4.032 1.152 2.432 2.24 3.776 5.248t1.344 6.464z"></path>
</svg>
