<?xml version="1.0" encoding="utf-8"?>
<!-- Generator: Adobe Illustrator 17.0.1, SVG Export Plug-In . SVG Version: 6.00 Build 0)  -->
<!DOCTYPE svg PUBLIC "-//W3C//DTD SVG 1.1//EN" "http://www.w3.org/Graphics/SVG/1.1/DTD/svg11.dtd">
<svg version="1.1" id="Layer_1" xmlns="http://www.w3.org/2000/svg" xmlns:xlink="http://www.w3.org/1999/xlink" x="0px" y="0px"
	 width="1024px" height="1024px" viewBox="0 0 1024 1024" enable-background="new 0 0 1024 1024" xml:space="preserve">
<polygon points="768,1024 1024,1024 1024,768 928,768 928,576 544,576 544,384 704,384 704,0 320,0 320,384 480,384 480,576 96,576 
	96,768 0,768 0,1024 256,1024 256,768 160,768 160,640 480,640 480,768 384,768 384,1024 640,1024 640,768 544,768 544,640 864,640 
	864,768 768,768 "/>
</svg>
