<?xml version="1.0" encoding="utf-8"?>
<!-- Generator: Adobe Illustrator 17.0.1, SVG Export Plug-In . SVG Version: 6.00 Build 0)  -->
<!DOCTYPE svg PUBLIC "-//W3C//DTD SVG 1.1//EN" "http://www.w3.org/Graphics/SVG/1.1/DTD/svg11.dtd">
<svg version="1.1" id="Layer_1" xmlns="http://www.w3.org/2000/svg" xmlns:xlink="http://www.w3.org/1999/xlink" x="0px" y="0px"
	 width="1024px" height="1024px" viewBox="0 0 1024 1024" enable-background="new 0 0 1024 1024" xml:space="preserve">
<path d="M512.04,64c-0.32,0-0.64,0-0.96,0.01c-12.46,0.1-143.04,2.28-143.04,47.99c0,48,104,120,80,144s-224-32-288,0
	C70.68,300.68,31.15,361.73,13.7,408.81C4.77,441.94,0.04,476.48,0.04,512c0,247.42,229.23,448,512,448s512-200.58,512-448
	S794.81,64,512.04,64z M224.04,592c-61.86,0-112-50.14-112-112s50.14-112,112-112s112,50.14,112,112S285.9,592,224.04,592z
	 M416.04,816c-44.18,0-80-35.82-80-80c0-44.18,35.82-80,80-80c44.18,0,80,35.82,80,80C496.04,780.18,460.22,816,416.04,816z
	 M704.04,192c35.35,0,64,28.65,64,64s-28.65,64-64,64s-64-28.65-64-64S668.69,192,704.04,192z M704.04,784c-44.18,0-80-35.82-80-80
	c0-44.18,35.82-80,80-80c44.18,0,80,35.82,80,80C784.04,748.18,748.22,784,704.04,784z M848.04,560c-44.18,0-80-35.82-80-80
	s35.82-80,80-80c44.18,0,80,35.82,80,80S892.22,560,848.04,560z"/>
</svg>
