<?xml version="1.0" encoding="utf-8"?>
<!-- Generator: Adobe Illustrator 17.0.1, SVG Export Plug-In . SVG Version: 6.00 Build 0)  -->
<!DOCTYPE svg PUBLIC "-//W3C//DTD SVG 1.1//EN" "http://www.w3.org/Graphics/SVG/1.1/DTD/svg11.dtd">
<svg version="1.1" id="Layer_1" xmlns="http://www.w3.org/2000/svg" xmlns:xlink="http://www.w3.org/1999/xlink" x="0px" y="0px"
	 width="1024px" height="1024px" viewBox="0 0 1024 1024" enable-background="new 0 0 1024 1024" xml:space="preserve">
<g>
	<path d="M798.43,987.62c-60.25,0-116.9-23.46-159.5-66.07L287.61,570.24c-29.2-29.2-45.28-68.02-45.28-109.31
		c0-41.29,16.08-80.12,45.28-109.31c60.28-60.28,158.35-60.28,218.63,0l250.94,250.94l-68.06,68.06L438.17,419.67
		c-22.75-22.75-59.76-22.75-82.5,0c-11.02,11.02-17.09,25.67-17.09,41.25c0,15.58,6.07,30.23,17.09,41.25l351.32,351.32
		c50.42,50.42,132.46,50.42,182.88,0c50.42-50.42,50.42-132.46,0-182.88l-451.7-451.69c-78.09-78.09-205.16-78.09-283.25,0
		c-37.83,37.83-58.66,88.13-58.66,141.63c0,53.5,20.83,103.8,58.66,141.63l401.51,401.51l-68.06,68.06L86.86,570.24
		C30.85,514.23,0,439.76,0,360.55c0-79.21,30.85-153.68,86.86-209.69S217.34,64,296.55,64s153.68,30.85,209.69,86.86l451.7,451.69
		c42.6,42.6,66.07,99.25,66.07,159.5c0,60.25-23.46,116.9-66.07,159.5C915.33,964.16,858.68,987.62,798.43,987.62z"/>
</g>
</svg>
