<!-- Generated by IcoMoon.io -->
<svg version="1.1" xmlns="http://www.w3.org/2000/svg" width="32" height="32" viewBox="0 0 32 32">
<title>paperclip</title>
<path d="M24.951 30.863c-1.883 0-3.653-0.733-4.984-2.065l-10.979-10.978c-0.912-0.913-1.415-2.126-1.415-3.416s0.503-2.504 1.415-3.416c1.884-1.884 4.948-1.884 6.832 0l7.842 7.842-2.127 2.127-7.842-7.842c-0.711-0.711-1.867-0.711-2.578 0-0.344 0.344-0.534 0.802-0.534 1.289s0.19 0.945 0.534 1.289l10.979 10.979c1.576 1.576 4.139 1.576 5.715 0s1.576-4.139 0-5.715l-14.116-14.115c-2.44-2.44-6.411-2.44-8.852 0-1.182 1.182-1.833 2.754-1.833 4.426s0.651 3.244 1.833 4.426l12.547 12.547-2.127 2.127-12.547-12.547c-1.75-1.75-2.714-4.078-2.714-6.553s0.964-4.803 2.714-6.553 4.077-2.714 6.553-2.714 4.803 0.964 6.553 2.714l14.116 14.115c1.331 1.331 2.065 3.102 2.065 4.984s-0.733 3.653-2.065 4.984c-1.332 1.332-3.102 2.065-4.985 2.065z"></path>
</svg>
