<svg width="16" height="16" viewBox="0 0 16 16" fill="none" xmlns="http://www.w3.org/2000/svg">
<path d="M1.5 3C1.22386 3 1 3.22386 1 3.5C1 3.77614 1.22386 4 1.5 4H12.5C12.7761 4 13 3.77614 13 3.5C13 3.22386 12.7761 3 12.5 3H1.5Z" fill="black"/>
<path d="M1.5 6.02539C1.22386 6.02539 1 6.24925 1 6.52539C1 6.80153 1.22386 7.02539 1.5 7.02539H14.5C14.7761 7.02539 15 6.80153 15 6.52539C15 6.24925 14.7761 6.02539 14.5 6.02539H1.5Z" fill="black"/>
<path d="M1 9.49414C1 9.218 1.22386 8.99414 1.5 8.99414H12.5C12.7761 8.99414 13 9.218 13 9.49414C13 9.77028 12.7761 9.99414 12.5 9.99414H1.5C1.22386 9.99414 1 9.77028 1 9.49414Z" fill="black"/>
<path d="M1.5 12C1.22386 12 1 12.2239 1 12.5C1 12.7761 1.22386 13 1.5 13H5.5C5.77614 13 6 12.7761 6 12.5C6 12.2239 5.77614 12 5.5 12H1.5Z" fill="black"/>
</svg>
