<?xml version="1.0" encoding="utf-8"?>
<!-- Generator: Adobe Illustrator 17.0.1, SVG Export Plug-In . SVG Version: 6.00 Build 0)  -->
<!DOCTYPE svg PUBLIC "-//W3C//DTD SVG 1.1//EN" "http://www.w3.org/Graphics/SVG/1.1/DTD/svg11.dtd">
<svg version="1.1" id="Layer_1" xmlns="http://www.w3.org/2000/svg" xmlns:xlink="http://www.w3.org/1999/xlink" x="0px" y="0px"
	 width="1024px" height="1024px" viewBox="0 0 1024 1024" enable-background="new 0 0 1024 1024" xml:space="preserve">
<g>
	<rect x="576" y="576" stroke="#000000" stroke-width="0.7071" stroke-miterlimit="10" width="448" height="448"/>
	<rect x="192" stroke="#000000" stroke-width="0.7071" stroke-miterlimit="10" width="64" height="64"/>
	<rect x="192" y="384" stroke="#000000" stroke-width="0.7071" stroke-miterlimit="10" width="64" height="64"/>
	<polygon stroke="#000000" stroke-width="0.7071" stroke-miterlimit="10" points="448,320 384,320 384,384 320,384 320,448 448,448 
			"/>
	<rect x="192" y="512" stroke="#000000" stroke-width="0.7071" stroke-miterlimit="10" width="64" height="128"/>
	<polygon stroke="#000000" stroke-width="0.7071" stroke-miterlimit="10" points="256,704 192,704 192,832 320,832 320,768 256,768 
			"/>
	<rect x="384" y="768" stroke="#000000" stroke-width="0.7071" stroke-miterlimit="10" width="128" height="64"/>
	<polygon stroke="#000000" stroke-width="0.7071" stroke-miterlimit="10" points="384,128 448,128 448,0 320,0 320,64 384,64 	"/>
	<rect x="384" y="192" stroke="#000000" stroke-width="0.7071" stroke-miterlimit="10" width="64" height="64"/>
	<polygon stroke="#000000" stroke-width="0.7071" stroke-miterlimit="10" points="64,320 0,320 0,448 128,448 128,384 64,384 	"/>
	<polygon stroke="#000000" stroke-width="0.7071" stroke-miterlimit="10" points="0,0 0,128 64,128 64,64 128,64 128,0 	"/>
	<rect y="192" stroke="#000000" stroke-width="0.7071" stroke-miterlimit="10" width="64" height="64"/>
</g>
</svg>
