<!-- Generated by IcoMoon.io -->
<svg version="1.1" xmlns="http://www.w3.org/2000/svg" width="32" height="32" viewBox="0 0 32 32">
<title>parent-child-scheme</title>
<path d="M18 18h14v14h-14v-14z"></path>
<path d="M6 0h2v2h-2v-2z"></path>
<path d="M6 12h2v2h-2v-2z"></path>
<path d="M14 10h-2v2h-2v2h4z"></path>
<path d="M6 16h2v4h-2v-4z"></path>
<path d="M8 22h-2v4h4v-2h-2z"></path>
<path d="M12 24h4v2h-4v-2z"></path>
<path d="M12 4h2v-4h-4v2h2z"></path>
<path d="M12 6h2v2h-2v-2z"></path>
<path d="M2 10h-2v4h4v-2h-2z"></path>
<path d="M0 0v4h2v-2h2v-2z"></path>
<path d="M0 6h2v2h-2v-2z"></path>
</svg>
