<?xml version="1.0" encoding="utf-8"?>
<!-- Generator: Adobe Illustrator 17.0.1, SVG Export Plug-In . SVG Version: 6.00 Build 0)  -->
<!DOCTYPE svg PUBLIC "-//W3C//DTD SVG 1.1//EN" "http://www.w3.org/Graphics/SVG/1.1/DTD/svg11.dtd">
<svg version="1.1" id="Layer_1" xmlns="http://www.w3.org/2000/svg" xmlns:xlink="http://www.w3.org/1999/xlink" x="0px" y="0px"
	 width="1024px" height="1024px" viewBox="0 0 1024 1024" enable-background="new 0 0 1024 1024" xml:space="preserve">
<g>
	<rect stroke="#000000" stroke-width="0.7071" stroke-miterlimit="10" width="448" height="448"/>
	<rect x="768" y="576" stroke="#000000" stroke-width="0.7071" stroke-miterlimit="10" width="64" height="64"/>
	<rect x="768" y="960" stroke="#000000" stroke-width="0.7071" stroke-miterlimit="10" width="64" height="64"/>
	<polygon stroke="#000000" stroke-width="0.7071" stroke-miterlimit="10" points="960,960 896,960 896,1024 1024,1024 1024,896 
		960,896 	"/>
	<rect x="192" y="512" stroke="#000000" stroke-width="0.7071" stroke-miterlimit="10" width="64" height="128"/>
	<polygon stroke="#000000" stroke-width="0.7071" stroke-miterlimit="10" points="256,704 192,704 192,832 320,832 320,768 256,768 
			"/>
	<rect x="384" y="768" stroke="#000000" stroke-width="0.7071" stroke-miterlimit="10" width="128" height="64"/>
	<polygon stroke="#000000" stroke-width="0.7071" stroke-miterlimit="10" points="896,576 896,640 960,640 960,704 1024,704 
		1024,576 	"/>
	<rect x="960" y="768" stroke="#000000" stroke-width="0.7071" stroke-miterlimit="10" width="64" height="64"/>
	<polygon stroke="#000000" stroke-width="0.7071" stroke-miterlimit="10" points="640,896 576,896 576,1024 704,1024 704,960 
		640,960 	"/>
	<polygon stroke="#000000" stroke-width="0.7071" stroke-miterlimit="10" points="576,576 576,704 640,704 640,640 704,640 704,576 
			"/>
	<rect x="576" y="768" stroke="#000000" stroke-width="0.7071" stroke-miterlimit="10" width="64" height="64"/>
</g>
</svg>
