<!-- Generated by IcoMoon.io -->
<svg version="1.1" xmlns="http://www.w3.org/2000/svg" width="32" height="32" viewBox="0 0 32 32">
<title>percent-sign</title>
<path d="M26 2l-22 26 2 2 22-26z"></path>
<path d="M14 8.5c0-3.59-2.686-6.5-6-6.5s-6 2.91-6 6.5 2.686 6.5 6 6.5c3.314 0 6-2.91 6-6.5zM5.594 11.401c-0.706-0.765-1.094-1.795-1.094-2.901s0.389-2.136 1.094-2.901c0.654-0.709 1.509-1.099 2.406-1.099s1.751 0.391 2.406 1.099c0.706 0.765 1.094 1.795 1.094 2.901s-0.389 2.136-1.094 2.901c-0.654 0.709-1.509 1.099-2.406 1.099s-1.751-0.391-2.406-1.099z"></path>
<path d="M24 17c-3.314 0-6 2.91-6 6.5s2.686 6.5 6 6.5 6-2.91 6-6.5-2.686-6.5-6-6.5zM26.406 26.401c-0.654 0.709-1.509 1.099-2.406 1.099s-1.751-0.391-2.406-1.099c-0.706-0.765-1.094-1.795-1.094-2.901s0.389-2.136 1.094-2.901c0.654-0.709 1.509-1.099 2.406-1.099s1.751 0.391 2.406 1.099c0.706 0.765 1.094 1.795 1.094 2.901s-0.389 2.136-1.094 2.901z"></path>
</svg>
