<svg width="16" height="16" viewBox="0 0 16 16" fill="none" xmlns="http://www.w3.org/2000/svg">
<g clip-path="url(#clip0)">
<path d="M15.8536 0.146447C16.0488 0.341709 16.0488 0.658291 15.8536 0.853553L0.853553 15.8536C0.658291 16.0488 0.341709 16.0488 0.146447 15.8536C-0.0488155 15.6583 -0.0488155 15.3417 0.146447 15.1464L15.1464 0.146447C15.3417 -0.0488155 15.6583 -0.0488155 15.8536 0.146447Z" fill="black"/>
<path fill-rule="evenodd" clip-rule="evenodd" d="M9 12.5C9 10.567 10.567 9 12.5 9C14.433 9 16 10.567 16 12.5C16 14.433 14.433 16 12.5 16C10.567 16 9 14.433 9 12.5ZM12.5 10C11.1193 10 10 11.1193 10 12.5C10 13.8807 11.1193 15 12.5 15C13.8807 15 15 13.8807 15 12.5C15 11.1193 13.8807 10 12.5 10Z" fill="black"/>
<path fill-rule="evenodd" clip-rule="evenodd" d="M3.5 7.45058e-09C1.567 7.45058e-09 7.45058e-09 1.567 7.45058e-09 3.5C7.45058e-09 5.433 1.567 7 3.5 7C5.433 7 7 5.433 7 3.5C7 1.567 5.433 7.45058e-09 3.5 7.45058e-09ZM1 3.5C1 2.11929 2.11929 1 3.5 1C4.88071 1 6 2.11929 6 3.5C6 4.88071 4.88071 6 3.5 6C2.11929 6 1 4.88071 1 3.5Z" fill="black"/>
</g>
<defs>
<clipPath id="clip0">
<rect width="16" height="16" fill="white"/>
</clipPath>
</defs>
</svg>
