<?xml version="1.0" encoding="utf-8"?>
<!-- Generator: Adobe Illustrator 17.0.1, SVG Export Plug-In . SVG Version: 6.00 Build 0)  -->
<!DOCTYPE svg PUBLIC "-//W3C//DTD SVG 1.1//EN" "http://www.w3.org/Graphics/SVG/1.1/DTD/svg11.dtd">
<svg version="1.1" id="Layer_1" xmlns="http://www.w3.org/2000/svg" xmlns:xlink="http://www.w3.org/1999/xlink" x="0px" y="0px"
	 width="1024px" height="1024px" viewBox="0 0 1024 1024" enable-background="new 0 0 1024 1024" xml:space="preserve">
<g>
	<polygon points="832,64 128,896 192,960 896,128 	"/>
	<path d="M448,272c0-114.88-85.96-208-192-208C149.96,64,64,157.13,64,272s85.96,208,192,208C362.04,480,448,386.88,448,272z
		 M179.02,364.82C156.44,340.35,144,307.39,144,272s12.44-68.35,35.02-92.82C199.96,156.5,227.3,144,256,144s56.04,12.5,76.98,35.18
		C355.56,203.65,368,236.61,368,272s-12.44,68.35-35.02,92.82C312.04,387.5,284.7,400,256,400S199.96,387.5,179.02,364.82z"/>
	<path d="M768,544c-106.04,0-192,93.13-192,208s85.96,208,192,208s192-93.13,192-208S874.04,544,768,544z M844.98,844.82
		C824.04,867.5,796.7,880,768,880s-56.04-12.5-76.98-35.18C668.44,820.35,656,787.39,656,752s12.44-68.35,35.02-92.82
		C711.96,636.5,739.3,624,768,624s56.04,12.5,76.98,35.18C867.56,683.65,880,716.61,880,752S867.56,820.35,844.98,844.82z"/>
</g>
</svg>
