<svg width="16" height="16" viewBox="0 0 16 16" fill="none" xmlns="http://www.w3.org/2000/svg">
<g clip-path="url(#clip0)">
<path fill-rule="evenodd" clip-rule="evenodd" d="M10.2636 8.39009C11.6011 7.6101 12.5 6.16002 12.5 4.5C12.5 2.01472 10.4853 0 8 0C5.51472 0 3.5 2.01472 3.5 4.5C3.5 6.16002 4.39886 7.6101 5.73641 8.39009C3.51338 9.20203 2 11.2114 2 13.7531V15.5042C2 15.7803 2.22386 16.0042 2.5 16.0042H13.5C13.7761 16.0042 14 15.7803 14 15.5042V13.7531C14 11.2114 12.4866 9.20203 10.2636 8.39009ZM4.5 4.5C4.5 2.567 6.067 1 8 1C9.933 1 11.5 2.567 11.5 4.5C11.5 6.433 9.933 8 8 8C6.067 8 4.5 6.433 4.5 4.5ZM8 9C5.10925 9 3 11.0176 3 13.7531V15.0042H13V13.7531C13 11.0176 10.8907 9 8 9Z" fill="black"/>
</g>
<defs>
<clipPath id="clip0">
<rect width="16" height="16" fill="white"/>
</clipPath>
</defs>
</svg>
