<?xml version="1.0" encoding="utf-8"?>
<!-- Generator: Adobe Illustrator 22.1.0, SVG Export Plug-In . SVG Version: 6.00 Build 0)  -->
<svg version="1.1" id="Layer_1" xmlns="http://www.w3.org/2000/svg" xmlns:xlink="http://www.w3.org/1999/xlink" x="0px" y="0px"
	 width="1024px" height="1024px" viewBox="0 0 1024 1024" enable-background="new 0 0 1024 1024" xml:space="preserve">
<g>
	<g>
		<polygon points="335.46,680 298.42,680 296.08,642.5 280.08,386.5 280,320 280,288 224,288 96,320 96,384 112,640 144,640 
			223.8,960 349.79,960 378.79,888.53 		"/>
	</g>
	<g>
		<polygon points="800,288 744,288 744,320 743.92,386.5 727.92,642.5 725.58,680 688.34,680 643.67,888.66 671.8,960 797.79,960 
			880,640 912,640 928,384 928,320 		"/>
	</g>
	<g>
		<path d="M357.22,193.41C348.45,172.67,344,150.66,344,128s4.45-44.67,13.22-65.41c4.45-10.52,9.92-20.47,16.34-29.79
			C350.88,12.41,320.89,0,288,0c-70.69,0-128,57.31-128,128s57.31,128,128,128c32.89,0,62.88-12.41,85.56-32.8
			C367.14,213.88,361.67,203.93,357.22,193.41z"/>
	</g>
	<g>
		<path d="M736,0c-32.89,0-62.88,12.41-85.56,32.8c6.42,9.32,11.89,19.27,16.34,29.79C675.55,83.33,680,105.34,680,128
			s-4.45,44.67-13.22,65.41c-4.45,10.52-9.92,20.47-16.34,29.79C673.12,243.59,703.11,256,736,256c70.69,0,128-57.31,128-128
			S806.69,0,736,0z"/>
	</g>
	<circle cx="513" cy="128" r="128"/>
	<polygon points="704,384 704,320 576,288 448,288 320,320 320,384 336,640 368,640 447.8,1024 573.79,1024 656,640 688,640 	"/>
</g>
</svg>
