<!-- Generated by IcoMoon.io -->
<svg version="1.1" xmlns="http://www.w3.org/2000/svg" width="32" height="32" viewBox="0 0 32 32">
<title>personalisation-variants</title>
<path d="M10.483 21.25h-1.158l-0.073-1.172-0.5-8-0.002-2.078v-1h-1.75l-4 1v2l0.5 8h1l2.494 10h3.937l0.906-2.233z"></path>
<path d="M25 9h-1.75v1l-0.003 2.078-0.5 8-0.073 1.172h-1.164l-1.396 6.521 0.879 2.229h3.937l2.569-10h1l0.5-8v-2z"></path>
<path d="M11.163 6.044c-0.274-0.648-0.413-1.336-0.413-2.044s0.139-1.396 0.413-2.044c0.139-0.329 0.31-0.64 0.511-0.931-0.709-0.637-1.646-1.025-2.674-1.025-2.209 0-4 1.791-4 4s1.791 4 4 4c1.028 0 1.965-0.388 2.674-1.025-0.201-0.291-0.372-0.602-0.511-0.931z"></path>
<path d="M23 0c-1.028 0-1.965 0.388-2.674 1.025 0.201 0.291 0.372 0.602 0.511 0.931 0.274 0.648 0.413 1.336 0.413 2.044s-0.139 1.396-0.413 2.044c-0.139 0.329-0.31 0.64-0.511 0.931 0.709 0.637 1.646 1.025 2.674 1.025 2.209 0 4-1.791 4-4s-1.791-4-4-4z"></path>
<path d="M20.031 4c0 2.209-1.791 4-4 4s-4-1.791-4-4c0-2.209 1.791-4 4-4s4 1.791 4 4z"></path>
<path d="M22 12v-2l-4-1h-4l-4 1v2l0.5 8h1l2.494 12h3.937l2.569-12h1z"></path>
</svg>
