<?xml version="1.0" encoding="utf-8"?>
<!-- Generator: Adobe Illustrator 17.1.0, SVG Export Plug-In . SVG Version: 6.00 Build 0)  -->
<!DOCTYPE svg PUBLIC "-//W3C//DTD SVG 1.1//EN" "http://www.w3.org/Graphics/SVG/1.1/DTD/svg11.dtd">
<svg version="1.1" id="Layer_1" xmlns="http://www.w3.org/2000/svg" xmlns:xlink="http://www.w3.org/1999/xlink" x="0px" y="0px"
	 width="1024px" height="1024px" viewBox="0 0 1024 1024" enable-background="new 0 0 1024 1024" xml:space="preserve">
<path d="M128,64v768h896V64H128z M288,127.39c53.02,0,96,42.98,96,96s-42.98,96-96,96s-96-42.98-96-96S234.98,127.39,288,127.39z
	 M960,640v16v112H192v-80v-48l160-160l176,160l32-32l-85.44-77.68L704,320l256,192V640z"/>
<polygon points="896,895.39 64,895.39 64,191.39 0,191.39 0,895.39 0,959.39 0,959.39 64,959.39 64,959.39 896,959.39 "/>
</svg>
