<?xml version="1.0" encoding="utf-8"?>
<!-- Generator: Adobe Illustrator 21.1.0, SVG Export Plug-In . SVG Version: 6.00 Build 0)  -->
<svg version="1.1" id="Layer_1" xmlns="http://www.w3.org/2000/svg" xmlns:xlink="http://www.w3.org/1999/xlink" x="0px" y="0px"
	 viewBox="0 0 1024 1024" enable-background="new 0 0 1024 1024" xml:space="preserve">
<g>
	<path d="M838.51,117.61C761.44,53.74,665.35,12.03,560,2.23v274.58c30.64,6.22,59.15,18.29,84.34,34.97L838.51,117.61z"/>
	<path d="M712.23,379.66C737.35,417.6,752,463.08,752,512c0,132.55-107.45,240-240,240c-116.11,0-212.96-82.45-235.19-192H2.23
		c24.2,260.26,243.19,464,509.77,464c282.77,0,512-229.23,512-512c0-124.1-44.16-237.88-117.61-326.51L712.23,379.66z"/>
	<path d="M276.81,464c19.09-94.04,93.16-168.11,187.19-187.19V2.23C219.54,24.96,24.96,219.54,2.23,464H276.81z"/>
</g>
</svg>
