<!-- Generated by IcoMoon.io -->
<svg version="1.1" xmlns="http://www.w3.org/2000/svg" width="32" height="32" viewBox="0 0 32 32">
<title>piechart</title>
<path d="M26.203 3.675c-2.408-1.996-5.411-3.299-8.703-3.606v8.581c0.957 0.194 1.848 0.572 2.636 1.093l6.068-6.068z"></path>
<path d="M22.257 11.864c0.785 1.186 1.243 2.607 1.243 4.136 0 4.142-3.358 7.5-7.5 7.5-3.628 0-6.655-2.577-7.35-6h-8.581c0.756 8.133 7.6 14.5 15.93 14.5 8.837 0 16-7.163 16-16 0-3.878-1.38-7.434-3.675-10.203l-6.067 6.068z"></path>
<path d="M8.65 14.5c0.597-2.939 2.911-5.253 5.85-5.85v-8.581c-7.639 0.71-13.72 6.791-14.43 14.43h8.581z"></path>
</svg>
