<svg width="16" height="16" viewBox="0 0 16 16" fill="none" xmlns="http://www.w3.org/2000/svg">
<path d="M11.062 1.30323C11.4598 0.898922 12.1046 0.898922 12.5023 1.30323L14.7017 3.53911C15.0994 3.94342 15.0994 4.59894 14.7017 5.00325L11.6275 8.12841C12.126 9.82063 11.86 11.6959 10.8295 13.1928C10.507 13.6612 9.85284 13.6572 9.45512 13.2529L6.44585 10.1938C6.4373 10.2039 6.42831 10.2138 6.41887 10.2234L1.86928 14.8484C1.67042 15.0505 1.348 15.0505 1.14914 14.8484C0.950285 14.6462 0.950285 14.3185 1.14914 14.1163L5.69874 9.49129C5.70818 9.4817 5.7179 9.47255 5.72787 9.46387L2.70612 6.39203C2.3084 5.98771 2.30447 5.32272 2.76528 4.99486C4.34493 3.87098 6.35303 3.64158 8.10758 4.30667L11.062 1.30323Z" fill="black"/>
</svg>
