<?xml version="1.0" encoding="utf-8"?>
<!-- Generator: Adobe Illustrator 17.0.1, SVG Export Plug-In . SVG Version: 6.00 Build 0)  -->
<!DOCTYPE svg PUBLIC "-//W3C//DTD SVG 1.1//EN" "http://www.w3.org/Graphics/SVG/1.1/DTD/svg11.dtd">
<svg version="1.1" id="Layer_1" xmlns="http://www.w3.org/2000/svg" xmlns:xlink="http://www.w3.org/1999/xlink" x="0px" y="0px"
	 width="1024px" height="1024px" viewBox="0 0 1024 1024" enable-background="new 0 0 1024 1024" xml:space="preserve">
<path d="M1024,320V0H832v128H512v227.98L355.98,512H186.53c-13.18-37.28-48.73-64-90.53-64c-53.02,0-96,42.98-96,96s42.98,96,96,96
	c41.8,0,77.35-26.72,90.53-64h166.04L512,735.43V960h325.47c13.18,37.28,48.73,64,90.53,64c53.02,0,96-42.98,96-96s-42.98-96-96-96
	c-41.8,0-77.35,26.72-90.53,64H576V736.57l190.86-190.86L576,354.84V192h256v128H1024z"/>
</svg>
