<?xml version="1.0" encoding="utf-8"?>
<!-- Generator: Adobe Illustrator 17.0.1, SVG Export Plug-In . SVG Version: 6.00 Build 0)  -->
<!DOCTYPE svg PUBLIC "-//W3C//DTD SVG 1.1//EN" "http://www.w3.org/Graphics/SVG/1.1/DTD/svg11.dtd">
<svg version="1.1" id="Layer_1" xmlns="http://www.w3.org/2000/svg" xmlns:xlink="http://www.w3.org/1999/xlink" x="0px" y="0px"
	 width="1024px" height="1024px" viewBox="0 0 1024 1024" enable-background="new 0 0 1024 1024" xml:space="preserve">
<g>
	<path d="M366.56,540.37c8.8,1.65,20.33,2.2,32.97,2.2c47.81,0,90.12-12.64,117.05-39.56c20.88-19.79,31.87-48.91,31.87-84.08
		c0-34.62-14.29-63.74-36.27-81.88c-23.63-19.78-59.89-30.22-109.35-30.22c-45.61,0-79.13,3.3-103.31,7.69v365.42h67.04V540.37z
		 M366.56,361.79c7.15-1.65,20.33-3.3,39.01-3.3c46.71,0,75.29,21.98,75.29,63.19c0,43.41-30.77,68.14-81.33,68.14
		c-13.74,0-24.73-0.55-32.97-2.75V361.79z"/>
	<path d="M638,637.09c-24.18,0-53.31-9.88-68.7-19.23l-13.18,48.91c19.77,10.99,48.9,19.24,81.32,19.24
		c70.89,0,108.81-35.73,108.81-84.09c-0.56-39.56-23.08-64.29-71.43-81.87c-34.08-12.09-46.72-20.33-46.72-37.37
		c0-16.48,13.2-28.02,37.37-28.02c23.62,0,45.06,8.79,56.6,15.38l13.18-47.81c-15.38-8.24-41.21-15.94-70.88-15.94
		c-62.1,0-101.12,36.82-101.12,84.08c-0.54,31.32,21.44,59.89,73.65,78.02c32.97,11.54,43.95,20.88,43.95,39.02
		C680.85,625,667.67,637.09,638,637.09z"/>
	<path d="M64,64v896h896V64H64z M896,896H128V128h768V896z"/>
</g>
</svg>
