<?xml version="1.0" encoding="utf-8"?>
<!-- Generator: Adobe Illustrator 17.0.1, SVG Export Plug-In . SVG Version: 6.00 Build 0)  -->
<!DOCTYPE svg PUBLIC "-//W3C//DTD SVG 1.1//EN" "http://www.w3.org/Graphics/SVG/1.1/DTD/svg11.dtd">
<svg version="1.1" id="Layer_1" xmlns="http://www.w3.org/2000/svg" xmlns:xlink="http://www.w3.org/1999/xlink" x="0px" y="0px"
	 width="1024px" height="1024px" viewBox="0 0 1024 1024" enable-background="new 0 0 1024 1024" xml:space="preserve">
<g>
	<path d="M64,448h384V64H64V448z M128,128h256v256H128V128z"/>
	<rect x="192" y="192" width="128" height="128"/>
	<path d="M576,64v384h384V64H576z M896,384H640V128h256V384z"/>
	<rect x="704" y="192" width="128" height="128"/>
	<path d="M64,960h384V576H64V960z M128,640h256v256H128V640z"/>
	<rect x="192" y="704" width="128" height="128"/>
	<polygon points="704,640 704,576 640,576 640,640 640,704 704,704 	"/>
	<polygon points="896,640 896,576 832,576 832,640 832,704 896,704 	"/>
	<polygon points="768,896 704,896 640,896 640,960 704,960 768,960 832,960 896,960 896,896 832,896 	"/>
	<polygon points="640,768 576,768 576,832 576,896 640,896 640,832 	"/>
	<polygon points="896,832 896,896 960,896 960,832 960,768 896,768 	"/>
</g>
</svg>
