<!-- Generated by IcoMoon.io -->
<svg version="1.1" xmlns="http://www.w3.org/2000/svg" width="32" height="32" viewBox="0 0 32 32">
<title>qr-code</title>
<path d="M2 14h12v-12h-12v12zM4 4h8v8h-8v-8z"></path>
<path d="M6 6h4v4h-4v-4z"></path>
<path d="M18 2v12h12v-12h-12zM28 12h-8v-8h8v8z"></path>
<path d="M22 6h4v4h-4v-4z"></path>
<path d="M2 30h12v-12h-12v12zM4 20h8v8h-8v-8z"></path>
<path d="M6 22h4v4h-4v-4z"></path>
<path d="M22 20v-2h-2v4h2z"></path>
<path d="M28 20v-2h-2v4h2z"></path>
<path d="M24 28h-4v2h8v-2h-2z"></path>
<path d="M20 24h-2v4h2v-2z"></path>
<path d="M28 26v2h2v-4h-2z"></path>
</svg>
