<!-- Generated by IcoMoon.io -->
<svg version="1.1" xmlns="http://www.w3.org/2000/svg" width="32" height="32" viewBox="0 0 32 32">
<title>question-circle</title>
<path d="M16 0c-8.837 0-16 7.163-16 16s7.163 16 16 16 16-7.163 16-16c0-8.837-7.163-16-16-16zM16 26.5c-1.242 0-2.25-1.007-2.25-2.25s1.008-2.25 2.25-2.25c1.242 0 2.25 1.008 2.25 2.25s-1.008 2.25-2.25 2.25zM21.632 11.44l-0.002 0.082c-0.002 0.109-0.009 0.22-0.016 0.331-0.017 0.223-0.044 0.448-0.085 0.675s-0.096 0.454-0.163 0.678c-0.134 0.447-0.326 0.875-0.543 1.253-0.218 0.379-0.458 0.704-0.687 0.988-0.23 0.284-0.448 0.525-0.646 0.743-0.095 0.104-0.188 0.206-0.281 0.308-0.089 0.098-0.172 0.19-0.248 0.279s-0.15 0.174-0.216 0.257c-0.067 0.083-0.128 0.163-0.186 0.241s-0.11 0.154-0.16 0.229c-0.048 0.075-0.095 0.148-0.136 0.221-0.084 0.145-0.154 0.287-0.214 0.427s-0.111 0.277-0.153 0.411c-0.042 0.134-0.077 0.263-0.104 0.387-0.029 0.123-0.050 0.241-0.068 0.348-0.008 0.054-0.016 0.106-0.023 0.154s-0.012 0.096-0.017 0.138c-0.003 0.021-0.006 0.043-0.008 0.061s-0.004 0.035-0.005 0.052-0.007 0.063-0.010 0.090c-0.009 0.149-0.014 0.229-0.014 0.229l-3.32-0.040c0 0-0.003-0.081-0.009-0.232-0-0.048-0.001-0.102-0.001-0.161 0-0.030 0-0.061 0-0.093s0.001-0.063 0.002-0.096c0.002-0.066 0.002-0.136 0.006-0.212s0.008-0.156 0.013-0.242c0.024-0.342 0.069-0.766 0.181-1.255 0.055-0.244 0.126-0.505 0.219-0.776s0.208-0.552 0.345-0.834c0.137-0.282 0.295-0.565 0.471-0.838 0.088-0.136 0.18-0.271 0.274-0.402 0.094-0.132 0.19-0.259 0.287-0.384s0.194-0.246 0.289-0.363c0.095-0.117 0.19-0.232 0.281-0.341 0.182-0.219 0.351-0.425 0.49-0.615s0.253-0.366 0.335-0.528c0.084-0.162 0.144-0.313 0.184-0.472 0.020-0.080 0.037-0.162 0.049-0.248s0.019-0.178 0.023-0.274c0.001-0.049 0.003-0.097 0.001-0.148v-0.028c0-0.003 0-0.005 0-0.002l-0-0.008-0.002-0.075c-0-0.002-0-0.002-0.001-0.003-0.001-0.004-0.001-0.008-0.002-0.011l-0.005-0.051c-0.002-0.018-0.004-0.036-0.007-0.054-0.005-0.036-0.011-0.072-0.019-0.108-0.058-0.286-0.193-0.556-0.38-0.78-0.094-0.111-0.199-0.213-0.316-0.298-0.058-0.043-0.118-0.083-0.181-0.12s-0.128-0.068-0.195-0.098c-0.134-0.058-0.277-0.101-0.426-0.129-0.075-0.014-0.151-0.024-0.229-0.030l-0.018-0.002c-0.008 0 0.062-0.001 0.029-0.001h-0.013l-0.053-0.001c-0.035-0-0.070-0.001-0.105-0.001-0.017 0-0.034 0.001-0.051 0.001l-0.023-0c-0.008 0-0.013-0.001-0.025 0-0.169 0.007-0.329 0.023-0.479 0.053-0.15 0.028-0.29 0.068-0.42 0.115-0.259 0.095-0.478 0.221-0.655 0.353-0.088 0.067-0.168 0.134-0.237 0.201s-0.128 0.132-0.18 0.193c-0.024 0.031-0.049 0.060-0.070 0.089-0.011 0.014-0.022 0.028-0.032 0.041s-0.019 0.027-0.027 0.040c-0.019 0.025-0.033 0.049-0.048 0.072-0.007 0.011-0.014 0.022-0.021 0.032s-0.012 0.020-0.018 0.029c-0.023 0.036-0.038 0.065-0.050 0.085s-0.017 0.029-0.017 0.029l-2.991-0.997c0 0 0.008-0.028 0.022-0.082s0.037-0.134 0.072-0.236c0.017-0.052 0.036-0.109 0.060-0.171s0.049-0.13 0.081-0.202c0.016-0.036 0.032-0.073 0.048-0.112s0.037-0.078 0.056-0.118c0.037-0.082 0.084-0.165 0.132-0.254 0.099-0.176 0.217-0.366 0.36-0.563 0.144-0.195 0.313-0.398 0.511-0.598 0.393-0.4 0.903-0.79 1.52-1.094 0.307-0.153 0.641-0.281 0.993-0.383 0.352-0.099 0.722-0.173 1.102-0.21 0.022-0.003 0.052-0.005 0.078-0.007l0.081-0.006c0.052-0.003 0.105-0.007 0.158-0.010 0.035-0.002 0.070-0.003 0.105-0.005l0.066-0.003c-0.029 0 0.046-0.001 0.043-0.001l0.010-0 0.038-0.001c0.205-0.003 0.414 0.003 0.627 0.022 0.425 0.037 0.863 0.127 1.294 0.272s0.855 0.352 1.251 0.612c0.395 0.263 0.763 0.579 1.082 0.945 0.32 0.365 0.593 0.777 0.806 1.221 0.212 0.444 0.367 0.919 0.452 1.407 0.021 0.122 0.039 0.245 0.052 0.367 0.007 0.062 0.012 0.123 0.017 0.185 0.003 0.031 0.004 0.062 0.006 0.092l0.003 0.046 0.002 0.050 0.003 0.109 0.001 0.027v0.137z"></path>
</svg>
