<?xml version="1.0" encoding="utf-8"?>
<!-- Generator: Adobe Illustrator 17.0.1, SVG Export Plug-In . SVG Version: 6.00 Build 0)  -->
<!DOCTYPE svg PUBLIC "-//W3C//DTD SVG 1.1//EN" "http://www.w3.org/Graphics/SVG/1.1/DTD/svg11.dtd">
<svg version="1.1" id="Layer_1" xmlns="http://www.w3.org/2000/svg" xmlns:xlink="http://www.w3.org/1999/xlink" x="0px" y="0px"
	 width="1024px" height="1024px" viewBox="0 0 1024 1024" enable-background="new 0 0 1024 1024" xml:space="preserve">
<path d="M512,0C229.23,0,0,229.23,0,512c0,282.77,229.23,512,512,512s512-229.23,512-512C1024,229.23,794.77,0,512,0z M512,848
	c-39.76,0-72-32.23-72-72c0-39.76,32.24-72,72-72c39.76,0,72,32.24,72,72C584,815.77,551.76,848,512,848z M692.23,366.08l-0.07,2.63
	c-0.06,3.48-0.28,7.04-0.51,10.58c-0.55,7.13-1.41,14.35-2.71,21.6c-1.33,7.26-3.06,14.53-5.21,21.68
	c-4.28,14.32-10.44,28-17.36,40.09c-6.98,12.12-14.67,22.54-21.99,31.61c-7.36,9.1-14.35,16.81-20.66,23.79
	c-3.03,3.32-6.02,6.6-8.98,9.84c-2.84,3.12-5.49,6.08-7.95,8.92c-2.48,2.85-4.79,5.58-6.91,8.23c-2.15,2.65-4.11,5.21-5.95,7.72
	c-1.85,2.51-3.51,4.93-5.12,7.32c-1.55,2.39-3.04,4.74-4.36,7.06c-2.68,4.64-4.94,9.18-6.86,13.65c-1.94,4.46-3.56,8.86-4.9,13.14
	c-1.35,4.28-2.45,8.43-3.32,12.39c-0.94,3.94-1.6,7.7-2.18,11.13c-0.26,1.74-0.5,3.39-0.73,4.94c-0.2,1.58-0.39,3.06-0.56,4.43
	c-0.08,0.67-0.19,1.39-0.24,1.96c-0.06,0.57-0.12,1.13-0.17,1.65c-0.12,1.06-0.23,2.02-0.32,2.87c-0.3,4.77-0.46,7.32-0.46,7.32
	l-106.24-1.28c0,0-0.1-2.58-0.28-7.42c-0.01-1.54-0.02-3.27-0.03-5.16c0-0.95,0-1.94,0-2.98c0-1.05,0.03-2,0.05-3.07
	c0.05-2.1,0.06-4.35,0.18-6.77c0.13-2.43,0.24-5,0.42-7.74c0.77-10.95,2.22-24.5,5.8-40.16c1.77-7.82,4.03-16.17,7-24.84
	c2.99-8.66,6.66-17.65,11.04-26.68c4.37-9.03,9.45-18.09,15.08-26.82c2.81-4.36,5.75-8.68,8.76-12.85c3.01-4.21,6.09-8.3,9.18-12.28
	c3.09-4,6.2-7.87,9.25-11.62c3.05-3.75,6.07-7.43,8.98-10.92c5.82-7.01,11.22-13.59,15.68-19.67c4.48-6.1,8.1-11.7,10.72-16.9
	c2.69-5.2,4.6-10,5.89-15.1c0.65-2.55,1.17-5.18,1.57-7.94c0.37-2.78,0.61-5.7,0.74-8.77c0.02-1.56,0.09-3.11,0.04-4.75l0-0.9
	c0-0.09,0-0.16,0-0.07l-0.01-0.24l-0.02-0.96l-0.02-0.96l-0.01-0.48c-0.01-0.08-0.01-0.07-0.02-0.11c-0.02-0.12-0.04-0.24-0.05-0.36
	l-0.15-1.62c-0.07-0.58-0.12-1.16-0.22-1.74c-0.15-1.16-0.36-2.31-0.6-3.45c-1.85-9.14-6.18-17.79-12.15-24.95
	c-3.01-3.55-6.37-6.8-10.1-9.54c-1.85-1.39-3.78-2.67-5.78-3.84c-2.02-1.14-4.09-2.18-6.23-3.14c-4.29-1.85-8.85-3.24-13.64-4.14
	c-2.39-0.45-4.84-0.77-7.34-0.96l-0.47-0.04l-0.12-0.01c-0.27,0,2-0.02,0.93-0.02l-0.42,0l-1.69-0.02
	c-1.12-0.01-2.24-0.02-3.36-0.03c-0.54,0.01-1.09,0.02-1.63,0.02l-0.72-0.01c-0.27,0-0.41-0.03-0.8,0
	c-5.41,0.21-10.54,0.75-15.33,1.7c-4.81,0.89-9.29,2.16-13.44,3.67c-8.29,3.05-15.29,7.06-20.97,11.31
	c-2.83,2.13-5.36,4.3-7.57,6.42c-2.2,2.14-4.11,4.22-5.76,6.18c-0.77,1-1.57,1.93-2.23,2.84c-0.35,0.45-0.69,0.89-1.01,1.31
	c-0.3,0.44-0.6,0.86-0.88,1.27c-0.6,0.8-1.07,1.58-1.53,2.29c-0.23,0.35-0.46,0.69-0.67,1.01c-0.2,0.33-0.38,0.64-0.56,0.93
	c-0.75,1.16-1.23,2.09-1.59,2.71c-0.36,0.62-0.55,0.94-0.55,0.94l-95.7-31.9c0,0,0.24-0.89,0.71-2.61c0.47-1.73,1.19-4.28,2.29-7.56
	c0.53-1.65,1.14-3.48,1.92-5.46c0.75-1.99,1.58-4.16,2.58-6.46c0.5-1.15,1.01-2.35,1.55-3.59c0.57-1.22,1.17-2.48,1.78-3.77
	c1.2-2.62,2.68-5.28,4.21-8.13c3.17-5.62,6.93-11.71,11.51-18c4.62-6.25,10.02-12.73,16.34-19.12c12.59-12.79,28.9-25.28,48.64-35
	c9.83-4.91,20.52-8.99,31.77-12.24c11.27-3.18,23.11-5.52,35.27-6.71c0.71-0.09,1.67-0.15,2.51-0.22l2.6-0.19
	c1.67-0.11,3.35-0.22,5.04-0.33c1.12-0.05,2.23-0.11,3.36-0.16l1.69-0.08l0.42-0.02c-0.92,0.01,1.48-0.02,1.36-0.02l0.31-0.01
	l1.23-0.02c6.55-0.11,13.25,0.11,20.05,0.72c13.6,1.18,27.6,4.05,41.41,8.7c13.81,4.65,27.35,11.25,40.03,19.58
	c12.63,8.4,24.41,18.52,34.61,30.24c10.25,11.67,18.96,24.86,25.8,39.06c6.79,14.21,11.75,29.42,14.47,45.03
	c0.68,3.9,1.25,7.83,1.65,11.76c0.22,1.97,0.38,3.94,0.53,5.91c0.08,0.99,0.13,1.97,0.19,2.96l0.08,1.48l0.07,1.61l0.1,3.48
	l0.02,0.85l0,0.48l0,0.96l0,0.96l0,1.27L692.23,366.08z"/>
</svg>
