<!-- Generated by IcoMoon.io -->
<svg version="1.1" xmlns="http://www.w3.org/2000/svg" width="32" height="32" viewBox="0 0 32 32">
<title>rb-check</title>
<path d="M16 0c-8.837 0-16 7.163-16 16s7.163 16 16 16c8.837 0 16-7.163 16-16s-7.163-16-16-16zM27.059 20.67c-0.604 1.428-1.47 2.712-2.573 3.816s-2.387 1.969-3.816 2.573c-1.477 0.625-3.048 0.941-4.67 0.941s-3.193-0.317-4.67-0.941c-1.428-0.604-2.712-1.47-3.816-2.573s-1.969-2.387-2.573-3.816c-0.625-1.477-0.941-3.048-0.941-4.67s0.317-3.193 0.941-4.67c0.604-1.428 1.47-2.712 2.573-3.816s2.387-1.969 3.816-2.573c1.477-0.625 3.048-0.941 4.67-0.941s3.193 0.317 4.67 0.941c1.428 0.604 2.712 1.47 3.816 2.573s1.969 2.387 2.573 3.816c0.625 1.477 0.941 3.048 0.941 4.67s-0.317 3.193-0.941 4.67z"></path>
<path d="M24 16c0 4.418-3.582 8-8 8s-8-3.582-8-8c0-4.418 3.582-8 8-8s8 3.582 8 8z"></path>
</svg>
