<?xml version="1.0" encoding="utf-8"?>
<!-- Generator: Adobe Illustrator 17.0.1, SVG Export Plug-In . SVG Version: 6.00 Build 0)  -->
<!DOCTYPE svg PUBLIC "-//W3C//DTD SVG 1.1//EN" "http://www.w3.org/Graphics/SVG/1.1/DTD/svg11.dtd">
<svg version="1.1" id="Layer_1" xmlns="http://www.w3.org/2000/svg" xmlns:xlink="http://www.w3.org/1999/xlink" x="0px" y="0px"
	 width="1024px" height="1024px" viewBox="0 0 1024 1024" enable-background="new 0 0 1024 1024" xml:space="preserve">
<g>
	<path d="M512,128c51.9,0,102.17,10.13,149.43,30.12c45.71,19.33,86.79,47.04,122.1,82.35c35.31,35.31,63.01,76.39,82.35,122.1
		C885.86,409.83,896,460.1,896,512s-10.13,102.17-30.12,149.43c-19.33,45.71-47.04,86.79-82.35,122.1
		c-35.31,35.31-76.39,63.01-122.1,82.35C614.17,885.87,563.9,896,512,896c-51.9,0-102.17-10.13-149.43-30.12
		c-45.71-19.33-86.79-47.04-122.1-82.35c-35.31-35.31-63.01-76.39-82.35-122.1C138.13,614.17,128,563.9,128,512
		s10.13-102.17,30.12-149.43c19.33-45.71,47.04-86.79,82.35-122.1c35.31-35.31,76.39-63.01,122.1-82.35
		C409.83,138.14,460.1,128,512,128 M512,0C229.23,0,0,229.23,0,512s229.23,512,512,512s512-229.23,512-512S794.77,0,512,0L512,0z"/>
</g>
</svg>
