<!-- Generated by IcoMoon.io -->
<svg version="1.1" xmlns="http://www.w3.org/2000/svg" width="32" height="32" viewBox="0 0 32 32">
<title>recaptcha</title>
<path d="M32 16c0 2.159-0.423 4.255-1.258 6.228-0.806 1.906-1.959 3.617-3.428 5.085s-3.18 2.622-5.085 3.428c-1.974 0.835-4.069 1.258-6.228 1.258s-4.255-0.423-6.228-1.258c-1.797-0.76-3.422-1.829-4.832-3.181-0.085-0.081-0.169-0.164-0.253-0.247-0.063-0.063-0.125-0.126-0.186-0.19v4.876h-4v-12h12v4h-5.437c0.226 0.253 0.463 0.495 0.709 0.727 2.15 2.028 5.046 3.273 8.227 3.273 6.617 0 12-5.383 12-12h4z"></path>
<path d="M12 0.5v12h-4v-5.436c-0.253 0.226-0.495 0.462-0.728 0.709-2.028 2.15-3.272 5.046-3.272 8.227 0 0.16 0.003 0.32 0.009 0.478h-4.002c-0.005-0.159-0.007-0.318-0.007-0.478 0-2.159 0.423-4.255 1.258-6.228 0.76-1.797 1.829-3.422 3.181-4.832 0.081-0.085 0.164-0.169 0.247-0.253 0.063-0.063 0.126-0.125 0.19-0.186h-4.876v-4h12z"></path>
<path d="M16 4c3.444 0 6.691 1.503 8.938 4h-4.938v4h12v-12h-4v5.415c-0.97-1.099-2.091-2.066-3.338-2.87-2.582-1.665-5.578-2.546-8.662-2.546z"></path>
</svg>
