<?xml version="1.0" encoding="utf-8"?>
<!-- Generator: Adobe Illustrator 21.1.0, SVG Export Plug-In . SVG Version: 6.00 Build 0)  -->
<svg version="1.1" id="Layer_1" xmlns="http://www.w3.org/2000/svg" xmlns:xlink="http://www.w3.org/1999/xlink" x="0px" y="0px"
	 viewBox="0 0 1024 1024" enable-background="new 0 0 1024 1024" xml:space="preserve">
<path d="M256,148"/>
<path d="M148,768"/>
<g>
	<g>
		<path d="M312.69,40.26c23.27-9.84,47.07-17.89,71.31-24.14v133.82c-58.1,20.59-109.81,54.81-151.28,98.78
			C167.82,317.51,128,410.19,128,512c0,5.13,0.1,10.23,0.3,15.31H0.23C0.07,522.22,0,517.12,0,512
			c0-69.09,13.55-136.15,40.26-199.31C64.58,255.18,98.8,203.2,142.05,158.05c2.6-2.72,5.24-5.42,7.91-8.09
			C196.96,102.96,251.71,66.05,312.69,40.26z"/>
		<path d="M1024,512c0,69.09-13.55,136.15-40.26,199.31c-25.79,60.98-62.7,115.73-109.7,162.73s-101.75,83.91-162.73,109.7
			C648.15,1010.45,581.09,1024,512,1024s-136.15-13.55-199.31-40.26c-57.51-24.32-109.49-58.54-154.64-101.79
			c-2.72-2.6-5.42-5.24-8.09-7.91c-47-47-83.91-101.75-109.7-162.73c-9.85-23.27-17.9-47.08-24.14-71.31h133.82
			c20.59,58.1,54.81,109.81,98.78,151.28C317.51,856.17,410.19,896,512,896c211.74,0,384-172.26,384-384H1024z"/>
		<path fill="#FFFFFF" d="M0.23,527.31C1.34,565.66,6.66,603.33,16.12,640H0V527.31H0.23z"/>
	</g>
	<path fill="#FFFFFF" d="M496.69,0v0.23C458.34,1.34,420.67,6.66,384,16.12V0H496.69z"/>
</g>
<polygon points="16,1024 16,640 400,640 400,768 144,768 144,1024 "/>
<polygon points="0,16 384,16 384,400 256,400 256,144 0,144 "/>
<path d="M512,128c110.2,0,214.11,48.09,286.03,128H640v128h384V0H896v173.29c-31.04-35.17-66.92-66.11-106.81-91.83
	C706.56,28.17,610.71,0,512,0"/>
</svg>
