<svg width="16" height="16" viewBox="0 0 16 16" fill="none" xmlns="http://www.w3.org/2000/svg">
<g clip-path="url(#clip0)">
<path fill-rule="evenodd" clip-rule="evenodd" d="M6.2685 10.0029L5.46841 12.1365C5.37145 12.395 5.08324 12.526 4.82468 12.4291C4.56612 12.3321 4.43512 12.0439 4.53208 11.7854L7.53208 3.78535C7.60526 3.5902 7.79182 3.46091 8.00024 3.46091C8.20867 3.46091 8.39523 3.5902 8.46841 3.78535L11.4684 11.7854C11.5654 12.0439 11.4344 12.3321 11.1758 12.4291C10.9172 12.526 10.629 12.395 10.5321 12.1365L9.73207 10.0031L6.2685 10.0029ZM9.35706 9.0031L6.64349 9.00294L8.00024 5.38492L9.35706 9.0031Z" fill="black"/>
<path fill-rule="evenodd" clip-rule="evenodd" d="M3.49972 0.000204027L12.4997 3.92902e-10C13.3282 -1.87453e-05 13.9998 0.67156 13.9998 1.5V14.5C13.9998 15.3284 13.3282 16 12.4998 16H3.49976C2.67133 16 1.99976 15.3284 1.99976 14.5V1.5002C1.99976 0.67179 2.67131 0.000222803 3.49972 0.000204027ZM12.4997 1L3.49974 1.0002C3.22361 1.00021 2.99976 1.22407 2.99976 1.5002V14.5C2.99976 14.7761 3.22361 15 3.49976 15H12.4998C12.7759 15 12.9998 14.7761 12.9998 14.5V1.5C12.9998 1.22385 12.7759 0.999994 12.4997 1Z" fill="black"/>
</g>
<defs>
<clipPath id="clip0">
<rect width="16" height="16" fill="white"/>
</clipPath>
</defs>
</svg>
