<svg width="16" height="16" viewBox="0 0 16 16" fill="none" xmlns="http://www.w3.org/2000/svg">
<path fill-rule="evenodd" clip-rule="evenodd" d="M12.5 1L3.49999 1.0002C3.22385 1.00021 3 1.22407 3 1.5002V14.5C3 14.7761 3.22386 15 3.5 15H12.5C12.7761 15 13 14.7761 13 14.5V1.5C13 1.22385 12.7761 0.999994 12.5 1ZM3.49997 0.000203997L12.5 3.91083e-10C13.3284 -1.87751e-05 14 0.67156 14 1.5V14.5C14 15.3284 13.3284 16 12.5 16H3.5C2.67157 16 2 15.3284 2 14.5V1.5002C2 0.67179 2.67155 0.000222773 3.49997 0.000203997Z" fill="black"/>
</svg>
