<?xml version="1.0" encoding="utf-8"?>
<!-- Generator: Adobe Illustrator 17.0.1, SVG Export Plug-In . SVG Version: 6.00 Build 0)  -->
<!DOCTYPE svg PUBLIC "-//W3C//DTD SVG 1.1//EN" "http://www.w3.org/Graphics/SVG/1.1/DTD/svg11.dtd">
<svg version="1.1" id="Layer_1" xmlns="http://www.w3.org/2000/svg" xmlns:xlink="http://www.w3.org/1999/xlink" x="0px" y="0px"
	 width="1024px" height="1024px" viewBox="0 0 1024 1024" enable-background="new 0 0 1024 1024" xml:space="preserve">
<g>
	<polygon points="288,432 224,496 160,432 112,480 176,544 112,608 160,656 224,592 288,656 336,608 272,544 336,480 	"/>
	<polygon points="288,112 224,176 160,112 112,160 176,224 112,288 160,336 224,272 288,336 336,288 272,224 336,160 	"/>
	<polygon points="288,752 224,816 160,752 112,800 176,864 112,928 160,976 224,912 288,976 336,928 272,864 336,800 	"/>
	<rect x="448" y="832" width="448" height="64"/>
	<rect x="448" y="512" width="448" height="64"/>
	<rect x="448" y="192" width="448" height="64"/>
</g>
</svg>
