<!-- Generated by IcoMoon.io -->
<svg version="1.1" xmlns="http://www.w3.org/2000/svg" width="32" height="32" viewBox="0 0 32 32">
<title>restriction-list</title>
<path d="M9 13.5l-2 2-2-2-1.5 1.5 2 2-2 2 1.5 1.5 2-2 2 2 1.5-1.5-2-2 2-2z"></path>
<path d="M9 3.5l-2 2-2-2-1.5 1.5 2 2-2 2 1.5 1.5 2-2 2 2 1.5-1.5-2-2 2-2z"></path>
<path d="M9 23.5l-2 2-2-2-1.5 1.5 2 2-2 2 1.5 1.5 2-2 2 2 1.5-1.5-2-2 2-2z"></path>
<path d="M14 26h14v2h-14v-2z"></path>
<path d="M14 16h14v2h-14v-2z"></path>
<path d="M14 6h14v2h-14v-2z"></path>
</svg>
