<?xml version="1.0" encoding="utf-8"?>
<!-- Generator: Adobe Illustrator 17.0.1, SVG Export Plug-In . SVG Version: 6.00 Build 0)  -->
<!DOCTYPE svg PUBLIC "-//W3C//DTD SVG 1.1//EN" "http://www.w3.org/Graphics/SVG/1.1/DTD/svg11.dtd">
<svg version="1.1" id="Layer_1" xmlns="http://www.w3.org/2000/svg" xmlns:xlink="http://www.w3.org/1999/xlink" x="0px" y="0px"
	 width="1024px" height="1024px" viewBox="0 0 1024 1024" enable-background="new 0 0 1024 1024" xml:space="preserve">
<g>
	<path d="M128,512h192v64c0,46.11-9.84,79.33-29.25,98.75S238.11,704,192,704v128c81.29,0,144.97-22.46,189.25-66.75
		S448,657.29,448,576v-64V384V192H128V512z"/>
	<path d="M576,192v320h192v64c0,46.11-9.84,79.33-29.25,98.75S686.11,704,640,704v128c81.29,0,144.97-22.46,189.25-66.75
		S896,657.29,896,576v-64V384V192H576z"/>
</g>
</svg>
