<?xml version="1.0" encoding="utf-8"?>
<!-- Generator: Adobe Illustrator 17.0.1, SVG Export Plug-In . SVG Version: 6.00 Build 0)  -->
<!DOCTYPE svg PUBLIC "-//W3C//DTD SVG 1.1//EN" "http://www.w3.org/Graphics/SVG/1.1/DTD/svg11.dtd">
<svg version="1.1" id="Layer_1" xmlns="http://www.w3.org/2000/svg" xmlns:xlink="http://www.w3.org/1999/xlink" x="0px" y="0px"
	 width="1024px" height="1024px" viewBox="0 0 1024 1024" enable-background="new 0 0 1024 1024" xml:space="preserve">
<path d="M640,384h384V0H896v173.29c-31.04-35.17-66.92-66.11-106.81-91.83C706.56,28.17,610.71,0,512,0
	c-69.09,0-136.15,13.55-199.31,40.26c-60.98,25.79-115.73,62.7-162.73,109.7c-47,47-83.91,101.75-109.7,162.73
	C13.55,375.85,0,442.91,0,512s13.55,136.15,40.26,199.31c25.79,60.98,62.7,115.73,109.7,162.73s101.75,83.91,162.73,109.7
	C375.85,1010.45,442.91,1024,512,1024s136.15-13.55,199.31-40.26c60.98-25.79,115.73-62.7,162.73-109.7s83.91-101.75,109.7-162.73
	C1010.45,648.15,1024,581.09,1024,512H896c0,211.74-172.26,384-384,384S128,723.74,128,512c0-211.74,172.26-384,384-384
	c110.2,0,214.11,48.09,286.03,128H640V384z"/>
</svg>
