<?xml version="1.0" encoding="utf-8"?>
<!-- Generator: Adobe Illustrator 17.0.1, SVG Export Plug-In . SVG Version: 6.00 Build 0)  -->
<!DOCTYPE svg PUBLIC "-//W3C//DTD SVG 1.1//EN" "http://www.w3.org/Graphics/SVG/1.1/DTD/svg11.dtd">
<svg version="1.1" id="Layer_1" xmlns="http://www.w3.org/2000/svg" xmlns:xlink="http://www.w3.org/1999/xlink" x="0px" y="0px"
	 width="1024px" height="1024px" viewBox="0 0 1024 1024" enable-background="new 0 0 1024 1024" xml:space="preserve">
<g>
	<path d="M896,0v173.29c-31.04-35.17-66.92-66.11-106.81-91.83C706.56,28.17,610.71,0,512,0c-69.09,0-136.15,13.55-199.31,40.26
		c-60.98,25.79-115.73,62.7-162.73,109.7S66.05,251.71,40.26,312.69C13.55,375.85,0,442.91,0,512h128c0-211.74,172.26-384,384-384
		c110.2,0,214.11,48.09,286.03,128H640v128h384V0H896z"/>
	<path d="M512,896c-110.2,0-214.11-48.09-286.03-128H384V640H0v384h128V850.71c31.04,35.17,66.92,66.11,106.81,91.83
		C317.44,995.83,413.29,1024,512,1024c69.09,0,136.15-13.55,199.31-40.26c60.98-25.79,115.73-62.7,162.73-109.7
		s83.91-101.75,109.7-162.73C1010.45,648.15,1024,581.09,1024,512H896C896,723.74,723.74,896,512,896z"/>
</g>
</svg>
