<?xml version="1.0" encoding="utf-8"?>
<!-- Generator: Adobe Illustrator 17.0.1, SVG Export Plug-In . SVG Version: 6.00 Build 0)  -->
<!DOCTYPE svg PUBLIC "-//W3C//DTD SVG 1.1//EN" "http://www.w3.org/Graphics/SVG/1.1/DTD/svg11.dtd">
<svg version="1.1" id="Layer_1" xmlns="http://www.w3.org/2000/svg" xmlns:xlink="http://www.w3.org/1999/xlink" x="0px" y="0px"
	 width="1024px" height="1024px" viewBox="0 0 1024 1024" enable-background="new 0 0 1024 1024" xml:space="preserve">
<path d="M384,384H0V0h128v173.29c31.04-35.17,66.92-66.11,106.81-91.83C317.44,28.17,413.29,0,512,0
	c69.09,0,136.15,13.55,199.31,40.26c60.98,25.79,115.73,62.7,162.73,109.7c47,47,83.91,101.75,109.7,162.73
	C1010.45,375.85,1024,442.91,1024,512s-13.55,136.15-40.26,199.31c-25.79,60.98-62.7,115.73-109.7,162.73
	s-101.75,83.91-162.73,109.7C648.15,1010.45,581.09,1024,512,1024s-136.15-13.55-199.31-40.26
	c-60.98-25.79-115.73-62.7-162.73-109.7S66.05,772.29,40.26,711.31C13.55,648.15,0,581.09,0,512h128c0,211.74,172.26,384,384,384
	s384-172.26,384-384c0-211.74-172.26-384-384-384c-110.2,0-214.11,48.09-286.03,128H384V384z"/>
</svg>
