<!-- Generated by IcoMoon.io -->
<svg version="1.1" xmlns="http://www.w3.org/2000/svg" width="32" height="32" viewBox="0 0 32 32">
<title>rotate-left</title>
<path d="M12 12h-12v-12h4v5.415c0.97-1.099 2.091-2.066 3.338-2.87 2.582-1.665 5.577-2.546 8.662-2.546 2.159 0 4.255 0.423 6.228 1.258 1.906 0.806 3.617 1.959 5.085 3.428s2.622 3.18 3.428 5.085c0.835 1.974 1.258 4.069 1.258 6.228s-0.423 4.255-1.258 6.228c-0.806 1.906-1.959 3.617-3.428 5.085s-3.18 2.622-5.085 3.428c-1.974 0.835-4.069 1.258-6.228 1.258s-4.255-0.423-6.228-1.258c-1.906-0.806-3.617-1.959-5.085-3.428s-2.622-3.18-3.428-5.085c-0.835-1.974-1.258-4.069-1.258-6.228h4c0 6.617 5.383 12 12 12s12-5.383 12-12c0-6.617-5.383-12-12-12-3.444 0-6.691 1.503-8.938 4h4.938v4z"></path>
</svg>
