<?xml version="1.0" encoding="utf-8"?>
<!-- Generator: Adobe Illustrator 17.0.1, SVG Export Plug-In . SVG Version: 6.00 Build 0)  -->
<!DOCTYPE svg PUBLIC "-//W3C//DTD SVG 1.1//EN" "http://www.w3.org/Graphics/SVG/1.1/DTD/svg11.dtd">
<svg version="1.1" id="Layer_1" xmlns="http://www.w3.org/2000/svg" xmlns:xlink="http://www.w3.org/1999/xlink" x="0px" y="0px"
	 width="1024px" height="1024px" viewBox="0 0 1024 1024" enable-background="new 0 0 1024 1024" xml:space="preserve">
<path d="M64,64v896h896V64H64z M272,832c-44.18,0-80-35.82-80-80s35.82-80,80-80c44.18,0,80,35.82,80,80S316.18,832,272,832z
	 M488,832c0-163.21-132.79-296-296-296V424c55.06,0,108.49,10.79,158.83,32.09c48.59,20.55,92.22,49.96,129.67,87.41
	c37.45,37.45,66.86,81.08,87.42,129.67C589.21,723.51,600,776.95,600,832H488z M712,832c0-286.73-233.27-520-520-520V200
	c85.29,0,168.07,16.72,246.02,49.69c75.26,31.83,142.85,77.4,200.87,135.42c58.02,58.02,103.59,125.61,135.42,200.87
	C807.28,663.93,824,746.71,824,832H712z"/>
</svg>
