<!-- Generated by IcoMoon.io -->
<svg version="1.1" xmlns="http://www.w3.org/2000/svg" width="32" height="32" viewBox="0 0 32 32">
<title>rss</title>
<path d="M2 2v28h28v-28h-28zM8.5 26c-1.381 0-2.5-1.119-2.5-2.5s1.119-2.5 2.5-2.5c1.381 0 2.5 1.119 2.5 2.5s-1.119 2.5-2.5 2.5zM15.25 26c0-5.1-4.15-9.25-9.25-9.25v-3.5c1.721 0 3.39 0.337 4.963 1.003 1.518 0.642 2.882 1.561 4.052 2.732s2.089 2.534 2.732 4.052c0.665 1.573 1.003 3.243 1.003 4.963h-3.5zM22.25 26c0-8.96-7.29-16.25-16.25-16.25v-3.5c2.665 0 5.252 0.522 7.688 1.553 2.352 0.995 4.464 2.419 6.277 4.232s3.237 3.925 4.232 6.277c1.030 2.436 1.553 5.023 1.553 7.688h-3.5z"></path>
</svg>
