<?xml version="1.0" encoding="utf-8"?>
<!-- Generator: Adobe Illustrator 17.0.1, SVG Export Plug-In . SVG Version: 6.00 Build 0)  -->
<!DOCTYPE svg PUBLIC "-//W3C//DTD SVG 1.1//EN" "http://www.w3.org/Graphics/SVG/1.1/DTD/svg11.dtd">
<svg version="1.1" id="Layer_1" xmlns="http://www.w3.org/2000/svg" xmlns:xlink="http://www.w3.org/1999/xlink" x="0px" y="0px"
	 width="1024px" height="1024px" viewBox="0 0 1024 1024" enable-background="new 0 0 1024 1024" xml:space="preserve">
<g>
	<path d="M655,448c-27.01-13.92-55.07-25.91-82.37-37.22c-116.37-48.24-181.5-57.32-181.5-128.81c0-39.16,36-82.36,136.89-82.36
		c106.7,0,187.41,52.15,187.41,52.15l78.22-104.3c0,0-107.79-102.67-285.41-102.67S219.26,169.96,219.26,293.68
		c0,66.09,18.26,115.43,50.19,154.32H655z"/>
	<path d="M64,576h431.78c94.39,34.46,148.45,61.47,148.45,130.13c0,73.85-73.02,108.74-136,108.74
		c-138.51,0-239.49-93.03-239.49-93.03L176,827.12c0,0,113.75,148.88,332.23,148.88c153.69,0,313.42-67.84,313.42-281.36
		c0-47.2-9.67-86.07-26.08-118.64H960v-64H64V576z"/>
</g>
</svg>
