<!-- Generated by IcoMoon.io -->
<svg version="1.1" xmlns="http://www.w3.org/2000/svg" width="32" height="32" viewBox="0 0 32 32">
<title>s</title>
<path d="M20.469 14c-0.844-0.435-1.721-0.81-2.574-1.163-3.637-1.508-5.672-1.791-5.672-4.025 0-1.224 1.125-2.574 4.278-2.574 3.334 0 5.857 1.63 5.857 1.63l2.444-3.259c0 0-3.368-3.208-8.919-3.208s-9.031 3.912-9.031 7.778c0 2.065 0.571 3.607 1.568 4.822h12.048z"></path>
<path d="M2 18h13.493c2.95 1.077 4.639 1.921 4.639 4.067 0 2.308-2.282 3.398-4.25 3.398-4.328 0-7.484-2.907-7.484-2.907l-2.898 3.29c0 0 3.555 4.652 10.382 4.652 4.803 0 9.794-2.12 9.794-8.793 0-1.475-0.302-2.69-0.815-3.707h5.138v-2h-28v2z"></path>
</svg>
