<svg width="16" height="16" viewBox="0 0 16 16" fill="none" xmlns="http://www.w3.org/2000/svg">
<path fill-rule="evenodd" clip-rule="evenodd" d="M6.76828 6.29116C6.55956 6.39003 6.39149 6.55809 6.29263 6.76681L4.84531 9.82227C4.44306 10.6714 5.32795 11.5563 6.17713 11.1541L9.23259 9.70677C9.44131 9.60791 9.60937 9.43984 9.70824 9.23112L11.1556 6.17566C11.5578 5.32649 10.6729 4.4416 9.82374 4.84384L6.76828 6.29116ZM10.2518 5.74758L7.67589 6.96775L9.03164 8.32351L10.2518 5.74758ZM5.74904 10.2504L6.96894 7.67502L8.32438 9.03046L5.74904 10.2504Z" fill="black"/>
<path fill-rule="evenodd" clip-rule="evenodd" d="M8 15C11.866 15 15 11.866 15 8C15 4.13401 11.866 1 8 1C4.13401 1 1 4.13401 1 8C1 11.866 4.13401 15 8 15ZM14 8C14 11.3137 11.3137 14 8 14C4.68629 14 2 11.3137 2 8C2 4.68629 4.68629 2 8 2C11.3137 2 14 4.68629 14 8Z" fill="black"/>
</svg>
