<!-- Generated by IcoMoon.io -->
<svg version="1.1" xmlns="http://www.w3.org/2000/svg" width="32" height="32" viewBox="0 0 32 32">
<title>safari</title>
<path d="M16.96 15.936q0 0.48-0.32 0.8t-0.736 0.352q-0.448 0-0.8-0.288t-0.32-0.736q0-0.48 0.288-0.8t0.736-0.352 0.8 0.288 0.352 0.736zM17.216 16.992l6.24-10.4q-0.16 0.16-1.184 1.12t-2.24 2.080-2.464 2.272-2.080 1.984-0.896 0.928l-6.24 10.336q0.128-0.128 1.216-1.088t2.24-2.080 2.432-2.272 2.080-1.984 0.896-0.896zM28.768 16q0 3.584-1.856 6.624-0.064-0.032-0.288-0.192t-0.48-0.288-0.288-0.16q-0.256 0-0.256 0.256 0 0.16 1.056 0.768-1.312 2.016-3.296 3.424t-4.32 1.952l-0.256-1.184q-0.032-0.192-0.288-0.192-0.096 0-0.128 0.096t-0.032 0.192l0.288 1.216q-1.312 0.256-2.624 0.256-3.552 0-6.656-1.888 0.032-0.032 0.256-0.352t0.384-0.608 0.16-0.32q0-0.256-0.224-0.256-0.128 0-0.32 0.256t-0.384 0.64-0.256 0.416q-2.016-1.344-3.424-3.36t-1.952-4.384l1.216-0.256q0.192-0.064 0.192-0.256 0-0.096-0.096-0.16t-0.192-0.032l-1.216 0.288q-0.256-1.312-0.256-2.496 0-3.68 1.952-6.784 0.032 0.032 0.32 0.224t0.544 0.352 0.32 0.128q0.224 0 0.224-0.192 0-0.128-0.224-0.288t-0.576-0.384l-0.352-0.224q1.376-1.984 3.36-3.36t4.352-1.92l0.288 1.184q0.032 0.192 0.256 0.192 0.096 0 0.16-0.096t0.032-0.192l-0.288-1.184q1.28-0.224 2.4-0.224 3.648 0 6.784 1.952-0.704 0.992-0.704 1.152 0 0.224 0.192 0.224 0.224 0 0.864-1.12 1.984 1.312 3.36 3.296t1.92 4.32l-0.992 0.224q-0.192 0.032-0.192 0.256 0 0.096 0.096 0.16t0.16 0.032l1.024-0.224q0.256 1.28 0.256 2.496zM30.272 16q0-2.912-1.12-5.568t-3.040-4.544-4.544-3.040-5.568-1.12-5.536 1.12-4.576 3.040-3.040 4.544-1.12 5.568 1.12 5.536 3.040 4.576 4.576 3.040 5.536 1.12 5.568-1.12 4.544-3.040 3.040-4.576 1.12-5.536zM32 16q0 3.264-1.28 6.208t-3.392 5.12-5.12 3.392-6.208 1.28-6.208-1.28-5.12-3.392-3.392-5.12-1.28-6.208 1.28-6.208 3.392-5.12 5.12-3.392 6.208-1.28 6.208 1.28 5.12 3.392 3.392 5.12 1.28 6.208z"></path>
</svg>
