<!-- Generated by IcoMoon.io -->
<svg version="1.1" xmlns="http://www.w3.org/2000/svg" width="32" height="32" viewBox="0 0 32 32">
<title>scheme-path-circles</title>
<path d="M5 10c2.762 0 5-2.238 5-5s-2.238-5-5-5-5 2.238-5 5 2.238 5 5 5zM5 1.75c1.792 0 3.25 1.458 3.25 3.25s-1.458 3.25-3.25 3.25-3.25-1.458-3.25-3.25 1.458-3.25 3.25-3.25z"></path>
<path d="M16 11c-2.762 0-5 2.238-5 5s2.238 5 5 5 5-2.238 5-5-2.238-5-5-5zM16 19.25c-1.792 0-3.25-1.458-3.25-3.25s1.458-3.25 3.25-3.25 3.25 1.458 3.25 3.25-1.458 3.25-3.25 3.25z"></path>
<path d="M30 10.5c0 2.481-2.019 4.5-4.5 4.5h-2.5v2h2.5c3.584 0 6.5-2.916 6.5-6.5s-2.916-6.5-6.5-6.5h-13.5v2h13.5c2.481 0 4.5 2.019 4.5 4.5z"></path>
<path d="M2 21.5c0-2.481 2.019-4.5 4.5-4.5h2.5v-2h-2.5c-3.584 0-6.5 2.916-6.5 6.5s2.916 6.5 6.5 6.5h13.5v-2h-13.5c-2.481 0-4.5-2.019-4.5-4.5z"></path>
<path d="M25.5 27.262l-2.381-2.381-1.238 1.238 3.619 3.619 5.619-5.619-1.238-1.238z"></path>
</svg>
