<!-- Generated by IcoMoon.io -->
<svg version="1.1" xmlns="http://www.w3.org/2000/svg" width="32" height="32" viewBox="0 0 32 32">
<title>scheme-path-circles-flipped</title>
<path d="M0 26.925c0 2.762 2.237 5 5 5s5-2.238 5-5-2.237-5-5-5-5 2.238-5 5zM1.75 26.925c0-1.794 1.456-3.25 3.25-3.25s3.25 1.456 3.25 3.25c0 1.791-1.456 3.25-3.25 3.25s-3.25-1.459-3.25-3.25z"></path>
<path d="M21 15.925c0-2.762-2.238-5-5-5s-5 2.238-5 5 2.238 5 5 5 5-2.238 5-5zM19.25 15.925c0 1.791-1.459 3.25-3.25 3.25s-3.25-1.459-3.25-3.25 1.456-3.25 3.25-3.25 3.25 1.456 3.25 3.25z"></path>
<path d="M25.5 25.925h-13.5v2h13.5c3.584 0 6.5-2.916 6.5-6.5s-2.916-6.5-6.5-6.5h-2.5v2h2.5c2.481 0 4.5 2.019 4.5 4.5s-2.019 4.5-4.5 4.5z"></path>
<path d="M6.5 5.925h13.5v-2h-13.5c-3.584 0-6.5 2.916-6.5 6.5s2.916 6.5 6.5 6.5h2.5v-2h-2.5c-2.481 0-4.5-2.019-4.5-4.5s2.019-4.5 4.5-4.5z"></path>
<path d="M25.5 5.631l-2.381-2.381-1.238 1.238 3.619 3.619 5.619-5.619-1.238-1.238z"></path>
</svg>
