<?xml version="1.0" encoding="utf-8"?>
<!-- Generator: Adobe Illustrator 19.1.0, SVG Export Plug-In . SVG Version: 6.00 Build 0)  -->
<svg version="1.1" id="Layer_1" xmlns="http://www.w3.org/2000/svg" xmlns:xlink="http://www.w3.org/1999/xlink" x="0px" y="0px"
	 viewBox="0 0 1024 1024" enable-background="new 0 0 1024 1024" xml:space="preserve">
<path d="M800,703.5c-47.86,0-90.89,21.07-120.32,54.41L371.98,580.26c8.08-21.23,12.52-44.23,12.52-68.26
	c0-23.93-4.4-46.84-12.41-67.99l307.78-177.7c29.43,33.21,72.37,54.19,120.13,54.19c88.5,0,160.5-72,160.5-160.5S888.5-0.5,800-0.5
	S639.5,71.5,639.5,160c0,17.79,2.92,34.92,8.29,50.93L339.76,388.77C304.42,346.46,251.3,319.5,192,319.5
	C85.86,319.5-0.5,405.85-0.5,512S85.86,704.5,192,704.5c59.2,0,112.24-26.87,147.58-69.05L647.7,813.34
	c-5.31,15.93-8.2,32.96-8.2,50.66c0,88.5,72,160.5,160.5,160.5s160.5-72,160.5-160.5S888.5,703.5,800,703.5z"/>
</svg>
