<!-- Generated by IcoMoon.io -->
<svg version="1.1" xmlns="http://www.w3.org/2000/svg" width="32" height="32" viewBox="0 0 32 32">
<title>scheme-circles-triangle</title>
<path d="M27 19.984c-0.556 0-1.091 0.091-1.592 0.259l-6.066-10.507c1.026-0.919 1.673-2.253 1.673-3.736 0-2.766-2.25-5.016-5.016-5.016s-5.016 2.25-5.016 5.016c0 1.48 0.644 2.812 1.667 3.73l-6.068 10.51c-0.498-0.166-1.030-0.256-1.583-0.256-2.766 0-5.016 2.25-5.016 5.016s2.25 5.016 5.016 5.016c2.423 0 4.451-1.727 4.915-4.016h12.169c0.465 2.288 2.492 4.016 4.915 4.016 2.766 0 5.016-2.25 5.016-5.016s-2.25-5.016-5.016-5.016zM14.375 10.745c0.51 0.175 1.057 0.271 1.625 0.271 0.566 0 1.109-0.094 1.617-0.268l6.061 10.498c-0.8 0.709-1.372 1.668-1.593 2.754h-12.169c-0.221-1.089-0.797-2.051-1.6-2.76l6.059-10.495z"></path>
</svg>
