<?xml version="1.0" encoding="utf-8"?>
<!-- Generator: Adobe Illustrator 19.1.0, SVG Export Plug-In . SVG Version: 6.00 Build 0)  -->
<svg version="1.1" id="Layer_1" xmlns="http://www.w3.org/2000/svg" xmlns:xlink="http://www.w3.org/1999/xlink" x="0px" y="0px"
	 viewBox="0 0 1024 1024" enable-background="new 0 0 1024 1024" xml:space="preserve">
<g>
	<path d="M160,320c88.37,0,160-71.63,160-160S248.37,0,160,0S0,71.63,0,160S71.63,320,160,320z M160,56c57.35,0,104,46.65,104,104
		s-46.65,104-104,104S56,217.35,56,160S102.65,56,160,56z"/>
	<path d="M512,352c-88.37,0-160,71.63-160,160s71.63,160,160,160s160-71.63,160-160S600.37,352,512,352z M512,616
		c-57.35,0-104-46.65-104-104s46.65-104,104-104s104,46.65,104,104S569.35,616,512,616z"/>
	<path d="M960,336c0,79.4-64.6,144-144,144h-80v64h80c114.69,0,208-93.31,208-208s-93.31-208-208-208H384v64h432
		C895.4,192,960,256.6,960,336z"/>
	<path d="M64,688c0-79.4,64.6-144,144-144h80v-64h-80C93.31,480,0,573.31,0,688s93.31,208,208,208h432v-64H208
		C128.6,832,64,767.4,64,688z"/>
	<polygon points="816,872.4 739.8,796.2 700.2,835.8 816,951.6 995.8,771.8 956.2,732.2 	"/>
</g>
</svg>
