<?xml version="1.0" encoding="utf-8"?>
<!-- Generator: Adobe Illustrator 18.1.1, SVG Export Plug-In . SVG Version: 6.00 Build 0)  -->
<svg version="1.1" id="Layer_1" xmlns="http://www.w3.org/2000/svg" xmlns:xlink="http://www.w3.org/1999/xlink" x="0px" y="0px"
	 viewBox="0 0 1024 1024" enable-background="new 0 0 1024 1024" xml:space="preserve">
<path d="M864,639.5c-17.79,0-34.92,2.92-50.93,8.29L618.95,311.56c32.84-29.41,53.55-72.11,53.55-119.56
	c0-88.5-72-160.5-160.5-160.5s-160.5,72-160.5,160.5c0,47.35,20.61,89.97,53.33,119.37L210.66,647.7
	c-15.93-5.31-32.96-8.2-50.66-8.2c-88.5,0-160.5,72-160.5,160.5s72,160.5,160.5,160.5c77.54,0,142.42-55.28,157.29-128.5h389.42
	c14.87,73.22,79.75,128.5,157.29,128.5c88.5,0,160.5-72,160.5-160.5S952.5,639.5,864,639.5z M459.99,343.84
	c16.32,5.61,33.82,8.66,52.01,8.66c18.1,0,35.5-3.01,51.74-8.56l193.95,335.93c-25.6,22.68-43.92,53.38-50.98,88.13H317.29
	c-7.08-34.85-25.49-65.63-51.2-88.32L459.99,343.84z"/>
</svg>
