<!-- Generated by IcoMoon.io -->
<svg version="1.1" xmlns="http://www.w3.org/2000/svg" width="32" height="32" viewBox="0 0 32 32">
<title>scheme-connected-circles</title>
<path d="M25 21.984c-1.496 0-2.84 0.658-3.76 1.7l-9.616-5.552c0.252-0.663 0.391-1.382 0.391-2.133 0-0.748-0.137-1.464-0.388-2.125l9.618-5.553c0.92 1.038 2.262 1.693 3.754 1.693 2.766 0 5.016-2.25 5.016-5.016s-2.25-5.016-5.016-5.016-5.016 2.25-5.016 5.016c0 0.556 0.091 1.091 0.259 1.592l-9.626 5.557c-1.104-1.322-2.764-2.165-4.617-2.165-3.317 0-6.016 2.698-6.016 6.016s2.699 6.016 6.016 6.016c1.85 0 3.508-0.84 4.612-2.158l9.629 5.559c-0.166 0.498-0.256 1.030-0.256 1.583 0 2.766 2.25 5.016 5.016 5.016s5.016-2.25 5.016-5.016-2.25-5.016-5.016-5.016z"></path>
</svg>
