<?xml version="1.0" encoding="utf-8"?>
<!-- Generator: Adobe Illustrator 21.1.0, SVG Export Plug-In . SVG Version: 6.00 Build 0)  -->
<svg version="1.1" id="Layer_1" xmlns="http://www.w3.org/2000/svg" xmlns:xlink="http://www.w3.org/1999/xlink" x="0px" y="0px"
	 viewBox="0 0 1024 1024" enable-background="new 0 0 1024 1024" xml:space="preserve">
<g>
	<path d="M0,861.6c0,88.4,71.6,160,160,160s160-71.6,160-160s-71.6-160-160-160S0,773.2,0,861.6z M56,861.6c0-57.4,46.6-104,104-104
		s104,46.6,104,104c0,57.3-46.6,104-104,104S56,918.9,56,861.6z"/>
	<path d="M672,509.6c0-88.4-71.6-160-160-160s-160,71.6-160,160s71.6,160,160,160S672,598,672,509.6z M616,509.6
		c0,57.3-46.7,104-104,104s-104-46.7-104-104s46.6-104,104-104S616,452.2,616,509.6z"/>
	<path d="M816,829.6H384v64h432c114.7,0,208-93.3,208-208s-93.3-208-208-208h-80v64h80c79.4,0,144,64.6,144,144
		S895.4,829.6,816,829.6z"/>
	<path d="M208,189.6h432v-64H208c-114.7,0-208,93.3-208,208s93.3,208,208,208h80v-64h-80c-79.4,0-144-64.6-144-144
		S128.6,189.6,208,189.6z"/>
	<polygon points="816,180.2 739.8,104 700.2,143.6 816,259.4 995.8,79.6 956.2,40 	"/>
</g>
</svg>
