<!-- Generated by IcoMoon.io -->
<svg version="1.1" xmlns="http://www.w3.org/2000/svg" width="32" height="32" viewBox="0 0 32 32">
<title>scissors</title>
<path d="M28 20l4-6-17.36 3.36 3.36-17.36-6 4c0 0-0.68 7.479-1.247 14.112l-2.807 0.543c0.035-0.213 0.054-0.432 0.054-0.656 0-2.209-1.791-4-4-4s-4 1.791-4 4 1.791 4 4 4c0.029 0 0.062-0 0.099-0.001 0.002 0 0.004 0 0.007 0 0.774-0.018 3.263-0.207 6.359-0.463-0.256 3.097-0.446 5.585-0.463 6.359 0 0.002 0 0.004 0 0.007-0.001 0.037-0.001 0.070-0.001 0.099 0 2.209 1.791 4 4 4s4-1.791 4-4-1.791-4-4-4c-0.223 0-0.442 0.019-0.656 0.054l0.543-2.807c6.633-0.567 14.112-1.247 14.112-1.247zM4 20c-1.105 0-2-0.895-2-2s0.895-2 2-2 2 0.895 2 2-0.895 2-2 2zM14 26c1.105 0 2 0.895 2 2s-0.895 2-2 2-2-0.895-2-2c0-1.105 0.895-2 2-2z"></path>
</svg>
