<?xml version="1.0" encoding="utf-8"?>
<!-- Generator: Adobe Illustrator 17.0.1, SVG Export Plug-In . SVG Version: 6.00 Build 0)  -->
<!DOCTYPE svg PUBLIC "-//W3C//DTD SVG 1.1//EN" "http://www.w3.org/Graphics/SVG/1.1/DTD/svg11.dtd">
<svg version="1.1" id="Layer_1" xmlns="http://www.w3.org/2000/svg" xmlns:xlink="http://www.w3.org/1999/xlink" x="0px" y="0px"
	 width="1024px" height="1024px" viewBox="0 0 1024 1024" enable-background="new 0 0 1024 1024" xml:space="preserve">
<path d="M896,640l128-192L468.48,555.52L576,0L384,128c0,0-21.76,239.33-39.9,451.59l-89.82,17.38c1.13-6.83,1.72-13.83,1.72-20.98
	c0-70.69-57.31-128-128-128S0,505.31,0,576s57.31,128,128,128c0.92,0,1.98-0.01,3.17-0.04c0.07,0,0.14,0,0.21,0
	c24.77-0.57,104.41-6.64,203.5-14.83c-8.19,99.09-14.26,178.73-14.83,203.5c0,0.07,0,0.14,0,0.21c-0.03,1.18-0.04,2.24-0.04,3.17
	c0,70.69,57.31,128,128,128s128-57.31,128-128s-57.31-128-128-128c-7.15,0-14.15,0.6-20.98,1.72l17.38-89.82
	C656.67,661.76,896,640,896,640z M128,640c-35.35,0-64-28.65-64-64s28.65-64,64-64s64,28.65,64,64S163.35,640,128,640z M448,832
	c35.35,0,64,28.65,64,64c0,35.35-28.65,64-64,64s-64-28.65-64-64C384,860.65,412.65,832,448,832z"/>
</svg>
