<?xml version="1.0" encoding="utf-8"?>
<!-- Generator: Adobe Illustrator 18.1.1, SVG Export Plug-In . SVG Version: 6.00 Build 0)  -->
<svg version="1.1" id="Layer_1" xmlns="http://www.w3.org/2000/svg" xmlns:xlink="http://www.w3.org/1999/xlink" x="0px" y="0px"
	 viewBox="0 0 1024 1024" enable-background="new 0 0 1024 1024" xml:space="preserve">
<path d="M864,576c-77.41,0-141.97,54.97-156.8,128H640c-68.03,0-94.36-64.27-129.64-170.12c-16.4-49.2-33.35-100.07-59.73-139.63
	c-2.37-3.56-4.79-6.96-7.25-10.25H707.2c14.83,73.03,79.39,128,156.8,128c88.37,0,160-71.63,160-160s-71.63-160-160-160
	c-77.41,0-141.97,54.97-156.8,128H320.01c0,0-0.01,0-0.01,0l0,0h-3.2c-14.82-73.03-79.39-128-156.8-128C71.63,192,0,263.63,0,352
	s71.63,160,160,160c77.41,0,141.97-54.97,156.8-128h3.22c68.02,0.01,94.35,64.28,129.63,170.12c16.4,49.2,33.36,100.07,59.73,139.63
	c15.53,23.29,32.8,40.62,52.81,52.98C585.04,760.84,611.22,768,640,768h67.2c14.83,73.03,79.39,128,156.8,128
	c88.37,0,160-71.63,160-160S952.37,576,864,576z M864,248c57.35,0,104,46.65,104,104s-46.65,104-104,104s-104-46.65-104-104
	S806.65,248,864,248z M864,840c-57.35,0-104-46.65-104-104s46.65-104,104-104s104,46.65,104,104S921.35,840,864,840z"/>
</svg>
