<!-- Generated by IcoMoon.io -->
<svg version="1.1" xmlns="http://www.w3.org/2000/svg" width="32" height="32" viewBox="0 0 32 32">
<title>separate</title>
<path d="M27 18c-2.419 0-4.437 1.718-4.9 4h-2.1c-2.126 0-2.949-2.008-4.051-5.316-0.512-1.537-1.042-3.127-1.867-4.363-0.074-0.111-0.15-0.217-0.227-0.32h8.244c0.463 2.282 2.481 4 4.9 4 2.762 0 5-2.238 5-5s-2.238-5-5-5c-2.419 0-4.437 1.718-4.9 4h-12.1c0 0-0 0-0 0v0h-0.1c-0.463-2.282-2.481-4-4.9-4-2.762 0-5 2.238-5 5s2.238 5 5 5c2.419 0 4.437-1.718 4.9-4h0.101c2.126 0 2.948 2.009 4.051 5.316 0.512 1.538 1.043 3.127 1.867 4.363 0.485 0.728 1.025 1.269 1.65 1.656 0.714 0.441 1.532 0.665 2.432 0.665h2.1c0.463 2.282 2.481 4 4.9 4 2.762 0 5-2.238 5-5s-2.238-5-5-5zM27 7.75c1.792 0 3.25 1.458 3.25 3.25s-1.458 3.25-3.25 3.25-3.25-1.458-3.25-3.25 1.458-3.25 3.25-3.25zM27 26.25c-1.792 0-3.25-1.458-3.25-3.25s1.458-3.25 3.25-3.25 3.25 1.458 3.25 3.25-1.458 3.25-3.25 3.25z"></path>
</svg>
