<?xml version="1.0" encoding="utf-8"?>
<!-- Generator: Adobe Illustrator 17.0.1, SVG Export Plug-In . SVG Version: 6.00 Build 0)  -->
<!DOCTYPE svg PUBLIC "-//W3C//DTD SVG 1.1//EN" "http://www.w3.org/Graphics/SVG/1.1/DTD/svg11.dtd">
<svg version="1.1" id="Layer_1" xmlns="http://www.w3.org/2000/svg" xmlns:xlink="http://www.w3.org/1999/xlink" x="0px" y="0px"
	 width="1024px" height="1024px" viewBox="0 0 1024 1024" enable-background="new 0 0 1024 1024" xml:space="preserve">
<path d="M976,464h-82.98c-8.74-70.11-36.39-134.35-77.68-187.47l58.69-58.69v-67.88h-67.88l-58.69,58.69
	c-53.11-41.29-117.35-68.93-187.47-77.68V48L512,0l-48,48v82.98c-70.11,8.74-134.35,36.39-187.47,77.68l-58.69-58.69h-67.88v67.88
	l58.69,58.69c-41.29,53.11-68.93,117.35-77.68,187.47H48L0,512l48,48h82.98c8.74,70.11,36.39,134.35,77.68,187.47l-58.69,58.69
	v67.88h67.88l58.69-58.69c53.11,41.29,117.35,68.93,187.47,77.68V976l48,48l48-48v-82.98c70.11-8.74,134.35-36.39,187.47-77.68
	l58.69,58.69h67.88v-67.88l-58.69-58.69c41.29-53.11,68.93-117.35,77.68-187.47H976l48-48L976,464z M544,193.57
	c31.92,3.15,62.93,11.03,92.54,23.55c28.26,11.95,54.38,27.74,77.99,47.1L577.02,401.73c-10.19-6.02-21.27-10.67-33.02-13.7V193.57z
	 M387.46,217.12c29.6-12.52,60.62-20.4,92.54-23.55v194.46c-11.74,3.02-22.83,7.68-33.02,13.7L309.47,264.22
	C333.08,244.86,359.21,229.07,387.46,217.12z M217.12,387.46c11.95-28.26,27.74-54.38,47.1-77.99l137.51,137.51
	c-6.02,10.19-10.67,21.27-13.7,33.02H193.57C196.72,448.08,204.6,417.07,217.12,387.46z M264.22,714.53
	c-19.35-23.61-35.15-49.73-47.1-77.99c-12.52-29.6-20.4-60.62-23.55-92.54h194.46c3.02,11.74,7.68,22.83,13.7,33.02L264.22,714.53z
	 M480,830.43c-31.92-3.15-62.93-11.03-92.54-23.55c-28.26-11.95-54.38-27.74-77.99-47.1l137.51-137.51
	c10.19,6.02,21.27,10.67,33.02,13.7V830.43z M448,512c0-35.35,28.65-64,64-64s64,28.65,64,64s-28.65,64-64,64S448,547.35,448,512z
	 M636.54,806.88c-29.6,12.52-60.62,20.4-92.54,23.55V635.97c11.74-3.02,22.83-7.68,33.02-13.7l137.51,137.51
	C690.92,779.14,664.79,794.93,636.54,806.88z M806.88,636.54c-11.95,28.26-27.74,54.38-47.1,77.99L622.27,577.02
	c6.02-10.19,10.67-21.27,13.7-33.02h194.46C827.28,575.92,819.4,606.93,806.88,636.54z M635.97,480
	c-3.02-11.74-7.68-22.83-13.7-33.02l137.51-137.51c19.35,23.61,35.15,49.73,47.1,77.99c12.52,29.6,20.4,60.62,23.55,92.54H635.97z"
	/>
</svg>
