<svg width="16" height="16" viewBox="0 0 16 16" fill="none" xmlns="http://www.w3.org/2000/svg">
<path fill-rule="evenodd" clip-rule="evenodd" d="M2.76515 1.00646C2.9238 1.03221 3.0604 1.13264 3.13227 1.2764C3.30739 1.62662 3.72243 2.23075 4.26989 2.97732C4.62885 3.46683 5.03029 3.99848 5.43578 4.53548C5.6404 4.80646 5.84605 5.07881 6.04779 5.34779C6.9521 6.55354 7.79856 7.90414 8.41666 8.94835C8.72633 9.47152 8.98001 9.92005 9.15648 10.2382C9.20955 10.3338 9.25566 10.4178 9.29423 10.4884C9.44965 10.4953 9.65792 10.5084 9.9027 10.5331C10.4398 10.5874 11.1646 10.6989 11.8966 10.9304C13.3302 11.3837 15 12.3791 15 14.5C15 14.7761 14.7761 15 14.5 15H9.49289C9.21675 15 8.99289 14.7761 8.99289 14.5V14.4899C8.99291 14.0902 8.99296 13.1157 8.75298 12.106C8.50769 11.0738 8.0385 10.1174 7.18189 9.63973C6.57238 9.29983 5.66951 9.12804 4.86789 9.04883C4.52128 9.01458 4.20724 8.99881 3.96507 8.99189V14.4932C3.96507 14.7693 3.74122 14.9932 3.46507 14.9932C3.18893 14.9932 2.96507 14.7693 2.96507 14.4932V8.75754C2.92871 8.73099 2.88936 8.70121 2.84753 8.66806C2.63672 8.50104 2.36101 8.24733 2.08681 7.89227C1.53406 7.17653 1 6.06428 1 4.46271C1 3.51719 1.15792 2.84374 1.42311 2.31335C1.68175 1.79606 2.02678 1.45111 2.31741 1.16055C2.32213 1.15583 2.32683 1.15114 2.33151 1.14645C2.44516 1.03281 2.60651 0.980718 2.76515 1.00646ZM3.70561 8.05023C3.70603 8.05046 3.70598 8.05044 3.70551 8.05017L3.70561 8.05023ZM3.60691 7.98693C3.68083 7.98676 3.77897 7.98733 3.89656 7.98986C4.16731 7.99569 4.54352 8.01191 4.96623 8.05368C5.56127 8.11248 6.28636 8.22508 6.94398 8.44984C6.43943 7.64072 5.85517 6.75763 5.24779 5.94779C5.05056 5.68482 4.84727 5.41559 4.64376 5.14607C4.23554 4.60545 3.82643 4.06363 3.46347 3.56867C3.13491 3.12062 2.83163 2.69438 2.59538 2.33026C2.49108 2.46037 2.39846 2.59872 2.31754 2.76056C2.13834 3.11898 2 3.63061 2 4.46271C2 5.82385 2.44848 6.72452 2.87826 7.28104C3.09533 7.56211 3.31089 7.75935 3.46854 7.88426C3.52241 7.92694 3.56931 7.96101 3.60691 7.98693ZM9.63047 11.5122C9.66587 11.6343 9.69753 11.7555 9.72589 11.8748C9.91912 12.6879 9.97255 13.4722 9.9873 14H13.9523C13.7294 12.8827 12.753 12.25 11.5951 11.8838C10.9501 11.6799 10.2979 11.5782 9.80215 11.5281C9.74237 11.522 9.68504 11.5168 9.63047 11.5122Z" fill="black"/>
</svg>
