<!-- Generated by IcoMoon.io -->
<svg version="1.1" xmlns="http://www.w3.org/2000/svg" width="32" height="32" viewBox="0 0 32 32">
<title>shopping-cart</title>
<path d="M10.574 6.001l2.784 15.313 18.642-3.314v-11.995z"></path>
<path d="M22.876 30c-0.249-0.637-0.376-1.309-0.376-2s0.126-1.363 0.376-2h-7.751c0.249 0.637 0.376 1.309 0.376 2s-0.126 1.363-0.376 2h7.751z"></path>
<path d="M7.859 22.933c0.679-0.287 1.399-0.433 2.141-0.433 0.356 0 0.707 0.034 1.051 0.101l-3.382-18.601h-7.669v4h4.331l2.785 15.316c0.237-0.146 0.485-0.274 0.743-0.383z"></path>
<path d="M14 28c0 2.209-1.791 4-4 4s-4-1.791-4-4c0-2.209 1.791-4 4-4s4 1.791 4 4z"></path>
<path d="M32 28c0 2.209-1.791 4-4 4s-4-1.791-4-4c0-2.209 1.791-4 4-4s4 1.791 4 4z"></path>
</svg>
