<?xml version="1.0" encoding="utf-8"?>
<!-- Generator: Adobe Illustrator 17.0.1, SVG Export Plug-In . SVG Version: 6.00 Build 0)  -->
<!DOCTYPE svg PUBLIC "-//W3C//DTD SVG 1.1//EN" "http://www.w3.org/Graphics/SVG/1.1/DTD/svg11.dtd">
<svg version="1.1" id="Layer_1" xmlns="http://www.w3.org/2000/svg" xmlns:xlink="http://www.w3.org/1999/xlink" x="0px" y="0px"
	 width="1024px" height="1024px" viewBox="0 0 1024 1024" enable-background="new 0 0 1024 1024" xml:space="preserve">
<polygon points="338.36,192.02 427.46,682.05 1024,576 1024,192.15 "/>
<g>
	<path d="M732.02,960c-7.97-20.4-12.02-41.9-12.02-64s4.04-43.6,12.02-64H483.98c7.97,20.4,12.02,41.9,12.02,64s-4.04,43.6-12.02,64
		H732.02z"/>
	<path d="M251.48,733.85C273.21,724.66,296.26,720,320,720c11.39,0,22.63,1.08,33.63,3.22L245.41,128H0v128h138.59l89.11,490.12
		C235.27,741.45,243.21,737.35,251.48,733.85z"/>
</g>
<circle cx="320" cy="896" r="128"/>
<circle cx="896" cy="896" r="128"/>
</svg>
