<!-- Generated by IcoMoon.io -->
<svg version="1.1" xmlns="http://www.w3.org/2000/svg" width="32" height="32" viewBox="0 0 32 32">
<title>software-package</title>
<path d="M23 14c-4.971 0-9 4.029-9 9s4.029 9 9 9c4.971 0 9-4.029 9-9s-4.029-9-9-9zM23 25c-1.105 0-2-0.895-2-2s0.895-2 2-2c1.105 0 2 0.895 2 2s-0.895 2-2 2z"></path>
<path d="M12 23c0-1.484 0.291-2.925 0.865-4.282 0.554-1.31 1.347-2.486 2.357-3.496s2.186-1.803 3.496-2.357c1.357-0.574 2.798-0.865 4.282-0.865 0.336 0 0.669 0.016 1 0.045v-10.045h-20v28h10.514c-0.678-0.821-1.231-1.731-1.649-2.718-0.574-1.357-0.865-2.798-0.865-4.282z"></path>
</svg>
