<?xml version="1.0" encoding="utf-8"?>
<!-- Generator: Adobe Illustrator 17.0.1, SVG Export Plug-In . SVG Version: 6.00 Build 0)  -->
<!DOCTYPE svg PUBLIC "-//W3C//DTD SVG 1.1//EN" "http://www.w3.org/Graphics/SVG/1.1/DTD/svg11.dtd">
<svg version="1.1" id="Layer_1" xmlns="http://www.w3.org/2000/svg" xmlns:xlink="http://www.w3.org/1999/xlink" x="0px" y="0px"
	 width="1024px" height="1024px" viewBox="0 0 1024 1024" enable-background="new 0 0 1024 1024" xml:space="preserve">
<g>
	<path d="M736,448c-159.06,0-288,128.94-288,288s128.94,288,288,288c159.06,0,288-128.94,288-288S895.06,448,736,448z M736,800
		c-35.35,0-64-28.65-64-64c0-35.35,28.65-64,64-64c35.35,0,64,28.65,64,64C800,771.35,771.35,800,736,800z"/>
	<path d="M384,736c0-47.49,9.32-93.6,27.69-137.03c17.73-41.92,43.1-79.56,75.41-111.87c32.31-32.31,69.94-57.68,111.87-75.41
		C642.4,393.32,688.51,384,736,384c10.74,0,21.41,0.5,32,1.45V64H128v896h336.44c-21.71-26.26-39.4-55.4-52.76-86.97
		C393.32,829.6,384,783.49,384,736z"/>
</g>
</svg>
