<!-- Generated by IcoMoon.io -->
<svg version="1.1" xmlns="http://www.w3.org/2000/svg" width="32" height="32" viewBox="0 0 32 32">
<title>square-dashed-line</title>
<path d="M8 8h16v16h-16v-16z"></path>
<path d="M4 26h-2v4h4v-2h-2z"></path>
<path d="M10 28h4v2h-4v-2z"></path>
<path d="M2 18h2v4h-2v-4z"></path>
<path d="M28 28h-2v2h4v-4h-2z"></path>
<path d="M18 28h4v2h-4v-2z"></path>
<path d="M28 18h2v4h-2v-4z"></path>
<path d="M2 2v4h2v-2h2v-2z"></path>
<path d="M10 2h4v2h-4v-2z"></path>
<path d="M2 10h2v4h-2v-4z"></path>
<path d="M26 2v2h2v2h2v-4z"></path>
<path d="M18 2h4v2h-4v-2z"></path>
<path d="M28 10h2v4h-2v-4z"></path>
</svg>
