<svg width="16" height="16" viewBox="0 0 16 16" fill="none" xmlns="http://www.w3.org/2000/svg">
<g clip-path="url(#clip0)">
<path fill-rule="evenodd" clip-rule="evenodd" d="M2.00299 14.9986V15.9986L0.636601 15.9992C0.467827 15.9992 0.305964 15.9465 0.186623 15.8527C0.0672819 15.7589 0.00023696 15.6318 0.000236966 15.4992L0.000236988 14.9992L2.00299 14.9986Z" fill="black"/>
<path fill-rule="evenodd" clip-rule="evenodd" d="M13.9849 1.00055V0.00055383L15.3513 0C15.5201 -2.36404e-07 15.6819 0.0526785 15.8013 0.146447C15.9206 0.240215 15.9877 0.367392 15.9877 0.5V0.999999L13.9849 1.00055Z" fill="black"/>
<path fill-rule="evenodd" clip-rule="evenodd" d="M15.004 13.9957V15.9978L15.3637 15.9988C15.5325 15.9988 15.6944 15.9461 15.8137 15.8524C15.9331 15.7586 16.0001 15.6314 16.0001 15.4988V13.9966L15.004 13.9957Z" fill="black"/>
<path d="M12.9849 14.9996H13.9849V15.9996H12.9849V14.9996Z" fill="black"/>
<path d="M8.98492 14.9996H9.98492V15.9996H8.98492V14.9996Z" fill="black"/>
<path d="M10.9849 14.9996H11.9849V15.9996H10.9849V14.9996Z" fill="black"/>
<path d="M6.98492 14.9996H7.98492V15.9996H6.98492V14.9996Z" fill="black"/>
<path d="M4.98492 14.9996H5.98492V15.9996H4.98492V14.9996Z" fill="black"/>
<path d="M2.9942 14.9996H3.9942V15.9996H2.9942V14.9996Z" fill="black"/>
<path d="M12.002 0.000553472H13.002V1.00055H12.002V0.000553472Z" fill="black"/>
<path d="M8.00201 0.000553472H9.00201V1.00055H8.00201V0.000553472Z" fill="black"/>
<path d="M10.002 0.000553472H11.002V1.00055H10.002V0.000553472Z" fill="black"/>
<path d="M6.00201 0.000553472H7.00201V1.00055H6.00201V0.000553472Z" fill="black"/>
<path d="M4.00201 0.000553472H5.00201V1.00055H4.00201V0.000553472Z" fill="black"/>
<path d="M2.01129 0.000553472H3.01129V1.00055H2.01129V0.000553472Z" fill="black"/>
<path d="M16.004 11.9991V12.9991H15.004L15.004 11.9991H16.004Z" fill="black"/>
<path d="M16.004 7.99909V8.99909H15.004V7.99909H16.004Z" fill="black"/>
<path d="M16.004 9.99909V10.9991H15.004V9.99909H16.004Z" fill="black"/>
<path d="M16.004 5.99909V6.99909H15.004V5.99909H16.004Z" fill="black"/>
<path d="M16.004 3.99909V4.99909H15.004V3.99909H16.004Z" fill="black"/>
<path d="M16.004 2.00837V3.00837H15.004V2.00837H16.004Z" fill="black"/>
<path fill-rule="evenodd" clip-rule="evenodd" d="M0.99615 2.00934L0.99615 0.00718401L0.636364 0.00620743C0.46759 0.00620719 0.305728 0.0588864 0.186386 0.152654C0.0670451 0.246423 7.14575e-08 0.373599 6.5661e-08 0.506208L0 2.00837L0.99615 2.00934Z" fill="black"/>
<path d="M5.73981e-05 4.00495L5.75292e-05 3.00495H1.00006L1.00006 4.00495H5.73981e-05Z" fill="black"/>
<path d="M5.68735e-05 8.00495L5.70047e-05 7.00495H1.00006L1.00006 8.00495H5.68735e-05Z" fill="black"/>
<path d="M5.71358e-05 6.00495L5.72669e-05 5.00495H1.00006L1.00006 6.00495H5.71358e-05Z" fill="black"/>
<path d="M5.66113e-05 10.0049L5.67424e-05 9.00495H1.00006L1.00006 10.0049H5.66113e-05Z" fill="black"/>
<path d="M5.6349e-05 12.0049L5.64801e-05 11.0049H1.00006L1.00006 12.0049H5.6349e-05Z" fill="black"/>
<path d="M5.60879e-05 13.9957L5.62191e-05 12.9957H1.00006L1.00006 13.9957H5.60879e-05Z" fill="black"/>
</g>
<defs>
<clipPath id="clip0">
<rect width="16" height="16" fill="white"/>
</clipPath>
</defs>
</svg>
