<svg width="16" height="16" viewBox="0 0 16 16" fill="none" xmlns="http://www.w3.org/2000/svg">
<path fill-rule="evenodd" clip-rule="evenodd" d="M13.5 2L2.49999 2.00018C2.22385 2.00019 2 2.22404 2 2.50018V13.5C2 13.7761 2.22386 14 2.5 14H13.5C13.7761 14 14 13.7761 14 13.5V2.5C14 2.22385 13.7761 2 13.5 2ZM2.49998 1.00018L13.5 1C14.3284 0.999986 15 1.67156 15 2.5V13.5C15 14.3284 14.3284 15 13.5 15H2.5C1.67157 15 1 14.3284 1 13.5V2.50018C1 1.67177 1.67156 1.0002 2.49998 1.00018Z" fill="black"/>
</svg>
