<?xml version="1.0" encoding="utf-8"?>
<!-- Generator: Adobe Illustrator 17.0.1, SVG Export Plug-In . SVG Version: 6.00 Build 0)  -->
<!DOCTYPE svg PUBLIC "-//W3C//DTD SVG 1.1//EN" "http://www.w3.org/Graphics/SVG/1.1/DTD/svg11.dtd">
<svg version="1.1" id="Layer_1" xmlns="http://www.w3.org/2000/svg" xmlns:xlink="http://www.w3.org/1999/xlink" x="0px" y="0px"
	 width="1024px" height="1024px" viewBox="0 0 1024 1024" enable-background="new 0 0 1024 1024" xml:space="preserve">
<g>
	<path d="M512,225.96l88.48,155.32L621.96,419l42.52,8.78l175.06,36.15L719.16,596.07l-29.23,32.09l4.79,43.15l19.72,177.66
		l-162.87-73.65L512,757.43l-39.56,17.89l-162.87,73.65l19.72-177.66l4.79-43.15l-29.23-32.09L184.46,463.93l175.06-36.15
		l42.52-8.78l21.49-37.72L512,225.96 M512,32L340.11,333.76L0,403.99l233.87,256.73l-38.31,345.17L512,862.79l316.43,143.1
		l-38.31-345.17L1024,403.99l-340.11-70.23L512,32L512,32z"/>
</g>
</svg>
