<svg width="16" height="16" viewBox="0 0 16 16" fill="none" xmlns="http://www.w3.org/2000/svg">
<path fill-rule="evenodd" clip-rule="evenodd" d="M9.36195 4.85689L8.07554 2.06382C8.05717 2.02392 8.04005 2.01259 8.03479 2.0093C8.02625 2.00396 8.01443 2 8 2C7.98557 2 7.97375 2.00396 7.96521 2.0093C7.95995 2.01259 7.94284 2.02393 7.92446 2.06382L6.63805 4.85689C6.34245 5.4987 5.74534 5.96388 5.03035 6.06419L2.08616 6.47723C2.06505 6.48019 2.05658 6.48601 2.0489 6.49298C2.03747 6.50338 2.02046 6.52541 2.00942 6.56086C1.99841 6.59621 1.99776 6.63106 2.00384 6.65865C2.00903 6.6822 2.01972 6.70534 2.04466 6.73017L4.1938 8.86942C4.69671 9.37001 4.91444 10.0876 4.79359 10.7784L4.26039 13.8268C4.25204 13.8745 4.25913 13.905 4.26731 13.9251C4.27686 13.9485 4.29284 13.9687 4.31154 13.9829C4.33023 13.9971 4.34395 13.9996 4.34752 13.9999C4.34752 13.9999 4.35048 14.0001 4.35285 13.9995C4.35499 13.9991 4.36292 13.9972 4.37692 13.9893L6.99157 12.5184C7.6194 12.1652 8.3806 12.1652 9.00844 12.5184L11.6231 13.9893C11.6371 13.9972 11.645 13.9991 11.6472 13.9995C11.6495 14.0001 11.6525 13.9999 11.6525 13.9999C11.6561 13.9996 11.6698 13.9971 11.6885 13.9829C11.7072 13.9687 11.7231 13.9485 11.7327 13.9251C11.7409 13.9051 11.748 13.8745 11.7396 13.8268L11.2064 10.7784C11.0856 10.0876 11.3033 9.37001 11.8062 8.86942L13.9553 6.73017C13.9803 6.70534 13.991 6.6822 13.9962 6.65865C14.0022 6.63106 14.0016 6.59621 13.9906 6.56085C13.9795 6.52541 13.9625 6.50337 13.9511 6.49298C13.9434 6.48601 13.935 6.48019 13.9138 6.47723L10.9697 6.06419C10.2547 5.96388 9.65755 5.4987 9.36195 4.85689ZM8.98383 1.64549C8.58744 0.784837 7.41256 0.784837 7.01617 1.64549L5.72976 4.43856C5.57065 4.78402 5.25557 5.0228 4.89142 5.07388L1.94723 5.48693C1.04001 5.6142 0.676956 6.77972 1.33919 7.43891L3.48833 9.57816C3.75415 9.84276 3.8745 10.2291 3.80855 10.6061L3.27535 13.6545C3.11105 14.5938 4.06155 15.3141 4.86723 14.8609L7.48188 13.3899C7.80527 13.208 8.19473 13.208 8.51812 13.3899L11.1328 14.8609C11.9384 15.3141 12.8889 14.5938 12.7247 13.6545L12.1915 10.6061C12.1255 10.2291 12.2459 9.84276 12.5117 9.57816L14.6608 7.43891C15.323 6.77972 14.96 5.6142 14.0528 5.48693L11.1086 5.07388C10.7444 5.0228 10.4294 4.78402 10.2702 4.43856L8.98383 1.64549Z" fill="black"/>
</svg>
