<!-- Generated by IcoMoon.io -->
<svg version="1.1" xmlns="http://www.w3.org/2000/svg" width="32" height="32" viewBox="0 0 32 32">
<title>subscript</title>
<path d="M27.094 19.802v-2.922l-0.893-0.879h-1.229l-0.971 0.956v3.044h-2.5v-4.063h0.018l-0.018-0.017 2.427-2.389 0.011 0.011v-0.011h3.281v0.026l0.026-0.026 2.356 2.32-0.008 0.007v4.892h-0.063l0.065 0.061-5.595 5.704v0.704h5.594v2.469h-8.094v-4.219h0.035l5.559-5.667z"></path>
<path d="M8.358 15.598l-5.951-11.68 3.15-1.605 4.785 9.391 4.785-9.391 3.15 1.605-5.951 11.68 5.951 11.68-3.15 1.605-4.785-9.391-4.785 9.391-3.15-1.605 5.951-11.68z"></path>
</svg>
