<?xml version="1.0" encoding="UTF-8"?>
<svg width="1024px" height="1024px" viewBox="0 0 1024 1024" version="1.1" xmlns="http://www.w3.org/2000/svg" xmlns:xlink="http://www.w3.org/1999/xlink">
    <!-- Generator: Sketch 52.6 (67491) - http://www.bohemiancoding.com/sketch -->
    <title>subscript</title>
    <desc>Created with Sketch.</desc>
    <g id="subscript" stroke="none" stroke-width="1" fill="none" fill-rule="evenodd">
        <g id="Group" transform="translate(77.000000, 74.000000)" fill="#000000">
            <path d="M790,559.659261 L790,466.139044 L761.415287,438 L722.077636,438 L691,468.593099 L691,566 L611,566 L611,436 L611.562531,436 L611,435.446239 L688.657002,359 L689,359.337651 L689,359 L794,359 L794,359.822888 L794.835921,359 L870.241995,433.230406 L870,433.468629 L870,590 L867.980709,590 L870.047548,591.964804 L691,774.483225 L691,797 L870,797 L870,876 L611,876 L611,797 L611,741 L612.107738,741 L790,559.659261 Z" id="Combined-Shape"></path>
            <path d="M190.442559,425.128559 L-1.5063506e-12,51.3639926 L100.807511,-6.08224582e-12 L253.931945,300.523622 L407.056379,-6.08224582e-12 L507.86389,51.3639926 L317.421332,425.128559 L507.86389,798.893126 L407.056379,850.257118 L253.931945,549.733496 L100.807511,850.257118 L-1.54187774e-12,798.893126 L190.442559,425.128559 Z" id="Combined-Shape"></path>
        </g>
    </g>
</svg>