<!-- Generated by IcoMoon.io -->
<svg version="1.1" xmlns="http://www.w3.org/2000/svg" width="32" height="32" viewBox="0 0 32 32">
<title>superscript</title>
<path d="M27.094 8.186v-2.932l-0.893-0.879h-1.215l-0.986 0.97v3.030h-2.5v-4.063h0.032l-0.018-0.017 2.423-2.385v-0.004h3.281v0.026l0.026-0.026 2.356 2.32-0.007 0.007v4.892h-0.043l0.059 0.056-5.61 5.718v0.694h5.594v2.469h-8.094v-4.219h0.044l5.55-5.657z"></path>
<path d="M8.358 16.817l-5.951-11.68 3.15-1.605 4.785 9.391 4.785-9.391 3.15 1.605-5.951 11.68 5.951 11.68-3.15 1.605-4.785-9.391-4.785 9.391-3.15-1.605 5.951-11.68z"></path>
</svg>
