<?xml version="1.0" encoding="UTF-8"?>
<svg width="1024px" height="1024px" viewBox="0 0 1024 1024" version="1.1" xmlns="http://www.w3.org/2000/svg" xmlns:xlink="http://www.w3.org/1999/xlink">
    <!-- Generator: Sketch 52.6 (67491) - http://www.bohemiancoding.com/sketch -->
    <title>superscript</title>
    <desc>Created with Sketch.</desc>
    <g id="superscript" stroke="none" stroke-width="1" fill="none" fill-rule="evenodd">
        <g id="Group" transform="translate(77.000000, 61.000000)" fill="#000000">
            <path d="M790,200.964892 L790,107.141714 L761.412576,79 L722.539054,79 L691,110.047324 L691,207 L611,207 L611,77 L612.02395,77 L611.461419,76.4462394 L689,0.116573905 L689,0 L794,0 L794,0.82021892 L794.83321,5.1159077e-13 L870.239284,74.2304064 L870,74.4659593 L870,231 L868.615414,231 L870.508967,232.800073 L691,415.788857 L691,438 L870,438 L870,517 L611,517 L611,438 L611,382 L612.407558,382 L790,200.964892 Z" id="Combined-Shape"></path>
            <path d="M190.442559,477.128559 L-1.62003744e-12,103.363993 L100.807511,52 L253.931945,352.523622 L407.056379,52 L507.86389,103.363993 L317.421332,477.128559 L507.86389,850.893126 L407.056379,902.257118 L253.931945,601.733496 L100.807511,902.257118 L-1.65556457e-12,850.893126 L190.442559,477.128559 Z" id="Combined-Shape"></path>
        </g>
    </g>
</svg>