<svg width="16" height="16" viewBox="0 0 16 16" fill="none" xmlns="http://www.w3.org/2000/svg">
<path d="M14.8536 0.853553C15.0488 0.658291 15.0488 0.341709 14.8536 0.146447C14.6583 -0.0488155 14.3417 -0.0488155 14.1464 0.146447L0.146447 14.1464C-0.0488155 14.3417 -0.0488155 14.6583 0.146447 14.8536C0.341709 15.0488 0.658291 15.0488 0.853553 14.8536L14.8536 0.853553Z" fill="black"/>
<path d="M1.00781 0.503906C0.73167 0.503906 0.507812 0.727764 0.507812 1.00391C0.507812 1.28005 0.73167 1.50391 1.00781 1.50391H3.56396V8.00391C3.56396 8.28005 3.78782 8.50391 4.06396 8.50391C4.34011 8.50391 4.56396 8.28005 4.56396 8.00391V1.50391H7.00781C7.28396 1.50391 7.50781 1.28005 7.50781 1.00391C7.50781 0.727764 7.28396 0.503906 7.00781 0.503906H1.00781Z" fill="black"/>
<path d="M9.99365 7.5127C9.86104 7.5127 9.73387 7.56537 9.6401 7.65914C9.54633 7.75291 9.49365 7.88009 9.49365 8.0127V14.0127C9.49365 14.2888 9.71751 14.5127 9.99365 14.5127C10.2698 14.5127 10.4937 14.2888 10.4937 14.0127V11.5144H12.0017C12.2778 11.5144 12.5017 11.2905 12.5017 11.0144C12.5017 10.7382 12.2778 10.5144 12.0017 10.5144H10.4937V8.5127H13.9937C14.2698 8.5127 14.4937 8.28884 14.4937 8.0127C14.4937 7.73655 14.2698 7.5127 13.9937 7.5127H9.99365Z" fill="black"/>
</svg>
