<svg width="16" height="16" viewBox="0 0 16 16" fill="none" xmlns="http://www.w3.org/2000/svg">
<path fill-rule="evenodd" clip-rule="evenodd" d="M1 1.50022C1 1.22408 1.22385 1.00022 1.49999 1.00022L14.5 1C14.6326 0.999998 14.7598 1.05268 14.8535 1.14644C14.9473 1.24021 15 1.36739 15 1.5V14.5C15 14.7761 14.7761 15 14.5 15H1.5C1.22386 15 1 14.7761 1 14.5V1.50022ZM2 2.00021V4.98438H6.5C6.77614 4.98438 7 5.20823 7 5.48438V14H14V2.00001L2 2.00021ZM6 9.00293V5.98438H2V9.00293H6ZM2 10.0029H6V14H2V10.0029Z" fill="black"/>
</svg>
