<!-- Generated by IcoMoon.io -->
<svg version="1.1" xmlns="http://www.w3.org/2000/svg" width="32" height="32" viewBox="0 0 32 32">
<title>table</title>
<path d="M2 4v0 26h28v-26h-28zM12 18v1.982h-8v-1.982h8zM4 16v-2h8v2h-8zM12 21.982v2.018h-8v-2.018h8zM14 21.982h6v2.018h-6v-2.018zM14 19.982v-1.982h6v1.982h-6zM14 16v-2h6v2h-6zM14 12v-2h6v2h-6zM12 12h-8v-2h8v2zM4 28v-2h8v2h-8zM14 28v-2h6v2h-6zM28 28h-6v-2h6v2zM28 24h-6v-2.018h6v2.018zM28 19.982h-6v-1.982h6v1.982zM28 16h-6v-2h6v2zM28 12h-6v-2h6v2z"></path>
</svg>
