<svg width="16" height="16" viewBox="0 0 16 16" fill="none" xmlns="http://www.w3.org/2000/svg">
<path d="M6.47559 11.0342C6.19944 11.0342 5.97559 11.258 5.97559 11.5342C5.97559 11.8103 6.19944 12.0342 6.47559 12.0342H9.47559C9.75173 12.0342 9.97559 11.8103 9.97559 11.5342C9.97559 11.258 9.75173 11.0342 9.47559 11.0342H6.47559Z" fill="black"/>
<path fill-rule="evenodd" clip-rule="evenodd" d="M3.5 0C2.67157 0 2 0.671573 2 1.5V14.5C2 15.3284 2.67157 16 3.5 16H12.5C13.3284 16 14 15.3284 14 14.5V1.5C14 0.671573 13.3284 0 12.5 0H3.5ZM3 1.5C3 1.22386 3.22386 1 3.5 1H12.5C12.7761 1 13 1.22386 13 1.5V14.5C13 14.7761 12.7761 15 12.5 15H3.5C3.22386 15 3 14.7761 3 14.5V1.5Z" fill="black"/>
</svg>
