<?xml version="1.0" encoding="utf-8"?>
<!-- Generator: Adobe Illustrator 17.0.1, SVG Export Plug-In . SVG Version: 6.00 Build 0)  -->
<!DOCTYPE svg PUBLIC "-//W3C//DTD SVG 1.1//EN" "http://www.w3.org/Graphics/SVG/1.1/DTD/svg11.dtd">
<svg version="1.1" id="Layer_1" xmlns="http://www.w3.org/2000/svg" xmlns:xlink="http://www.w3.org/1999/xlink" x="0px" y="0px"
	 width="1024px" height="1024px" viewBox="0 0 1024 1024" enable-background="new 0 0 1024 1024" xml:space="preserve">
<g>
	<path d="M64,128L64,128l0,832h896V128v0L64,128L64,128z M384,576v63.41H128V576H384z M128,512v-64h256v64H128z M384,703.41V768H128
		v-64.59H384z M448,703.41h192V768H448V703.41z M448,639.41V576h192v63.41H448z M448,512v-64h192v64H448z M448,384v-64h192v64H448z
		 M384,384H128v-64h256V384z M128,896v-64h256v64H128z M448,896v-64h192v64H448z M896,896H704v-64h192V896z M896,768H704v-64.59h192
		V768z M896,639.41H704V576h192V639.41z M896,512H704v-64h192V512z M896,384H704v-64h192V384z"/>
</g>
</svg>
