<?xml version="1.0" encoding="UTF-8"?>
<svg width="1024px" height="1024px" viewBox="0 0 1024 1024" version="1.1" xmlns="http://www.w3.org/2000/svg" xmlns:xlink="http://www.w3.org/1999/xlink">
    <title>Icons / Things / timed-box</title>
    <g id="Icons-/-Things-/-timed-box" stroke="none" stroke-width="1" fill="none" fill-rule="evenodd">
        <g id="Group-2" transform="translate(0.000000, 58.000000)" fill="#000000" fill-rule="nonzero">
            <path d="M869.91,1.13686838e-12 L869.91,160.15928 L818.537362,160.15928 L818.541858,422.479762 C795.721874,416.995139 771.897703,414.09 747.395,414.09 C579.862183,414.09 444.05,549.902183 444.05,717.435 C444.05,740.794664 446.690415,763.537626 451.689071,785.381713 L51.3726378,785.380221 L51.3726378,160.15928 L8.52651283e-12,160.15928 L8.52651283e-12,1.13686838e-12 L869.91,1.13686838e-12 Z M599.347441,269.787023 L270.562559,269.787023 L270.562559,379.414766 L599.347441,379.414766 L599.347441,269.787023 Z" id="Combined-Shape"></path>
            <path d="M746.86,477.22 C614.4903,477.22 507.18,584.5303 507.18,716.9 C507.18,849.2697 614.4903,956.58 746.86,956.58 C879.2297,956.58 986.54,849.2697 986.54,716.9 C986.54,584.5303 879.2297,477.22 746.86,477.22 Z M883.82,751.14 L712.62,751.14 L712.62,545.7 L781.1,545.7 L781.1,682.66 L883.82,682.66 L883.82,751.14 Z" id="Shape"></path>
        </g>
        <g id="Group" transform="translate(415.000000, 445.000000)"></g>
    </g>
</svg>