<svg width="16" height="16" viewBox="0 0 16 16" fill="none" xmlns="http://www.w3.org/2000/svg">
<g clip-path="url(#clip0)">
<path fill-rule="evenodd" clip-rule="evenodd" d="M5.99329 3.00556C6.19763 3.00556 6.38138 3.1301 6.45727 3.32003L8.45617 8.32278C8.55867 8.57931 8.43403 8.87046 8.17778 8.97307C7.92153 9.07569 7.63071 8.95091 7.52821 8.69438L6.85091 6.99929H5.13566L4.45837 8.69438C4.35587 8.95091 4.06504 9.07569 3.80879 8.97307C3.55254 8.87046 3.4279 8.57931 3.5304 8.32278L5.5293 3.32003C5.60519 3.1301 5.78895 3.00556 5.99329 3.00556ZM5.99329 4.85286L6.45113 5.99874H5.53544L5.99329 4.85286Z" fill="black"/>
<path fill-rule="evenodd" clip-rule="evenodd" d="M-0.00341797 6.0072C-0.00341797 2.69167 2.68139 0.00390625 5.99329 0.00390625C9.30518 0.00390625 11.99 2.69167 11.99 6.0072C11.99 6.02508 11.9899 6.04294 11.9898 6.06078C14.2796 6.52722 15.9966 8.55159 15.9966 10.9785C15.9966 12.0158 15.6796 12.9759 15.1443 13.7741L15.3411 14.759C15.3739 14.9231 15.3226 15.0926 15.2045 15.2109C15.0863 15.3292 14.9169 15.3806 14.7531 15.3477L13.7693 15.1507C12.9714 15.6872 12.0129 16.0039 10.9767 16.0039C8.55792 16.0039 6.54045 14.2936 6.06794 12.01C6.04309 12.0104 6.01821 12.0105 5.99329 12.0105C4.74095 12.0105 3.5825 11.6216 2.62328 10.966L1.37944 11.2147C1.2156 11.2474 1.04625 11.196 0.92814 11.0777C0.81003 10.9594 0.758789 10.7899 0.79159 10.6259L1.04057 9.38094C0.385034 8.4206 -0.00341797 7.26085 -0.00341797 6.0072ZM7.07027 11.914C7.48829 13.6876 9.0781 15.0034 10.9767 15.0034C11.8702 15.0034 12.6912 14.7097 13.3605 14.2154C13.4738 14.1317 13.6171 14.0998 13.7552 14.1275L14.214 14.2194L14.1222 13.7601C14.0946 13.6219 14.1265 13.4784 14.21 13.365C14.7032 12.6955 14.9971 11.8729 14.9971 10.9785C14.9971 9.07344 13.6759 7.47805 11.8973 7.06455C11.7739 7.75987 11.5309 8.41381 11.1904 9.00429H11.6604C11.6665 9.00408 11.6726 9.00397 11.6786 9.00397L11.6878 9.00405L11.6968 9.00429H12.5024C12.7784 9.00429 13.0022 9.22827 13.0022 9.50457C13.0022 9.78086 12.7784 10.0048 12.5024 10.0048H12.1463C12.0656 10.6364 11.8344 11.248 11.4763 11.7534C11.7369 11.9161 12.0304 12.0055 12.3548 12.0055C12.6308 12.0055 12.8545 12.2295 12.8545 12.5058C12.8545 12.7821 12.6308 13.006 12.3548 13.006C11.7484 13.006 11.2127 12.8078 10.7681 12.4804C10.3261 12.8048 9.78963 13.0062 9.18001 13.0062C8.90402 13.0062 8.68029 12.7822 8.68029 12.5059C8.68029 12.2296 8.90402 12.0056 9.18001 12.0056C9.5011 12.0056 9.79685 11.916 10.0585 11.7539C9.85652 11.4702 9.69551 11.1535 9.5788 10.8197C8.85221 11.3631 7.99844 11.7455 7.07027 11.914ZM10.4671 10.0048C10.4478 10.0264 10.4284 10.0479 10.4088 10.0692C10.475 10.4115 10.5986 10.7335 10.7669 11.0123C10.9467 10.713 11.074 10.3668 11.136 10.0048H10.4671ZM5.99329 1.00446C3.23337 1.00446 0.996033 3.24426 0.996033 6.0072C0.996033 7.11741 1.36143 8.1391 1.97482 8.97002C2.05861 9.08353 2.09061 9.22718 2.06293 9.36557L1.91873 10.0866L2.63887 9.94262C2.77693 9.91502 2.92022 9.94701 3.0335 10.0307C3.86362 10.6441 4.88428 11.01 5.99329 11.01C8.7532 11.01 10.9905 8.77015 10.9905 6.0072C10.9905 3.24426 8.7532 1.00446 5.99329 1.00446Z" fill="black"/>
</g>
<defs>
<clipPath id="clip0">
<rect width="16" height="16" fill="white"/>
</clipPath>
</defs>
</svg>
