<!-- Generated by IcoMoon.io -->
<svg version="1.1" xmlns="http://www.w3.org/2000/svg" width="32" height="32" viewBox="0 0 32 32">
<title>translate</title>
<path d="M9.5 23l-1.5 1.5 1.5 1.5h-5.5v-3h-2v5h7.5l-1.5 1.5 1.5 1.5 4-4z"></path>
<path d="M16 12v20h16v-20h-16zM27.581 27.394l-1.24-2.894h-4.681l-1.24 2.894-1.838-0.788 4.5-10.5h1.838l4.5 10.5-1.838 0.788z"></path>
<path d="M22.517 22.5h2.967l-1.483-3.462z"></path>
<path d="M0 0v20h14v-10h2v-10h-16zM12 16h-8v-6h8v6zM14 8h-12v-2h5v-2h2v2h5v2z"></path>
<path d="M6 12h4v2h-4v-2z"></path>
</svg>
