<?xml version="1.0" encoding="utf-8"?>
<!-- Generator: Adobe Illustrator 17.0.1, SVG Export Plug-In . SVG Version: 6.00 Build 0)  -->
<!DOCTYPE svg PUBLIC "-//W3C//DTD SVG 1.1//EN" "http://www.w3.org/Graphics/SVG/1.1/DTD/svg11.dtd">
<svg version="1.1" id="Layer_1" xmlns="http://www.w3.org/2000/svg" xmlns:xlink="http://www.w3.org/1999/xlink" x="0px" y="0px"
	 width="1024px" height="1024px" viewBox="0 0 1024 1024" enable-background="new 0 0 1024 1024" xml:space="preserve">
<g>
	<polygon points="256,784 304,832 128,832 128,736 64,736 64,896 304,896 256,944 304,992 432,864 304,736 	"/>
	<polygon points="896,384 896,448 960,448 960,512 1024,512 1024,384 	"/>
	<polygon points="960,960 896,960 896,1024 1024,1024 1024,896 960,896 	"/>
	<polygon points="576,896 512,896 512,1024 640,1024 640,960 576,960 	"/>
	<polygon points="512,512 576,512 576,448 640,448 640,384 512,384 	"/>
	<rect x="704" y="384" width="128" height="64"/>
	<rect x="704" y="960" width="128" height="64"/>
	<rect x="960" y="576" width="64" height="64"/>
	<rect x="960" y="768" width="64" height="64"/>
	<rect x="512" y="576" width="64" height="64"/>
	<rect x="512" y="768" width="64" height="64"/>
	<polygon points="512,128 512,0 384,0 384,64 448,64 448,128 	"/>
	<polygon points="128,576 64,576 64,512 0,512 0,640 128,640 	"/>
	<polygon points="64,64 128,64 128,0 0,0 0,128 64,128 	"/>
	<rect x="192" width="128" height="64"/>
	<rect x="192" y="576" width="128" height="64"/>
	<rect x="448" y="192" width="64" height="128"/>
	<rect x="0" y="192" width="64" height="64"/>
	<rect x="0" y="384" width="64" height="64"/>
	<rect x="384" y="576" width="64" height="64"/>
</g>
</svg>
