<svg width="16" height="16" viewBox="0 0 16 16" fill="none" xmlns="http://www.w3.org/2000/svg">
<g clip-path="url(#clip0)">
<path fill-rule="evenodd" clip-rule="evenodd" d="M0.998535 1.5042C0.998535 1.22843 1.22239 1.00488 1.49854 1.00488H2.49854C2.77468 1.00488 2.99854 1.22843 2.99854 1.5042C2.99854 1.77996 2.77468 2.00351 2.49854 2.00351H1.49854C1.22239 2.00351 0.998535 1.77996 0.998535 1.5042ZM3.99756 1.5042C3.99756 1.22843 4.22142 1.00488 4.49756 1.00488H11.4976C11.7737 1.00488 11.9976 1.22843 11.9976 1.5042C11.9976 1.77996 11.7737 2.00351 11.4976 2.00351H4.49756C4.22142 2.00351 3.99756 1.77996 3.99756 1.5042ZM2.99902 3.50731C2.99902 3.23154 3.22288 3.00799 3.49902 3.00799H4.49902C4.77517 3.00799 4.99902 3.23154 4.99902 3.50731C4.99902 3.78307 4.77517 4.00662 4.49902 4.00662H3.49902C3.22288 4.00662 2.99902 3.78307 2.99902 3.50731ZM5.99805 3.50731C5.99805 3.23154 6.2219 3.00799 6.49805 3.00799H13.498C13.7742 3.00799 13.998 3.23154 13.998 3.50731C13.998 3.78307 13.7742 4.00662 13.498 4.00662H6.49805C6.2219 4.00662 5.99805 3.78307 5.99805 3.50731ZM3.99902 5.51003C3.99902 5.23426 4.22288 5.01071 4.49902 5.01071H5.49902C5.77517 5.01071 5.99902 5.23426 5.99902 5.51003C5.99902 5.78579 5.77517 6.00934 5.49902 6.00934H4.49902C4.22288 6.00934 3.99902 5.78579 3.99902 5.51003ZM6.99805 5.51003C6.99805 5.23426 7.2219 5.01071 7.49805 5.01071H14.498C14.7742 5.01071 14.998 5.23426 14.998 5.51003C14.998 5.78579 14.7742 6.00934 14.498 6.00934H7.49805C7.2219 6.00934 6.99805 5.78579 6.99805 5.51003ZM1.99902 7.51353C1.99902 7.23776 2.22288 7.01421 2.49902 7.01421H3.49902C3.77517 7.01421 3.99902 7.23776 3.99902 7.51353C3.99902 7.78929 3.77517 8.01284 3.49902 8.01284H2.49902C2.22288 8.01284 1.99902 7.78929 1.99902 7.51353ZM4.99805 7.51353C4.99805 7.23776 5.2219 7.01421 5.49805 7.01421H12.498C12.7742 7.01421 12.998 7.23776 12.998 7.51353C12.998 7.78929 12.7742 8.01284 12.498 8.01284H5.49805C5.2219 8.01284 4.99805 7.78929 4.99805 7.51353ZM1.99902 9.51664C1.99902 9.24087 2.22288 9.01732 2.49902 9.01732H3.49902C3.77517 9.01732 3.99902 9.24087 3.99902 9.51664C3.99902 9.7924 3.77517 10.016 3.49902 10.016H2.49902C2.22288 10.016 1.99902 9.7924 1.99902 9.51664ZM4.99805 9.51664C4.99805 9.24087 5.2219 9.01732 5.49805 9.01732H12.498C12.7742 9.01732 12.998 9.24087 12.998 9.51664C12.998 9.7924 12.7742 10.016 12.498 10.016H5.49805C5.2219 10.016 4.99805 9.7924 4.99805 9.51664ZM3.99902 11.5195C3.99902 11.2438 4.22288 11.0202 4.49902 11.0202H5.49902C5.77517 11.0202 5.99902 11.2438 5.99902 11.5195C5.99902 11.7953 5.77517 12.0188 5.49902 12.0188H4.49902C4.22288 12.0188 3.99902 11.7953 3.99902 11.5195ZM6.99805 11.5195C6.99805 11.2438 7.2219 11.0202 7.49805 11.0202H14.498C14.7742 11.0202 14.998 11.2438 14.998 11.5195C14.998 11.7953 14.7742 12.0188 14.498 12.0188H7.49805C7.2219 12.0188 6.99805 11.7953 6.99805 11.5195ZM1.99854 13.5229C1.99854 13.2471 2.22239 13.0235 2.49854 13.0235H3.49854C3.77468 13.0235 3.99854 13.2471 3.99854 13.5229C3.99854 13.7986 3.77468 14.0222 3.49854 14.0222H2.49854C2.22239 14.0222 1.99854 13.7986 1.99854 13.5229ZM4.99756 13.5229C4.99756 13.2471 5.22142 13.0235 5.49756 13.0235H12.4976C12.7737 13.0235 12.9976 13.2471 12.9976 13.5229C12.9976 13.7986 12.7737 14.0222 12.4976 14.0222H5.49756C5.22142 14.0222 4.99756 13.7986 4.99756 13.5229ZM1.99902 15.5056C1.99902 15.2298 2.22288 15.0063 2.49902 15.0063H3.49902C3.77517 15.0063 3.99902 15.2298 3.99902 15.5056C3.99902 15.7813 3.77517 16.0049 3.49902 16.0049H2.49902C2.22288 16.0049 1.99902 15.7813 1.99902 15.5056ZM4.99805 15.5056C4.99805 15.2298 5.2219 15.0063 5.49805 15.0063H12.498C12.7742 15.0063 12.998 15.2298 12.998 15.5056C12.998 15.7813 12.7742 16.0049 12.498 16.0049H5.49805C5.2219 16.0049 4.99805 15.7813 4.99805 15.5056Z" fill="black"/>
</g>
<defs>
<clipPath id="clip0">
<rect width="16" height="16" fill="white"/>
</clipPath>
</defs>
</svg>
