<?xml version="1.0" encoding="utf-8"?>
<!-- Generator: Adobe Illustrator 17.0.1, SVG Export Plug-In . SVG Version: 6.00 Build 0)  -->
<!DOCTYPE svg PUBLIC "-//W3C//DTD SVG 1.1//EN" "http://www.w3.org/Graphics/SVG/1.1/DTD/svg11.dtd">
<svg version="1.1" id="Layer_1" xmlns="http://www.w3.org/2000/svg" xmlns:xlink="http://www.w3.org/1999/xlink" x="0px" y="0px"
	 width="1024px" height="1024px" viewBox="0 0 1024 1024" enable-background="new 0 0 1024 1024" xml:space="preserve">
<g>
	<path d="M896,320H640v448h64c0-70.69,57.31-128,128-128s128,57.31,128,128h64V448.63L896,320z M704,512V384h144l128,128H704z"/>
	<path d="M256,688c-44.11,0-80,35.89-80,80s35.89,80,80,80s80-35.89,80-80S300.11,688,256,688z"/>
	<path d="M0,768h128c0-70.69,57.31-128,128-128s128,57.31,128,128h192V256H0V768z"/>
	<path d="M832,688c-44.11,0-80,35.89-80,80s35.89,80,80,80s80-35.89,80-80S876.11,688,832,688z"/>
</g>
</svg>
