<!-- Generated by IcoMoon.io -->
<svg version="1.1" xmlns="http://www.w3.org/2000/svg" width="32" height="32" viewBox="0 0 32 32">
<title>truck</title>
<path d="M28 10h-8v14h2c0-2.209 1.791-4 4-4s4 1.791 4 4h2v-9.98l-4-4.020zM22 16v-4h4.5l4 4h-8.5z"></path>
<path d="M8 21.5c-1.378 0-2.5 1.122-2.5 2.5s1.122 2.5 2.5 2.5 2.5-1.122 2.5-2.5-1.122-2.5-2.5-2.5z"></path>
<path d="M0 24h4c0-2.209 1.791-4 4-4s4 1.791 4 4h6v-16h-18v16z"></path>
<path d="M26 21.5c-1.378 0-2.5 1.122-2.5 2.5s1.122 2.5 2.5 2.5 2.5-1.122 2.5-2.5-1.122-2.5-2.5-2.5z"></path>
</svg>
