<svg width="16" height="16" viewBox="0 0 16 16" fill="none" xmlns="http://www.w3.org/2000/svg">
<path fill-rule="evenodd" clip-rule="evenodd" d="M9.50891 0C9.23216 0 9.00781 0.224584 9.00781 0.501623V12.5094C9.00781 12.7865 9.23216 13.0111 9.50891 13.0111H15.4989C15.7757 13.0111 16 12.7865 16 12.5094V0.501623C16 0.224584 15.7757 0 15.4989 0H9.50891ZM10.01 12.0078V1.00325H14.9978V12.0078H10.01Z" fill="black"/>
<path fill-rule="evenodd" clip-rule="evenodd" d="M0.501101 3.00595C0.224351 3.00595 0 3.23053 0 3.50757V15.4984C0 15.7754 0.224351 16 0.501101 16H6.51431C6.79106 16 7.01542 15.7754 7.01542 15.4984V3.50757C7.01542 3.23053 6.79106 3.00595 6.51431 3.00595H0.501101ZM1.0022 14.9968V4.00919H6.01321V14.9968H1.0022Z" fill="black"/>
</svg>
