<?xml version="1.0" encoding="utf-8"?>
<!-- Generator: Adobe Illustrator 17.0.1, SVG Export Plug-In . SVG Version: 6.00 Build 0)  -->
<!DOCTYPE svg PUBLIC "-//W3C//DTD SVG 1.1//EN" "http://www.w3.org/Graphics/SVG/1.1/DTD/svg11.dtd">
<svg version="1.1" id="Layer_1" xmlns="http://www.w3.org/2000/svg" xmlns:xlink="http://www.w3.org/1999/xlink" x="0px" y="0px"
	 width="1024px" height="1024px" viewBox="0 0 1024 1024" enable-background="new 0 0 1024 1024" xml:space="preserve">
<g>
	<path d="M279.99,770.66C340.27,820.53,422.67,848,512,848s171.73-27.47,232.01-77.34c32.88-27.2,58.55-60.19,76.3-98.05
		C838.69,633.43,848,590.16,848,544V64H688v480c0,106.29-94.81,144-176,144s-176-37.71-176-144V64H176v480
		c0,46.16,9.31,89.43,27.68,128.61C221.44,710.47,247.11,743.46,279.99,770.66z"/>
	<rect x="128" y="896" width="768" height="64"/>
</g>
</svg>
