<!-- Generated by IcoMoon.io -->
<svg version="1.1" xmlns="http://www.w3.org/2000/svg" width="32" height="32" viewBox="0 0 32 32">
<title>users</title>
<path d="M8 26l-8 2v4h24v-4l-8-2z"></path>
<path d="M29.5 5.5c0 3.038-2.462 5.5-5.5 5.5s-5.5-2.462-5.5-5.5c0-3.038 2.462-5.5 5.5-5.5s5.5 2.462 5.5 5.5z"></path>
<path d="M20.032 16c0 4.418-3.582 8-8 8s-8-3.582-8-8c0-4.418 3.582-8 8-8s8 3.582 8 8z"></path>
<path d="M27 13h-5.952c0.321 0.964 0.484 1.97 0.484 3 0 0.679-0.071 1.347-0.211 2h10.679v-3.333l-5-1.667z"></path>
</svg>
