<?xml version="1.0" encoding="utf-8"?>
<!-- Generator: Adobe Illustrator 17.0.1, SVG Export Plug-In . SVG Version: 6.00 Build 0)  -->
<!DOCTYPE svg PUBLIC "-//W3C//DTD SVG 1.1//EN" "http://www.w3.org/Graphics/SVG/1.1/DTD/svg11.dtd">
<svg version="1.1" id="Layer_1" xmlns="http://www.w3.org/2000/svg" xmlns:xlink="http://www.w3.org/1999/xlink" x="0px" y="0px"
	 width="1024px" height="1024px" viewBox="0 0 1024 1024" enable-background="new 0 0 1024 1024" xml:space="preserve">
<g>
	<polygon points="259.68,830.42 30.7,279.5 119.35,242.66 303.51,685.76 483.53,243 572.46,279.16 348.46,830.08 	"/>
</g>
<g>
	<path d="M754.68,844.8c-30.14,0-64.08-2.07-106.83-6.5l-41.25-4.28V256.58l36.68-7.59c18.86-3.9,56.97-10.45,100.31-10.45
		c54.09,0,98.88,10.16,133.11,30.19c34.29,20.07,75.17,60.28,75.17,137.88c0,52.53-17.69,88.02-38,111.45
		c24.22,14.06,43.01,33.21,55.85,56.93C983.18,599.82,990,629.74,990,663.9c0,84.17-42.87,126.89-78.82,147.91
		C873.2,834.01,822.01,844.8,754.68,844.8z M698.6,750.51c20.99,1.55,39.32,2.29,56.08,2.29c132.25,0,143.32-45.89,143.32-88.9
		c0-53.11-20.07-82.37-125.34-84.34c-16.25,1.58-33.62,2.32-54.36,2.32c-6.83,0-13.46-0.08-19.7-0.18V750.51z M698.6,333.26v155.48
		c3.65-0.1,7.36-0.21,11.13-0.32c16.23-0.48,33.02-0.97,50.19-0.97c2.92,0,5.81,0.01,8.61,0.04c75.73-8.53,91.35-38.53,91.35-80.88
		c0-36.45-15.84-50.4-29.64-58.47c-19.67-11.51-49.63-17.59-86.65-17.59C727.38,330.54,711.9,331.72,698.6,333.26z"/>
</g>
</svg>
