<!-- Generated by IcoMoon.io -->
<svg version="1.1" xmlns="http://www.w3.org/2000/svg" width="32" height="32" viewBox="0 0 32 32">
<title>vb</title>
<path d="M8.115 25.951l-7.156-17.216 2.77-1.151 5.755 13.847 5.626-13.836 2.779 1.13-7 17.216z"></path>
<path d="M23.584 26.4c-0.942 0-2.003-0.065-3.338-0.203l-1.289-0.134v-18.045l1.146-0.237c0.589-0.122 1.78-0.327 3.135-0.327 1.69 0 3.090 0.317 4.16 0.943 1.072 0.627 2.349 1.884 2.349 4.309 0 1.642-0.553 2.751-1.188 3.483 0.757 0.439 1.344 1.038 1.745 1.779 0.421 0.776 0.634 1.711 0.634 2.778 0 2.63-1.34 3.965-2.463 4.622-1.187 0.694-2.787 1.031-4.891 1.031zM21.831 23.453c0.656 0.048 1.229 0.072 1.753 0.072 4.133 0 4.479-1.434 4.479-2.778 0-1.66-0.627-2.574-3.917-2.636-0.508 0.049-1.051 0.073-1.699 0.073-0.213 0-0.421-0.003-0.616-0.006v5.275zM21.831 10.414v4.859c0.114-0.003 0.23-0.007 0.348-0.010 0.507-0.015 1.032-0.030 1.568-0.030 0.091 0 0.182 0 0.269 0.001 2.367-0.267 2.855-1.204 2.855-2.527 0-1.139-0.495-1.575-0.926-1.827-0.615-0.36-1.551-0.55-2.708-0.55-0.507-0-0.99 0.037-1.406 0.085z"></path>
</svg>
