<?xml version="1.0" encoding="utf-8"?>
<!-- Generator: Adobe Illustrator 17.0.1, SVG Export Plug-In . SVG Version: 6.00 Build 0)  -->
<!DOCTYPE svg PUBLIC "-//W3C//DTD SVG 1.1//EN" "http://www.w3.org/Graphics/SVG/1.1/DTD/svg11.dtd">
<svg version="1.1" id="Layer_1" xmlns="http://www.w3.org/2000/svg" xmlns:xlink="http://www.w3.org/1999/xlink" x="0px" y="0px"
	 width="1024px" height="1024px" viewBox="0 0 1024 1024" enable-background="new 0 0 1024 1024" xml:space="preserve">
<g>
	<path d="M693.02,330.98C643.03,280.99,577.52,256,512,256s-131.03,24.99-181.02,74.98c-99.97,99.97-99.97,262.06,0,362.04
		C380.97,743.01,446.48,768,512,768s131.03-24.99,181.02-74.98C792.99,593.04,792.99,430.96,693.02,330.98z M512,557.25
		l-33.94-33.94l0,0L353.61,398.86l45.25-45.25L512,466.75l67.88-67.88l45.25,45.25L512,557.25z"/>
	<path d="M812.93,620.93c-1.39,3.84-2.83,7.66-4.37,11.45c-16.11,39.74-39.76,75.36-70.29,105.89
		c-30.53,30.53-66.15,54.18-105.89,70.29c-3.79,1.54-7.62,2.98-11.45,4.37L832,1024l192-192L812.93,620.93z"/>
	<path d="M391.62,215.44c3.79-1.54,7.62-2.98,11.45-4.37L192,0L0,192l211.07,211.07c1.39-3.84,2.83-7.66,4.37-11.45
		c16.11-39.74,39.76-75.36,70.29-105.89C316.25,255.2,351.88,231.55,391.62,215.44z"/>
</g>
</svg>
