<!-- Generated by IcoMoon.io -->
<svg version="1.1" xmlns="http://www.w3.org/2000/svg" width="32" height="32" viewBox="0 0 32 32">
<title>watch</title>
<path d="M21.657 10.343c-1.562-1.562-3.609-2.343-5.657-2.343s-4.095 0.781-5.657 2.343c-3.124 3.124-3.124 8.189 0 11.314 1.562 1.562 3.609 2.343 5.657 2.343s4.095-0.781 5.657-2.343c3.124-3.124 3.124-8.189 0-11.314zM16 17.414l-4.95-4.95 1.414-1.414 3.536 3.536 2.121-2.121 1.414 1.414-3.535 3.535z"></path>
<path d="M25.404 19.404c-0.043 0.12-0.088 0.239-0.137 0.358-0.503 1.242-1.242 2.355-2.197 3.309s-2.067 1.693-3.309 2.197c-0.118 0.048-0.238 0.093-0.358 0.137l6.596 6.596 6-6-6.596-6.596z"></path>
<path d="M12.238 6.732c0.118-0.048 0.238-0.093 0.358-0.137l-6.596-6.596-6 6 6.596 6.596c0.043-0.12 0.088-0.239 0.137-0.358 0.503-1.242 1.242-2.355 2.197-3.309s2.067-1.693 3.309-2.197z"></path>
</svg>
